<svg id="Layer_1" data-name="Layer 1" xmlns="http://www.w3.org/2000/svg" xmlns:xlink="http://www.w3.org/1999/xlink" viewBox="0 0 1017.06 3833.08" preserveAspectRatio="none"><defs><style>.cls-1,.cls-10,.cls-11,.cls-12,.cls-13,.cls-14,.cls-15,.cls-16,.cls-17,.cls-18,.cls-19,.cls-2,.cls-20,.cls-21,.cls-22,.cls-23,.cls-24,.cls-25,.cls-26,.cls-27,.cls-28,.cls-29,.cls-3,.cls-30,.cls-31,.cls-32,.cls-33,.cls-34,.cls-35,.cls-36,.cls-37,.cls-38,.cls-39,.cls-4,.cls-40,.cls-41,.cls-42,.cls-43,.cls-44,.cls-45,.cls-46,.cls-47,.cls-48,.cls-49,.cls-5,.cls-50,.cls-51,.cls-52,.cls-53,.cls-54,.cls-55,.cls-56,.cls-57,.cls-58,.cls-59,.cls-6,.cls-60,.cls-61,.cls-7,.cls-8,.cls-9{stroke:#fff;stroke-miterlimit:10;stroke-width:3px;}.cls-1{fill:url(#radial-gradient);}.cls-2{fill:url(#radial-gradient-2);}.cls-3{fill:url(#radial-gradient-3);}.cls-4{fill:url(#radial-gradient-4);}.cls-5{fill:url(#radial-gradient-5);}.cls-6{fill:url(#radial-gradient-6);}.cls-7{fill:url(#radial-gradient-7);}.cls-8{fill:url(#radial-gradient-8);}.cls-9{fill:url(#radial-gradient-9);}.cls-10{fill:url(#radial-gradient-10);}.cls-11{fill:url(#radial-gradient-11);}.cls-12{fill:url(#radial-gradient-12);}.cls-13{fill:url(#radial-gradient-13);}.cls-14{fill:url(#radial-gradient-14);}.cls-15{fill:url(#radial-gradient-15);}.cls-16{fill:url(#radial-gradient-16);}.cls-17{fill:url(#radial-gradient-17);}.cls-18{fill:url(#radial-gradient-18);}.cls-19{fill:url(#radial-gradient-19);}.cls-20{fill:url(#radial-gradient-20);}.cls-21{fill:url(#radial-gradient-21);}.cls-22{fill:url(#radial-gradient-22);}.cls-23{fill:url(#radial-gradient-23);}.cls-24{fill:url(#radial-gradient-24);}.cls-25{fill:url(#radial-gradient-25);}.cls-26{fill:url(#radial-gradient-26);}.cls-27{fill:url(#radial-gradient-27);}.cls-28{fill:url(#radial-gradient-28);}.cls-29{fill:url(#radial-gradient-29);}.cls-30{fill:url(#radial-gradient-30);}.cls-31{fill:url(#radial-gradient-31);}.cls-32{fill:url(#radial-gradient-32);}.cls-33{fill:url(#radial-gradient-33);}.cls-34{fill:url(#radial-gradient-34);}.cls-35{fill:url(#radial-gradient-35);}.cls-36{fill:url(#radial-gradient-36);}.cls-37{fill:url(#radial-gradient-37);}.cls-38{fill:url(#radial-gradient-38);}.cls-39{fill:url(#radial-gradient-39);}.cls-40{fill:url(#radial-gradient-40);}.cls-41{fill:url(#radial-gradient-41);}.cls-42{fill:url(#radial-gradient-42);}.cls-43{fill:url(#radial-gradient-43);}.cls-44{fill:url(#radial-gradient-44);}.cls-45{fill:url(#radial-gradient-45);}.cls-46{fill:url(#radial-gradient-46);}.cls-47{fill:url(#radial-gradient-47);}.cls-48{fill:url(#radial-gradient-48);}.cls-49{fill:url(#radial-gradient-49);}.cls-50{fill:url(#radial-gradient-50);}.cls-51{fill:url(#radial-gradient-51);}.cls-52{fill:url(#radial-gradient-52);}.cls-53{fill:url(#radial-gradient-53);}.cls-54{fill:url(#radial-gradient-54);}.cls-55{fill:url(#radial-gradient-55);}.cls-56{fill:url(#radial-gradient-56);}.cls-57{fill:url(#radial-gradient-57);}.cls-58{fill:url(#radial-gradient-58);}.cls-59{fill:url(#radial-gradient-59);}.cls-60{fill:url(#radial-gradient-60);}.cls-61{fill:url(#radial-gradient-61);}</style><radialGradient id="radial-gradient" cx="132.04" cy="7645.1" r="58.77" gradientUnits="userSpaceOnUse"><stop offset="0" stop-color="#cce0f4"/><stop offset="0.06" stop-color="#c3dcf2"/><stop offset="0.17" stop-color="#a9d2ee"/><stop offset="0.31" stop-color="#80c2e7"/><stop offset="0.46" stop-color="#47acde"/><stop offset="0.57" stop-color="#1e9cd7"/><stop offset="0.87" stop-color="#0075be"/><stop offset="0.99" stop-color="#005b97"/></radialGradient><radialGradient id="radial-gradient-2" cx="547.38" cy="7395.75" r="93.77" xlink:href="#radial-gradient"/><radialGradient id="radial-gradient-3" cx="800.62" cy="7338.16" r="56.04" xlink:href="#radial-gradient"/><radialGradient id="radial-gradient-4" cx="602.6" cy="7127.76" r="69.92" xlink:href="#radial-gradient"/><radialGradient id="radial-gradient-5" cx="184.65" cy="7121.93" r="73.99" xlink:href="#radial-gradient"/><radialGradient id="radial-gradient-6" cx="353.51" cy="7146.86" r="70.99" xlink:href="#radial-gradient"/><radialGradient id="radial-gradient-7" cx="160.2" cy="7385.38" r="62.72" xlink:href="#radial-gradient"/><radialGradient id="radial-gradient-8" cx="284.5" cy="7703.41" r="29.72" xlink:href="#radial-gradient"/><radialGradient id="radial-gradient-9" cx="485.52" cy="7606" r="33.47" xlink:href="#radial-gradient"/><radialGradient id="radial-gradient-10" cx="689.54" cy="7472.26" r="35.71" xlink:href="#radial-gradient"/><radialGradient id="radial-gradient-11" cx="669.54" cy="7233.96" r="52.6" xlink:href="#radial-gradient"/><radialGradient id="radial-gradient-12" cx="755.68" cy="6929.34" r="51.81" xlink:href="#radial-gradient"/><radialGradient id="radial-gradient-13" cx="440.52" cy="6941.36" r="61.93" xlink:href="#radial-gradient"/><radialGradient id="radial-gradient-14" cx="284.5" cy="6978.86" r="52.39" xlink:href="#radial-gradient"/><radialGradient id="radial-gradient-15" cx="192.78" cy="6877.65" r="47.76" xlink:href="#radial-gradient"/><radialGradient id="radial-gradient-16" cx="755.68" cy="7657.13" r="51.59" xlink:href="#radial-gradient"/><radialGradient id="radial-gradient-17" cx="540" cy="7962.94" r="68.13" xlink:href="#radial-gradient"/><radialGradient id="radial-gradient-18" cx="382.85" cy="7832.59" r="30.71" xlink:href="#radial-gradient"/><radialGradient id="radial-gradient-19" cx="602.6" cy="7717.03" r="45.62" xlink:href="#radial-gradient"/><radialGradient id="radial-gradient-20" cx="66.32" cy="7904.66" r="45.02" xlink:href="#radial-gradient"/><radialGradient id="radial-gradient-21" cx="41.73" cy="7473.17" r="53.46" xlink:href="#radial-gradient"/><radialGradient id="radial-gradient-22" cx="66.32" cy="7143.86" r="44.09" xlink:href="#radial-gradient"/><radialGradient id="radial-gradient-23" cx="103.88" cy="7031.48" r="39.87" xlink:href="#radial-gradient"/><radialGradient id="radial-gradient-24" cx="233.5" cy="7302.57" r="60.3" xlink:href="#radial-gradient"/><radialGradient id="radial-gradient-25" cx="514.87" cy="6808.35" r="51.49" xlink:href="#radial-gradient"/><radialGradient id="radial-gradient-26" cx="929.57" cy="7143.96" r="45.77" xlink:href="#radial-gradient"/><radialGradient id="radial-gradient-27" cx="905.56" cy="8108.45" r="72.46" xlink:href="#radial-gradient"/><radialGradient id="radial-gradient-28" cx="469.85" cy="8360.48" r="68.1" xlink:href="#radial-gradient"/><radialGradient id="radial-gradient-29" cx="626.57" cy="8246.47" r="40.07" xlink:href="#radial-gradient"/><radialGradient id="radial-gradient-30" cx="709.54" cy="8548" r="56.19" xlink:href="#radial-gradient"/><radialGradient id="radial-gradient-31" cx="845.56" cy="8406.98" r="61.02" xlink:href="#radial-gradient"/><radialGradient id="radial-gradient-32" cx="977.05" cy="7720.19" r="63.6" xlink:href="#radial-gradient"/><radialGradient id="radial-gradient-33" cx="905.56" cy="7464.82" r="56.44" xlink:href="#radial-gradient"/><radialGradient id="radial-gradient-34" cx="132.04" cy="9584.97" r="58.77" xlink:href="#radial-gradient"/><radialGradient id="radial-gradient-35" cx="775.63" cy="7904.66" r="87.8" xlink:href="#radial-gradient"/><radialGradient id="radial-gradient-36" cx="890.35" cy="8672.1" r="69.92" xlink:href="#radial-gradient"/><radialGradient id="radial-gradient-37" cx="184.65" cy="9061.8" r="73.99" xlink:href="#radial-gradient"/><radialGradient id="radial-gradient-38" cx="709.54" cy="9801.02" r="70.99" xlink:href="#radial-gradient"/><radialGradient id="radial-gradient-39" cx="284.5" cy="9643.28" r="29.72" xlink:href="#radial-gradient"/><radialGradient id="radial-gradient-40" cx="755.68" cy="8869.21" r="51.81" xlink:href="#radial-gradient"/><radialGradient id="radial-gradient-41" cx="425.55" cy="8548" r="61.93" xlink:href="#radial-gradient"/><radialGradient id="radial-gradient-42" cx="424.57" cy="8884.1" r="52.39" xlink:href="#radial-gradient"/><radialGradient id="radial-gradient-43" cx="103.88" cy="8383.95" r="58.89" xlink:href="#radial-gradient"/><radialGradient id="radial-gradient-44" cx="301.84" cy="8267.46" r="47.76" xlink:href="#radial-gradient"/><radialGradient id="radial-gradient-45" cx="755.68" cy="9597" r="51.59" xlink:href="#radial-gradient"/><radialGradient id="radial-gradient-46" cx="540" cy="9902.81" r="68.13" xlink:href="#radial-gradient"/><radialGradient id="radial-gradient-47" cx="382.85" cy="9772.45" r="30.71" xlink:href="#radial-gradient"/><radialGradient id="radial-gradient-48" cx="602.6" cy="9656.89" r="45.62" xlink:href="#radial-gradient"/><radialGradient id="radial-gradient-49" cx="66.32" cy="9844.53" r="45.02" xlink:href="#radial-gradient"/><radialGradient id="radial-gradient-50" cx="66.32" cy="9083.73" r="44.09" xlink:href="#radial-gradient"/><radialGradient id="radial-gradient-51" cx="170.68" cy="8676.32" r="39.87" xlink:href="#radial-gradient"/><radialGradient id="radial-gradient-52" cx="233.5" cy="9242.44" r="60.3" xlink:href="#radial-gradient"/><radialGradient id="radial-gradient-53" cx="647.89" cy="8785.55" r="51.49" xlink:href="#radial-gradient"/><radialGradient id="radial-gradient-54" cx="929.57" cy="9083.83" r="45.77" xlink:href="#radial-gradient"/><radialGradient id="radial-gradient-55" cx="905.56" cy="10048.32" r="72.46" xlink:href="#radial-gradient"/><radialGradient id="radial-gradient-56" cx="469.85" cy="10300.35" r="68.1" xlink:href="#radial-gradient"/><radialGradient id="radial-gradient-57" cx="626.57" cy="10186.34" r="40.07" xlink:href="#radial-gradient"/><radialGradient id="radial-gradient-58" cx="709.54" cy="10487.87" r="56.19" xlink:href="#radial-gradient"/><radialGradient id="radial-gradient-59" cx="192.78" cy="10320.61" r="98.7" xlink:href="#radial-gradient"/><radialGradient id="radial-gradient-60" cx="845.56" cy="10346.85" r="61.02" xlink:href="#radial-gradient"/><radialGradient id="radial-gradient-61" cx="977.05" cy="9660.06" r="63.6" xlink:href="#radial-gradient"/></defs><title>reset-rain</title><path class="cls-1" d="M149.49,7566.9s-84,82.37-24,144.7S149.49,7566.9,149.49,7566.9Z" transform="translate(-11 -6734.29)"/><path class="cls-2" d="M497.52,7272.87s21,309,84,234S497.52,7272.87,497.52,7272.87Z" transform="translate(-11 -6734.29)"/><path class="cls-3" d="M845.56,7272.87s-117,0-84,102S845.56,7272.87,845.56,7272.87Z" transform="translate(-11 -6734.29)"/><path class="cls-4" d="M617.54,7035.85s-100.62,168-20.31,183S617.54,7035.85,617.54,7035.85Z" transform="translate(-11 -6734.29)"/><path class="cls-5" d="M206.49,7023.85s-108,205.64-30,195.83S206.49,7023.85,206.49,7023.85Z" transform="translate(-11 -6734.29)"/><path class="cls-6" d="M353.51,7050.85s-66,192,0,192S353.51,7050.85,353.51,7050.85Z" transform="translate(-11 -6734.29)"/><path class="cls-7" d="M160.2,7302.87s-73.3,165,0,165S160.2,7302.87,160.2,7302.87Z" transform="translate(-11 -6734.29)"/><path class="cls-8" d="M284.5,7668.91s-54,69,0,69S284.5,7668.91,284.5,7668.91Z" transform="translate(-11 -6734.29)"/><path class="cls-9" d="M485.52,7566.9s-60,78.39,0,78.2S485.52,7566.9,485.52,7566.9Z" transform="translate(-11 -6734.29)"/><path class="cls-10" d="M689.54,7425.89s-45,92.48,0,92.75S689.54,7425.89,689.54,7425.89Z" transform="translate(-11 -6734.29)"/><path class="cls-11" d="M669.54,7164.86s-62,132,0,138S669.54,7164.86,669.54,7164.86Z" transform="translate(-11 -6734.29)"/><path class="cls-12" d="M755.68,6858.83s-44.87,141,0,141S755.68,6858.83,755.68,6858.83Z" transform="translate(-11 -6734.29)"/><path class="cls-13" d="M440.52,6858.83s-66,168,0,165S440.52,6858.83,440.52,6858.83Z" transform="translate(-11 -6734.29)"/><path class="cls-14" d="M284.5,6906.83s-39,141,0,144S284.5,6906.83,284.5,6906.83Z" transform="translate(-11 -6734.29)"/><path class="cls-15" d="M192.78,6813.83s-49.72,123.05,0,127.53S192.78,6813.83,192.78,6813.83Z" transform="translate(-11 -6734.29)"/><path class="cls-16" d="M755.68,7590.9s-68.87,135.77,0,132.39S755.68,7590.9,755.68,7590.9Z" transform="translate(-11 -6734.29)"/><path class="cls-17" d="M540,7869.93s-56.53,186,0,186S540,7869.93,540,7869.93Z" transform="translate(-11 -6734.29)"/><path class="cls-18" d="M382.85,7794.92s-48.67,81,0,75S382.85,7794.92,382.85,7794.92Z" transform="translate(-11 -6734.29)"/><path class="cls-19" d="M602.6,7657.13s-53.94,119.79,0,119.79S602.6,7657.13,602.6,7657.13Z" transform="translate(-11 -6734.29)"/><path class="cls-20" d="M76.94,7845.93s-68.46,126-14.46,117S76.94,7845.93,76.94,7845.93Z" transform="translate(-11 -6734.29)"/><path class="cls-21" d="M41.73,7403.44s-65.76,139.45,0,139.45S41.73,7403.44,41.73,7403.44Z" transform="translate(-11 -6734.29)"/><path class="cls-22" d="M66.32,7083.85s-38.17,120,0,120S66.32,7083.85,66.32,7083.85Z" transform="translate(-11 -6734.29)"/><path class="cls-23" d="M103.88,6978.86s-45.61,99,0,105S103.88,6978.86,103.88,6978.86Z" transform="translate(-11 -6734.29)"/><path class="cls-24" d="M233.5,7219.68s-45,161.2,0,165.71S233.5,7219.68,233.5,7219.68Z" transform="translate(-11 -6734.29)"/><path class="cls-25" d="M514.87,6738.82s-48.66,145.65,0,138.83S514.87,6738.82,514.87,6738.82Z" transform="translate(-11 -6734.29)"/><path class="cls-26" d="M929.57,7083.85s-54,126,0,120S929.57,7083.85,929.57,7083.85Z" transform="translate(-11 -6734.29)"/><path class="cls-27" d="M905.56,8007.94s-45,201,0,201S905.56,8007.94,905.56,8007.94Z" transform="translate(-11 -6734.29)"/><path class="cls-28" d="M469.85,8275s-99.68,171,0,171S469.85,8275,469.85,8275Z" transform="translate(-11 -6734.29)"/><path class="cls-29" d="M626.57,8194s-48,105,0,105S626.57,8194,626.57,8194Z" transform="translate(-11 -6734.29)"/><path class="cls-30" d="M709.54,8470s-34,156,0,156S709.54,8470,709.54,8470Z" transform="translate(-11 -6734.29)"/><path class="cls-31" d="M845.56,8332s-96,150,0,150S845.56,8332,845.56,8332Z" transform="translate(-11 -6734.29)"/><path class="cls-32" d="M1025.58,7645.1s-159,140.83-72,149.83S1025.58,7645.1,1025.58,7645.1Z" transform="translate(-11 -6734.29)"/><path class="cls-33" d="M905.56,7395.75s-90,138.15,0,138.15S905.56,7395.75,905.56,7395.75Z" transform="translate(-11 -6734.29)"/><path class="cls-34" d="M149.49,9506.77s-84,82.37-24,144.7S149.49,9506.77,149.49,9506.77Z" transform="translate(-11 -6734.29)"/><path class="cls-35" d="M738.29,7786.25s39,342,69,204S738.29,7786.25,738.29,7786.25Z" transform="translate(-11 -6734.29)"/><path class="cls-36" d="M905.29,8580.18s-100.62,168-20.31,183S905.29,8580.18,905.29,8580.18Z" transform="translate(-11 -6734.29)"/><path class="cls-37" d="M206.49,8963.72s-108,205.64-30,195.83S206.49,8963.72,206.49,8963.72Z" transform="translate(-11 -6734.29)"/><path class="cls-38" d="M709.54,9705s-66,192,0,192S709.54,9705,709.54,9705Z" transform="translate(-11 -6734.29)"/><path class="cls-39" d="M284.5,9608.78s-54,69,0,69S284.5,9608.78,284.5,9608.78Z" transform="translate(-11 -6734.29)"/><path class="cls-40" d="M755.68,8798.7s-44.87,141,0,141S755.68,8798.7,755.68,8798.7Z" transform="translate(-11 -6734.29)"/><path class="cls-41" d="M425.55,8465.47s-66,168,0,165S425.55,8465.47,425.55,8465.47Z" transform="translate(-11 -6734.29)"/><path class="cls-42" d="M424.57,8812.07s-39,141,0,144S424.57,8812.07,424.57,8812.07Z" transform="translate(-11 -6734.29)"/><path class="cls-43" d="M103.88,8305.15s-60.61,153,0,157.52S103.88,8305.15,103.88,8305.15Z" transform="translate(-11 -6734.29)"/><path class="cls-44" d="M301.84,8203.64s-49.72,123.05,0,127.53S301.84,8203.64,301.84,8203.64Z" transform="translate(-11 -6734.29)"/><path class="cls-45" d="M755.68,9530.77s-68.87,135.77,0,132.39S755.68,9530.77,755.68,9530.77Z" transform="translate(-11 -6734.29)"/><path class="cls-46" d="M540,9809.8s-56.53,186,0,186S540,9809.8,540,9809.8Z" transform="translate(-11 -6734.29)"/><path class="cls-47" d="M382.85,9734.79s-48.67,81,0,75S382.85,9734.79,382.85,9734.79Z" transform="translate(-11 -6734.29)"/><path class="cls-48" d="M602.6,9597s-53.94,119.79,0,119.79S602.6,9597,602.6,9597Z" transform="translate(-11 -6734.29)"/><path class="cls-49" d="M76.94,9785.8s-68.46,126-14.46,117S76.94,9785.8,76.94,9785.8Z" transform="translate(-11 -6734.29)"/><path class="cls-50" d="M66.32,9023.72s-38.17,120,0,120S66.32,9023.72,66.32,9023.72Z" transform="translate(-11 -6734.29)"/><path class="cls-51" d="M170.68,8623.71s-45.61,99,0,105S170.68,8623.71,170.68,8623.71Z" transform="translate(-11 -6734.29)"/><path class="cls-52" d="M233.5,9159.55s-45,161.2,0,165.71S233.5,9159.55,233.5,9159.55Z" transform="translate(-11 -6734.29)"/><path class="cls-53" d="M647.89,8716s-48.66,145.65,0,138.83S647.89,8716,647.89,8716Z" transform="translate(-11 -6734.29)"/><path class="cls-54" d="M929.57,9023.72s-54,126,0,120S929.57,9023.72,929.57,9023.72Z" transform="translate(-11 -6734.29)"/><path class="cls-55" d="M905.56,9947.81s-45,201,0,201S905.56,9947.81,905.56,9947.81Z" transform="translate(-11 -6734.29)"/><path class="cls-56" d="M469.85,10214.84s-99.68,171,0,171S469.85,10214.84,469.85,10214.84Z" transform="translate(-11 -6734.29)"/><path class="cls-57" d="M626.57,10133.83s-48,105,0,105S626.57,10133.83,626.57,10133.83Z" transform="translate(-11 -6734.29)"/><path class="cls-58" d="M709.54,10409.86s-34,156,0,156S709.54,10409.86,709.54,10409.86Z" transform="translate(-11 -6734.29)"/><path class="cls-59" d="M192.78,10186.34s-85.72,271.53,0,268.53S192.78,10186.34,192.78,10186.34Z" transform="translate(-11 -6734.29)"/><path class="cls-60" d="M845.56,10271.85s-96,150,0,150S845.56,10271.85,845.56,10271.85Z" transform="translate(-11 -6734.29)"/><path class="cls-61" d="M1025.58,9585s-159,140.83-72,149.83S1025.58,9585,1025.58,9585Z" transform="translate(-11 -6734.29)"/></svg>