<svg xmlns="http://www.w3.org/2000/svg" viewBox="0 0 291.46 222.26"><title>twister-coach</title><g id="Layer_2" data-name="Layer 2"><g id="Layer_1-2" data-name="Layer 1"><path d="M195.22,191.69a12.61,12.61,0,1,1,12.62-12.61A12.63,12.63,0,0,1,195.22,191.69Zm0-18.23a5.61,5.61,0,1,0,5.62,5.61A5.62,5.62,0,0,0,195.22,173.47Z"/><path d="M157.32,130.48A8.16,8.16,0,0,1,142,127.07a94.43,94.43,0,0,0-22-.13,8.16,8.16,0,0,1-15.44,3.24c-15.86,5.08-26.36,14.76-26.36,26.11,0,16.78,23,29.93,52.26,29.93s52.26-13.15,52.26-29.93C182.77,145.16,172.67,135.64,157.32,130.48Zm-26.81,48.75c-24.53,0-45.26-10.5-45.26-22.93s20.73-22.93,45.26-22.93,45.26,10.5,45.26,22.93S155,179.23,130.51,179.23Z"/><path d="M291.46,0l-109,63.21c-3.91-.43-8.05-.67-12.39-.74-26.84-.4-46.39,1.22-60.79,5.07L25.46,21.33,0,99.28l69.13,11.58a114,114,0,0,0-1,14.51c0,2.84-1.92,8.61-3.57,13.7-2.37,7.28-5.05,15.53-5.58,23.56-1,14.89,5.93,23,11.9,27.1,25.59,17.75,47.52,30.37,96.86,31.1,12.24.18,22.81.54,32.13.85,7,.24,13.31.45,19,.53,21,.31,33.13-1.12,41.93-9.5s10-20.36,10.21-32.2c.09-6.16.31-20.6-24.84-46.54-4.5-4.65-6.54-11.59-8.68-19.66l41.93-2.75ZM21,86.57,34.67,44.67,122.38,93l-.16,10.5Zm216.14,56.1c21.54,22.23,21.38,33.06,21.31,37.66-.55,36.83-15.05,29.13-90.55,28-45.51-.68-65.32-11.82-89.92-28.88-16.2-11.24,2.41-39.27,2.63-53.9.12-8.22.89-15.33,2.83-21.43l45.68,7.65.34-22.85-16.91-9.32c13.22-3.55,31.68-5,57.35-4.64,3.36.05,6.48.22,9.4.48L157.46,88.11l-.34,22.44,33.43-2.19c-11.59,5.06-21.14,10.08-26.41,13A15.14,15.14,0,0,0,136.3,120a13.4,13.4,0,0,0-6.82-2,10.1,10.1,0,0,0-4.47.91,15.17,15.17,0,1,0,1.8,7.79c.06-.43.42-1.73,2.57-1.7a8,8,0,0,1,5.44,2.8,15.16,15.16,0,0,0,30.1,1.19,327.32,327.32,0,0,1,43.64-20.24q2.63-1,5.17-1.83l8.46-.55C226.28,119,227.71,133,237.12,142.67Zm-79-15.93a8.22,8.22,0,1,1-8.12-8.22h0a8.13,8.13,0,0,1,8.09,8.19v0Zm-38.31-.6a8.17,8.17,0,1,1-8.32-8.28h.28l.55,0A8.16,8.16,0,0,1,119.82,126.14ZM265.16,94c-14.86-4.05-34.53-.19-52.86,5.95l-48.07,3.15.16-10.9L272.14,29.7Z"/></g></g></svg>