<svg id="Layer_1" preserveAspectRatio="none" data-name="Layer 1" xmlns="http://www.w3.org/2000/svg" xmlns:xlink="http://www.w3.org/1999/xlink" viewBox="0 0 1080 1920"><defs><style>.cls-1{fill:none;}.cls-2{clip-path:url(#clip-path);}.cls-3{fill:#fff;stroke:#000;stroke-miterlimit:10;stroke-width:12.58px;}</style><clipPath id="clip-path"><rect class="cls-1" y="960" width="1080" height="960"/></clipPath></defs><title>loud-background-white</title><g class="cls-2"><rect class="cls-3" x="-45" y="965.25" width="1148" height="986.75"/><ellipse class="cls-3" cx="76" cy="1066.94" rx="161" ry="55.47"/><ellipse class="cls-3" cx="487.45" cy="1066.94" rx="161" ry="55.47"/><ellipse class="cls-3" cx="892.88" cy="1066.94" rx="161" ry="55.47"/><ellipse class="cls-3" cx="278.72" cy="1244.56" rx="161" ry="55.47"/><ellipse class="cls-3" cx="690.17" cy="1244.56" rx="161" ry="55.47"/><ellipse class="cls-3" cx="1095.6" cy="1244.56" rx="161" ry="55.47"/><ellipse class="cls-3" cx="-126.73" cy="1244.56" rx="161" ry="55.47"/><ellipse class="cls-3" cx="60.23" cy="1422.19" rx="161" ry="55.47"/><ellipse class="cls-3" cx="471.68" cy="1422.19" rx="161" ry="55.47"/><ellipse class="cls-3" cx="877.12" cy="1422.19" rx="161" ry="55.47"/><ellipse class="cls-3" cx="262.95" cy="1599.81" rx="161" ry="55.47"/><ellipse class="cls-3" cx="674.4" cy="1599.81" rx="161" ry="55.47"/><ellipse class="cls-3" cx="1079.83" cy="1599.81" rx="161" ry="55.47"/><ellipse class="cls-3" cx="-142.5" cy="1599.81" rx="161" ry="55.47"/><ellipse class="cls-3" cx="51.53" cy="1777.44" rx="161" ry="55.47"/><ellipse class="cls-3" cx="462.98" cy="1777.44" rx="161" ry="55.47"/><ellipse class="cls-3" cx="868.41" cy="1777.44" rx="161" ry="55.47"/><ellipse class="cls-3" cx="254.25" cy="1955.06" rx="161" ry="55.47"/><ellipse class="cls-3" cx="665.7" cy="1955.06" rx="161" ry="55.47"/><ellipse class="cls-3" cx="1071.13" cy="1955.06" rx="161" ry="55.47"/><ellipse class="cls-3" cx="-151.2" cy="1955.06" rx="161" ry="55.47"/></g></svg>
