<svg id="Layer_1" preserveAspectRatio="none" data-name="Layer 1" xmlns="http://www.w3.org/2000/svg" viewBox="0 0 4320 960"><defs><style>.cls-1,.cls-2,.cls-5,.cls-8{fill:#ffc5e4;}.cls-1,.cls-10,.cls-11,.cls-12,.cls-13,.cls-15,.cls-16,.cls-2,.cls-3,.cls-4,.cls-5,.cls-6,.cls-7,.cls-8,.cls-9{stroke:#000;stroke-miterlimit:10;}.cls-1,.cls-13,.cls-3{stroke-width:7px;}.cls-2,.cls-4,.cls-6{stroke-width:6.57px;}.cls-3,.cls-4{fill:#ceff0c;}.cls-5{stroke-width:6.04px;}.cls-6{fill:#005f69;}.cls-7{fill:#08ffd9;}.cls-10,.cls-11,.cls-12,.cls-15,.cls-16,.cls-7,.cls-8,.cls-9{stroke-width:7.18px;}.cls-9{fill:#22b573;}.cls-10{fill:#ecffaf;}.cls-11,.cls-14{fill:none;}.cls-12{fill:#f15a24;}.cls-13{fill:#fbc7ff;}.cls-15{fill:#fb3100;}.cls-16{fill:#a214ff;}</style></defs><title>loud-coach-color</title><path class="cls-1" d="M3506.35,579.17s-64.85,49.9-161.34-14.24L3360,538.72s33,15,70.21,17.91,87.63-18.91,87.63-18.91Z"/><ellipse class="cls-2" cx="3334.9" cy="541.28" rx="24.81" ry="33.17" transform="translate(1925.07 3611.61) rotate(-74.56)"/><path class="cls-3" d="M3531,649.12l-33.51,89.36,112.73,22,7.15-29.95s-25.11,7.8-40.7-9.21-8-82.95-8-82.95Z"/><path class="cls-4" d="M3766.27,607.07s111.36,20.32,122.28,88.34-44.81,93.92-44.81,93.92l-24.43-10.64,6.92-71.81-92-84.21Z"/><path class="cls-5" d="M3732.49,449.84l125,15.81,39.22-76.9,38.33,6.92s9.42,91.86-18.1,107.55-174,16.84-174,16.84Z"/><path class="cls-5" d="M3936.87,397.73c-10.13,7.09-26.76,4-37.15-6.83s-10.6-25.43-.47-32.52,26.76-4,37.15,6.83S3947,390.63,3936.87,397.73Z"/><ellipse class="cls-6" cx="3605.39" cy="762.39" rx="34.4" ry="16.34" transform="translate(1219.03 3570.48) rotate(-61.58)"/><ellipse class="cls-6" cx="3841.1" cy="790.78" rx="16.34" ry="34.4" transform="translate(1715.12 4086.16) rotate(-68.81)"/><polygon class="cls-7" points="3486.16 481.21 3452.35 679.38 3918.2 623.5 3781.44 434.25 3486.16 481.21"/><path class="cls-8" d="M3466.44,596.75s57.81-63.89,57.81-115.55c0-2.15-.19-6-.19-6l-37.9,6Z"/><path class="cls-8" d="M3855.46,536.68s-82.87-35.18-106.75-81c-1-1.91-7.12-15.11-7.12-15.11l39.85-6.34Z"/><path class="cls-9" d="M3430.33,347.52c0,30.15-42.55,88.49-4.26,111.15,58.12,34.39,7.12,90.27,113.58,90.27,176.6,0,213-9.67,213-85.58,0-9.49,95.56-40.25,44.4-85.4s-5.1-137.45-159.63-137.45C3460.77,240.51,3430.33,271.61,3430.33,347.52Z"/><circle class="cls-10" cx="3491.95" cy="347.52" r="24.05"/><circle class="cls-10" cx="3570.84" cy="347.52" r="24.05"/><path class="cls-11" d="M3516,347.52s1.15-10,12.42-10,18.37,10,18.37,10"/><path class="cls-11" d="M3594.9,347.52s198.38-109.57,260.37-58.85"/><ellipse class="cls-12" cx="3530.3" cy="408.89" rx="100.49" ry="54.47"/><path class="cls-11" d="M3501.71,276.19s75.55-97.62,139.42-37.19"/><path class="cls-11" d="M3501.71,253.65s75.55-97.62,139.42-37.19"/><polygon class="cls-13" points="3522.5 274.87 3327.62 171.79 3296.2 274.87 3522.5 309.24 3522.5 274.87"/><rect class="cls-14" x="3240" y="55" width="1080" height="850"/><path class="cls-15" d="M3685.27,483.31c0,6.35-39.23,27.36-49.6,27.36s-18.79-5.15-18.79-11.5,8.41-11.5,18.79-11.5S3685.27,477,3685.27,483.31Z"/><polygon class="cls-13" points="3576.56 278.85 3766.24 80.96 3793.76 237.25 3585.53 312.02 3576.56 278.85"/><path class="cls-1" d="M2424.5,562.45s-49.22,65.37-159.31,29.24l7.43-29.24s35.78,5.72,72.45-1.44,79.43-41.56,79.43-41.56Z"/><ellipse class="cls-2" cx="2249.15" cy="571.6" rx="33.17" ry="24.81"/><path class="cls-3" d="M2472.28,644.68l-56.77,76.72,102.35,52.12,15.1-26.83s-26.28.6-36.6-20,15.05-82,15.05-82Z"/><path class="cls-4" d="M2689.23,609.76s104.71,43,101.27,111.81-63.34,82.57-63.34,82.57l-21.68-15.48,21.68-68.8-72.55-101.49Z"/><path class="cls-5" d="M2661.1,483.88l123.45-25.1,12.49-85.41,38.52-5.73s38.38,84,17.34,107.67S2693.53,547,2693.53,547Z"/><path class="cls-5" d="M2838,369c-7.32,10-24.06,12.4-37.38,5.44s-18.19-20.69-10.88-30.65,24.05-12.4,37.38-5.44S2845.3,359,2838,369Z"/><ellipse class="cls-6" cx="2512.7" cy="774.03" rx="34.4" ry="16.34" transform="translate(202.43 2029.2) rotate(-45.64)"/><ellipse class="cls-6" cx="2724.28" cy="805" rx="16.34" ry="34.4" transform="translate(559.61 2644.55) rotate(-56.82)"/><polygon class="cls-7" points="2406.16 481.21 2372.35 679.38 2838.2 623.5 2701.44 434.25 2406.16 481.21"/><path class="cls-8" d="M2386.44,596.75s57.81-63.89,57.81-115.55c0-2.15-.19-6-.19-6l-37.9,6Z"/><path class="cls-8" d="M2775.46,536.68s-82.87-35.18-106.75-81c-1-1.91-7.12-15.11-7.12-15.11l39.85-6.34Z"/><path class="cls-9" d="M2350.33,347.52c0,30.15-42.55,88.49-4.26,111.15,58.12,34.39,7.12,90.27,113.58,90.27,176.6,0,213-9.67,213-85.58,0-9.49,95.56-40.25,44.4-85.4s-5.1-137.45-159.63-137.45C2380.77,240.51,2350.33,271.61,2350.33,347.52Z"/><circle class="cls-16" cx="2411.95" cy="347.52" r="24.05"/><circle class="cls-16" cx="2490.84" cy="347.52" r="24.05"/><path class="cls-11" d="M2436,347.52s1.15-10,12.42-10,18.37,10,18.37,10"/><path class="cls-11" d="M2514.9,347.52s198.38-109.57,260.37-58.85"/><ellipse class="cls-12" cx="2450.3" cy="408.89" rx="100.49" ry="54.47"/><path class="cls-11" d="M2421.71,276.19s75.55-97.62,139.42-37.19"/><path class="cls-11" d="M2421.71,253.65s75.55-97.62,139.42-37.19"/><polygon class="cls-13" points="2442.5 274.87 2247.62 171.79 2216.2 274.87 2442.5 309.24 2442.5 274.87"/><polygon class="cls-13" points="2496.56 278.85 2686.24 80.96 2713.76 237.25 2505.53 312.02 2496.56 278.85"/><rect class="cls-14" x="2160" y="55" width="1080" height="850"/><path class="cls-15" d="M2605.27,483.31c0,6.35-39.23,27.36-49.6,27.36s-18.79-5.15-18.79-11.5,8.41-11.5,18.79-11.5S2605.27,477,2605.27,483.31Z"/><path class="cls-1" d="M1346.35,579.17s-64.85,49.9-161.34-14.24L1200,538.72s33,15,70.21,17.91,87.63-18.91,87.63-18.91Z"/><ellipse class="cls-2" cx="1174.9" cy="541.28" rx="24.81" ry="33.17" transform="translate(340.28 1529.61) rotate(-74.56)"/><path class="cls-3" d="M1371,649.12l-33.51,89.36,112.73,22,7.15-29.95s-25.11,7.8-40.7-9.21-8-82.95-8-82.95Z"/><path class="cls-4" d="M1606.27,607.07s111.36,20.32,122.28,88.34-44.81,93.92-44.81,93.92l-24.43-10.64,6.92-71.81-92-84.21Z"/><path class="cls-5" d="M1572.49,449.84l125,15.81,39.22-76.9,38.33,6.92s9.42,91.86-18.1,107.55-174,16.84-174,16.84Z"/><path class="cls-5" d="M1776.87,397.73c-10.13,7.09-26.76,4-37.15-6.83s-10.6-25.43-.47-32.52,26.76-4,37.15,6.83S1787,390.63,1776.87,397.73Z"/><ellipse class="cls-6" cx="1445.39" cy="762.39" rx="34.4" ry="16.34" transform="translate(87 1670.77) rotate(-61.58)"/><ellipse class="cls-6" cx="1681.1" cy="790.78" rx="16.34" ry="34.4" transform="translate(336.04 2072.27) rotate(-68.81)"/><polygon class="cls-7" points="1326.16 481.21 1292.35 679.38 1758.2 623.5 1621.44 434.25 1326.16 481.21"/><path class="cls-8" d="M1306.44,596.75s57.81-63.89,57.81-115.55c0-2.15-.19-6-.19-6l-37.9,6Z"/><path class="cls-8" d="M1695.46,536.68s-82.87-35.18-106.75-81c-1-1.91-7.12-15.11-7.12-15.11l39.85-6.34Z"/><path class="cls-9" d="M1270.33,347.52c0,30.15-42.55,88.49-4.26,111.15,58.12,34.39,7.12,90.27,113.58,90.27,176.6,0,213-9.67,213-85.58,0-9.49,95.56-40.25,44.4-85.4s-5.1-137.45-159.63-137.45C1300.77,240.51,1270.33,271.61,1270.33,347.52Z"/><circle class="cls-10" cx="1331.95" cy="347.52" r="24.05"/><circle class="cls-10" cx="1410.84" cy="347.52" r="24.05"/><path class="cls-11" d="M1356,347.52s1.15-10,12.42-10,18.37,10,18.37,10"/><path class="cls-11" d="M1434.9,347.52s198.38-109.57,260.37-58.85"/><ellipse class="cls-12" cx="1370.3" cy="408.89" rx="100.49" ry="54.47"/><path class="cls-11" d="M1341.71,276.19s75.55-97.62,139.42-37.19"/><path class="cls-11" d="M1341.71,253.65s75.55-97.62,139.42-37.19"/><polygon class="cls-13" points="1362.5 274.87 1167.62 171.79 1136.2 274.87 1362.5 309.24 1362.5 274.87"/><polygon class="cls-13" points="1434.5 272.06 1669.27 130.56 1655.02 288.62 1434.5 306.42 1434.5 272.06"/><rect class="cls-14" x="1080" y="55" width="1080" height="850"/><path class="cls-15" d="M1525.27,483.31c0,6.35-39.23,27.36-49.6,27.36s-18.79-5.15-18.79-11.5,8.41-11.5,18.79-11.5S1525.27,477,1525.27,483.31Z"/><path class="cls-1" d="M264.5,562.45s-49.22,65.37-159.31,29.24l7.43-29.24s35.78,5.72,72.45-1.44,79.43-41.56,79.43-41.56Z"/><ellipse class="cls-2" cx="89.15" cy="571.6" rx="33.17" ry="24.81"/><path class="cls-3" d="M312.28,644.68,255.51,721.4l102.35,52.12L373,746.68s-26.28.6-36.6-20,15.05-82,15.05-82Z"/><path class="cls-4" d="M529.23,609.76s104.71,43,101.27,111.81-63.34,82.57-63.34,82.57l-21.68-15.48,21.68-68.8L494.61,618.36Z"/><path class="cls-5" d="M501.1,483.88l123.45-25.1,12.49-85.41,38.52-5.73s38.38,84,17.34,107.67S533.53,547,533.53,547Z"/><path class="cls-5" d="M678,369c-7.32,10-24.06,12.4-37.38,5.44s-18.19-20.69-10.88-30.65,24.05-12.4,37.38-5.44S685.3,359,678,369Z"/><ellipse class="cls-6" cx="352.7" cy="774.03" rx="34.4" ry="16.34" transform="translate(-447.28 484.98) rotate(-45.64)"/><ellipse class="cls-6" cx="564.28" cy="805" rx="16.34" ry="34.4" transform="translate(-418.28 836.72) rotate(-56.82)"/><polygon class="cls-7" points="246.16 481.21 212.35 679.38 678.2 623.5 541.44 434.25 246.16 481.21"/><path class="cls-8" d="M226.44,596.75s57.81-63.89,57.81-115.55c0-2.15-.19-6-.19-6l-37.9,6Z"/><path class="cls-8" d="M615.46,536.68s-82.87-35.18-106.75-81c-1-1.91-7.12-15.11-7.12-15.11l39.85-6.34Z"/><path class="cls-9" d="M190.33,347.52c0,30.15-42.55,88.49-4.26,111.15,58.12,34.39,7.12,90.27,113.58,90.27,176.6,0,213-9.67,213-85.58,0-9.49,95.56-40.25,44.4-85.4s-5.1-137.45-159.63-137.45C220.77,240.51,190.33,271.61,190.33,347.52Z"/><circle class="cls-16" cx="251.95" cy="347.52" r="24.05"/><circle class="cls-16" cx="330.84" cy="347.52" r="24.05"/><path class="cls-11" d="M276,347.52s1.15-10,12.42-10,18.37,10,18.37,10"/><path class="cls-11" d="M354.9,347.52s198.38-109.57,260.37-58.85"/><ellipse class="cls-12" cx="290.3" cy="408.89" rx="100.49" ry="54.47"/><path class="cls-11" d="M261.71,276.19S337.26,178.57,401.13,239"/><path class="cls-11" d="M261.71,253.65S337.26,156,401.13,216.46"/><polygon class="cls-13" points="282.5 274.87 87.62 171.79 56.2 274.87 282.5 309.24 282.5 274.87"/><polygon class="cls-13" points="354.5 272.06 589.27 130.56 575.02 288.62 354.5 306.42 354.5 272.06"/><rect class="cls-14" y="55" width="1080" height="850"/><path class="cls-15" d="M445.27,483.31c0,6.35-39.23,27.36-49.6,27.36s-18.79-5.15-18.79-11.5,8.41-11.5,18.79-11.5S445.27,477,445.27,483.31Z"/></svg>
