<svg id="Layer_1" preserveAspectRatio="none" data-name="Layer 1" xmlns="http://www.w3.org/2000/svg" viewBox="0 0 2160 960"><defs><style>.cls-1,.cls-2,.cls-3,.cls-4,.cls-7,.cls-8{fill:#fff;}.cls-1,.cls-2,.cls-3,.cls-4,.cls-5,.cls-7,.cls-8{stroke:#000;stroke-miterlimit:10;}.cls-1{stroke-width:7px;}.cls-2{stroke-width:6.57px;}.cls-3{stroke-width:6.04px;}.cls-4,.cls-5{stroke-width:7.18px;}.cls-5,.cls-6{fill:none;}.cls-7{stroke-width:7.18px;}.cls-8{stroke-width:8.19px;}</style></defs><title>loud-coach-white</title><path class="cls-1" d="M1224,822.72l-19.87-2.25c3.53-31.18-2.17-61.42-8.77-96.44-5.74-30.45-12.24-65-13.24-105.39-.08-3.21-4-11.07-11-16.91-4.41-3.71-7.35-4.25-8-4.16-2.74.41-10.44,11.33-13.2,36l-19.88-2.23c3.55-31.7,14.54-51.21,30.15-53.52,7.56-1.12,15.8,1.87,23.85,8.64,8.8,7.4,17.8,20.08,18.09,31.72,1,38.81,7,71,12.89,102.19C1221.65,755.42,1227.89,788.55,1224,822.72Z"/><path class="cls-1" d="M1344.5,562.45s-49.22,65.37-159.31,29.24l7.43-29.24s35.79,5.72,72.45-1.44,79.43-41.56,79.43-41.56Z"/><ellipse class="cls-2" cx="1169.15" cy="571.6" rx="33.17" ry="24.81"/><path class="cls-1" d="M1392.28,644.5l-56.77,76.81,102.35,52.16,15.1-26.81s-26.28.52-36.6-20.12,15.05-82,15.05-82Z"/><path class="cls-2" d="M1609.23,609.76s104.71,43,101.27,111.81-63.34,82.57-63.34,82.57l-21.68-15.48,21.68-68.8-72.55-101.49Z"/><path class="cls-3" d="M1581.1,483.88l123.45-25.1,12.49-85.41,38.52-5.73s38.38,84,17.34,107.67S1613.53,547,1613.53,547Z"/><path class="cls-3" d="M1758,369c-7.32,10-24.06,12.4-37.38,5.44s-18.19-20.69-10.88-30.65,24.05-12.4,37.38-5.44S1765.3,359,1758,369Z"/><ellipse class="cls-2" cx="1432.7" cy="774.03" rx="34.4" ry="16.34" transform="translate(-122.42 1257.09) rotate(-45.64)"/><ellipse class="cls-2" cx="1644.28" cy="805" rx="16.34" ry="34.4" transform="translate(70.66 1740.63) rotate(-56.82)"/><polygon class="cls-4" points="1326.16 481.21 1292.35 679.38 1758.2 623.5 1621.43 434.25 1326.16 481.21"/><path class="cls-4" d="M1306.44,596.75s57.81-63.89,57.81-115.55c0-2.15-.19-6-.19-6l-37.9,6Z"/><path class="cls-4" d="M1695.46,536.68s-82.87-35.18-106.75-81c-1-1.91-7.12-15.11-7.12-15.11l39.85-6.34Z"/><path class="cls-4" d="M1270.33,347.52c0,30.15-42.55,88.49-4.26,111.15,58.12,34.39,7.12,90.27,113.58,90.27,176.6,0,213-9.67,213-85.58,0-9.49,95.56-40.25,44.4-85.4s-5.1-137.45-159.63-137.45C1300.77,240.51,1270.33,271.61,1270.33,347.52Z"/><circle class="cls-4" cx="1331.95" cy="347.52" r="24.05"/><circle class="cls-4" cx="1410.84" cy="347.52" r="24.05"/><path class="cls-4" d="M1356,347.52s1.15-10,12.42-10,18.37,10,18.37,10"/><path class="cls-4" d="M1434.89,347.52s198.38-109.57,260.37-58.85"/><ellipse class="cls-4" cx="1370.3" cy="408.89" rx="100.49" ry="54.47"/><path class="cls-5" d="M1341.71,276.19s75.55-97.62,139.42-37.19"/><path class="cls-5" d="M1341.71,253.65s75.55-97.62,139.42-37.19"/><polygon class="cls-1" points="1362.5 274.87 1167.62 171.79 1136.2 274.87 1362.5 309.24 1362.5 274.87"/><polygon class="cls-1" points="1441.54 285.37 1658.22 117.48 1662.49 276.12 1445.55 319.5 1441.54 285.37"/><rect class="cls-6" x="1080" y="55" width="1080" height="850"/><path class="cls-7" d="M1618.17,361c-9.1-1.75-39.9-7.67-60,9-17,14.08-8.92,29.84-28.5,43.5-10.68,7.45-17.12,5.58-25.5,15-9.92,11.15-6,19.48-13.5,27-10.6,10.58-25.22.85-51,3-37.14,3.09-38.64,25.94-72,25.5-21.89-.29-37.76-4-49.5-10.5s-27.53-35.83-49.5-31.5c-7.34,1.45-14.92,7.54-15,13.5-.14,10.23,22,11,37.5,30,11.37,13.89,4.68,19.78,15,39,12.11,22.56,56.78,219.9,81.5,247s17.16,34.2,31.5,42c31.27,17,65.74-18,90,0,15.12,11.19,8.41,29.71,21,34.5,23.93,9.1,65.79-51.07,72-60,15.87-22.81,27.06-38.9,27-61.5-.05-19.78-40.67-225-36.5-244,.5-2.28,6.94-29.89,28.5-39,13.74-5.81,20.3,1.53,28.5-4.5,15.17-11.15,13.91-51.81-7.5-69C1635,364.24,1627.68,362.84,1618.17,361Z"/><path d="M1475.42,496.83a124.32,124.32,0,0,0-27.52,0c-3.23.43-8.63,1.15-8.63,5.34s5.4,4.91,8.63,5.34a124.32,124.32,0,0,0,27.52,0c3.23-.43,8.63-1.15,8.63-5.34S1478.65,497.26,1475.42,496.83Z"/><path class="cls-8" d="M2061.39,439.25S1917.76,204.94,1575.32,315c0,0-2.85,7.9,8.53,18.53,0,0,253.5-141.71,320.35,443"/><ellipse class="cls-8" cx="1996.33" cy="643.52" rx="233.61" ry="97.32" transform="translate(1140.6 2558.51) rotate(-83.79)"/><path class="cls-1" d="M125.84,830.21l-19.62-3.88c6.09-30.78,2.92-61.39-.76-96.84-3.2-30.82-6.82-65.76-4.47-106.13.19-3.2-3.1-11.37-9.53-17.76-4.09-4.07-7-4.84-7.67-4.81C81,601,72.44,611.22,67.65,635.54L48,631.68c6.16-31.3,18.73-49.83,34.47-50.85,7.63-.49,15.59,3.17,23.05,10.58,8.15,8.1,16.08,21.48,15.4,33.11-2.25,38.75,1.13,71.36,4.4,102.9C129,762.94,132.52,796.48,125.84,830.21Z"/><path class="cls-1" d="M264.5,562.45s-49.22,65.37-159.31,29.24l7.43-29.24s35.79,5.72,72.45-1.44,79.43-41.56,79.43-41.56Z"/><ellipse class="cls-2" cx="89.15" cy="571.6" rx="33.17" ry="24.81"/><path class="cls-1" d="M312.28,644.5l-56.77,76.81,102.35,52.16L373,746.66s-26.28.52-36.6-20.12,15.05-82,15.05-82Z"/><path class="cls-2" d="M529.23,609.76s104.71,43,101.27,111.81-63.34,82.57-63.34,82.57l-21.68-15.48,21.68-68.8L494.61,618.36Z"/><path class="cls-3" d="M501.1,483.88l123.45-25.1,12.49-85.41,38.52-5.73s38.38,84,17.34,107.67S533.53,547,533.53,547Z"/><path class="cls-3" d="M678,369c-7.32,10-24.06,12.4-37.38,5.44s-18.19-20.69-10.88-30.65,24.05-12.4,37.38-5.44S685.3,359,678,369Z"/><ellipse class="cls-2" cx="352.7" cy="774.03" rx="34.4" ry="16.34" transform="translate(-447.28 484.98) rotate(-45.64)"/><ellipse class="cls-2" cx="564.28" cy="805" rx="16.34" ry="34.4" transform="translate(-418.28 836.72) rotate(-56.82)"/><polygon class="cls-4" points="246.16 481.21 212.34 679.38 678.2 623.5 541.43 434.25 246.16 481.21"/><path class="cls-4" d="M226.44,596.75s57.81-63.89,57.81-115.55c0-2.15-.19-6-.19-6l-37.9,6Z"/><path class="cls-4" d="M615.46,536.68s-82.87-35.18-106.75-81c-1-1.91-7.12-15.11-7.12-15.11l39.85-6.34Z"/><path class="cls-4" d="M190.33,347.52c0,30.15-42.55,88.49-4.26,111.15,58.12,34.39,7.12,90.27,113.58,90.27,176.6,0,213-9.67,213-85.58,0-9.49,95.56-40.25,44.4-85.4s-5.1-137.45-159.63-137.45C220.77,240.51,190.33,271.61,190.33,347.52Z"/><circle class="cls-4" cx="251.95" cy="347.52" r="24.05"/><circle class="cls-4" cx="330.84" cy="347.52" r="24.05"/><path class="cls-4" d="M276,347.52s1.15-10,12.42-10,18.37,10,18.37,10"/><path class="cls-4" d="M354.89,347.52s198.38-109.57,260.37-58.85"/><ellipse class="cls-4" cx="290.3" cy="408.89" rx="100.49" ry="54.47"/><path class="cls-5" d="M261.71,276.19S337.26,178.57,401.12,239"/><path class="cls-5" d="M261.71,253.65S337.26,156,401.12,216.46"/><polygon class="cls-1" points="282.5 274.87 87.62 171.79 56.2 274.87 282.5 309.24 282.5 274.87"/><polygon class="cls-1" points="354.5 272.06 589.27 130.56 575.02 288.62 354.5 306.42 354.5 272.06"/><rect class="cls-6" y="55" width="1080" height="850"/><path class="cls-7" d="M538.17,361c-9.1-1.75-39.9-7.67-60,9-17,14.08-8.92,29.84-28.5,43.5-10.68,7.45-17.12,5.58-25.5,15-9.92,11.15-6,19.48-13.5,27-10.6,10.58-25.22.85-51,3-37.14,3.09-38.64,25.94-72,25.5-21.89-.29-37.76-4-49.5-10.5s-27.53-35.83-49.5-31.5c-7.34,1.45-14.92,7.54-15,13.5-.14,10.23,22,11,37.5,30,11.37,13.89,4.68,19.78,15,39,12.11,22.56,56.78,219.9,81.5,247s17.16,34.2,31.5,42c31.27,17,65.74-18,90,0,15.12,11.19,8.41,29.71,21,34.5,23.93,9.1,65.79-51.07,72-60,15.87-22.81,27.06-38.9,27-61.5-.05-19.78-40.67-225-36.5-244,.5-2.28,6.94-29.89,28.5-39,13.74-5.81,20.3,1.53,28.5-4.5,15.17-11.15,13.91-51.81-7.5-69C555,364.24,547.68,362.84,538.17,361Z"/><path d="M395.42,496.83a124.32,124.32,0,0,0-27.52,0c-3.23.43-8.63,1.15-8.63,5.34s5.4,4.91,8.63,5.34a124.32,124.32,0,0,0,27.52,0c3.23-.43,8.63-1.15,8.63-5.34S398.65,497.26,395.42,496.83Z"/><path class="cls-8" d="M981.39,439.25S837.76,204.94,495.32,315c0,0-2.85,7.9,8.53,18.53,0,0,253.5-141.71,320.35,443"/><ellipse class="cls-8" cx="916.33" cy="643.52" rx="233.61" ry="97.32" transform="translate(177.45 1484.85) rotate(-83.79)"/></svg>
