<svg id="Layer_1" preserveAspectRatio="none" data-name="Layer 1" xmlns="http://www.w3.org/2000/svg" xmlns:xlink="http://www.w3.org/1999/xlink" viewBox="0 0 1080 1920"><defs><style>.cls-1{fill:url(#linear-gradient);}.cls-2{fill:url(#linear-gradient-2);}.cls-3{clip-path:url(#clip-path);}.cls-10,.cls-11,.cls-12,.cls-13,.cls-14,.cls-15,.cls-16,.cls-17,.cls-18,.cls-19,.cls-20,.cls-21,.cls-22,.cls-23,.cls-24,.cls-25,.cls-4,.cls-5,.cls-6,.cls-7,.cls-8,.cls-9{stroke:#000;stroke-miterlimit:10;stroke-width:12.58px;}.cls-4{fill:url(#linear-gradient-4);}.cls-5{fill:url(#linear-gradient-5);}.cls-6{fill:url(#linear-gradient-6);}.cls-7{fill:url(#linear-gradient-7);}.cls-8{fill:url(#linear-gradient-8);}.cls-9{fill:url(#linear-gradient-9);}.cls-10{fill:url(#linear-gradient-10);}.cls-11{fill:url(#linear-gradient-11);}.cls-12{fill:url(#linear-gradient-12);}.cls-13{fill:url(#linear-gradient-13);}.cls-14{fill:url(#linear-gradient-14);}.cls-15{fill:url(#linear-gradient-15);}.cls-16{fill:url(#linear-gradient-16);}.cls-17{fill:url(#linear-gradient-17);}.cls-18{fill:url(#linear-gradient-18);}.cls-19{fill:url(#linear-gradient-19);}.cls-20{fill:url(#linear-gradient-20);}.cls-21{fill:url(#linear-gradient-21);}.cls-22{fill:url(#linear-gradient-22);}.cls-23{fill:url(#linear-gradient-23);}.cls-24{fill:url(#linear-gradient-24);}.cls-25{fill:url(#linear-gradient-25);}</style><linearGradient id="linear-gradient" y1="1440" x2="1080" y2="1440" gradientUnits="userSpaceOnUse"><stop offset="0" stop-color="#ffa99d"/><stop offset="0.31" stop-color="#fda99c"/><stop offset="0.45" stop-color="#f6ab98"/><stop offset="0.55" stop-color="#e9ae92"/><stop offset="0.64" stop-color="#d7b28a"/><stop offset="0.71" stop-color="#c0b77e"/><stop offset="0.78" stop-color="#a3bd70"/><stop offset="0.84" stop-color="#81c460"/><stop offset="0.9" stop-color="#59cd4c"/><stop offset="0.95" stop-color="#2dd637"/><stop offset="1" stop-color="#00e021"/></linearGradient><linearGradient id="linear-gradient-2" x1="540" y1="1920" x2="540" gradientUnits="userSpaceOnUse"><stop offset="0" stop-color="#fff"/><stop offset="0.32" stop-color="#fffffd"/><stop offset="0.46" stop-color="#fffef6"/><stop offset="0.57" stop-color="#fffce9"/><stop offset="0.66" stop-color="#fff9d7"/><stop offset="0.74" stop-color="#fff6c0"/><stop offset="0.81" stop-color="#fff2a3"/><stop offset="0.87" stop-color="#ffed81"/><stop offset="0.93" stop-color="#ffe859"/><stop offset="0.99" stop-color="#ffe22d"/><stop offset="1" stop-color="#ffe021"/></linearGradient><clipPath id="clip-path"><rect class="cls-1" y="960" width="1080" height="960"/></clipPath><linearGradient id="linear-gradient-4" x1="-45" y1="1458.62" x2="1103" y2="1458.62" gradientUnits="userSpaceOnUse"><stop offset="0" stop-color="#00a99d"/><stop offset="0.12" stop-color="#2bb2ae"/><stop offset="0.3" stop-color="#6bc0c6"/><stop offset="0.47" stop-color="#a0cbda"/><stop offset="0.64" stop-color="#c9d4ea"/><stop offset="0.78" stop-color="#e7dbf6"/><stop offset="0.91" stop-color="#f9dffd"/><stop offset="1" stop-color="#ffe0ff"/></linearGradient><linearGradient id="linear-gradient-5" x1="-85" y1="1066.94" x2="237" y2="1066.94" xlink:href="#linear-gradient"/><linearGradient id="linear-gradient-6" x1="326.45" y1="1066.94" x2="648.45" y2="1066.94" xlink:href="#linear-gradient"/><linearGradient id="linear-gradient-7" x1="731.88" y1="1066.94" x2="1053.88" y2="1066.94" xlink:href="#linear-gradient"/><linearGradient id="linear-gradient-8" x1="117.72" y1="1244.56" x2="439.72" y2="1244.56" xlink:href="#linear-gradient"/><linearGradient id="linear-gradient-9" x1="529.17" y1="1244.56" x2="851.17" y2="1244.56" xlink:href="#linear-gradient"/><linearGradient id="linear-gradient-10" x1="934.6" y1="1244.56" x2="1256.6" y2="1244.56" xlink:href="#linear-gradient"/><linearGradient id="linear-gradient-11" x1="-287.73" y1="1244.56" x2="34.27" y2="1244.56" xlink:href="#linear-gradient"/><linearGradient id="linear-gradient-12" x1="-100.77" y1="1422.19" x2="221.23" y2="1422.19" xlink:href="#linear-gradient"/><linearGradient id="linear-gradient-13" x1="310.68" y1="1422.19" x2="632.68" y2="1422.19" xlink:href="#linear-gradient"/><linearGradient id="linear-gradient-14" x1="716.12" y1="1422.19" x2="1038.12" y2="1422.19" xlink:href="#linear-gradient"/><linearGradient id="linear-gradient-15" x1="101.95" y1="1599.81" x2="423.95" y2="1599.81" xlink:href="#linear-gradient"/><linearGradient id="linear-gradient-16" x1="513.4" y1="1599.81" x2="835.4" y2="1599.81" xlink:href="#linear-gradient"/><linearGradient id="linear-gradient-17" x1="918.83" y1="1599.81" x2="1240.83" y2="1599.81" xlink:href="#linear-gradient"/><linearGradient id="linear-gradient-18" x1="-303.5" y1="1599.81" x2="18.5" y2="1599.81" xlink:href="#linear-gradient"/><linearGradient id="linear-gradient-19" x1="-109.47" y1="1777.44" x2="212.53" y2="1777.44" xlink:href="#linear-gradient"/><linearGradient id="linear-gradient-20" x1="301.98" y1="1777.44" x2="623.98" y2="1777.44" xlink:href="#linear-gradient"/><linearGradient id="linear-gradient-21" x1="707.41" y1="1777.44" x2="1029.41" y2="1777.44" xlink:href="#linear-gradient"/><linearGradient id="linear-gradient-22" x1="93.25" y1="1955.06" x2="415.25" y2="1955.06" xlink:href="#linear-gradient"/><linearGradient id="linear-gradient-23" x1="504.7" y1="1955.06" x2="826.7" y2="1955.06" xlink:href="#linear-gradient"/><linearGradient id="linear-gradient-24" x1="910.13" y1="1955.06" x2="1232.13" y2="1955.06" xlink:href="#linear-gradient"/><linearGradient id="linear-gradient-25" x1="-312.2" y1="1955.06" x2="9.8" y2="1955.06" xlink:href="#linear-gradient"/></defs><title>loud-background-color</title><rect class="cls-2" width="1080" height="1920"/><rect class="cls-1" y="960" width="1080" height="960"/><g class="cls-3"><rect class="cls-4" x="-45" y="965.25" width="1148" height="986.75"/><ellipse class="cls-5" cx="76" cy="1066.94" rx="161" ry="55.47"/><ellipse class="cls-6" cx="487.45" cy="1066.94" rx="161" ry="55.47"/><ellipse class="cls-7" cx="892.88" cy="1066.94" rx="161" ry="55.47"/><ellipse class="cls-8" cx="278.72" cy="1244.56" rx="161" ry="55.47"/><ellipse class="cls-9" cx="690.17" cy="1244.56" rx="161" ry="55.47"/><ellipse class="cls-10" cx="1095.6" cy="1244.56" rx="161" ry="55.47"/><ellipse class="cls-11" cx="-126.73" cy="1244.56" rx="161" ry="55.47"/><ellipse class="cls-12" cx="60.23" cy="1422.19" rx="161" ry="55.47"/><ellipse class="cls-13" cx="471.68" cy="1422.19" rx="161" ry="55.47"/><ellipse class="cls-14" cx="877.12" cy="1422.19" rx="161" ry="55.47"/><ellipse class="cls-15" cx="262.95" cy="1599.81" rx="161" ry="55.47"/><ellipse class="cls-16" cx="674.4" cy="1599.81" rx="161" ry="55.47"/><ellipse class="cls-17" cx="1079.83" cy="1599.81" rx="161" ry="55.47"/><ellipse class="cls-18" cx="-142.5" cy="1599.81" rx="161" ry="55.47"/><ellipse class="cls-19" cx="51.53" cy="1777.44" rx="161" ry="55.47"/><ellipse class="cls-20" cx="462.98" cy="1777.44" rx="161" ry="55.47"/><ellipse class="cls-21" cx="868.41" cy="1777.44" rx="161" ry="55.47"/><ellipse class="cls-22" cx="254.25" cy="1955.06" rx="161" ry="55.47"/><ellipse class="cls-23" cx="665.7" cy="1955.06" rx="161" ry="55.47"/><ellipse class="cls-24" cx="1071.13" cy="1955.06" rx="161" ry="55.47"/><ellipse class="cls-25" cx="-151.2" cy="1955.06" rx="161" ry="55.47"/></g></svg>
