<svg id="Layer_1" data-name="Layer 1" xmlns="http://www.w3.org/2000/svg" viewBox="0 0 1166.8 2004.78"><defs><style>.cls-1{fill:#ffc05a;stroke:#ed1c24;stroke-miterlimit:10;stroke-width:6.83px;}</style></defs><title>jankenpon-background</title><path class="cls-1" d="M1330.22,6222c305.92,522.82,304.77,813.68,237.33,984.94-66.17,168-202.93,238.1-214,444.37-9.93,185.23,86.21,392.8,186.75,403.14,56.84,5.84,132-106,280.13-329.84,248.55-375.75,319.3-484.21,381.29-467.27,32.1,8.77,72.19,54,97.27,229.06" transform="translate(-1135.58 -6165.64)"/><path class="cls-1" d="M1256.3,7078.64c373.8-13.78,496.64-117.58,533-219.89,37.27-104.82-10.74-223.41,42.8-270.29,55.49-48.58,171,22.85,260.68,91.62" transform="translate(-1135.58 -6165.64)"/><path class="cls-1" d="M1474.18,7596.31c9.39-54.36,26.17-109.06,58.36-119.11,48.34-15.09,99.55,80.43,124.5,64.14,31.27-20.43-37.81-178,3.89-219.89,43.87-44.07,164.14,86.35,214,41.23,50.13-45.37-28.14-216.45,23.34-261.12,40.86-35.45,115.19,50.55,159.52,18.32,28.8-20.94,44.19-91.25,0-293.19" transform="translate(-1135.58 -6165.64)"/><path class="cls-1" d="M1303,7926.15c305.25,253.06,442.13,270.09,505.79,215.31,106.07-91.27,11.62-384.25,128.39-471.86,74.68-56,194.43,2.93,295.69,73.3" transform="translate(-1135.58 -6165.64)"/><path class="cls-1" d="M1353.57,6496.84c-9.61,1-144.65,18.24-194.53,146.6-27,69.4-30.06,173.88,11.67,206.15,35.4,27.37,82.11-13.4,198.42-77.88,231.17-128.14,316.45-116.66,330.71-187.83,21.07-105.22-154.5-184.47-132.28-270.29,26-100.45,303.44-134.3,369.61-18.32,29.09,51,8.94,116.19,27.23,123.69,19.62,8,63.8-58.31,147.85-252" transform="translate(-1135.58 -6165.64)"/></svg>