<svg id="Layer_1" data-name="Layer 1" preserveAspectRatio="none" xmlns="http://www.w3.org/2000/svg" xmlns:xlink="http://www.w3.org/1999/xlink" viewBox="0 0 2157 1152"><defs><style>.cls-1{fill:url(#linear-gradient);}.cls-2,.cls-3{fill:none;}.cls-10,.cls-11,.cls-12,.cls-13,.cls-14,.cls-16,.cls-17,.cls-18,.cls-19,.cls-2,.cls-4,.cls-5,.cls-6,.cls-7,.cls-8,.cls-9{stroke:#000;stroke-miterlimit:10;}.cls-10,.cls-11,.cls-13,.cls-2,.cls-4,.cls-9{stroke-width:7.18px;}.cls-4{fill:red;}.cls-16,.cls-5{stroke-width:7px;}.cls-5{fill:url(#linear-gradient-2);}.cls-6{fill:#ffb2d9;}.cls-17,.cls-18,.cls-6,.cls-7,.cls-8{stroke-width:7.18px;}.cls-7{fill:url(#linear-gradient-3);}.cls-8{fill:url(#linear-gradient-4);}.cls-9{fill:#00a99d;}.cls-10{fill:#ffa7a4;}.cls-11{fill:#e6e6e6;}.cls-12,.cls-19{fill:#666;}.cls-12{stroke-width:7px;}.cls-13{fill:#ffca61;}.cls-14{fill:#999;stroke-width:5px;}.cls-15{fill:url(#linear-gradient-5);}.cls-16{fill:url(#linear-gradient-6);}.cls-17{fill:url(#linear-gradient-7);}.cls-18{fill:url(#linear-gradient-8);}.cls-19{stroke-width:5px;}</style><linearGradient id="linear-gradient" x1="540" y1="1152" x2="540" y2="915.71" gradientUnits="userSpaceOnUse"><stop offset="0" stop-color="#00a99d"/><stop offset="1" stop-color="#d9e021"/></linearGradient><linearGradient id="linear-gradient-2" x1="455.32" y1="880.64" x2="586.46" y2="880.64" gradientUnits="userSpaceOnUse"><stop offset="0" stop-color="#d9659d"/><stop offset="1" stop-color="#c7b200"/></linearGradient><linearGradient id="linear-gradient-3" x1="749.15" y1="882.75" x2="863.55" y2="882.75" xlink:href="#linear-gradient-2"/><linearGradient id="linear-gradient-4" x1="431.23" y1="727.28" x2="897.08" y2="727.28" xlink:href="#linear-gradient-2"/><linearGradient id="linear-gradient-5" x1="1620" y1="1152" x2="1620" y2="915.71" xlink:href="#linear-gradient"/><linearGradient id="linear-gradient-6" x1="1535.32" y1="880.64" x2="1666.46" y2="880.64" xlink:href="#linear-gradient-2"/><linearGradient id="linear-gradient-7" x1="1829.15" y1="882.75" x2="1943.55" y2="882.75" xlink:href="#linear-gradient-2"/><linearGradient id="linear-gradient-8" x1="1511.23" y1="727.28" x2="1977.08" y2="727.28" xlink:href="#linear-gradient-2"/></defs><title>favfood-coach</title><rect class="cls-1" y="915.71" width="1080" height="236.29"/><line class="cls-2" y1="915.71" x2="1080" y2="915.71"/><rect class="cls-3" width="1080" height="1152"/><path class="cls-4" d="M737.55,653.82l115.13-77.34L827.07,468l36.87-21.58S941,533.86,930.12,570.61s-131,147.63-131,147.63Z"/><path class="cls-4" d="M867,447.12c-3,14.88-19.06,24.2-35.83,20.8s-27.93-18.22-24.92-33.11,19.06-24.19,35.83-20.79S870,432.24,867,447.12Z"/><path class="cls-5" d="M495.59,823.27l-40.28,96.19,122.1,28.71,9-32.4s-27.72,7.47-44-11.76-5.33-90.91-5.33-90.91Z"/><path class="cls-6" d="M591.2,917.71c8.49,5,6.8,23.58-3.76,41.45s-26,28.29-34.48,23.26-6.8-23.58,3.77-41.44S582.72,912.68,591.2,917.71Z"/><path class="cls-7" d="M788.06,775.88s96.3,77.55,71.36,148.57S767.5,991.3,767.5,991.3l-17.9-22.95,44-65.36L749.15,774.14Z"/><path class="cls-6" d="M739.9,962.65c7.52-6.38,24.49,1.28,37.92,17.11s18.22,33.83,10.7,40.22-24.49-1.28-37.91-17.11S732.39,969,739.9,962.65Z"/><path class="cls-4" d="M483.85,727.27s-68.9,56.84-176.51-9.75l15.42-29.15s36.45,15.24,77.21,17,94.9-23.81,94.9-23.81Z"/><path class="cls-4" d="M330.77,700.58c-3.51,14.56-22.12,22.55-41.57,17.85s-32.37-20.3-28.86-34.86,22.12-22.55,41.57-17.85S334.28,686,330.77,700.58Z"/><polygon class="cls-8" points="465.04 651.62 431.23 849.92 897.08 794.01 760.32 604.63 465.04 651.62"/><path class="cls-4" d="M445.33,767.24s57.81-63.93,57.81-115.62c0-2.16-.19-6-.19-6l-37.9,6Z"/><path class="cls-4" d="M834.34,707.13s-82.87-35.2-106.75-81c-1-1.91-7.12-15.12-7.12-15.12l39.85-6.34Z"/><path class="cls-4" d="M429.74,526.52c0,32.14-39.94,94.33-4,118.48,54.56,36.66,99.12,48.6,198.35,60.48,86.32,10.34,122.21-9.32,126.59-55.48,4.28-45.09,40.51-43.28,23.25-91-23.12-64-4.79-146.51-149.84-146.51C458.32,412.46,429.74,445.6,429.74,526.52Z"/><ellipse class="cls-9" cx="497.95" cy="526.52" rx="25.62" ry="25.64"/><ellipse class="cls-9" cx="581.99" cy="526.52" rx="25.62" ry="25.64"/><path class="cls-2" d="M523.57,526.52s1.22-10.67,13.23-10.67,19.57,10.67,19.57,10.67"/><path class="cls-2" d="M607.61,526.52S818.95,409.73,885,463.79"/><ellipse class="cls-10" cx="540" cy="601.54" rx="107.05" ry="58.07"/><path class="cls-2" d="M508.35,450.49s80.48-104.06,148.51-39.64"/><path class="cls-2" d="M508.35,426.47s80.48-104.06,148.51-39.64"/><polygon class="cls-11" points="528.94 455.55 321.36 230.92 233.91 350.81 513.1 500.24 528.94 455.55"/><polygon class="cls-11" points="539.82 468.56 746.27 154.4 823.17 359.31 560.14 511.4 539.82 468.56"/><polygon class="cls-12" points="507.32 639.28 507.32 678.87 781.11 669.36 756.6 547 507.32 639.28"/><rect class="cls-3" x="194.88" y="225.14" width="850" height="850.54"/><rect class="cls-13" x="219.9" y="791.26" width="24.03" height="258.7" rx="12.01" ry="12.01"/><rect class="cls-13" x="608.6" y="773.08" width="24.03" height="258.7" rx="12.01" ry="12.01"/><rect class="cls-13" x="446.31" y="840.32" width="24.03" height="258.7" rx="12.01" ry="12.01"/><ellipse class="cls-13" cx="474.01" cy="802.97" rx="320.11" ry="49.74"/><path class="cls-14" d="M308.83,533.34c-6.31,2.23-6.88,32.7,8.67,44a22.14,22.14,0,0,1,8.67,13.25c6,30-26.48,91.46-59.33,134.84-2.71,3.57-13,11.94-10.67,18.68,2,5.84,12.86,9.73,20.67,8,24.67-5.44,27.45-58,56-120.56,13.43-29.44,27.08-34.77,32-64.89,3.24-19.82-1.35-39.3-4-39.36-3.73-.09-5.79,38-11.09,38.06s-8.82-38.26-13.57-38.06c-4.46.19-2.6,34-12.67,36.69C313,566.8,316,530.83,308.83,533.34Z"/><rect class="cls-15" x="1080" y="915.71" width="1080" height="236.29"/><line class="cls-2" x1="1080" y1="915.71" x2="2160" y2="915.71"/><rect class="cls-3" x="1080" width="1080" height="1152"/><path class="cls-4" d="M1787,595.66,1925.18,584l30.3-107.28,42.71-.94s24.88,113.91-2.48,140.74-186.15,65.35-186.15,65.35Z"/><path class="cls-4" d="M2000.52,478c-9.86,11.54-28.41,11.88-41.42.75s-15.56-29.51-5.7-41.05,28.4-11.88,41.41-.75S2010.39,466.41,2000.52,478Z"/><path class="cls-16" d="M1575.59,823.27l-40.28,96.19,122.1,28.71,9-32.4s-27.72,7.47-44-11.76-5.33-90.91-5.33-90.91Z"/><path class="cls-6" d="M1671.2,917.71c8.49,5,6.8,23.58-3.76,41.45s-26,28.29-34.48,23.26-6.8-23.58,3.77-41.44S1662.72,912.68,1671.2,917.71Z"/><path class="cls-17" d="M1868.06,775.88s96.3,77.55,71.36,148.57-91.92,66.85-91.92,66.85l-17.9-22.95,44-65.36-44.49-128.85Z"/><path class="cls-6" d="M1819.9,962.65c7.52-6.38,24.49,1.28,37.92,17.11s18.22,33.83,10.7,40.22-24.49-1.28-37.91-17.11S1812.39,969,1819.9,962.65Z"/><path class="cls-14" d="M1449.28,497.7c-6.68.32-16,29.34-4.36,44.66a22.15,22.15,0,0,1,4.49,15.19c-2.88,30.48-51.66,80-95.59,112.06-3.62,2.64-15.84,7.71-15.59,14.82.22,6.16,9.52,13,17.49,13.62,25.19,1.89,43-47.63,88.3-99.34,21.32-24.33,35.93-25.51,49.3-52.93,8.8-18,10-38,7.49-38.85-3.54-1.16-16.48,34.74-21.57,33.26s2.55-39.18-2.06-40.36c-4.33-1.11-12.27,31.84-22.68,31.49C1443.64,530.94,1456.82,497.34,1449.28,497.7Z"/><path class="cls-4" d="M1561.14,733.81s-82.33,34.6-166.25-60.15L1418,650.18s30.53,25.09,69,38.53,97.73,4.52,97.73,4.52Z"/><path class="cls-4" d="M1422.2,664.18c-7.55,12.93-27.67,15.23-44.95,5.13s-25.16-28.76-17.62-41.69,27.67-15.23,44.95-5.13S1429.75,651.25,1422.2,664.18Z"/><polygon class="cls-18" points="1545.04 651.62 1511.23 849.92 1977.08 794.01 1840.32 604.63 1545.04 651.62"/><path class="cls-4" d="M1525.33,767.24s57.81-63.93,57.81-115.62c0-2.16-.19-6-.19-6l-37.9,6Z"/><path class="cls-4" d="M1914.34,707.13s-82.87-35.2-106.75-81c-1-1.91-7.12-15.12-7.12-15.12l39.85-6.34Z"/><path class="cls-4" d="M1509.74,526.52c0,32.14-39.94,94.33-4,118.48,54.56,36.66,99.12,48.6,198.35,60.48,86.32,10.34,122.21-9.32,126.59-55.48,4.28-45.09,40.51-43.28,23.25-91-23.12-64-4.79-146.51-149.84-146.51C1538.32,412.46,1509.74,445.6,1509.74,526.52Z"/><ellipse class="cls-9" cx="1577.95" cy="526.52" rx="25.62" ry="25.64"/><ellipse class="cls-9" cx="1661.99" cy="526.52" rx="25.62" ry="25.64"/><path class="cls-2" d="M1603.57,526.52s1.22-10.67,13.23-10.67,19.57,10.67,19.57,10.67"/><path class="cls-2" d="M1687.61,526.52S1898.95,409.73,1965,463.79"/><ellipse class="cls-10" cx="1620" cy="601.54" rx="107.05" ry="58.07"/><path class="cls-2" d="M1588.35,450.49s80.48-104.06,148.51-39.64"/><path class="cls-2" d="M1588.35,426.47s80.48-104.06,148.51-39.64"/><polygon class="cls-11" points="1608.94 455.55 1401.36 230.92 1313.91 350.81 1593.1 500.24 1608.94 455.55"/><polygon class="cls-11" points="1619.82 468.56 1826.27 154.4 1903.17 359.31 1640.14 511.4 1619.82 468.56"/><polygon class="cls-19" points="1587.32 658.12 1587.32 678.87 1861.11 673.89 1836.6 609.77 1587.32 658.12"/><rect class="cls-3" x="1274.88" y="225.14" width="850" height="850.54"/><rect class="cls-13" x="1299.9" y="791.26" width="24.03" height="258.7" rx="12.01" ry="12.01"/><rect class="cls-13" x="1688.6" y="773.08" width="24.03" height="258.7" rx="12.01" ry="12.01"/><rect class="cls-13" x="1526.31" y="840.32" width="24.03" height="258.7" rx="12.01" ry="12.01"/><ellipse class="cls-13" cx="1554.01" cy="802.97" rx="320.11" ry="49.74"/></svg>
