<svg id="Layer_1" data-name="Layer 1" xmlns="http://www.w3.org/2000/svg" viewBox="0 0 1087.61 1928.97"><defs><style>.cls-1,.cls-2{fill:#e6e6e6;}.cls-1,.cls-2,.cls-3{stroke:#999;stroke-width:10px;}.cls-1{stroke-linejoin:round;}.cls-2,.cls-3{stroke-miterlimit:10;}.cls-3{fill:none;}</style></defs><title>colorsnap-background</title><polygon class="cls-1" points="760.06 1656.06 1082.61 1923.97 1082.61 5 760.06 238.13 760.06 1656.06"/><polygon class="cls-1" points="327.55 1656.06 5 1923.97 5 5 327.55 238.13 327.55 1656.06"/><polygon class="cls-1" points="327.55 238.13 10.03 5 1073.36 5 760.06 238.13 327.55 238.13"/><polygon class="cls-1" points="327.55 1656.06 10.03 1923.97 1073.36 1923.97 760.06 1656.06 327.55 1656.06"/><path class="cls-2" d="M2758.92,4802.05c-143.3-34-157-61.66-189-46.52-68.83,32.6-79.2,195.81-23.62,232.59,23.36,15.46,40.21-3.44,113.39,0,81.89,3.85,125.28,30.55,137,14,13.25-18.76-40.31-55.57-28.35-97.69s77.84-48.87,75.59-69.78C2842.31,4819.25,2805.7,4813.16,2758.92,4802.05Z" transform="translate(-2354 -4186)"/><path class="cls-2" d="M2905.38,4557.08c-84.49,77.58-168.62,82-165.36,107,4.21,32.2,142.73,12.46,179.53,83.73,20.73,40.16-10.2,71.69,14.17,102.34,29.58,37.2,114.14,39.77,165.36,0,48.37-37.56,56.23-104.52,47.24-148.86-13.17-64.94-59.21-65.24-103.94-167.46-16.91-38.64-20.2-61.15-37.8-65.12C2977.71,4462.63,2957.8,4508.94,2905.38,4557.08Z" transform="translate(-2354 -4186)"/><path class="cls-2" d="M2985.7,5199c-59.39,19.56-116.48,98.09-94.49,158.16,26.22,71.63,147.66,70,160.63,69.78,18.8-.26,96.84-3.73,155.91-65.12,67.39-70,72.86-176.78,33.07-251.2-34.48-64.49-108.08-114.29-137-97.69-37.12,21.3,18.6,140.88-33.07,176.77C3046.43,5206.6,3026.06,5185.73,2985.7,5199Z" transform="translate(-2354 -4186)"/><path class="cls-2" d="M2744.75,5171.11c102.47,12.57,177.47,248.52,118.11,302.37-9.79,8.89-16.48,6.67-80.32,18.61-100.93,18.87-104.09,28.11-132.28,27.91-87-.62-188.52-89.57-179.53-158.16,3.69-28.18,49.76-59.48,141.73-120.95C2685,5192.45,2721.68,5168.28,2744.75,5171.11Z" transform="translate(-2354 -4186)"/><path class="cls-2" d="M3109.75,5590.11c-2.65,38.8,30.18,90.42,71,92.2,48.73,2.12,76.85-68,79.86-75.53,4.36-10.86,21-56.52-1.2-105.17-25.34-55.5-87.26-84.24-140.9-79.23-46.48,4.34-93.63,34.68-90.73,55.27,3.72,26.43,87.93,23.1,96.8,61.38C3128.8,5557,3111.55,5563.74,3109.75,5590.11Z" transform="translate(-2354 -4186)"/><path class="cls-2" d="M2867.59,5673.51c15.6,61.24,70.42,135.23,118.11,125.6,40.09-8.1,56.83-71.62,66.14-107,7.86-29.85,19.14-72.65-4.72-107-11.53-16.58-34.89-36.44-56.69-32.56-19.64,3.49-19.09,22.88-42.52,32.56-30.34,12.53-52.4-11.25-70.87,0C2855.23,5598.41,2860.81,5646.91,2867.59,5673.51Z" transform="translate(-2354 -4186)"/><path class="cls-2" d="M2579.4,5650.25c-1,8.19-3.8,31.46-18.9,51.17-22.9,29.89-51.83,22.57-61.42,46.52-6.87,17.16-.4,41.86,14.17,51.17,19.5,12.46,39.85-11.38,70.87,0,17.7,6.49,15.15,15.75,37.8,27.91,5.63,3,45.24,23.64,66.14,9.3,19-13,.36-39.64,18.9-69.78,20.29-33,55.57-22.18,75.59-55.82,13.24-22.26,15.47-56.68,0-69.78-23.07-19.52-70,21.46-99.21,0-18.35-13.48-7.6-35.32-28.35-51.17-22.36-17.09-63.32-13.47-75.59,4.65C2570.58,5607.45,2583.28,5618.09,2579.4,5650.25Z" transform="translate(-2354 -4186)"/><path class="cls-2" d="M3052.64,5454.71c143.3,34,157,61.66,189,46.52,68.83-32.6,79.2-195.81,23.62-232.59-23.36-15.46-40.21,3.44-113.39,0-81.89-3.85-125.28-30.55-137-14-13.26,18.76,40.31,55.57,28.35,97.69s-77.84,48.87-75.59,69.78C2969.25,5437.51,3005.86,5443.6,3052.64,5454.71Z" transform="translate(-2354 -4186)"/><path class="cls-2" d="M2830.58,5752.42c84.49-77.58,168.62-82,165.36-107-4.21-32.2-142.73-12.46-179.53-83.73-20.73-40.16,10.2-71.69-14.17-102.34-29.58-37.2-114.14-39.77-165.36,0-48.37,37.56-56.23,104.52-47.24,148.86,13.17,64.94,59.21,65.24,103.94,167.46,16.91,38.64,20.2,61.15,37.8,65.12C2758.25,5846.87,2778.16,5800.56,2830.58,5752.42Z" transform="translate(-2354 -4186)"/><path class="cls-2" d="M2750.26,5110.47c59.39-19.56,116.48-98.09,94.49-158.16-26.22-71.63-147.66-70-160.63-69.78-18.8.26-96.84,3.73-155.91,65.12-67.39,70-72.86,176.78-33.07,251.2,34.48,64.49,108.08,114.29,137,97.69,37.12-21.3-18.6-140.88,33.07-176.77C2689.53,5102.89,2709.9,5123.77,2750.26,5110.47Z" transform="translate(-2354 -4186)"/><path class="cls-2" d="M2592.8,4733.65c-78.76-9.66-136.4-191-90.78-232.4,7.53-6.83,12.66-5.13,61.73-14.3,77.57-14.5,80-21.61,101.67-21.45,66.87,0.48,144.9,68.84,138,121.56-2.84,21.66-38.24,45.72-108.94,93C2638.76,4717.25,2610.54,4735.82,2592.8,4733.65Z" transform="translate(-2354 -4186)"/><path class="cls-2" d="M2868.38,4636c-15.6-61.24-70.43-135.23-118.11-125.6-40.09,8.1-56.83,71.62-66.14,107-7.86,29.85-19.14,72.65,4.72,107,11.53,16.58,34.89,36.44,56.69,32.56,19.64-3.49,19.09-22.88,42.52-32.56,30.34-12.53,52.4,11.25,70.87,0C2880.73,4711.08,2875.15,4662.58,2868.38,4636Z" transform="translate(-2354 -4186)"/><path class="cls-2" d="M3156.57,4659.25c1-8.19,3.8-31.46,18.9-51.17,22.9-29.89,51.83-22.57,61.42-46.52,6.87-17.16.4-41.86-14.17-51.17-19.5-12.46-39.85,11.38-70.87,0-17.7-6.49-15.15-15.75-37.8-27.91-5.63-3-45.24-23.64-66.14-9.3-19,13-.36,39.64-18.9,69.78-20.29,33-55.57,22.18-75.59,55.82-13.24,22.26-15.47,56.68,0,69.78,23.07,19.52,70-21.46,99.21,0,18.35,13.48,7.6,35.32,28.35,51.17,22.36,17.09,63.32,13.47,75.59-4.65C3165.38,4702,3152.68,4691.4,3156.57,4659.25Z" transform="translate(-2354 -4186)"/><path class="cls-2" d="M2853.41,4417.52c-15.28,14.92-16,28.33-28.35,69.78-27.74,92.86-49,108.31-37.8,125.6,18.14,27.92,98.61,26.08,146.46-14,63.77-53.35,65.35-171,18.9-200C2925.62,4382,2878.75,4392.78,2853.41,4417.52Z" transform="translate(-2354 -4186)"/><path class="cls-2" d="M3020.51,5854.48c-31.75-36.37,78.66-243.75,200.52-238.57,47.31,2,102.27,36.3,104.44,69.93,2,30.31-39.79,47.54-33.42,82.27,4.19,22.86,24.34,26.56,25.07,49.36,0.67,20.8-15.17,46.94-33.42,49.36-38.73,5.14-66.06-99.47-104.44-94.61-21,2.66-19.45,34.72-54.31,61.7C3091.09,5860.12,3035.58,5871.74,3020.51,5854.48Z" transform="translate(-2354 -4186)"/><path class="cls-2" d="M3207.75,4426.83c-36.83,19.66-79.76,66.37-70.87,111.64,6.3,32.06,48.29,52.39,132.28,93,61.66,29.84,73.61,26.89,80.32,23.26,33.89-18.34,35-108.52-4.72-139.55-26-20.32-58.43-6.59-70.87-27.91-13.78-23.62,17.7-54.73,4.72-69.78C3267.13,4404.21,3230.48,4414.69,3207.75,4426.83Z" transform="translate(-2354 -4186)"/><path class="cls-2" d="M3250.27,4836.19c-41.24.59-84.45,28.13-99.21,69.78-16.07,45.32,3.49,101.85,28.35,107,25.47,5.27,43.13-46.16,75.59-41.87,29.65,3.93,34,49.39,61.42,51.17,21.79,1.41,45.8-25.55,52-51.17C3381.44,4916.81,3322.44,4835.16,3250.27,4836.19Z" transform="translate(-2354 -4186)"/><path class="cls-2" d="M2962.08,4938.52c-25.66,12.62-30.91,54.83-23.62,83.73,7.23,28.65,32.54,67,66.14,65.12,35-2,62.07-46.66,56.69-83.73C3054.4,4956.15,2994.43,4922.61,2962.08,4938.52Z" transform="translate(-2354 -4186)"/><path class="cls-2" d="M3023.49,4761.76c-17.79,16.18,12.41,109.38,85,139.55,30.22,12.56,90.59,23.68,122.84-14,34.44-40.2,16.61-112.47-14.17-125.6-22.55-9.62-37.31,18.78-85,23.26C3070.78,4790.77,3037.24,4749.25,3023.49,4761.76Z" transform="translate(-2354 -4186)"/><path class="cls-2" d="M2853.41,4864.1c-31.33,2.26-66.06,68.36-52,125.6,10.15,41.23,49.95,95.39,103.94,88.38,57-7.4,89-77.73,75.59-116.29-6.58-18.94-19.21-16.19-85-69.78C2868.47,4869.65,2863.54,4863.36,2853.41,4864.1Z" transform="translate(-2354 -4186)"/><path class="cls-2" d="M2946.3,5207.43c-2.15,28.06-135.36,69-183.74,17.07-18.78-20.16-27.14-56.85-13.87-71.68,12-13.37,36.55-3.47,48.53-20.48,7.89-11.2,1.1-21,10.4-30.72,8.49-8.9,26.08-13.28,34.67-6.83,18.24,13.69-14.51,68.26,3.47,81.92,9.82,7.46,22.7-6.46,48.53-3.41C2919.39,5176.25,2947.32,5194.11,2946.3,5207.43Z" transform="translate(-2354 -4186)"/><path class="cls-2" d="M2738.79,4837.1c0,17.58-22.2,51.6-2.22,64.82,30.33,20.06,55.11,26.59,110.27,33.09,48,5.65,67.94-5.1,70.38-30.35,2.38-24.67,22.52-23.68,12.93-49.8-12.85-35-2.66-80.15-83.3-80.15C2754.68,4774.7,2738.79,4792.83,2738.79,4837.1Z" transform="translate(-2354 -4186)"/><ellipse class="cls-2" cx="422.71" cy="651.1" rx="14.24" ry="14.03"/><ellipse class="cls-2" cx="469.43" cy="651.1" rx="14.24" ry="14.03"/><path class="cls-2" d="M2791,4837.1s0.68-5.84,7.35-5.84,10.88,5.84,10.88,5.84" transform="translate(-2354 -4186)"/><path class="cls-3" d="M2837.68,4837.1s117.49-63.89,154.2-34.32" transform="translate(-2354 -4186)"/><ellipse class="cls-2" cx="446.09" cy="692.14" rx="59.52" ry="31.77"/><path class="cls-3" d="M2782.49,4795.51s44.74-56.93,82.57-21.69" transform="translate(-2354 -4186)"/><path class="cls-3" d="M2782.49,4782.36s44.74-56.93,82.57-21.69" transform="translate(-2354 -4186)"/><polygon class="cls-2" points="439.94 612.27 324.53 489.38 275.92 554.97 431.13 636.72 439.94 612.27"/><polygon class="cls-2" points="445.99 619.39 560.77 447.52 603.52 559.63 457.29 642.82 445.99 619.39"/><polygon class="cls-2" points="429 712.78 429 734.44 580.67 729.24 567.32 662.3 429 712.78"/><path class="cls-2" d="M2855.2,5411.68c-17.63,2.77-55.25-13.47-65.36,8-15.34,32.65-18,57.77-15.84,112.43,1.88,47.55,15.8,65.26,41.51,63.66,25.11-1.57,27.29,18.17,52,4.73,33.07-18,80-15.2,67.28-93.61C2920.28,5417.31,2899.6,5404.72,2855.2,5411.68Z" transform="translate(-2354 -4186)"/><path class="cls-2" d="M2863.4,5462.4a14.22,14.22,0,0,1-16.31-11.65,14.05,14.05,0,0,1,11.83-16.06,14.22,14.22,0,0,1,16.31,11.64A14.05,14.05,0,0,1,2863.4,5462.4Z" transform="translate(-2354 -4186)"/><path class="cls-2" d="M2870.75,5507.84a14.22,14.22,0,0,1-16.31-11.65,14.05,14.05,0,0,1,11.83-16.06,14.22,14.22,0,0,1,16.31,11.64A14.05,14.05,0,0,1,2870.75,5507.84Z" transform="translate(-2354 -4186)"/><path class="cls-2" d="M2863.4,5462.4a6.94,6.94,0,0,1,7,6.23c1.05,6.49-4.14,11.5-4.14,11.5" transform="translate(-2354 -4186)"/><path class="cls-3" d="M2870.75,5507.84s82.57,104.19,58.68,144.54" transform="translate(-2354 -4186)"/><path class="cls-2" d="M2833,5535.61c-17.6,2.76-36.05-20.91-41.22-52.88s4.9-60.11,22.5-62.87,36.05,20.91,41.22,52.88S2850.64,5532.85,2833,5535.61Z" transform="translate(-2354 -4186)"/><path class="cls-3" d="M2903.79,5447.63s64.14,34.55,34.74,76.87" transform="translate(-2354 -4186)"/><path class="cls-3" d="M2917,5445.56s64.14,34.55,34.74,76.87" transform="translate(-2354 -4186)"/><polygon class="cls-2" points="548.82 1273.2 653.91 1141.65 580.48 1104.69 522.91 1268.48 548.82 1273.2"/><polygon class="cls-2" points="542.63 1280.2 733.06 1364.77 627.35 1423.98 520.9 1294.87 542.63 1280.2"/><polygon class="cls-2" points="446.27 1278.29 424.55 1281.7 453.63 1428.4 518.66 1404.87 446.27 1278.29"/><path class="cls-2" d="M3047.59,5145.13c15,9.58,31.83,46.46,54,37.17,33.61-14.11,52.68-31,88.28-73,31-36.53,32.69-58.86,12.52-74.64-19.71-15.41-7.88-31.5-35.36-37.82-36.8-8.46-69.7-41.49-113.65,25.08C3003.12,5098,3009.9,5121,3047.59,5145.13Z" transform="translate(-2354 -4186)"/><path class="cls-2" d="M3076,5102.07a13.9,13.9,0,0,1,4.18,19.4,14.38,14.38,0,0,1-19.71,4.11,13.9,13.9,0,0,1-4.18-19.4A14.38,14.38,0,0,1,3076,5102.07Z" transform="translate(-2354 -4186)"/><path class="cls-2" d="M3101.5,5063.5a13.9,13.9,0,0,1,4.18,19.41A14.38,14.38,0,0,1,3086,5087a13.9,13.9,0,0,1-4.18-19.4A14.38,14.38,0,0,1,3101.5,5063.5Z" transform="translate(-2354 -4186)"/><path class="cls-2" d="M3076,5102.07a6.78,6.78,0,0,1-1-9.25c3.64-5.51,10.9-5.8,10.9-5.8" transform="translate(-2354 -4186)"/><path class="cls-3" d="M3101.5,5063.5s9.64-131.82,54.84-146" transform="translate(-2354 -4186)"/><path class="cls-2" d="M3148.39,5067.77c14.94,9.56,12.52,39.31-5.4,66.45s-44.55,41.38-59.49,31.81-12.52-39.31,5.4-66.45S3133.45,5058.21,3148.39,5067.77Z" transform="translate(-2354 -4186)"/><path class="cls-3" d="M3036,5086.38s-24.08-68,26.54-80" transform="translate(-2354 -4186)"/><path class="cls-3" d="M3024.81,5079.22s-24.08-68,26.54-80" transform="translate(-2354 -4186)"/><polygon class="cls-2" points="690.59 892.44 523.05 920.72 552.4 996.6 706.61 913.04 690.59 892.44"/><polygon class="cls-2" points="699.95 891.32 616.18 702.89 734.94 728.71 726.06 894.78 699.95 891.32"/><polygon class="cls-2" points="770.17 956.33 788.61 968.13 866.88 840.06 802.6 814.61 770.17 956.33"/><path class="cls-2" d="M2542.79,4411.64c-6.91,16.21-40.75,39.12-27.52,58.92,20.09,30,40.37,45.51,88.68,72.52,42,23.5,64.66,21.18,76.82-1.17,11.89-21.84,30.07-13.25,31.49-41,1.9-37.16,29-74.92-45.32-105.64C2582,4360.15,2560.19,4370.82,2542.79,4411.64Z" transform="translate(-2354 -4186)"/><path class="cls-2" d="M2590.9,4431.51a14.33,14.33,0,0,1-18.65,7.51,14,14,0,0,1-7.62-18.36,14.33,14.33,0,0,1,18.65-7.51A14,14,0,0,1,2590.9,4431.51Z" transform="translate(-2354 -4186)"/><path class="cls-2" d="M2634,4449.31a14.33,14.33,0,0,1-18.65,7.51,14,14,0,0,1-7.62-18.36,14.33,14.33,0,0,1,18.65-7.51A14,14,0,0,1,2634,4449.31Z" transform="translate(-2354 -4186)"/><path class="cls-2" d="M2590.9,4431.51s2.92-5.12,9.07-2.58,7.74,9.53,7.74,9.53" transform="translate(-2354 -4186)"/><path class="cls-3" d="M2634,4449.31s133.45-14.16,155.68,27.1" transform="translate(-2354 -4186)"/><path class="cls-2" d="M2638.07,4495.51c-6.89,16.18-37.05,19.14-67.37,6.62s-49.29-35.79-42.4-52,37.05-19.14,67.36-6.62S2645,4479.33,2638.07,4495.51Z" transform="translate(-2354 -4186)"/><path class="cls-3" d="M2599.43,4389.94s63.63-35.45,84.66,11.46" transform="translate(-2354 -4186)"/><path class="cls-3" d="M2604.6,4377.81s63.63-35.45,84.66,11.46" transform="translate(-2354 -4186)"/><polygon class="cls-2" points="254.91 210.85 196.78 53.56 126.17 95.53 237.18 230.03 254.91 210.85"/><polygon class="cls-2" points="257.69 219.72 431.06 104.96 426.43 224.62 258.89 245.63 257.69 219.72"/><polygon class="cls-2" points="205.25 299.33 196.74 319.31 338.68 372.31 352.65 305.49 205.25 299.33"/><path class="cls-2" d="M2458.93,5613.74c-6.75,16.28-40.36,39.52-26.92,59.19,20.39,29.85,40.82,45.11,89.41,71.65,42.26,23.08,64.87,20.55,76.81-1.92,11.67-22,29.94-13.55,31.07-41.3,1.52-37.18,28.28-75.2-46.38-105.19C2497.58,5561.88,2475.91,5572.76,2458.93,5613.74Z" transform="translate(-2354 -4186)"/><path class="cls-2" d="M2507.23,5633.14a14.32,14.32,0,0,1-18.57,7.69,14,14,0,0,1-7.81-18.28,14.32,14.32,0,0,1,18.57-7.69A14,14,0,0,1,2507.23,5633.14Z" transform="translate(-2354 -4186)"/><path class="cls-2" d="M2550.49,5650.52a14.32,14.32,0,0,1-18.57,7.69,14,14,0,0,1-7.81-18.28,14.32,14.32,0,0,1,18.57-7.69A14,14,0,0,1,2550.49,5650.52Z" transform="translate(-2354 -4186)"/><path class="cls-2" d="M2507.23,5633.14s2.87-5.15,9-2.67,7.84,9.45,7.84,9.45" transform="translate(-2354 -4186)"/><path class="cls-3" d="M2550.49,5650.52s133.3-15.46,155.94,25.58" transform="translate(-2354 -4186)"/><path class="cls-2" d="M2555.05,5696.68c-6.73,16.24-36.86,19.5-67.3,7.28s-49.65-35.31-42.92-51.55,36.86-19.5,67.29-7.28S2561.78,5680.43,2555.05,5696.68Z" transform="translate(-2354 -4186)"/><path class="cls-3" d="M2515.35,5591.49s63.27-36.07,84.77,10.63" transform="translate(-2354 -4186)"/><path class="cls-3" d="M2520.39,5579.32s63.27-36.07,84.77,10.63" transform="translate(-2354 -4186)"/><polygon class="cls-2" points="170.89 1412.3 111.18 1255.6 41 1298.25 153.36 1431.66 170.89 1412.3"/><polygon class="cls-2" points="173.76 1421.14 345.97 1304.7 342.55 1424.4 175.23 1447.04 173.76 1421.14"/><polygon class="cls-2" points="122.13 1501.27 113.82 1521.33 256.29 1572.93 269.58 1505.98 122.13 1501.27"/></svg>