<svg id="Layer_1" data-name="Layer 1" xmlns="http://www.w3.org/2000/svg" viewBox="0 0 4200 700" preserveAspectRatio="none"><defs><style>.cls-1{fill:#29abe2;}.cls-2{fill:#fff;}.cls-3{fill:none;stroke:#0db900;stroke-linecap:square;stroke-miterlimit:10;stroke-width:39px;}</style></defs><title>bear-clock</title><path class="cls-1" d="M191.06,671a19.84,19.84,0,0,1-2.55-.17,503.42,503.42,0,0,1-56.57-11,27.79,27.79,0,0,1-17.32-13.25,29.25,29.25,0,0,1-3.13-22.43C115,611.68,126.8,603,140.27,603a31.41,31.41,0,0,1,7.52.92l1.14,0.28c4.19,1,8.37,2.07,12.57,3.06l4.46,1.06,0.44-4.57c0.36-3.67.66-7,.92-10.31q0.3-3.73.58-7.47c1.4-18,2.84-36.57,6-54.56,4.07-22.95,10.91-40.43,20.91-53.44A108.29,108.29,0,0,1,208,463.7l2.57-2.33-1.94-2.87a162.34,162.34,0,0,1-14.74-154.73l2.44-5.69-6.19.12c-3.43.06-6.27,0.2-8.94,0.42-1.13.09-3,.33-4.92,0.56l-0.64.11-1,.17a131.32,131.32,0,0,0-13.37,3.23c-2.16.65-4.7,1.45-7.23,2.38-0.61.23-1.46,0.57-2.29,0.91l-0.16.07c-3.36,1.55-6.34,3.07-9.12,4.64-4.56,2.58-8.51,5-12.07,7.55l-1.71,1.22-0.75.54-0.08.07c-1.09.88-2.38,1.93-3.69,3.06a210.9,210.9,0,0,0-22.48,22.61c-2,2.36-3.79,4.5-5.41,6.51l-0.37.48-1.08,1.43c-3.57,4.81-7.17,9.92-10.71,15.19-6.11,9.12-15.84,14.56-26,14.56a28.4,28.4,0,0,1-14.38-3.94,30.52,30.52,0,0,1-14-19.35A25.45,25.45,0,0,1,33,340.44c33.77-50.34,70.2-80.89,111.36-93.39a167.67,167.67,0,0,1,48.71-6.89,233.79,233.79,0,0,1,42.08,4.07l1.87,0.34,1.45-1.24a167.82,167.82,0,0,1,18.23-13.54l4.07-2.61-3.32-3.51a75.36,75.36,0,0,1-7.3-9c-8.23-11.95-13.08-27.33-15.27-48.39-2.43-23.43,1.8-45.62,11.92-62.49L252,95.09l-9.72,2.76A29,29,0,0,1,234.4,99c-15.95,0-29.42-13.3-29.42-29s13.47-29,29.42-29,29.42,13.3,29.42,29a27.87,27.87,0,0,1-.65,6l-2.21,10L269.38,80c16.68-11.72,37-17.66,60.48-17.66a146.42,146.42,0,0,1,21,1.56,119.43,119.43,0,0,1,48,18.21l6.69,4.34,6,5.09a127.17,127.17,0,0,1,18.29,19c24,30.83,22.19,74.41-4.18,101.38-0.93,1-1.92,1.86-3,2.81L418.08,219l5.14,2.63c2.59,1.33,5.15,2.72,7.62,4.15l1.66,1,1.79-.69c23.3-9,49.65-14.41,78.32-15.95,5-.27,10-0.4,15-0.4,26.37,0,51.86,3.75,73.72,10.84,25.63,8.32,46.19,21,61.1,37.75,12.87,14.44,9.83,31.66.17,41.21A31.25,31.25,0,0,1,641,308c-8,0-15.09-2.94-19.85-8.28a92.87,92.87,0,0,0-8.84-8.7l-0.11-.1-0.12-.09c-1.72-1.27-2.86-2.08-3.59-2.55-1.62-1-3.75-2.39-6-3.64-2.9-1.63-5.31-2.89-7.57-4-1-.46-1.94-0.91-2.92-1.35l-0.12-.05-0.12,0c-4.92-1.87-9.45-3.39-13.85-4.62-6.38-1.8-12.32-3.18-18.15-4.23q-2.8-.51-5.61-0.95l-0.15,0c-1.51-.18-3.34-0.4-4.32-0.49-7.94-.73-15.83-1.11-23.48-1.11-4.17,0-8.34.11-12.42,0.33-5.28.28-10.09,0.66-14.71,1.17l-0.18,0-1.67.25c-1.92.29-4.31,0.65-5.46,0.86l-2,.39-1.36.27-5.94,1.13,3.36,5a162.11,162.11,0,0,1,6,171.06l-2,3.52,3.55,2A119.7,119.7,0,0,1,520,474.15c16.31,16.39,29.39,34,38.86,52.22,2.67,5.15,5.34,10.68,7.94,16.44l1.81,4,3.82-2.18a149.32,149.32,0,0,1,29.36-12.7,26,26,0,0,1,7.67-1.15c12.79,0,25,9.23,28.41,21.48C642,567.41,633,583.11,617.15,588c-1.46.45-2.88,0.92-4.21,1.38l-0.16.06-0.46.21c-1.83.82-3.42,1.53-4.25,2a119.94,119.94,0,0,0-11.77,7l-0.13.09-0.69.55c-1.59,1.28-3,2.39-3.65,3-1.66,1.56-3.43,3.26-5.06,5.08l-0.19.21-0.47.69c-0.29.42-.58,0.85-0.85,1.28-1,1.71-1.87,3.34-2.68,5-4.62,9.67-16.18,14-25.6,14a28.57,28.57,0,0,1-7.49-1c-9.71-2.64-17-9.92-20.6-20.49-3.21-9.48-6.73-19.63-10.71-29.6-0.23-.58-0.83-2-1.4-3.36s-1-2.46-1.16-2.79l-0.07-.18-0.38-.87c-0.27-.62-0.54-1.23-0.83-1.85-1.74-3.74-3.83-8.15-6.12-12.47A199,199,0,0,0,493,531.26l-0.09-.12-0.1-.11-2.1-2.45-0.3-.35c-1.16-1.34-2.33-2.68-3.52-4-2.17-2.41-4.71-5.2-7.34-7.84s-5.3-5.26-8.32-7.82c-0.38-.32-0.87-0.71-1.39-1.12l-0.09-.07-0.31-.21c-0.34-.23-0.67-0.46-1-0.68a77.33,77.33,0,0,0-7.13-4.09l-0.23-.12-0.25-.08c-0.75-.26-1.65-0.56-2.59-0.83-2.17-.62-4.33-1.16-6.42-1.6l-0.18,0-0.18,0-3.4-.37-1.52-.15-1.23.9A167.51,167.51,0,0,1,254.37,504l-2.18-1.45L250,504l-0.43.26-0.35.24-0.29.23c-1.13,1-2.45,2.2-3.71,3.54-0.47.5-1.07,1.21-1.8,2.1l-0.11.14-0.3.44c-0.16.24-.32,0.48-0.48,0.72-1.45,2.29-2.81,4.67-4.05,7.1l-0.1.2-0.75,2c-0.88,2.31-2,5.19-2.43,6.67a177.82,177.82,0,0,0-5.47,25l0,0.12c-0.27,2.3-.54,4.6-0.77,6.91-0.45,4.44-.87,9.15-1.25,14q-0.36,4.49-.69,9c-0.41,5.49-.84,11.17-1.34,16.74l-0.26,2.86c-1.43,15.91-2.91,32.36-8.86,46.8C212.35,659.16,203.18,671,191.06,671ZM426.91,87.07a28.94,28.94,0,0,1-11.18-2.25L408.9,82l-4.75-5.74A28.67,28.67,0,0,1,397.49,58c0-15.74,13.47-29,29.42-29s29.42,13.3,29.42,29S442.86,87.07,426.91,87.07Z"/><path d="M426.91,33c13.78,0,25.42,11.46,25.42,25s-11.64,25-25.42,25a25,25,0,0,1-9.64-1.94l-5.92-2.46-4.12-5A24.66,24.66,0,0,1,401.49,58c0-13.57,11.64-25,25.42-25M234.41,44.89c13.78,0,25.42,11.46,25.42,25a23.84,23.84,0,0,1-.56,5.11L256,89.8,241.22,94a25,25,0,0,1-6.81,1C220.62,95,209,83.49,209,69.92s11.64-25,25.42-25m95.45,21.48a142.41,142.41,0,0,1,20.45,1.52A115.46,115.46,0,0,1,396.72,85.5l6.48,4.2L409,94.63a123.15,123.15,0,0,1,17.71,18.44c22.77,29.26,21.1,70.58-3.88,96.12-0.85.87-1.81,1.74-2.81,2.66l-0.39.36L411.12,220l10.28,5.26c2.53,1.29,5,2.65,7.43,4l3.32,1.92,3.58-1.39c22.91-8.89,48.84-14.17,77.09-15.68,4.9-.26,9.88-0.4,14.8-0.4,26,0,51,3.68,72.48,10.65,24.95,8.09,44.91,20.41,59.35,36.6,8.49,9.52,11.33,24.85.35,35.7A27.17,27.17,0,0,1,641,304c-6.88,0-12.87-2.47-16.86-6.95a96.91,96.91,0,0,0-9.22-9.08l-0.22-.19-0.24-.17c-1.78-1.31-3-2.17-3.81-2.69-1.66-1.07-3.87-2.46-6.18-3.76-3-1.68-5.47-3-7.81-4.09-1-.47-2-0.93-3-1.38l-0.23-.11-0.24-.09c-5-1.92-9.68-3.47-14.19-4.74-6.51-1.83-12.57-3.24-18.52-4.32-1.82-.33-3.69-0.64-5.7-1l-0.15,0-0.15,0c-2.22-.27-3.59-0.42-4.44-0.5-8.06-.75-16.08-1.12-23.84-1.12-4.24,0-8.49.11-12.63,0.33-5.35.29-10.24,0.67-14.93,1.18l-0.18,0-0.18,0-1.65.25c-1.95.3-4.37,0.66-5.58,0.88l-2.11.41-1.32.26-11.89,2.26,6.73,10.05a158.11,158.11,0,0,1,5.86,166.84l-4,7,7.09,3.94A115.7,115.7,0,0,1,517.13,477c16,16.1,28.86,33.34,38.14,51.24,2.64,5.08,5.28,10.55,7.84,16.24l3.61,8,7.64-4.35a145.25,145.25,0,0,1,28.56-12.35,22,22,0,0,1,6.49-1c11.06,0,21.61,8,24.55,18.55,3.63,13.05-4.27,26.6-18,30.85-1.5.47-3,.95-4.35,1.43l-0.32.11-0.31.14-0.3.13c-2,.88-3.54,1.58-4.48,2.08a123.83,123.83,0,0,0-12.17,7.2l-0.27.18-0.25.2-0.56.45c-1.72,1.38-3.1,2.49-3.89,3.24-1.73,1.62-3.57,3.39-5.31,5.33l-0.37.42-0.31.46-0.29.42c-0.29.42-.62,0.9-1,1.46l0,0.07,0,0.07c-1,1.75-1.95,3.48-2.81,5.28-3.3,6.9-12.34,11.73-22,11.73a24.57,24.57,0,0,1-6.44-.82c-8.38-2.28-14.73-8.64-17.86-17.92-3.23-9.54-6.77-19.75-10.79-29.8-0.24-.59-0.84-2-1.42-3.41-0.43-1-1-2.41-1.12-2.7l-0.07-.18-0.08-.18-0.38-.85c-0.28-.64-0.57-1.29-0.86-1.93-1.76-3.79-3.88-8.26-6.22-12.66a202.86,202.86,0,0,0-15.52-25.23l-0.17-.24-0.19-.22-2.14-2.49-0.24-.27c-1.17-1.34-2.38-2.74-3.62-4.11-2.2-2.44-4.78-5.28-7.47-8s-5.43-5.39-8.58-8.05c-0.4-.34-0.91-0.75-1.52-1.22l-0.19-.15-0.2-.14-0.22-.15c-0.37-.25-0.74-0.5-1.11-0.74a81.26,81.26,0,0,0-7.5-4.31l-0.47-.23-0.49-.17c-0.8-.28-1.76-0.6-2.78-0.89-2.26-.65-4.52-1.21-6.71-1.67l-0.35-.07-0.36,0-3.46-.38-3-.3-2.47,1.79a163.51,163.51,0,0,1-186.35,3.81l-4.38-2.91-4.32,2.8-0.49.3-0.19.12-0.5.33-0.45.4c-1.2,1.06-2.6,2.34-4,3.8-0.54.57-1.19,1.33-2,2.31l-0.23.28-0.2.3-0.18.26c-0.19.27-.37,0.54-0.56,0.84-1.51,2.38-2.93,4.87-4.23,7.41l-0.21.41-0.16.43-0.66,1.75c-1.15,3-2.07,5.45-2.52,6.95a181.79,181.79,0,0,0-5.6,25.58l0,0.12v0.12c-0.23,1.91-.52,4.44-0.78,7-0.45,4.52-.87,9.12-1.26,14.07q-0.36,4.5-.69,9c-0.41,5.48-.83,11.15-1.34,16.69l-0.26,2.86c-1.4,15.61-2.86,31.76-8.57,45.64-3.7,9-11.63,19.5-21.77,19.5a15.83,15.83,0,0,1-2-.13,499.52,499.52,0,0,1-56.12-10.92,23.82,23.82,0,0,1-14.83-11.38,25.23,25.23,0,0,1-2.73-19.34c3-10.75,13.24-18.25,24.92-18.25a27.4,27.4,0,0,1,6.57.8l1.29,0.32c4.07,1,8.28,2,12.45,3l8.93,2.12,0.89-9.13c0.36-3.71.66-7.11,0.92-10.38q0.3-3.73.58-7.47c1.39-17.88,2.83-36.38,6-54.17,4-22.3,10.55-39.21,20.14-51.7a104.31,104.31,0,0,1,12.62-13.72l5.14-4.65-3.88-5.75a158.34,158.34,0,0,1-14.38-150.92L202.4,294l-12.38.23c-3.52.07-6.44,0.2-9.19,0.43-1.21.1-3.16,0.34-5.09,0.58l-0.2,0-0.19,0-0.41.07-1.06.19a135.07,135.07,0,0,0-13.77,3.33c-2.21.67-4.83,1.49-7.47,2.46-0.59.22-1.4,0.54-2.42,1l-0.16.07-0.16.07c-3.46,1.6-6.54,3.17-9.41,4.79-4.67,2.64-8.73,5.18-12.4,7.76l-1.75,1.26-0.65.47-0.18.13-0.17.14c-1.12.91-2.45,2-3.79,3.14a214.92,214.92,0,0,0-22.9,23c-2.05,2.4-3.85,4.56-5.49,6.61l-0.07.09L93,349.9l-0.35.46-1.06,1.4c-3.6,4.85-7.24,10-10.81,15.34-5.37,8-13.85,12.78-22.7,12.78a24.45,24.45,0,0,1-12.38-3.4,26.45,26.45,0,0,1-12.07-16.79,21.5,21.5,0,0,1,2.71-17c15.46-23,30.92-41.34,47.29-55.93,19.52-17.41,39.78-29.14,61.91-35.86a163.68,163.68,0,0,1,47.55-6.72,229.79,229.79,0,0,1,41.35,4l3.75,0.69,2.9-2.47a163.82,163.82,0,0,1,17.79-13.21l8.13-5.22-6.65-7a71.26,71.26,0,0,1-6.9-8.56C245.64,201,241,186.21,238.89,165.84c-2.34-22.57,1.7-43.89,11.37-60L258,92.93l13.69-9.62c16-11.24,35.56-16.94,58.18-16.93M426.91,25c-18.22,0-33.42,15-33.42,33a32.53,32.53,0,0,0,7.58,20.75A124.19,124.19,0,0,0,351.46,60a150,150,0,0,0-21.61-1.61c-22.47,0-44.38,5.46-62.78,18.39a31.75,31.75,0,0,0,.75-6.83c0-18-15.2-33-33.42-33s-33.42,15-33.42,33,15.2,33,33.42,33a32.92,32.92,0,0,0,9-1.26c-11.49,19.17-14.76,42.92-12.47,65,1.82,17.5,5.76,35.45,16,50.25a79,79,0,0,0,7.69,9.52,171.18,171.18,0,0,0-18.67,13.86,236.89,236.89,0,0,0-42.8-4.13,171,171,0,0,0-49.87,7.07c-49.64,15.07-85.61,53.39-113.52,95-10.08,15-3.05,36.49,12,45.2a32.51,32.51,0,0,0,16.39,4.48c11.51,0,22.54-6.19,29.34-16.33q5.12-7.63,10.59-15l1.36-1.79c1.74-2.17,3.53-4.31,5.34-6.42a206.28,206.28,0,0,1,22-22.17c1.18-1,2.38-2,3.59-3,0.78-.56,1.55-1.12,2.33-1.67,3.78-2.65,7.72-5.07,11.74-7.34,2.87-1.62,5.83-3.11,8.83-4.49,0.78-.32,1.59-0.64,2.16-0.85,2.31-.85,4.66-1.59,7-2.31a129.07,129.07,0,0,1,13-3.13l1.34-.24c1.49-.19,3.63-0.45,4.75-0.55,2.89-.24,5.79-0.35,8.69-0.4a166.34,166.34,0,0,0,15.1,158.55,112,112,0,0,0-13.59,14.78c-12.08,15.72-18.26,35.95-21.68,55.18-3.66,20.64-5,41.54-6.67,62.4q-0.41,5.13-.91,10.24c-4.56-1.08-9.12-2.21-13.67-3.34a35.35,35.35,0,0,0-8.48-1c-14.76,0-28.5,9.27-32.63,24.11-4.74,17,5.67,36.27,23.34,40.64a511.35,511.35,0,0,0,57,11.09,23.74,23.74,0,0,0,3.06.2c14.1,0,24.4-12.88,29.17-24.45,6.54-15.89,7.86-33.92,9.4-50.82,0.78-8.58,1.35-17.18,2-25.77q0.55-7,1.24-13.9c0.23-2.28.49-4.56,0.76-6.84A175.17,175.17,0,0,1,239,528.75c0.53-1.76,2.25-6.14,3-8.18q1.78-3.47,3.87-6.78c0.2-.32.42-0.62,0.63-0.93,0.56-.69,1.15-1.39,1.61-1.88,1.09-1.16,2.26-2.23,3.44-3.29l0.18-.12,0.41-.25a171.51,171.51,0,0,0,195.48-4L451,503.7c2.06,0.43,4.11.94,6.13,1.53,0.8,0.23,1.6.49,2.39,0.77a73.45,73.45,0,0,1,6.76,3.89c0.38,0.24.75,0.5,1.13,0.76s0.92,0.72,1.25,1c2.82,2.39,5.47,5,8.07,7.58s4.85,5.09,7.2,7.69c1.27,1.41,2.52,2.85,3.76,4.28l2.09,2.43a197.73,197.73,0,0,1,14.9,24.25c2.14,4,4.11,8.15,6,12.28,0.41,0.88.79,1.77,1.19,2.66,0.27,0.69,2.12,5,2.57,6.18,3.87,9.68,7.3,19.53,10.64,29.39,3.76,11.1,11.64,19.89,23.34,23.07a32.65,32.65,0,0,0,8.54,1.1c11.68,0,24.16-5.71,29.21-16.28,0.77-1.6,1.58-3.14,2.48-4.67,0.34-.55.71-1.07,1.07-1.6,1.52-1.7,3.17-3.28,4.83-4.84,0.74-.7,2.83-2.35,4-3.29a116.28,116.28,0,0,1,11.38-6.73c0.85-.45,2.93-1.37,4.33-2q2-.71,4.08-1.34c17.37-5.37,28.3-22.82,23.34-40.63-3.91-14.05-17.72-24.4-32.26-24.4a29.89,29.89,0,0,0-8.85,1.33,152.46,152.46,0,0,0-30.16,13q-3.8-8.42-8-16.63c-10.21-19.68-23.9-37.46-39.57-53.2a123.11,123.11,0,0,0-27.52-21A166.11,166.11,0,0,0,489.13,275c1.12-.21,2.24-0.45,3.36-0.65,1.48-.27,5.29-0.83,7-1.1,4.82-.52,9.65-0.89,14.49-1.15q6.1-.33,12.2-0.32c7.71,0,15.43.38,23.11,1.09,1,0.09,2.74.3,4.22,0.48q2.77,0.44,5.53.93c6,1.08,11.92,2.5,17.77,4.15,4.57,1.29,9.07,2.82,13.51,4.51,1,0.44,1.91.87,2.86,1.32,2.49,1.19,4.93,2.5,7.34,3.85,2,1.1,3.87,2.29,5.77,3.51,0.81,0.52,2.2,1.53,3.39,2.41a88.45,88.45,0,0,1,8.46,8.33C624,309,632.46,312,641,312a35.13,35.13,0,0,0,24.43-9.62c13.48-13.33,12-33.22,0-46.72-33.1-37.14-88.56-49.92-137.8-49.93-5.16,0-10.24.14-15.23,0.41-26.75,1.43-54.3,6.41-79.55,16.21q-3.84-2.22-7.8-4.25c1.2-1.09,2.4-2.17,3.54-3.33,28.47-29.1,29.14-74.94,4.48-106.63A131,131,0,0,0,414.2,88.51a33,33,0,0,0,12.72,2.55c18.22,0,33.42-15,33.42-33s-15.2-33-33.42-33h0Z"/><path class="cls-2" d="M305.57,124.45c-15.15-10.55-35-6.2-43.88,10a15.23,15.23,0,0,0,5.49,20.69c7,4.06,17,1.82,20.93-5.43,0.05-.11.13-0.2,0.18-0.31,0.62,0.38,1.25.76,1.83,1.2,6.83,4.76,17,1.23,20.94-5.42C315.54,137.57,312.37,129.18,305.57,124.45Z"/><path class="cls-2" d="M395.07,119.91c-10.77-6.68-22.73-6.62-34.74-3.79-8.11,1.91-12.84,10.87-10.69,18.6,2.27,8.15,10.72,12.47,18.82,10.56,1.29-.3,2.57-0.56,3.87-0.81-0.69.19,1.41,0,2.76-.06a19.75,19.75,0,0,1,2,.25l0.35,0.12c0.73,0.39,1.45.79,2.13,1.24,7.07,4.39,16.82,1.51,20.94-5.42C404.88,133.32,402.12,124.28,395.07,119.91Z"/><path class="cls-2" d="M485.76,362.28A137.37,137.37,0,1,1,348.39,224.9,137.36,137.36,0,0,1,485.76,362.28Z"/><line class="cls-3" x1="348.39" y1="362.28" x2="284.14" y2="298.03"/><line class="cls-3" x1="355.44" y1="362.28" x2="402.17" y2="330.15"/><path class="cls-1" d="M891.06,671a19.84,19.84,0,0,1-2.55-.17,503.42,503.42,0,0,1-56.57-11,27.79,27.79,0,0,1-17.32-13.25,29.25,29.25,0,0,1-3.13-22.43C815,611.68,826.8,603,840.27,603a31.41,31.41,0,0,1,7.52.92l1.14,0.28c4.19,1,8.37,2.07,12.57,3.06l4.46,1.06,0.44-4.57c0.36-3.67.66-7,.92-10.31q0.3-3.73.58-7.45c1.4-18,2.84-36.58,6-54.57,4.07-22.95,10.91-40.43,20.91-53.44A108.29,108.29,0,0,1,908,463.7l2.57-2.33-1.94-2.87a162.34,162.34,0,0,1-14.74-154.73l2.44-5.69-6.19.12c-3.43.06-6.27,0.2-8.94,0.42-1.13.09-3,.33-4.92,0.56l-0.64.11-1,.17a131.32,131.32,0,0,0-13.37,3.23c-2.16.65-4.7,1.45-7.23,2.38-0.61.23-1.46,0.57-2.29,0.91l-0.16.07c-3.36,1.55-6.34,3.07-9.12,4.64-4.56,2.58-8.51,5-12.07,7.55l-1.71,1.22-0.75.54-0.08.07c-1.09.88-2.38,1.93-3.69,3.06a210.9,210.9,0,0,0-22.48,22.61c-2,2.36-3.79,4.49-5.41,6.51l-0.41.53-1,1.37c-3.57,4.81-7.17,9.92-10.71,15.19-6.11,9.12-15.84,14.56-26,14.56a28.4,28.4,0,0,1-14.38-3.94,30.52,30.52,0,0,1-14-19.35A25.45,25.45,0,0,1,733,340.44c33.77-50.34,70.2-80.89,111.36-93.39a167.67,167.67,0,0,1,48.71-6.89,233.79,233.79,0,0,1,42.08,4.07l1.87,0.34,1.45-1.24a167.82,167.82,0,0,1,18.23-13.54l4.07-2.61-3.32-3.51a75.36,75.36,0,0,1-7.3-9c-8.23-11.95-13.08-27.33-15.27-48.39-2.43-23.43,1.8-45.62,11.92-62.49L952,95.09l-9.72,2.76A29,29,0,0,1,934.4,99c-15.95,0-29.42-13.3-29.42-29s13.47-29,29.42-29,29.42,13.3,29.42,29a27.87,27.87,0,0,1-.65,6l-2.21,10L969.38,80c16.68-11.72,37-17.66,60.48-17.66a146.42,146.42,0,0,1,21,1.56,119.43,119.43,0,0,1,48,18.21l6.69,4.34,6,5.09a127.17,127.17,0,0,1,18.29,19c24,30.83,22.19,74.41-4.18,101.38-0.93,1-1.92,1.86-3,2.81l-4.66,4.25,5.14,2.63c2.59,1.33,5.15,2.72,7.62,4.15l1.66,1,1.79-.69c23.3-9,49.65-14.41,78.32-15.95,5-.27,10-0.4,15-0.4,26.37,0,51.86,3.75,73.72,10.84,25.63,8.32,46.19,21,61.1,37.75,12.87,14.44,9.83,31.66.17,41.21A31.25,31.25,0,0,1,1341,308c-8,0-15.09-2.94-19.85-8.28a92.87,92.87,0,0,0-8.84-8.7l-0.11-.1-0.12-.09c-1.72-1.27-2.86-2.08-3.59-2.55-1.62-1-3.75-2.39-6-3.64-2.9-1.63-5.31-2.89-7.57-4-1-.46-1.94-0.91-2.92-1.35l-0.12-.05-0.12,0c-4.92-1.87-9.45-3.39-13.85-4.62-6.38-1.8-12.32-3.18-18.15-4.23q-2.8-.51-5.61-0.95l-0.15,0c-1.51-.18-3.34-0.4-4.32-0.49-7.94-.73-15.83-1.11-23.48-1.11-4.17,0-8.34.11-12.42,0.33-5.28.28-10.09,0.66-14.71,1.17l-0.18,0-1.67.25c-1.92.29-4.31,0.65-5.46,0.86l-2,.39-1.36.27-5.94,1.13,3.36,5a162.11,162.11,0,0,1,6,171.06l-2,3.52,3.55,2A119.67,119.67,0,0,1,1220,474.15c16.31,16.39,29.39,34,38.86,52.22,2.67,5.15,5.34,10.68,7.94,16.44l1.81,4,3.82-2.18a149.32,149.32,0,0,1,29.36-12.7,26,26,0,0,1,7.67-1.15c12.79,0,25,9.23,28.41,21.48,4.22,15.15-4.86,30.85-20.67,35.74-1.46.45-2.87,0.92-4.21,1.38l-0.16.06-0.46.21c-1.83.82-3.42,1.53-4.25,2a119.94,119.94,0,0,0-11.77,7l-0.13.09-0.69.55c-1.59,1.28-3,2.39-3.65,3-1.66,1.56-3.43,3.26-5.06,5.08l-0.19.21-0.47.69c-0.29.42-.58,0.84-0.85,1.28-1,1.72-1.87,3.34-2.68,5-4.62,9.67-16.18,14-25.6,14a28.57,28.57,0,0,1-7.49-1c-9.71-2.64-17-9.92-20.6-20.49-3.21-9.48-6.73-19.63-10.71-29.6-0.23-.58-0.83-2-1.4-3.36s-1-2.46-1.16-2.79l-0.07-.18-0.38-.87c-0.27-.62-0.54-1.23-0.83-1.85-1.74-3.74-3.83-8.15-6.12-12.47A199,199,0,0,0,1193,531.26l-0.09-.12-0.1-.11-2.1-2.45-0.24-.28c-1.18-1.36-2.37-2.72-3.58-4.06-2.17-2.41-4.71-5.2-7.34-7.84s-5.3-5.26-8.32-7.82c-0.38-.32-0.87-0.71-1.39-1.12l-0.09-.07-0.32-.22c-0.33-.23-0.67-0.46-1-0.68a77.36,77.36,0,0,0-7.13-4.09l-0.23-.12-0.25-.08c-0.75-.26-1.65-0.56-2.59-0.83-2.17-.62-4.33-1.16-6.42-1.6l-0.18,0-0.18,0-3.4-.37-1.52-.15-1.23.9A167.51,167.51,0,0,1,954.37,504l-2.18-1.45L950,504l-0.43.26-0.35.24-0.29.23c-1.13,1-2.45,2.2-3.71,3.54-0.47.5-1.07,1.21-1.8,2.1l-0.11.14-0.3.44c-0.16.24-.32,0.48-0.48,0.72-1.45,2.29-2.81,4.67-4.05,7.1l-0.1.2-0.75,2c-0.88,2.31-2,5.19-2.43,6.67a177.82,177.82,0,0,0-5.47,25l0,0.12c-0.27,2.3-.54,4.6-0.77,6.91-0.45,4.49-.86,9.07-1.25,14q-0.36,4.48-.68,9c-0.41,5.5-.84,11.19-1.34,16.77l-0.26,2.86c-1.43,15.91-2.91,32.36-8.86,46.8C912.35,659.16,903.18,671,891.06,671ZM1126.91,87.07a28.94,28.94,0,0,1-11.18-2.25L1108.9,82l-4.75-5.74a28.67,28.67,0,0,1-6.66-18.2c0-15.74,13.47-29,29.42-29s29.42,13.3,29.42,29S1142.86,87.07,1126.91,87.07Z"/><path d="M1126.91,33c13.78,0,25.42,11.46,25.42,25s-11.64,25-25.42,25a25,25,0,0,1-9.64-1.94l-5.92-2.46-4.12-5A24.66,24.66,0,0,1,1101.49,58c0-13.57,11.64-25,25.42-25M934.4,44.89c13.78,0,25.42,11.46,25.42,25a23.83,23.83,0,0,1-.56,5.11L956,89.81,941.22,94a25,25,0,0,1-6.81,1C920.62,95,909,83.49,909,69.92s11.64-25,25.42-25m95.45,21.48a142.41,142.41,0,0,1,20.45,1.52,115.46,115.46,0,0,1,46.41,17.61l6.48,4.2,5.84,4.93a123.13,123.13,0,0,1,17.71,18.44c22.77,29.26,21.1,70.58-3.88,96.12-0.85.87-1.8,1.74-2.81,2.65l-0.4.36-8.53,7.78,10.28,5.26c2.53,1.29,5,2.65,7.43,4l3.32,1.92,3.58-1.39c22.91-8.89,48.84-14.17,77.09-15.68,4.9-.26,9.88-0.4,14.8-0.4,26,0,51,3.68,72.48,10.65,24.95,8.09,44.91,20.41,59.35,36.6,8.49,9.52,11.33,24.85.35,35.7A27.17,27.17,0,0,1,1341,304c-6.88,0-12.87-2.47-16.86-6.95a96.86,96.86,0,0,0-9.22-9.08l-0.22-.19-0.24-.17c-1.78-1.31-3-2.17-3.81-2.69-1.66-1.07-3.87-2.46-6.18-3.76-3-1.68-5.47-3-7.81-4.09-1-.47-2-0.93-3-1.38l-0.23-.11-0.24-.09c-5-1.92-9.68-3.47-14.19-4.74-6.51-1.83-12.57-3.24-18.52-4.32-1.83-.33-3.69-0.64-5.7-1l-0.15,0-0.15,0c-2.22-.27-3.59-0.42-4.44-0.5-8.06-.75-16.08-1.12-23.84-1.12-4.24,0-8.49.11-12.63,0.33-5.35.29-10.24,0.67-14.93,1.18l-0.18,0-0.18,0-1.65.25c-1.95.3-4.37,0.66-5.58,0.88l-2.11.41-1.32.26-11.89,2.26,6.73,10.05a158.11,158.11,0,0,1,5.86,166.84l-4,7,7.09,3.94A115.71,115.71,0,0,1,1217.13,477c16,16.1,28.86,33.34,38.14,51.24,2.64,5.08,5.28,10.55,7.84,16.24l3.61,8,7.64-4.35a145.26,145.26,0,0,1,28.56-12.35,22,22,0,0,1,6.49-1c11.06,0,21.61,8,24.55,18.55,3.63,13.05-4.27,26.6-18,30.85-1.5.47-3,.95-4.35,1.43l-0.32.11-0.31.14-0.31.14c-2,.87-3.54,1.58-4.48,2.07a123.74,123.74,0,0,0-12.17,7.2l-0.27.18-0.25.2-0.56.45c-1.72,1.38-3.1,2.49-3.89,3.24-1.73,1.62-3.57,3.4-5.31,5.33l-0.37.42-0.31.46-0.29.42c-0.29.42-.62,0.9-1,1.45l0,0.07,0,0.07c-1,1.75-1.95,3.48-2.8,5.28-3.3,6.9-12.34,11.73-22,11.73a24.57,24.57,0,0,1-6.44-.82c-8.38-2.28-14.73-8.64-17.86-17.92-3.23-9.54-6.77-19.75-10.79-29.81-0.24-.59-0.84-2-1.42-3.4-0.43-1-1-2.42-1.13-2.7l-0.07-.18-0.08-.18-0.37-.85c-0.28-.64-0.57-1.29-0.86-1.93-1.76-3.79-3.88-8.26-6.22-12.66a202.88,202.88,0,0,0-15.52-25.23l-0.17-.24-0.19-.23-2.14-2.49-0.24-.28c-1.17-1.34-2.37-2.73-3.61-4.1-2.2-2.44-4.78-5.27-7.47-8s-5.43-5.39-8.58-8.05c-0.4-.34-0.92-0.75-1.52-1.22l-0.19-.15-0.2-.14-0.21-.15c-0.37-.25-0.74-0.5-1.11-0.74a81.33,81.33,0,0,0-7.5-4.3l-0.47-.23-0.49-.17c-0.8-.28-1.76-0.6-2.78-0.89-2.26-.65-4.52-1.21-6.71-1.67l-0.35-.07-0.36,0-3.46-.38-3-.3-2.47,1.79a163.51,163.51,0,0,1-186.35,3.81l-4.38-2.91-4.32,2.8-0.48.29-0.22.15-0.48.31-0.45.4c-1.2,1.06-2.6,2.34-4,3.8-0.54.57-1.19,1.33-2,2.31l-0.23.28-0.2.3-0.18.26c-0.19.27-.37,0.55-0.56,0.84-1.51,2.38-2.93,4.87-4.23,7.41l-0.21.41-0.16.43-0.66,1.75c-1.15,3-2.07,5.45-2.52,6.95a181.79,181.79,0,0,0-5.6,25.58l0,0.12v0.12c-0.23,1.92-.52,4.44-0.78,7-0.45,4.51-.87,9.11-1.26,14.07q-0.36,4.5-.69,9c-0.41,5.48-.83,11.15-1.34,16.68l-0.26,2.86c-1.4,15.61-2.86,31.76-8.57,45.64-3.7,9-11.63,19.5-21.77,19.5a15.83,15.83,0,0,1-2-.13,499.58,499.58,0,0,1-56.12-10.92,23.82,23.82,0,0,1-14.83-11.38,25.23,25.23,0,0,1-2.73-19.34c3-10.75,13.24-18.25,24.92-18.25a27.41,27.41,0,0,1,6.57.8l1.29,0.32c4.07,1,8.28,2,12.45,3l8.93,2.12,0.89-9.13c0.36-3.72.66-7.11,0.92-10.38q0.3-3.73.58-7.46c1.39-17.88,2.83-36.38,6-54.18,4-22.3,10.55-39.21,20.14-51.7a104.32,104.32,0,0,1,12.62-13.72l5.14-4.65-3.87-5.75a158.34,158.34,0,0,1-14.38-150.92L902.4,294l-12.38.23c-3.52.07-6.44,0.2-9.19,0.43-1.21.1-3.16,0.34-5.09,0.58l-0.2,0-0.19,0-0.41.07-1.06.19a135.11,135.11,0,0,0-13.77,3.33c-2.21.67-4.83,1.49-7.47,2.46-0.59.22-1.4,0.54-2.42,1l-0.16.07-0.16.07c-3.46,1.6-6.54,3.17-9.41,4.79-4.67,2.64-8.73,5.18-12.4,7.76l-1.75,1.25-0.66.47-0.18.13-0.17.14c-1.12.91-2.45,2-3.79,3.14a215,215,0,0,0-22.9,23c-2,2.4-3.85,4.56-5.49,6.61l-0.07.09-0.07.09-0.35.46-1.06,1.4c-3.6,4.85-7.24,10-10.81,15.34-5.37,8-13.85,12.78-22.7,12.78a24.45,24.45,0,0,1-12.38-3.4,26.46,26.46,0,0,1-12.07-16.79,21.5,21.5,0,0,1,2.71-17c15.46-23,30.92-41.34,47.29-55.93,19.52-17.41,39.78-29.14,61.91-35.86a163.68,163.68,0,0,1,47.55-6.72,229.79,229.79,0,0,1,41.35,4l3.75,0.69,2.9-2.47a163.85,163.85,0,0,1,17.79-13.21l8.13-5.22-6.65-7a71.26,71.26,0,0,1-6.9-8.56C945.64,201,941,186.21,938.89,165.84c-2.34-22.57,1.7-43.89,11.37-60L958,92.93l13.69-9.62c16-11.24,35.56-16.94,58.18-16.93M1126.91,25c-18.22,0-33.42,15-33.42,33a32.53,32.53,0,0,0,7.58,20.75A124.19,124.19,0,0,0,1051.46,60a150,150,0,0,0-21.61-1.61c-22.47,0-44.38,5.46-62.78,18.39a31.74,31.74,0,0,0,.75-6.83c0-18-15.2-33-33.42-33s-33.42,15-33.42,33,15.2,33,33.42,33a32.92,32.92,0,0,0,9-1.26c-11.49,19.17-14.76,42.92-12.47,65,1.82,17.5,5.76,35.45,16,50.25a79,79,0,0,0,7.69,9.52,171.2,171.2,0,0,0-18.67,13.86,236.88,236.88,0,0,0-42.8-4.13,171,171,0,0,0-49.87,7.07c-49.64,15.07-85.61,53.39-113.52,95-10.08,15-3.05,36.49,12,45.2a32.51,32.51,0,0,0,16.39,4.48c11.51,0,22.54-6.19,29.34-16.33q5.12-7.63,10.59-15l1.36-1.79c1.74-2.17,3.53-4.31,5.34-6.42a206.28,206.28,0,0,1,22-22.17c1.18-1,2.38-2,3.59-3,0.78-.56,1.55-1.12,2.33-1.67,3.78-2.65,7.72-5.07,11.74-7.34,2.87-1.62,5.83-3.11,8.83-4.49,0.78-.32,1.59-0.64,2.16-0.85,2.31-.85,4.66-1.59,7-2.31a129.08,129.08,0,0,1,13-3.13l1.34-.24c1.49-.19,3.63-0.45,4.75-0.55,2.89-.24,5.79-0.35,8.68-0.4a166.34,166.34,0,0,0,15.1,158.55,112,112,0,0,0-13.59,14.78c-12.08,15.72-18.26,35.95-21.68,55.18-3.66,20.64-5,41.54-6.67,62.4q-0.41,5.13-.91,10.24c-4.56-1.08-9.12-2.21-13.67-3.34a35.35,35.35,0,0,0-8.48-1c-14.76,0-28.5,9.27-32.63,24.11-4.74,17,5.67,36.27,23.34,40.64a511.37,511.37,0,0,0,57,11.09,23.75,23.75,0,0,0,3.06.2c14.11,0,24.4-12.88,29.17-24.45,6.54-15.89,7.86-33.92,9.4-50.82,0.78-8.58,1.35-17.18,2-25.77q0.55-7,1.24-13.9c0.23-2.28.49-4.56,0.76-6.84A175.17,175.17,0,0,1,939,528.75c0.53-1.76,2.25-6.14,3-8.18q1.78-3.47,3.87-6.78c0.2-.32.42-0.62,0.63-0.93,0.56-.69,1.15-1.39,1.61-1.88,1.09-1.16,2.26-2.23,3.44-3.29l0.18-.12,0.41-.25a171.51,171.51,0,0,0,195.48-4l3.34,0.36c2.06,0.43,4.11.94,6.13,1.53,0.8,0.23,1.6.49,2.39,0.77a73.47,73.47,0,0,1,6.76,3.89c0.38,0.24.75,0.5,1.13,0.76s0.92,0.72,1.25,1c2.82,2.39,5.47,5,8.07,7.58s4.85,5.09,7.2,7.69c1.27,1.41,2.52,2.85,3.76,4.28l2.09,2.43a197.74,197.74,0,0,1,14.9,24.25c2.14,4,4.11,8.15,6,12.28,0.41,0.88.79,1.77,1.19,2.66,0.27,0.69,2.12,5,2.57,6.18,3.87,9.68,7.3,19.53,10.64,29.39,3.76,11.1,11.64,19.89,23.34,23.07a32.65,32.65,0,0,0,8.54,1.1c11.68,0,24.16-5.71,29.21-16.28,0.77-1.6,1.58-3.14,2.48-4.67,0.34-.55.71-1.07,1.07-1.6,1.52-1.7,3.17-3.28,4.83-4.84,0.74-.7,2.83-2.35,4-3.29a116.27,116.27,0,0,1,11.38-6.73c0.85-.45,2.93-1.37,4.33-2q2-.71,4.08-1.34c17.37-5.37,28.3-22.82,23.34-40.63-3.91-14.05-17.72-24.4-32.26-24.4a29.89,29.89,0,0,0-8.85,1.33,152.45,152.45,0,0,0-30.16,13q-3.8-8.42-8-16.63c-10.21-19.68-23.9-37.46-39.57-53.2a123.12,123.12,0,0,0-27.52-21A166.11,166.11,0,0,0,1189.13,275c1.12-.21,2.24-0.45,3.36-0.65,1.48-.27,5.29-0.83,7-1.1,4.82-.52,9.65-0.89,14.49-1.15q6.1-.33,12.2-0.32c7.71,0,15.43.38,23.11,1.09,1,0.09,2.74.3,4.22,0.48q2.77,0.44,5.53.93c6,1.08,11.92,2.5,17.77,4.15,4.57,1.29,9.07,2.82,13.51,4.51,1,0.44,1.91.87,2.86,1.32,2.49,1.19,4.93,2.5,7.34,3.85,2,1.1,3.87,2.29,5.77,3.51,0.81,0.52,2.2,1.53,3.39,2.41a88.45,88.45,0,0,1,8.46,8.33C1324,309,1332.46,312,1341,312a35.13,35.13,0,0,0,24.43-9.62c13.48-13.33,12-33.22,0-46.72-33.1-37.14-88.56-49.92-137.8-49.93-5.16,0-10.24.14-15.23,0.41-26.75,1.43-54.3,6.41-79.55,16.21q-3.84-2.22-7.8-4.25c1.2-1.09,2.4-2.17,3.54-3.33,28.47-29.1,29.14-74.94,4.48-106.63a131,131,0,0,0-18.86-19.64,33,33,0,0,0,12.72,2.55c18.22,0,33.42-15,33.42-33s-15.2-33-33.42-33h0Z"/><path class="cls-2" d="M1005.57,124.45c-15.15-10.55-35-6.2-43.88,10a15.23,15.23,0,0,0,5.49,20.69c7,4.06,17,1.82,20.93-5.43,0.05-.11.13-0.2,0.18-0.31,0.62,0.38,1.25.76,1.83,1.2,6.83,4.76,17,1.23,20.94-5.42C1015.54,137.57,1012.37,129.18,1005.57,124.45Z"/><path class="cls-2" d="M1095.07,119.91c-10.77-6.68-22.73-6.62-34.74-3.79-8.11,1.91-12.84,10.87-10.69,18.6,2.27,8.15,10.72,12.47,18.82,10.56,1.29-.3,2.57-0.56,3.87-0.81-0.69.19,1.41,0,2.76-.06a19.75,19.75,0,0,1,2,.25l0.35,0.12c0.73,0.39,1.45.79,2.13,1.24,7.07,4.39,16.82,1.51,20.94-5.42C1104.88,133.32,1102.12,124.28,1095.07,119.91Z"/><path class="cls-2" d="M1118,246.12c67.92,38.76,91.18,124.57,52,191.7s-126,90.12-194,51.36-91.18-124.57-52-191.7S1050.12,207.36,1118,246.12Z"/><line class="cls-3" x1="1047.04" y1="367.65" x2="956.33" y2="391.67"/><line class="cls-3" x1="1050.69" y1="361.41" x2="1046.08" y2="303.66"/><path class="cls-1" d="M1591.06,671a19.84,19.84,0,0,1-2.55-.17,503.42,503.42,0,0,1-56.57-11,27.79,27.79,0,0,1-17.32-13.25,29.25,29.25,0,0,1-3.13-22.43c3.47-12.47,15.3-21.18,28.78-21.18a31.41,31.41,0,0,1,7.52.92l1.19,0.29c4.17,1,8.34,2.06,12.52,3.05l4.46,1.06,0.44-4.57c0.36-3.67.66-7,.92-10.31q0.3-3.73.58-7.45c1.4-18,2.84-36.58,6-54.57,4.07-22.95,10.91-40.43,20.91-53.44A108.29,108.29,0,0,1,1608,463.7l2.57-2.33-1.94-2.87a162.34,162.34,0,0,1-14.74-154.73l2.44-5.69-6.19.12c-3.43.06-6.27,0.2-8.94,0.42-1.13.09-3,.33-4.92,0.56l-0.64.11-1,.17a131.32,131.32,0,0,0-13.37,3.23c-2.16.65-4.7,1.45-7.23,2.38-0.61.23-1.46,0.57-2.29,0.91l-0.16.07c-3.36,1.55-6.34,3.07-9.12,4.64-4.56,2.58-8.51,5-12.07,7.55l-1.71,1.22-0.75.54-0.08.07c-1.1.88-2.39,1.94-3.69,3.06a210.9,210.9,0,0,0-22.48,22.61c-2,2.37-3.8,4.51-5.41,6.51l-0.38.5-1.07,1.41c-3.57,4.81-7.17,9.92-10.7,15.19-6.11,9.12-15.84,14.56-26,14.56a28.4,28.4,0,0,1-14.38-3.94,30.52,30.52,0,0,1-14-19.35,25.45,25.45,0,0,1,3.29-20.15c33.77-50.34,70.2-80.89,111.36-93.39a167.67,167.67,0,0,1,48.71-6.89,233.79,233.79,0,0,1,42.08,4.07l1.87,0.34,1.45-1.24a167.76,167.76,0,0,1,18.23-13.54l4.07-2.61-3.32-3.51a75.3,75.3,0,0,1-7.29-9c-8.23-11.95-13.08-27.33-15.27-48.39-2.43-23.43,1.8-45.62,11.92-62.49l5.19-8.66-9.72,2.76a29,29,0,0,1-7.9,1.11c-15.95,0-29.42-13.3-29.42-29s13.47-29,29.42-29,29.42,13.3,29.42,29a27.87,27.87,0,0,1-.65,6l-2.21,10,8.42-5.92c16.68-11.72,37-17.66,60.48-17.66a146.42,146.42,0,0,1,21,1.56,119.43,119.43,0,0,1,48,18.21l6.69,4.34,6,5.09a127.17,127.17,0,0,1,18.29,19c24,30.83,22.19,74.41-4.18,101.38-0.93,1-1.92,1.86-3,2.81l-4.66,4.25,5.14,2.63c2.59,1.33,5.15,2.72,7.62,4.15l1.66,1,1.79-.69c23.3-9,49.65-14.41,78.32-15.95,5-.27,10-0.4,15-0.4,26.37,0,51.86,3.75,73.72,10.84,25.63,8.32,46.19,21,61.1,37.75,12.87,14.44,9.83,31.66.17,41.21A31.25,31.25,0,0,1,2041,308c-8,0-15.09-2.94-19.85-8.28a92.87,92.87,0,0,0-8.84-8.7l-0.11-.1-0.12-.09c-1.72-1.27-2.86-2.08-3.59-2.55-1.62-1-3.75-2.39-6-3.64-2.9-1.63-5.31-2.89-7.57-4-1-.46-1.94-0.91-2.92-1.35l-0.12-.05-0.12,0c-4.92-1.87-9.45-3.39-13.85-4.62-6.38-1.8-12.32-3.18-18.15-4.23q-2.8-.51-5.61-0.95l-0.15,0c-1.51-.18-3.34-0.4-4.32-0.49-7.94-.73-15.83-1.11-23.48-1.11-4.17,0-8.34.11-12.42,0.33-5.28.28-10.09,0.66-14.71,1.17l-0.18,0-1.67.25c-1.92.29-4.31,0.65-5.47,0.86l-2,.39-1.35.27-5.94,1.13,3.36,5a162.11,162.11,0,0,1,6,171.06l-2,3.52,3.55,2A119.7,119.7,0,0,1,1920,474.15c16.31,16.39,29.39,34,38.86,52.22,2.67,5.15,5.34,10.68,7.94,16.44l1.81,4,3.82-2.18a149.32,149.32,0,0,1,29.36-12.7,26,26,0,0,1,7.67-1.15c12.79,0,25,9.23,28.41,21.48,4.22,15.15-4.86,30.85-20.67,35.74-1.46.45-2.88,0.92-4.21,1.38l-0.16.06-0.46.2c-1.83.82-3.42,1.53-4.25,2a119.83,119.83,0,0,0-11.77,7l-0.13.09-0.69.55c-1.59,1.28-3,2.39-3.65,3-1.66,1.56-3.43,3.26-5.06,5.08l-0.19.21-0.47.69c-0.29.42-.58,0.84-0.85,1.28-1,1.72-1.87,3.34-2.68,5-4.62,9.67-16.18,14-25.6,14a28.57,28.57,0,0,1-7.49-1c-9.71-2.64-17-9.92-20.6-20.49-3.21-9.48-6.73-19.63-10.71-29.6-0.23-.58-0.83-2-1.4-3.36s-1-2.46-1.16-2.79l-0.07-.18-0.38-.87c-0.27-.62-0.54-1.24-0.83-1.85-1.74-3.74-3.83-8.15-6.12-12.47A198.94,198.94,0,0,0,1893,531.26l-0.09-.12-0.1-.11-2.1-2.45-0.3-.35c-1.16-1.34-2.33-2.68-3.52-4-2.17-2.41-4.71-5.2-7.34-7.84s-5.3-5.26-8.32-7.82c-0.38-.32-0.87-0.71-1.39-1.11l-0.1-.07-0.32-.22-1-.67a77.33,77.33,0,0,0-7.13-4.09l-0.23-.12-0.25-.08c-0.75-.26-1.65-0.56-2.59-0.83-2.16-.62-4.33-1.16-6.42-1.6l-0.18,0-0.18,0-3.4-.37-1.52-.15-1.23.9a167.51,167.51,0,0,1-190.92,3.9l-2.18-1.45L1650,504l-0.43.26-0.35.24-0.29.23c-1.13,1-2.45,2.2-3.71,3.54-0.47.5-1.07,1.21-1.8,2.1l-0.11.14-0.3.44c-0.16.24-.32,0.48-0.48,0.72-1.45,2.29-2.81,4.67-4.05,7.1l-0.1.2-0.75,2c-0.88,2.31-2,5.19-2.43,6.67a177.85,177.85,0,0,0-5.47,25l0,0.12c-0.27,2.3-.54,4.6-0.77,6.91-0.45,4.49-.86,9.06-1.25,14q-0.36,4.48-.68,9c-0.41,5.5-.84,11.19-1.34,16.77l-0.26,2.86c-1.43,15.91-2.91,32.36-8.86,46.8C1612.35,659.16,1603.18,671,1591.06,671ZM1826.91,87.07a28.94,28.94,0,0,1-11.18-2.25L1808.9,82l-4.75-5.74a28.67,28.67,0,0,1-6.66-18.2c0-15.74,13.47-29,29.42-29s29.42,13.3,29.42,29S1842.86,87.07,1826.91,87.07Z"/><path d="M1826.91,33c13.78,0,25.42,11.46,25.42,25s-11.64,25-25.42,25a25,25,0,0,1-9.64-1.94l-5.92-2.46-4.12-5A24.66,24.66,0,0,1,1801.49,58c0-13.57,11.64-25,25.42-25M1634.41,44.89c13.78,0,25.42,11.46,25.42,25a23.82,23.82,0,0,1-.56,5.11L1656,89.81l-14.8,4.2a25,25,0,0,1-6.81,1c-13.78,0-25.42-11.46-25.42-25s11.64-25,25.42-25m95.45,21.48a142.41,142.41,0,0,1,20.45,1.52,115.46,115.46,0,0,1,46.41,17.61l6.48,4.2,5.84,4.93a123.17,123.17,0,0,1,17.71,18.44c22.77,29.26,21.1,70.58-3.88,96.12-0.85.87-1.8,1.74-2.81,2.66l-0.4.36-8.53,7.78,10.28,5.26c2.53,1.29,5,2.65,7.43,4l3.32,1.92,3.58-1.39c22.91-8.89,48.84-14.17,77.09-15.68,4.9-.26,9.88-0.4,14.8-0.4,26,0,51,3.68,72.48,10.65,24.95,8.09,44.91,20.41,59.35,36.6,8.49,9.52,11.33,24.85.35,35.7A27.17,27.17,0,0,1,2041,304c-6.88,0-12.87-2.47-16.86-6.95a96.76,96.76,0,0,0-9.22-9.08l-0.22-.19-0.24-.17c-1.78-1.31-3-2.17-3.81-2.69-1.66-1.07-3.87-2.46-6.18-3.76-3-1.68-5.47-3-7.81-4.09-1-.47-2-0.93-3-1.38l-0.23-.11-0.24-.09c-5-1.92-9.68-3.47-14.19-4.74-6.51-1.83-12.57-3.24-18.52-4.32-1.83-.33-3.69-0.64-5.7-1l-0.15,0-0.15,0c-2.22-.27-3.59-0.42-4.44-0.5-8.06-.75-16.08-1.12-23.84-1.12-4.24,0-8.49.11-12.63,0.33-5.35.29-10.24,0.67-14.93,1.18l-0.18,0-0.18,0-1.65.25c-1.95.3-4.37,0.66-5.58,0.88l-2.11.41-1.32.26-11.89,2.26,6.73,10.05a158.11,158.11,0,0,1,5.86,166.84l-4,7,7.09,3.94A115.71,115.71,0,0,1,1917.13,477c16,16.1,28.86,33.34,38.14,51.24,2.64,5.08,5.28,10.55,7.84,16.24l3.61,8,7.64-4.35a145.26,145.26,0,0,1,28.56-12.35,22,22,0,0,1,6.49-1c11.06,0,21.61,8,24.55,18.55,3.63,13.05-4.27,26.6-18,30.85-1.5.47-3,.95-4.35,1.43l-0.32.11-0.31.14-0.31.14c-2,.87-3.54,1.58-4.48,2.07a123.74,123.74,0,0,0-12.17,7.2l-0.27.18-0.25.2-0.56.45c-1.72,1.38-3.1,2.49-3.89,3.24-1.73,1.62-3.57,3.4-5.31,5.33l-0.37.42-0.31.46-0.29.42c-0.29.42-.62,0.9-1,1.45l0,0.07,0,0.07c-1,1.75-1.95,3.48-2.8,5.28-3.3,6.9-12.34,11.73-22,11.73a24.57,24.57,0,0,1-6.44-.82c-8.38-2.28-14.73-8.64-17.86-17.92-3.23-9.54-6.77-19.75-10.79-29.81-0.24-.59-0.84-2-1.42-3.4-0.43-1-1-2.42-1.13-2.7l-0.07-.18-0.08-.18-0.37-.85c-0.28-.64-0.57-1.29-0.86-1.93-1.76-3.79-3.88-8.26-6.22-12.66a202.88,202.88,0,0,0-15.52-25.23l-0.17-.24-0.19-.22-2.14-2.49-0.24-.28c-1.17-1.34-2.37-2.73-3.61-4.1-2.21-2.44-4.78-5.28-7.47-8s-5.43-5.39-8.58-8.05c-0.4-.34-0.91-0.75-1.52-1.22l-0.19-.15-0.2-.14-0.22-.15c-0.37-.25-0.73-0.5-1.11-0.74a81.29,81.29,0,0,0-7.5-4.3l-0.47-.23-0.49-.17c-0.8-.28-1.76-0.6-2.78-0.89-2.26-.65-4.52-1.21-6.71-1.67l-0.35-.07-0.36,0-3.46-.38-3-.3-2.47,1.79a163.51,163.51,0,0,1-186.35,3.81l-4.37-2.91-4.32,2.8-0.49.3-0.22.14-0.48.31-0.45.4c-1.2,1.06-2.6,2.34-4,3.8-0.54.57-1.19,1.33-2,2.31l-0.23.28-0.2.3-0.18.26c-0.19.27-.37,0.55-0.56,0.85-1.51,2.38-2.93,4.87-4.23,7.41l-0.21.41-0.16.43-0.66,1.74c-1.16,3-2.07,5.45-2.53,7a181.8,181.8,0,0,0-5.6,25.58l0,0.12v0.12c-0.23,1.91-.52,4.42-0.78,7-0.45,4.52-.87,9.12-1.26,14.07q-0.36,4.49-.69,9c-0.41,5.49-.84,11.16-1.34,16.7l-0.26,2.86c-1.4,15.61-2.86,31.76-8.57,45.64-3.7,9-11.62,19.5-21.77,19.5a15.83,15.83,0,0,1-2-.13,499.55,499.55,0,0,1-56.12-10.92,23.82,23.82,0,0,1-14.83-11.38,25.23,25.23,0,0,1-2.73-19.34c3-10.75,13.24-18.25,24.92-18.25a27.41,27.41,0,0,1,6.57.8l1.29,0.32c4.07,1,8.28,2,12.45,3l8.93,2.12,0.89-9.13c0.36-3.71.66-7.11,0.92-10.38q0.3-3.73.58-7.46c1.39-17.88,2.83-36.38,6-54.18,4-22.3,10.54-39.21,20.14-51.7a104.32,104.32,0,0,1,12.62-13.72l5.14-4.65-3.87-5.75a158.34,158.34,0,0,1-14.38-150.92L1602.4,294l-12.38.23c-3.52.07-6.44,0.2-9.19,0.43-1.21.1-3.16,0.34-5.09,0.58l-0.2,0-0.19,0-0.41.07-1.06.19a135.08,135.08,0,0,0-13.77,3.33c-2.21.67-4.83,1.49-7.47,2.46-0.59.22-1.4,0.54-2.42,1l-0.16.07-0.16.07c-3.46,1.6-6.54,3.17-9.41,4.79-4.67,2.64-8.73,5.18-12.4,7.76l-1.75,1.25-0.65.47-0.18.13-0.17.14c-1.12.91-2.45,2-3.79,3.14a215,215,0,0,0-22.9,23c-2.05,2.4-3.85,4.56-5.49,6.61l-0.07.09-0.07.09-0.36.47-1,1.39c-3.6,4.85-7.23,10-10.81,15.34-5.37,8-13.85,12.78-22.7,12.78a24.45,24.45,0,0,1-12.38-3.4,26.45,26.45,0,0,1-12.07-16.79,21.5,21.5,0,0,1,2.71-17c15.46-23,30.92-41.34,47.29-55.93,19.52-17.41,39.78-29.14,61.91-35.86a163.68,163.68,0,0,1,47.55-6.72,229.79,229.79,0,0,1,41.35,4l3.75,0.69,2.9-2.47a163.82,163.82,0,0,1,17.79-13.21l8.13-5.22-6.65-7a71.25,71.25,0,0,1-6.9-8.56c-7.84-11.38-12.47-26.16-14.59-46.54-2.34-22.57,1.7-43.89,11.37-60L1658,92.93l13.69-9.62c16-11.24,35.56-16.94,58.18-16.93M1826.91,25c-18.22,0-33.42,15-33.42,33a32.53,32.53,0,0,0,7.58,20.75A124.19,124.19,0,0,0,1751.46,60a150,150,0,0,0-21.61-1.61c-22.47,0-44.38,5.46-62.78,18.39a31.74,31.74,0,0,0,.75-6.83c0-18-15.2-33-33.42-33s-33.42,15-33.42,33,15.2,33,33.42,33a32.92,32.92,0,0,0,9-1.26c-11.49,19.17-14.76,42.92-12.47,65,1.82,17.5,5.76,35.45,16,50.25a79,79,0,0,0,7.68,9.52,171.18,171.18,0,0,0-18.67,13.86,236.89,236.89,0,0,0-42.8-4.13,171,171,0,0,0-49.87,7.07c-49.64,15.07-85.61,53.39-113.52,95-10.08,15-3.05,36.49,12,45.2a32.51,32.51,0,0,0,16.39,4.48c11.51,0,22.54-6.19,29.34-16.33q5.12-7.63,10.59-15l1.36-1.79c1.74-2.17,3.53-4.31,5.34-6.42a206.29,206.29,0,0,1,22-22.17c1.18-1,2.38-2,3.59-3,0.78-.56,1.55-1.12,2.33-1.67,3.78-2.65,7.72-5.07,11.74-7.34,2.87-1.62,5.83-3.11,8.83-4.49,0.78-.32,1.59-0.64,2.16-0.85,2.31-.85,4.66-1.59,7-2.31a129.07,129.07,0,0,1,13-3.13l1.34-.24c1.49-.19,3.63-0.45,4.75-0.55,2.89-.24,5.79-0.35,8.69-0.4a166.34,166.34,0,0,0,15.1,158.55,112,112,0,0,0-13.59,14.78c-12.08,15.72-18.26,35.95-21.68,55.18-3.66,20.64-5,41.54-6.67,62.4q-0.41,5.13-.91,10.24c-4.56-1.08-9.12-2.21-13.67-3.34a35.35,35.35,0,0,0-8.48-1c-14.76,0-28.5,9.27-32.63,24.11-4.74,17,5.67,36.27,23.34,40.64a511.35,511.35,0,0,0,57,11.09,23.75,23.75,0,0,0,3.06.2c14.1,0,24.4-12.88,29.17-24.45,6.54-15.89,7.86-33.92,9.4-50.82,0.78-8.58,1.35-17.18,2-25.77q0.55-7,1.24-13.9c0.23-2.28.49-4.56,0.76-6.84a175.17,175.17,0,0,1,5.35-24.47c0.53-1.76,2.25-6.14,3-8.18q1.78-3.47,3.87-6.78c0.2-.32.42-0.62,0.63-0.93,0.56-.69,1.15-1.39,1.61-1.88,1.09-1.16,2.26-2.23,3.44-3.29l0.18-.12,0.41-.25a171.51,171.51,0,0,0,195.48-4l3.34,0.36c2.06,0.43,4.11.94,6.13,1.53,0.8,0.23,1.6.49,2.39,0.77a73.46,73.46,0,0,1,6.76,3.89c0.38,0.24.75,0.5,1.13,0.76s0.92,0.72,1.25,1c2.82,2.39,5.47,5,8.07,7.58s4.85,5.09,7.2,7.69c1.27,1.41,2.52,2.85,3.76,4.28l2.09,2.43a197.72,197.72,0,0,1,14.9,24.25c2.14,4,4.11,8.15,6,12.28,0.41,0.88.79,1.77,1.19,2.66,0.27,0.69,2.12,5,2.57,6.18,3.87,9.68,7.3,19.53,10.64,29.39,3.76,11.1,11.64,19.89,23.34,23.07a32.65,32.65,0,0,0,8.54,1.1c11.68,0,24.16-5.71,29.21-16.28,0.77-1.6,1.58-3.14,2.48-4.67,0.34-.55.71-1.07,1.07-1.6,1.52-1.7,3.17-3.28,4.83-4.84,0.74-.7,2.83-2.35,4-3.29a116.28,116.28,0,0,1,11.38-6.73c0.85-.45,2.93-1.37,4.33-2q2-.71,4.08-1.34c17.37-5.37,28.3-22.82,23.34-40.63-3.91-14.05-17.72-24.4-32.26-24.4a29.89,29.89,0,0,0-8.85,1.33,152.45,152.45,0,0,0-30.16,13q-3.8-8.42-8-16.63c-10.21-19.68-23.9-37.46-39.57-53.2a123.12,123.12,0,0,0-27.52-21A166.11,166.11,0,0,0,1889.13,275c1.12-.21,2.24-0.45,3.36-0.65,1.48-.27,5.29-0.83,7-1.1,4.82-.52,9.65-0.89,14.49-1.15q6.1-.33,12.2-0.32c7.71,0,15.43.38,23.11,1.09,1,0.09,2.74.3,4.22,0.48q2.77,0.44,5.53.93c6,1.08,11.92,2.5,17.77,4.15,4.57,1.29,9.07,2.82,13.51,4.51,1,0.44,1.91.87,2.86,1.32,2.49,1.19,4.93,2.5,7.34,3.85,2,1.1,3.87,2.29,5.77,3.51,0.81,0.52,2.2,1.53,3.39,2.41a88.44,88.44,0,0,1,8.46,8.33C2024,309,2032.46,312,2041,312a35.13,35.13,0,0,0,24.43-9.62c13.48-13.33,12-33.22,0-46.72-33.1-37.14-88.56-49.92-137.8-49.93-5.16,0-10.24.14-15.23,0.41-26.75,1.43-54.3,6.41-79.55,16.21q-3.84-2.22-7.8-4.25c1.2-1.09,2.4-2.17,3.54-3.33,28.47-29.1,29.14-74.94,4.48-106.63a131,131,0,0,0-18.86-19.64,33,33,0,0,0,12.72,2.55c18.22,0,33.42-15,33.42-33s-15.2-33-33.42-33h0Z"/><path class="cls-2" d="M1705.57,124.45c-15.15-10.55-35-6.2-43.88,10a15.23,15.23,0,0,0,5.49,20.69c7,4.06,17,1.82,20.93-5.43,0.05-.11.13-0.2,0.18-0.31,0.62,0.38,1.25.76,1.83,1.2,6.83,4.76,17,1.23,20.94-5.42C1715.54,137.57,1712.37,129.18,1705.57,124.45Z"/><path class="cls-2" d="M1795.07,119.91c-10.77-6.68-22.73-6.62-34.74-3.79-8.11,1.91-12.84,10.87-10.69,18.6,2.27,8.15,10.72,12.47,18.82,10.56,1.29-.3,2.57-0.56,3.87-0.81-0.69.19,1.41,0,2.76-.06a19.75,19.75,0,0,1,2,.25l0.35,0.12c0.73,0.39,1.45.79,2.13,1.24,7.07,4.39,16.82,1.51,20.94-5.42C1804.88,133.32,1802.12,124.28,1795.07,119.91Z"/><path class="cls-2" d="M1676.05,246.12c67.92-38.76,154.74-15.76,194,51.37s15.95,152.94-52,191.7-154.74,15.76-194-51.36S1608.13,284.87,1676.05,246.12Z"/><line class="cls-3" x1="1747.05" y1="367.65" x2="1722.74" y2="457.3"/><line class="cls-3" x1="1743.4" y1="361.41" x2="1690.5" y2="336.48"/><path class="cls-1" d="M2291.06,671a19.84,19.84,0,0,1-2.55-.17,503.42,503.42,0,0,1-56.57-11,27.79,27.79,0,0,1-17.32-13.25,29.25,29.25,0,0,1-3.13-22.43c3.47-12.47,15.3-21.18,28.78-21.18a31.4,31.4,0,0,1,7.52.92l1.16,0.29c4.18,1,8.36,2.06,12.54,3.06l4.46,1.06,0.44-4.57c0.36-3.67.66-7,.92-10.31q0.3-3.72.58-7.45c1.4-18,2.84-36.58,6-54.58,4.07-22.95,10.91-40.43,20.91-53.44A108.32,108.32,0,0,1,2308,463.7l2.57-2.33-1.94-2.87a162.34,162.34,0,0,1-14.74-154.73l2.44-5.69-6.19.12c-3.43.06-6.27,0.2-8.94,0.42-1.13.09-3,.33-4.92,0.56l-0.64.11-1,.17a131.25,131.25,0,0,0-13.37,3.23c-2.16.65-4.7,1.45-7.23,2.38-0.61.23-1.46,0.57-2.29,0.91l-0.16.07c-3.36,1.55-6.34,3.07-9.12,4.64-4.56,2.58-8.51,5-12.07,7.55l-1.7,1.22-0.75.54-0.08.07c-1.09.88-2.38,1.93-3.69,3.06a210.89,210.89,0,0,0-22.48,22.61c-2,2.36-3.79,4.5-5.41,6.51l-0.39.51-1.06,1.4c-3.57,4.81-7.17,9.92-10.7,15.19-6.11,9.12-15.84,14.56-26,14.56a28.4,28.4,0,0,1-14.38-3.94,30.52,30.52,0,0,1-14-19.35,25.45,25.45,0,0,1,3.29-20.15c33.77-50.34,70.2-80.89,111.36-93.39a167.67,167.67,0,0,1,48.71-6.89,233.8,233.8,0,0,1,42.08,4.07l1.87,0.34,1.45-1.24a167.77,167.77,0,0,1,18.23-13.54l4.07-2.61-3.32-3.51a75.32,75.32,0,0,1-7.29-9c-8.23-11.95-13.08-27.33-15.27-48.39-2.43-23.43,1.8-45.62,11.92-62.49l5.19-8.66-9.72,2.76a29,29,0,0,1-7.9,1.11c-15.95,0-29.42-13.3-29.42-29s13.47-29,29.42-29,29.42,13.3,29.42,29a27.85,27.85,0,0,1-.65,6l-2.21,10,8.42-5.92c16.68-11.72,37-17.66,60.48-17.66a146.42,146.42,0,0,1,21,1.56,119.43,119.43,0,0,1,48,18.21l6.69,4.34,6,5.09a127.14,127.14,0,0,1,18.29,19c24,30.83,22.19,74.41-4.18,101.38-0.93,1-1.92,1.86-3,2.81l-4.66,4.25,5.14,2.63c2.59,1.33,5.15,2.72,7.62,4.15l1.66,1,1.79-.69c23.3-9,49.65-14.41,78.32-15.95,5-.27,10-0.4,15-0.4,26.37,0,51.86,3.75,73.72,10.84,25.63,8.32,46.19,21,61.1,37.75,12.87,14.44,9.83,31.66.17,41.21A31.25,31.25,0,0,1,2741,308c-8,0-15.09-2.94-19.85-8.28a92.68,92.68,0,0,0-8.84-8.7l-0.11-.1-0.12-.09c-1.72-1.27-2.86-2.08-3.6-2.55-1.62-1-3.76-2.39-6-3.64-2.9-1.63-5.31-2.89-7.57-4-1-.46-1.94-0.91-2.92-1.35l-0.12-.05-0.12,0c-4.92-1.87-9.45-3.39-13.85-4.62-6.38-1.8-12.32-3.18-18.15-4.23q-2.8-.51-5.61-0.95l-0.15,0c-1.51-.18-3.34-0.4-4.33-0.49-7.94-.73-15.83-1.11-23.48-1.11-4.17,0-8.34.11-12.42,0.33-5.28.28-10.09,0.66-14.71,1.17l-0.18,0-1.68.26c-1.91.29-4.3,0.65-5.45,0.86l-2,.4-1.35.27-5.94,1.13,3.36,5a162.11,162.11,0,0,1,6,171.06l-2,3.52,3.55,2A119.7,119.7,0,0,1,2620,474.15c16.31,16.39,29.39,34,38.86,52.22,2.67,5.14,5.34,10.67,7.94,16.44l1.81,4,3.82-2.18a149.32,149.32,0,0,1,29.36-12.7,26,26,0,0,1,7.67-1.15c12.79,0,25,9.23,28.41,21.48,4.22,15.15-4.86,30.85-20.67,35.74-1.46.45-2.88,0.92-4.21,1.38l-0.16.06-0.48.21c-1.82.81-3.4,1.52-4.23,2a119.69,119.69,0,0,0-11.77,7l-0.13.09-0.67.54c-1.6,1.29-3,2.4-3.68,3.06-1.66,1.56-3.42,3.25-5.06,5.08l-0.19.21-0.47.69c-0.29.42-.58,0.84-0.84,1.28-1,1.72-1.88,3.35-2.69,5-4.62,9.67-16.18,14-25.6,14a28.56,28.56,0,0,1-7.49-1c-9.71-2.64-17-9.92-20.61-20.49-3.21-9.48-6.73-19.63-10.71-29.6-0.23-.59-0.83-2-1.41-3.38s-1-2.44-1.16-2.77l-0.07-.18-0.38-.87c-0.27-.62-0.54-1.24-0.83-1.85-1.74-3.74-3.83-8.15-6.12-12.47A198.86,198.86,0,0,0,2593,531.26l-0.09-.12-0.1-.11-2.11-2.45-0.24-.28c-1.18-1.36-2.37-2.72-3.57-4.06-2.28-2.53-4.72-5.21-7.34-7.84s-5.3-5.26-8.32-7.82c-0.38-.32-0.87-0.71-1.39-1.11l-0.1-.07-0.33-.23-1-.66a76.28,76.28,0,0,0-7.13-4.09l-0.23-.12-0.25-.08c-0.75-.26-1.65-0.56-2.59-0.83-2.17-.62-4.33-1.16-6.42-1.6l-0.18,0-0.18,0-3.4-.37-1.52-.15-1.23.9a167.51,167.51,0,0,1-190.91,3.9l-2.18-1.45L2350,504l-0.43.26-0.36.24-0.29.24c-1.13,1-2.45,2.21-3.71,3.54-0.47.5-1.06,1.19-1.8,2.1l-0.11.14-0.3.44c-0.16.24-.33,0.48-0.48,0.72-1.45,2.28-2.81,4.67-4.05,7.1l-0.1.2-0.75,2c-0.88,2.31-2,5.19-2.43,6.67a177.85,177.85,0,0,0-5.47,25l0,0.12c-0.27,2.3-.54,4.6-0.77,6.91-0.45,4.47-.86,9-1.25,14q-0.36,4.48-.69,9c-0.41,5.5-.84,11.19-1.34,16.76l-0.26,2.86c-1.43,15.91-2.91,32.36-8.86,46.8C2312.35,659.16,2303.18,671,2291.06,671ZM2526.91,87.07a28.94,28.94,0,0,1-11.18-2.25L2508.9,82l-4.75-5.74a28.67,28.67,0,0,1-6.66-18.2c0-15.74,13.47-29,29.42-29s29.42,13.3,29.42,29S2542.86,87.07,2526.91,87.07Z"/><path d="M2526.91,33c13.78,0,25.42,11.46,25.42,25s-11.64,25-25.42,25a25,25,0,0,1-9.64-1.94l-5.92-2.46-4.12-5A24.66,24.66,0,0,1,2501.49,58c0-13.57,11.64-25,25.42-25M2334.4,44.89c13.78,0,25.42,11.46,25.42,25a23.83,23.83,0,0,1-.56,5.11L2356,89.8l-14.8,4.2a25,25,0,0,1-6.81,1c-13.78,0-25.42-11.46-25.42-25s11.64-25,25.42-25m95.45,21.48a142.41,142.41,0,0,1,20.45,1.52,115.46,115.46,0,0,1,46.41,17.61l6.48,4.2,5.84,4.93a123.12,123.12,0,0,1,17.71,18.44c22.77,29.26,21.1,70.58-3.88,96.12-0.85.87-1.81,1.74-2.82,2.66l-0.39.35-8.53,7.78,10.28,5.26c2.53,1.29,5,2.65,7.43,4l3.32,1.92,3.58-1.39c22.91-8.89,48.84-14.17,77.09-15.68,4.9-.26,9.88-0.4,14.8-0.4,26,0,51,3.68,72.48,10.65,24.95,8.09,44.91,20.41,59.35,36.6,8.49,9.52,11.33,24.85.35,35.7A27.17,27.17,0,0,1,2741,304c-6.88,0-12.87-2.47-16.86-6.95a96.73,96.73,0,0,0-9.23-9.08l-0.22-.19-0.24-.17c-1.81-1.33-3-2.17-3.81-2.7-1.77-1.14-3.89-2.47-6.18-3.76-3-1.67-5.46-3-7.81-4.09-1-.47-2-0.93-3-1.38l-0.23-.11-0.24-.09c-5-1.92-9.68-3.47-14.19-4.74-6.51-1.83-12.57-3.24-18.52-4.32-1.83-.33-3.69-0.64-5.7-1l-0.15,0-0.15,0c-2.22-.27-3.59-0.42-4.44-0.5-8.06-.75-16.08-1.12-23.84-1.12-4.24,0-8.49.11-12.63,0.33-5.35.29-10.24,0.67-14.93,1.18l-0.18,0-0.18,0-1.66.25c-1.94.29-4.36,0.66-5.56,0.88l-2.11.41-1.32.26-11.89,2.26,6.73,10.05a158.11,158.11,0,0,1,5.86,166.84l-4,7,7.09,3.94A115.72,115.72,0,0,1,2617.13,477c16,16.1,28.86,33.34,38.14,51.24,2.63,5.08,5.27,10.54,7.84,16.24l3.61,8,7.64-4.35a145.29,145.29,0,0,1,28.56-12.35,21.94,21.94,0,0,1,6.49-1c11.06,0,21.61,8,24.55,18.55,3.63,13.05-4.27,26.6-18,30.85-1.5.47-3,.95-4.35,1.43l-0.32.11-0.31.14-0.3.14c-2,.87-3.54,1.58-4.48,2.08a123.74,123.74,0,0,0-12.17,7.2l-0.27.18-0.25.2-0.55.44c-1.72,1.38-3.11,2.5-3.9,3.25-1.73,1.62-3.57,3.4-5.31,5.33l-0.37.42-0.31.46-0.29.43c-0.29.42-.62,0.9-1,1.45l0,0.07,0,0.07c-1,1.75-1.95,3.48-2.8,5.27-3.3,6.9-12.34,11.73-22,11.73a24.57,24.57,0,0,1-6.44-.82c-8.38-2.28-14.73-8.64-17.86-17.92-3.23-9.53-6.76-19.74-10.79-29.81-0.24-.59-0.84-2-1.42-3.42-0.43-1-1-2.41-1.12-2.69l-0.07-.18-0.08-.18-0.38-.86c-0.28-.64-0.56-1.28-0.86-1.91-1.76-3.79-3.88-8.26-6.22-12.66a202.75,202.75,0,0,0-15.52-25.23l-0.17-.24-0.19-.22-2.14-2.49-0.24-.27c-1.17-1.34-2.38-2.73-3.62-4.11-2.21-2.44-4.78-5.28-7.47-8s-5.44-5.39-8.58-8.06c-0.4-.33-0.91-0.74-1.52-1.21l-0.19-.15-0.2-.14-0.21-.14c-0.37-.25-0.74-0.5-1.11-0.74a80.33,80.33,0,0,0-7.5-4.3l-0.47-.23-0.49-.17c-0.8-.28-1.76-0.6-2.78-0.89-2.26-.65-4.52-1.21-6.71-1.67l-0.35-.07-0.36,0-3.46-.38-3-.3-2.47,1.79a163.51,163.51,0,0,1-186.35,3.81l-4.38-2.91-4.32,2.8-0.48.29-0.23.15-0.48.31-0.45.4c-1.2,1.06-2.6,2.34-4,3.8-0.54.57-1.19,1.33-2,2.31l-0.23.28-0.2.3-0.18.26c-0.19.27-.37,0.54-0.56,0.84-1.51,2.38-2.93,4.87-4.23,7.41l-0.21.41-0.16.43-0.66,1.74c-1.16,3-2.08,5.46-2.53,7a181.8,181.8,0,0,0-5.6,25.58l0,0.12v0.12c-0.23,1.91-.52,4.43-0.78,7-0.45,4.52-.87,9.12-1.26,14.07q-0.36,4.49-.69,9c-0.41,5.48-.84,11.16-1.34,16.69l-0.26,2.86c-1.4,15.61-2.86,31.76-8.57,45.64-3.7,9-11.63,19.5-21.77,19.5a15.83,15.83,0,0,1-2-.13,499.57,499.57,0,0,1-56.12-10.92,23.82,23.82,0,0,1-14.83-11.38,25.23,25.23,0,0,1-2.73-19.34c3-10.75,13.24-18.25,24.92-18.25a27.4,27.4,0,0,1,6.57.8l1.3,0.32c4.07,1,8.27,2,12.44,3l8.93,2.12,0.89-9.13c0.36-3.71.66-7.1,0.92-10.38q0.3-3.73.58-7.47c1.39-17.88,2.83-36.37,6-54.17,4-22.3,10.55-39.21,20.14-51.7a104.31,104.31,0,0,1,12.62-13.72l5.14-4.65-3.87-5.75a158.34,158.34,0,0,1-14.38-150.92L2302.4,294l-12.38.23c-3.52.07-6.44,0.2-9.19,0.43-1.21.1-3.16,0.34-5.09,0.58l-0.2,0-0.19,0-0.41.07-1.06.19a135.11,135.11,0,0,0-13.77,3.33c-2.21.67-4.83,1.49-7.47,2.46-0.59.22-1.4,0.54-2.42,1l-0.16.07-0.16.07c-3.46,1.6-6.54,3.17-9.41,4.79-4.67,2.64-8.73,5.18-12.4,7.76l-1.74,1.25-0.66.48-0.18.13-0.17.14c-1.12.91-2.45,2-3.79,3.14a215,215,0,0,0-22.9,23c-2.05,2.4-3.85,4.56-5.49,6.61l-0.07.09-0.07.09-0.36.47-1,1.39c-3.6,4.85-7.23,10-10.81,15.34-5.37,8-13.85,12.78-22.7,12.78a24.45,24.45,0,0,1-12.38-3.4,26.45,26.45,0,0,1-12.07-16.79,21.5,21.5,0,0,1,2.71-17c15.46-23,30.92-41.34,47.29-55.93,19.52-17.41,39.78-29.14,61.91-35.86a163.68,163.68,0,0,1,47.55-6.72,229.8,229.8,0,0,1,41.35,4l3.75,0.69,2.9-2.47a163.85,163.85,0,0,1,17.79-13.21l8.13-5.22-6.65-7a71.25,71.25,0,0,1-6.9-8.56c-7.84-11.38-12.47-26.16-14.59-46.54-2.34-22.57,1.7-43.89,11.37-60L2358,92.93l13.69-9.62c16-11.24,35.56-16.94,58.18-16.93M2526.91,25c-18.22,0-33.42,15-33.42,33a32.53,32.53,0,0,0,7.58,20.75A124.19,124.19,0,0,0,2451.46,60a150,150,0,0,0-21.61-1.61c-22.47,0-44.38,5.46-62.78,18.39a31.75,31.75,0,0,0,.75-6.83c0-18-15.2-33-33.42-33s-33.42,15-33.42,33,15.2,33,33.42,33a32.92,32.92,0,0,0,9-1.26c-11.49,19.17-14.76,42.92-12.47,65,1.82,17.5,5.76,35.45,16,50.25a79,79,0,0,0,7.68,9.52,171.2,171.2,0,0,0-18.67,13.86,236.89,236.89,0,0,0-42.8-4.13,171,171,0,0,0-49.87,7.07c-49.64,15.07-85.61,53.39-113.52,95-10.08,15-3.05,36.49,12,45.2a32.51,32.51,0,0,0,16.39,4.48c11.51,0,22.54-6.19,29.34-16.33q5.12-7.63,10.59-15l1.36-1.79c1.74-2.17,3.53-4.31,5.34-6.42a206.28,206.28,0,0,1,22-22.17c1.18-1,2.38-2,3.59-3,0.78-.56,1.55-1.12,2.33-1.67,3.78-2.65,7.72-5.07,11.74-7.34,2.87-1.62,5.83-3.11,8.83-4.49,0.78-.32,1.59-0.64,2.16-0.85,2.31-.85,4.66-1.59,7-2.31a129.08,129.08,0,0,1,13-3.13l1.34-.24c1.49-.19,3.63-0.45,4.75-0.55,2.89-.24,5.79-0.35,8.69-0.4a166.34,166.34,0,0,0,15.1,158.55,112,112,0,0,0-13.59,14.78c-12.08,15.72-18.26,35.95-21.68,55.18-3.66,20.64-5,41.54-6.67,62.4q-0.41,5.13-.91,10.24c-4.56-1.08-9.12-2.21-13.67-3.34a35.35,35.35,0,0,0-8.48-1c-14.76,0-28.5,9.27-32.63,24.11-4.74,17,5.67,36.27,23.34,40.64a511.35,511.35,0,0,0,57,11.09,23.75,23.75,0,0,0,3.06.2c14.1,0,24.4-12.88,29.17-24.45,6.54-15.89,7.86-33.92,9.4-50.82,0.78-8.58,1.35-17.18,2-25.77q0.55-7,1.24-13.9c0.23-2.28.49-4.56,0.76-6.84a175.2,175.2,0,0,1,5.35-24.47c0.53-1.76,2.25-6.14,3-8.18q1.78-3.47,3.87-6.78c0.2-.32.42-0.62,0.63-0.93,0.56-.69,1.15-1.39,1.61-1.88,1.09-1.16,2.26-2.23,3.44-3.29l0.18-.12,0.41-.25a171.51,171.51,0,0,0,195.48-4l3.34,0.36c2.06,0.43,4.11.94,6.13,1.53,0.8,0.23,1.6.49,2.39,0.77a73.53,73.53,0,0,1,6.76,3.89c0.38,0.24.75,0.5,1.13,0.76s0.92,0.72,1.25,1c2.82,2.39,5.47,5,8.07,7.58s4.85,5.09,7.2,7.69c1.27,1.41,2.52,2.85,3.76,4.28l2.09,2.43a197.61,197.61,0,0,1,14.9,24.25c2.14,4,4.11,8.15,6,12.28,0.41,0.88.79,1.77,1.19,2.66,0.27,0.69,2.12,5,2.57,6.18,3.87,9.68,7.3,19.53,10.64,29.39,3.76,11.1,11.64,19.89,23.35,23.07a32.65,32.65,0,0,0,8.54,1.1c11.68,0,24.16-5.71,29.21-16.28,0.77-1.6,1.58-3.14,2.48-4.67,0.34-.55.71-1.07,1.07-1.6,1.52-1.7,3.17-3.28,4.83-4.84,0.74-.7,2.83-2.35,4-3.29a116.27,116.27,0,0,1,11.38-6.73c0.85-.45,2.93-1.37,4.33-2q2-.71,4.08-1.34c17.37-5.37,28.3-22.82,23.34-40.63-3.91-14.05-17.72-24.4-32.26-24.4a29.89,29.89,0,0,0-8.85,1.33,152.48,152.48,0,0,0-30.16,13q-3.8-8.42-8-16.63c-10.21-19.68-23.9-37.46-39.57-53.2a123.14,123.14,0,0,0-27.52-21A166.11,166.11,0,0,0,2589.13,275c1.12-.21,2.24-0.45,3.36-0.65,1.48-.27,5.29-0.83,7-1.1,4.82-.52,9.65-0.89,14.49-1.15q6.1-.33,12.2-0.32c7.71,0,15.43.38,23.11,1.09,1,0.09,2.75.3,4.22,0.48q2.77,0.44,5.53.93c6,1.08,11.92,2.5,17.77,4.15,4.57,1.29,9.07,2.82,13.51,4.51,1,0.44,1.91.87,2.86,1.32,2.49,1.19,4.93,2.5,7.34,3.85,2,1.1,3.87,2.29,5.77,3.51,0.81,0.52,2.2,1.53,3.39,2.41a88.34,88.34,0,0,1,8.46,8.33C2724,309,2732.46,312,2741,312a35.13,35.13,0,0,0,24.43-9.62c13.48-13.33,12-33.22,0-46.72-33.1-37.14-88.56-49.92-137.8-49.93-5.16,0-10.24.14-15.23,0.41-26.75,1.43-54.3,6.41-79.55,16.21q-3.84-2.22-7.8-4.25c1.2-1.09,2.4-2.17,3.54-3.33,28.47-29.1,29.14-74.94,4.48-106.63a131,131,0,0,0-18.86-19.64,33,33,0,0,0,12.72,2.55c18.22,0,33.42-15,33.42-33s-15.2-33-33.42-33h0Z"/><path class="cls-2" d="M2405.57,124.45c-15.15-10.55-35-6.2-43.88,10a15.23,15.23,0,0,0,5.49,20.69c7,4.06,17,1.82,20.93-5.43,0.05-.11.13-0.2,0.18-0.31,0.62,0.38,1.25.76,1.83,1.2,6.83,4.76,17,1.23,20.94-5.42C2415.54,137.57,2412.37,129.18,2405.57,124.45Z"/><path class="cls-2" d="M2495.07,119.91c-10.77-6.68-22.73-6.62-34.74-3.79-8.11,1.91-12.84,10.87-10.69,18.6,2.27,8.15,10.72,12.47,18.82,10.56,1.29-.3,2.57-0.56,3.87-0.81-0.69.19,1.41,0,2.76-.06a19.75,19.75,0,0,1,2,.25l0.35,0.12c0.73,0.39,1.45.79,2.13,1.24,7.07,4.39,16.82,1.51,20.94-5.42C2504.88,133.32,2502.12,124.28,2495.07,119.91Z"/><path class="cls-2" d="M2305.06,367.65c0-77.51,63.56-140.33,142-140.33s142,62.82,142,140.33S2525.47,508,2447,508,2305.06,445.16,2305.06,367.65Z"/><line class="cls-3" x1="2447.04" y1="367.65" x2="2513.45" y2="433.28"/><line class="cls-3" x1="2439.76" y1="367.65" x2="2391.46" y2="400.46"/><path class="cls-1" d="M2991.05,671a19.86,19.86,0,0,1-2.55-.17,503.4,503.4,0,0,1-56.57-11,27.79,27.79,0,0,1-17.32-13.25,29.25,29.25,0,0,1-3.13-22.43c3.47-12.47,15.3-21.18,28.78-21.18a31.4,31.4,0,0,1,7.52.92l1.17,0.29c4.18,1,8.35,2.06,12.54,3.06l4.46,1.06,0.44-4.57c0.36-3.7.66-7.07,0.92-10.31q0.3-3.74.59-7.48c1.4-18,2.84-36.56,6-54.55,4.07-22.95,10.91-40.43,20.91-53.44A108.29,108.29,0,0,1,3008,463.7l2.57-2.33-1.94-2.87a162.34,162.34,0,0,1-14.74-154.73l2.44-5.69-6.19.12c-3.43.06-6.27,0.2-8.94,0.42-1.13.09-3,.33-4.92,0.56l-0.63.1-1,.17a131.26,131.26,0,0,0-13.37,3.23c-2.15.65-4.7,1.45-7.23,2.38-0.61.22-1.46,0.57-2.29,0.91l-0.16.07c-3.37,1.56-6.35,3.07-9.12,4.64-4.55,2.57-8.5,5-12.07,7.55l-1.76,1.27-0.69.5-0.08.07c-1,.83-2.37,1.92-3.69,3.06a210.8,210.8,0,0,0-22.47,22.6c-2,2.36-3.79,4.5-5.41,6.51l-0.45.59-1,1.31c-3.56,4.8-7.16,9.91-10.7,15.19-6.11,9.12-15.84,14.56-26,14.56a28.4,28.4,0,0,1-14.38-3.94,30.52,30.52,0,0,1-14-19.35,25.45,25.45,0,0,1,3.29-20.15c33.77-50.34,70.2-80.89,111.35-93.39a167.68,167.68,0,0,1,48.71-6.89,233.8,233.8,0,0,1,42.08,4.07l1.87,0.34,1.45-1.24a167.92,167.92,0,0,1,18.23-13.54l4.06-2.61-3.32-3.51a75.43,75.43,0,0,1-7.3-9c-8.23-11.95-13.08-27.32-15.27-48.39-2.43-23.43,1.8-45.62,11.92-62.49l5.19-8.66-9.72,2.76a29,29,0,0,1-7.9,1.11c-15.95,0-29.42-13.3-29.42-29s13.47-29,29.42-29,29.42,13.3,29.42,29a27.89,27.89,0,0,1-.65,6l-2.21,10,8.42-5.91c16.68-11.72,37-17.66,60.47-17.66a146.41,146.41,0,0,1,21,1.56,119.42,119.42,0,0,1,48,18.21l6.7,4.34,6,5.09a127.19,127.19,0,0,1,18.29,19c24,30.83,22.19,74.41-4.18,101.38-0.93,1-1.92,1.86-3,2.81l-4.67,4.25,5.14,2.63c2.59,1.33,5.15,2.72,7.61,4.15l1.66,1,1.79-.69c23.3-9,49.65-14.41,78.32-15.95,5-.27,10-0.4,15-0.4,26.37,0,51.86,3.75,73.72,10.84,25.63,8.32,46.19,21,61.1,37.75,12.87,14.44,9.83,31.66.17,41.21A31.25,31.25,0,0,1,3441,308c-8,0-15.09-2.94-19.85-8.28a92.66,92.66,0,0,0-8.84-8.7l-0.11-.1-0.12-.09c-1.72-1.27-2.86-2.08-3.59-2.55-1.72-1.11-3.77-2.4-6-3.64-2.89-1.62-5.3-2.89-7.57-4-1-.46-1.94-0.91-2.92-1.35l-0.12-.05-0.12,0c-4.93-1.88-9.46-3.39-13.85-4.62-6.38-1.8-12.32-3.18-18.15-4.23q-2.8-.51-5.61-0.95l-0.15,0c-1.51-.18-3.34-0.4-4.33-0.49-7.94-.73-15.83-1.11-23.48-1.11-4.17,0-8.34.11-12.42,0.33-5.28.28-10.09,0.66-14.71,1.17l-0.18,0-1.67.25c-1.92.29-4.31,0.65-5.46,0.86l-2,.39-1.36.27-5.94,1.13,3.36,5a162.11,162.11,0,0,1,6,171.06l-2,3.52,3.54,2A119.72,119.72,0,0,1,3320,474.15c16.31,16.39,29.39,34,38.86,52.22,2.67,5.15,5.34,10.68,7.94,16.44l1.81,4,3.82-2.18a149.34,149.34,0,0,1,29.36-12.7,26,26,0,0,1,7.67-1.15c12.79,0,25,9.23,28.41,21.48,4.22,15.15-4.86,30.85-20.67,35.74-1.47.45-2.89,0.92-4.22,1.38l-0.16.06-0.43.19c-1.84.82-3.44,1.54-4.28,2a119.87,119.87,0,0,0-11.77,7l-0.13.09-0.68.55c-1.6,1.28-3,2.39-3.67,3-1.67,1.57-3.43,3.27-5.06,5.09l-0.19.21-0.46.68c-0.29.42-.58,0.85-0.85,1.29-1,1.72-1.87,3.34-2.68,5-4.62,9.67-16.18,14-25.59,14a28.56,28.56,0,0,1-7.49-1c-9.71-2.64-17-9.92-20.61-20.49-3.21-9.48-6.73-19.63-10.71-29.6-0.24-.59-0.85-2-1.42-3.42s-1-2.4-1.14-2.73l-0.46-1c-0.27-.62-0.54-1.24-0.83-1.85-1.74-3.74-3.82-8.14-6.12-12.47A198.79,198.79,0,0,0,3293,531.26l-0.09-.12-0.1-.11-2.11-2.46-0.24-.28c-1.18-1.36-2.37-2.72-3.57-4.06-2.28-2.53-4.73-5.21-7.34-7.84s-5.3-5.26-8.32-7.82c-0.38-.32-0.87-0.71-1.39-1.11l-0.09-.07-0.3-.21c-0.34-.23-0.68-0.46-1-0.69a76.34,76.34,0,0,0-7.13-4.09l-0.23-.12-0.25-.08c-0.75-.26-1.65-0.56-2.59-0.83-2.17-.62-4.33-1.16-6.42-1.6l-0.18,0-0.18,0-3.4-.37-1.52-.15-1.23.9a167.51,167.51,0,0,1-190.92,3.9l-2.18-1.45L3050,504l-0.42.26-0.36.24-0.29.23c-1.12,1-2.44,2.2-3.71,3.54-0.47.5-1.06,1.19-1.8,2.1l-0.11.14-0.29.43c-0.16.24-.33,0.48-0.49,0.73-1.45,2.29-2.81,4.68-4.06,7.11l-0.1.2-0.75,2c-0.88,2.32-2,5.2-2.43,6.68a177.78,177.78,0,0,0-5.47,25l0,0.12c-0.27,2.3-.54,4.6-0.77,6.91-0.45,4.48-.86,9.05-1.25,14q-0.36,4.48-.69,9c-0.41,5.5-.84,11.19-1.34,16.76l-0.26,2.85c-1.43,15.91-2.91,32.37-8.86,46.81C3012.35,659.16,3003.18,671,2991.05,671ZM3226.91,87.07a28.93,28.93,0,0,1-11.18-2.25L3208.9,82l-4.75-5.74a28.67,28.67,0,0,1-6.66-18.2c0-15.74,13.47-29,29.42-29s29.42,13.3,29.42,29S3242.86,87.07,3226.91,87.07Z"/><path d="M3226.91,33c13.78,0,25.42,11.46,25.42,25s-11.64,25-25.42,25a25,25,0,0,1-9.64-1.94l-5.92-2.46-4.12-5A24.66,24.66,0,0,1,3201.49,58c0-13.57,11.64-25,25.42-25M3034.4,44.89c13.78,0,25.42,11.46,25.42,25a23.87,23.87,0,0,1-.56,5.12L3056,89.8l-14.8,4.2a25,25,0,0,1-6.81,1c-13.78,0-25.42-11.46-25.42-25s11.64-25,25.42-25m95.45,21.48a142.4,142.4,0,0,1,20.45,1.52,115.46,115.46,0,0,1,46.41,17.61l6.48,4.2,5.84,4.93a123.16,123.16,0,0,1,17.71,18.44c22.77,29.26,21.1,70.58-3.88,96.12-0.86.88-1.82,1.75-2.84,2.68l-0.37.34-8.54,7.78,10.28,5.26c2.52,1.29,5,2.65,7.43,4l3.32,1.92,3.58-1.39c22.91-8.89,48.84-14.17,77.09-15.68,4.9-.26,9.88-0.4,14.8-0.4,26,0,51,3.68,72.48,10.65,24.95,8.09,44.91,20.41,59.35,36.6,8.49,9.52,11.33,24.85.35,35.7A27.17,27.17,0,0,1,3441,304c-6.88,0-12.87-2.47-16.86-6.94a96.71,96.71,0,0,0-9.23-9.08l-0.22-.19-0.24-.17c-1.81-1.33-3-2.17-3.81-2.7-1.77-1.14-3.89-2.47-6.18-3.76-3-1.67-5.46-3-7.81-4.09-1-.47-2-0.93-3-1.38l-0.23-.11-0.24-.09c-5-1.92-9.68-3.47-14.19-4.74-6.51-1.83-12.57-3.24-18.52-4.32-1.83-.33-3.69-0.64-5.7-1l-0.15,0-0.15,0c-2.22-.27-3.59-0.42-4.44-0.5-8.06-.75-16.08-1.12-23.84-1.12-4.24,0-8.49.11-12.63,0.33-5.35.29-10.24,0.67-14.93,1.18l-0.18,0-0.18,0-1.66.25c-1.94.29-4.36,0.66-5.56,0.88l-2.11.41-1.32.26-11.89,2.26,6.73,10.05a158.11,158.11,0,0,1,5.86,166.84l-4,7,7.09,3.94A115.72,115.72,0,0,1,3317.13,477c16,16.1,28.86,33.34,38.14,51.24,2.63,5.08,5.27,10.54,7.84,16.24l3.61,8,7.64-4.35a145.28,145.28,0,0,1,28.56-12.35,21.94,21.94,0,0,1,6.49-1c11.06,0,21.61,8,24.55,18.55,3.63,13.05-4.27,26.6-18,30.85-1.5.47-3,.95-4.35,1.43l-0.32.11-0.31.14-0.3.14c-2,.87-3.54,1.58-4.48,2.08a123.73,123.73,0,0,0-12.17,7.2l-0.27.18-0.25.2-0.55.44c-1.72,1.38-3.11,2.5-3.9,3.25-1.73,1.62-3.57,3.4-5.31,5.33l-0.37.42-0.31.46-0.29.43c-0.29.42-.62,0.9-1,1.45l0,0.07,0,0.07c-1,1.75-1.95,3.48-2.8,5.27-3.3,6.9-12.34,11.73-22,11.73a24.57,24.57,0,0,1-6.44-.82c-8.38-2.28-14.73-8.64-17.86-17.92-3.23-9.53-6.76-19.74-10.79-29.81-0.24-.6-0.85-2-1.43-3.43-0.42-1-1-2.4-1.12-2.68l-0.07-.18-0.08-.18-0.37-.85c-0.28-.64-0.57-1.29-0.86-1.93-1.76-3.79-3.88-8.26-6.22-12.66a202.79,202.79,0,0,0-15.51-25.23l-0.18-.24-0.19-.23-2.14-2.49-0.24-.27c-1.17-1.34-2.38-2.73-3.62-4.11-2.21-2.44-4.78-5.28-7.47-8s-5.43-5.39-8.58-8.05c-0.4-.33-0.91-0.74-1.52-1.22l-0.19-.15-0.2-.14-0.22-.15c-0.37-.25-0.73-0.5-1.1-0.74a81.34,81.34,0,0,0-7.5-4.3l-0.47-.23-0.49-.17c-0.8-.28-1.76-0.6-2.78-0.89-2.26-.65-4.52-1.21-6.71-1.67l-0.35-.07-0.36,0-3.46-.38-3-.3-2.47,1.79a163.51,163.51,0,0,1-186.35,3.81l-4.37-2.91-4.32,2.79-0.48.3-0.22.15-0.48.31-0.45.4c-1.2,1.06-2.6,2.34-4,3.8-0.53.57-1.18,1.32-2,2.31l-0.23.28-0.2.3-0.17.26c-0.19.28-.38,0.56-0.57,0.86-1.51,2.38-2.93,4.87-4.23,7.41l-0.21.41-0.16.43-0.66,1.74c-1.15,3-2.07,5.45-2.52,7a181.82,181.82,0,0,0-5.6,25.58l0,0.12v0.12c-0.23,1.91-.52,4.43-0.77,7-0.45,4.51-.87,9.11-1.26,14.07q-0.36,4.49-.69,9c-0.41,5.49-.84,11.16-1.34,16.7l-0.26,2.86c-1.4,15.61-2.86,31.76-8.57,45.64-3.7,9-11.63,19.5-21.77,19.5a15.83,15.83,0,0,1-2-.13,499.53,499.53,0,0,1-56.12-10.92,23.82,23.82,0,0,1-14.83-11.38,25.23,25.23,0,0,1-2.73-19.34c3-10.75,13.24-18.25,24.92-18.25a27.41,27.41,0,0,1,6.57.8l1.28,0.32c4.07,1,8.29,2,12.46,3l8.93,2.12,0.89-9.13c0.36-3.71.66-7.11,0.92-10.38q0.3-3.73.58-7.47c1.39-17.88,2.83-36.37,6-54.17,4-22.3,10.55-39.21,20.14-51.7a104.33,104.33,0,0,1,12.62-13.72l5.14-4.65-3.87-5.75a158.34,158.34,0,0,1-14.38-150.92L3002.4,294l-12.38.23c-3.52.07-6.44,0.2-9.19,0.43-1.21.1-3.16,0.34-5.09,0.58l-0.2,0-0.19,0-0.42.07-1.06.19a135,135,0,0,0-13.77,3.33c-2.21.67-4.82,1.49-7.47,2.46-0.59.22-1.4,0.54-2.42,1l-0.16.07-0.16.07c-3.46,1.6-6.54,3.17-9.41,4.79-4.67,2.64-8.73,5.18-12.4,7.76l-1.78,1.27-0.63.45-0.18.13-0.17.14c-1.12.9-2.45,2-3.79,3.14a214.93,214.93,0,0,0-22.9,23c-2,2.4-3.85,4.56-5.49,6.61l-0.07.09-0.07.09-0.42.55-1,1.3c-3.59,4.84-7.23,10-10.81,15.34-5.37,8-13.85,12.78-22.7,12.78a24.44,24.44,0,0,1-12.38-3.4,26.45,26.45,0,0,1-12.06-16.79,21.5,21.5,0,0,1,2.71-17c15.46-23,30.92-41.34,47.29-55.93,19.52-17.41,39.77-29.14,61.91-35.86a163.7,163.7,0,0,1,47.55-6.72,229.78,229.78,0,0,1,41.35,4l3.75,0.69,2.9-2.47a163.85,163.85,0,0,1,17.79-13.21l8.13-5.22-6.65-7a71.29,71.29,0,0,1-6.9-8.56c-7.84-11.38-12.47-26.16-14.59-46.54-2.34-22.57,1.7-43.89,11.37-60L3058,92.93l13.69-9.62c16-11.24,35.56-16.94,58.18-16.93M3226.91,25c-18.22,0-33.42,15-33.42,33a32.52,32.52,0,0,0,7.58,20.75A124.19,124.19,0,0,0,3151.46,60a150,150,0,0,0-21.61-1.61c-22.47,0-44.38,5.46-62.77,18.39a31.78,31.78,0,0,0,.75-6.83c0-18-15.2-33-33.42-33s-33.42,15-33.42,33,15.2,33,33.42,33a32.92,32.92,0,0,0,9-1.26c-11.49,19.17-14.76,42.92-12.47,65,1.82,17.5,5.76,35.45,16,50.25a79,79,0,0,0,7.68,9.52,171.25,171.25,0,0,0-18.67,13.86,236.88,236.88,0,0,0-42.8-4.13,171,171,0,0,0-49.87,7.07c-49.64,15.07-85.61,53.39-113.51,95-10.08,15-3.05,36.49,12,45.2a32.51,32.51,0,0,0,16.39,4.48c11.51,0,22.54-6.19,29.34-16.33q5.12-7.63,10.59-15l1.36-1.79c1.74-2.17,3.53-4.31,5.34-6.42a206.26,206.26,0,0,1,22-22.17c1.18-1,2.38-2,3.59-3,0.78-.56,1.55-1.12,2.33-1.67,3.78-2.65,7.72-5.07,11.74-7.34,2.87-1.62,5.83-3.11,8.83-4.49,0.78-.32,1.59-0.64,2.16-0.85,2.31-.85,4.66-1.59,7-2.31a129.07,129.07,0,0,1,13-3.13l1.34-.24c1.49-.19,3.63-0.45,4.75-0.55,2.89-.24,5.79-0.35,8.69-0.4a166.34,166.34,0,0,0,15.1,158.55,112,112,0,0,0-13.59,14.78c-12.08,15.72-18.26,35.95-21.68,55.18-3.66,20.64-5,41.54-6.67,62.4q-0.41,5.13-.91,10.24c-4.56-1.08-9.12-2.21-13.67-3.34a35.35,35.35,0,0,0-8.48-1c-14.76,0-28.5,9.27-32.63,24.11-4.74,17,5.67,36.27,23.34,40.64a511.35,511.35,0,0,0,57,11.09,23.74,23.74,0,0,0,3.06.2c14.1,0,24.4-12.88,29.17-24.45,6.54-15.89,7.86-33.92,9.4-50.82,0.78-8.58,1.35-17.18,2-25.77q0.55-7,1.24-13.9c0.23-2.28.49-4.56,0.76-6.84a175.17,175.17,0,0,1,5.35-24.47c0.53-1.76,2.25-6.14,3-8.18q1.78-3.47,3.87-6.78c0.2-.32.42-0.62,0.63-0.93,0.56-.69,1.15-1.39,1.61-1.88,1.09-1.16,2.26-2.23,3.44-3.29l0.18-.12,0.41-.25a171.51,171.51,0,0,0,195.48-4l3.34,0.36c2.06,0.43,4.11.94,6.13,1.53,0.8,0.23,1.6.49,2.39,0.77a73.49,73.49,0,0,1,6.76,3.89c0.38,0.24.75,0.5,1.13,0.76s0.92,0.72,1.25,1c2.82,2.39,5.47,5,8.07,7.58s4.85,5.09,7.2,7.69c1.27,1.41,2.52,2.85,3.76,4.28l2.09,2.43a197.64,197.64,0,0,1,14.9,24.25c2.14,4,4.11,8.15,6,12.28,0.41,0.88.79,1.77,1.19,2.66,0.27,0.69,2.12,5,2.57,6.18,3.87,9.68,7.3,19.53,10.64,29.39,3.76,11.1,11.64,19.89,23.35,23.07a32.65,32.65,0,0,0,8.54,1.1c11.68,0,24.16-5.71,29.21-16.28,0.77-1.6,1.58-3.14,2.48-4.67,0.34-.55.71-1.07,1.07-1.6,1.52-1.7,3.17-3.28,4.83-4.84,0.74-.7,2.83-2.35,4-3.29a116.24,116.24,0,0,1,11.38-6.73c0.85-.45,2.93-1.37,4.33-2q2-.71,4.08-1.34c17.37-5.37,28.3-22.82,23.34-40.63-3.91-14.05-17.72-24.4-32.26-24.4a29.89,29.89,0,0,0-8.85,1.33,152.47,152.47,0,0,0-30.16,13q-3.8-8.42-8-16.63c-10.21-19.68-23.9-37.46-39.57-53.2a123.14,123.14,0,0,0-27.52-21A166.11,166.11,0,0,0,3289.13,275c1.12-.21,2.24-0.45,3.36-0.65,1.48-.27,5.29-0.83,7-1.1,4.82-.52,9.65-0.89,14.49-1.15q6.1-.33,12.2-0.32c7.71,0,15.43.38,23.11,1.09,1,0.09,2.75.3,4.22,0.48q2.77,0.44,5.53.93c6,1.08,11.92,2.5,17.77,4.15,4.57,1.29,9.07,2.82,13.51,4.51,1,0.44,1.91.87,2.86,1.32,2.49,1.19,4.93,2.5,7.34,3.85,2,1.1,3.87,2.29,5.77,3.51,0.81,0.52,2.2,1.53,3.39,2.41a88.31,88.31,0,0,1,8.46,8.33C3424,309,3432.46,312,3441,312a35.13,35.13,0,0,0,24.43-9.62c13.48-13.33,12-33.22,0-46.72-33.1-37.14-88.56-49.92-137.8-49.93-5.16,0-10.24.14-15.23,0.41-26.75,1.43-54.3,6.41-79.55,16.21q-3.84-2.22-7.8-4.25c1.2-1.09,2.4-2.17,3.54-3.33,28.47-29.1,29.14-74.94,4.48-106.63a131,131,0,0,0-18.86-19.64,33,33,0,0,0,12.72,2.55c18.22,0,33.42-15,33.42-33s-15.2-33-33.42-33h0Z"/><path class="cls-2" d="M3105.57,124.45c-15.15-10.55-35-6.2-43.88,10a15.23,15.23,0,0,0,5.49,20.69c7,4.06,17,1.82,20.93-5.43,0.05-.11.13-0.2,0.18-0.31,0.62,0.38,1.25.76,1.83,1.2,6.83,4.76,17,1.23,20.94-5.42C3115.54,137.57,3112.37,129.18,3105.57,124.45Z"/><path class="cls-2" d="M3195.07,119.91c-10.77-6.68-22.73-6.62-34.74-3.79-8.11,1.91-12.84,10.87-10.69,18.6,2.27,8.15,10.72,12.47,18.82,10.56,1.29-.3,2.57-0.56,3.87-0.81-0.69.19,1.41,0,2.76-.06a19.73,19.73,0,0,1,2,.25l0.35,0.12c0.73,0.39,1.45.79,2.13,1.24,7.07,4.39,16.82,1.51,20.94-5.42C3204.88,133.32,3202.12,124.28,3195.07,119.91Z"/><path class="cls-2" d="M3076.05,489.18c-67.92-38.76-91.18-124.57-52-191.7s126-90.12,194-51.36,91.18,124.57,52,191.7S3144,527.93,3076.05,489.18Z"/><line class="cls-3" x1="3147.04" y1="367.65" x2="3237.75" y2="343.62"/><line class="cls-3" x1="3143.4" y1="373.88" x2="3148.01" y2="431.63"/><path class="cls-1" d="M3691.05,671a19.86,19.86,0,0,1-2.55-.17,503.4,503.4,0,0,1-56.57-11,27.79,27.79,0,0,1-17.32-13.25,29.25,29.25,0,0,1-3.13-22.43c3.47-12.47,15.3-21.18,28.78-21.18a31.4,31.4,0,0,1,7.52.92l1.17,0.29c4.18,1,8.35,2.06,12.54,3.06l4.46,1.06,0.44-4.57c0.36-3.7.66-7.07,0.92-10.31q0.3-3.74.59-7.48c1.4-18,2.84-36.56,6-54.55,4.07-22.95,10.91-40.43,20.91-53.44A108.29,108.29,0,0,1,3708,463.7l2.57-2.33-1.94-2.87a162.34,162.34,0,0,1-14.74-154.73l2.44-5.69-6.19.12c-3.43.06-6.27,0.2-8.94,0.42-1.13.09-3,.33-4.92,0.56l-0.63.1-1,.17a131.26,131.26,0,0,0-13.37,3.23c-2.15.65-4.7,1.45-7.23,2.38-0.61.22-1.46,0.57-2.29,0.91l-0.16.07c-3.37,1.56-6.35,3.07-9.12,4.64-4.55,2.57-8.5,5-12.07,7.55l-1.76,1.27-0.69.5-0.08.07c-1,.83-2.37,1.92-3.69,3.06a210.8,210.8,0,0,0-22.47,22.6c-2,2.36-3.79,4.5-5.41,6.51l-0.45.59-1,1.31c-3.56,4.8-7.16,9.91-10.7,15.19-6.11,9.12-15.84,14.56-26,14.56a28.4,28.4,0,0,1-14.38-3.94,30.52,30.52,0,0,1-14-19.35,25.45,25.45,0,0,1,3.29-20.15c33.77-50.34,70.2-80.89,111.35-93.39a167.68,167.68,0,0,1,48.71-6.89,233.8,233.8,0,0,1,42.08,4.07l1.87,0.34,1.45-1.24a167.92,167.92,0,0,1,18.23-13.54l4.06-2.61-3.32-3.51a75.43,75.43,0,0,1-7.3-9c-8.23-11.95-13.08-27.32-15.27-48.39-2.43-23.43,1.8-45.62,11.92-62.49l5.19-8.66-9.72,2.76a29,29,0,0,1-7.9,1.11c-15.95,0-29.42-13.3-29.42-29s13.47-29,29.42-29,29.42,13.3,29.42,29a27.89,27.89,0,0,1-.65,6l-2.21,10,8.42-5.91c16.68-11.72,37-17.66,60.47-17.66a146.41,146.41,0,0,1,21,1.56,119.42,119.42,0,0,1,48,18.21l6.7,4.34,6,5.09a127.19,127.19,0,0,1,18.29,19c24,30.83,22.19,74.41-4.18,101.38-0.93,1-1.92,1.86-3,2.81l-4.67,4.25,5.14,2.63c2.59,1.33,5.15,2.72,7.61,4.15l1.66,1,1.79-.69c23.3-9,49.65-14.41,78.32-15.95,5-.27,10-0.4,15-0.4,26.37,0,51.86,3.75,73.72,10.84,25.63,8.32,46.19,21,61.1,37.75,12.87,14.44,9.83,31.66.17,41.21A31.25,31.25,0,0,1,4141,308c-8,0-15.09-2.94-19.85-8.28a92.66,92.66,0,0,0-8.84-8.7l-0.11-.1-0.12-.09c-1.72-1.27-2.86-2.08-3.59-2.55-1.72-1.11-3.77-2.4-6-3.64-2.89-1.62-5.3-2.89-7.57-4-1-.46-1.94-0.91-2.92-1.35l-0.12-.05-0.12,0c-4.93-1.88-9.46-3.39-13.85-4.62-6.38-1.8-12.32-3.18-18.15-4.23q-2.8-.51-5.61-0.95l-0.15,0c-1.51-.18-3.34-0.4-4.33-0.49-7.94-.73-15.83-1.11-23.48-1.11-4.17,0-8.34.11-12.42,0.33-5.28.28-10.09,0.66-14.71,1.17l-0.18,0-1.67.25c-1.92.29-4.31,0.65-5.46,0.86l-2,.39-1.36.27-5.94,1.13,3.36,5a162.11,162.11,0,0,1,6,171.06l-2,3.52,3.54,2A119.72,119.72,0,0,1,4020,474.15c16.31,16.39,29.39,34,38.86,52.22,2.67,5.15,5.34,10.68,7.94,16.44l1.81,4,3.82-2.18a149.34,149.34,0,0,1,29.36-12.7,26,26,0,0,1,7.67-1.15c12.79,0,25,9.23,28.41,21.48,4.22,15.15-4.86,30.85-20.67,35.74-1.47.45-2.89,0.92-4.22,1.38l-0.16.06-0.43.19c-1.84.82-3.44,1.54-4.28,2a119.87,119.87,0,0,0-11.77,7l-0.13.09-0.68.55c-1.6,1.28-3,2.39-3.67,3-1.67,1.57-3.43,3.27-5.06,5.09l-0.19.21-0.46.68c-0.29.42-.58,0.85-0.85,1.29-1,1.72-1.87,3.34-2.68,5-4.62,9.67-16.18,14-25.59,14a28.56,28.56,0,0,1-7.49-1c-9.71-2.64-17-9.92-20.61-20.49-3.21-9.48-6.73-19.63-10.71-29.6-0.24-.59-0.85-2-1.42-3.42s-1-2.4-1.14-2.73l-0.46-1c-0.27-.62-0.54-1.24-0.83-1.85-1.74-3.74-3.82-8.14-6.12-12.47A198.79,198.79,0,0,0,3993,531.26l-0.09-.12-0.1-.11-2.11-2.46-0.24-.28c-1.18-1.36-2.37-2.72-3.57-4.06-2.28-2.53-4.73-5.21-7.34-7.84s-5.3-5.26-8.32-7.82c-0.38-.32-0.87-0.71-1.39-1.11l-0.09-.07-0.3-.21c-0.34-.23-0.68-0.46-1-0.69a76.34,76.34,0,0,0-7.13-4.09l-0.23-.12-0.25-.08c-0.75-.26-1.65-0.56-2.59-0.83-2.17-.62-4.33-1.16-6.42-1.6l-0.18,0-0.18,0-3.4-.37-1.52-.15-1.23.9a167.51,167.51,0,0,1-190.92,3.9l-2.18-1.45L3750,504l-0.42.26-0.36.24-0.29.23c-1.12,1-2.44,2.2-3.71,3.54-0.47.5-1.06,1.19-1.8,2.1l-0.11.14-0.29.43c-0.16.24-.33,0.48-0.49,0.73-1.45,2.29-2.81,4.68-4.06,7.11l-0.1.2-0.75,2c-0.88,2.32-2,5.2-2.43,6.68a177.78,177.78,0,0,0-5.47,25l0,0.12c-0.27,2.3-.54,4.6-0.77,6.91-0.45,4.48-.86,9.05-1.25,14q-0.36,4.48-.69,9c-0.41,5.5-.84,11.19-1.34,16.76l-0.26,2.85c-1.43,15.91-2.91,32.37-8.86,46.81C3712.35,659.16,3703.18,671,3691.05,671ZM3926.91,87.07a28.93,28.93,0,0,1-11.18-2.25L3908.9,82l-4.75-5.74a28.67,28.67,0,0,1-6.66-18.2c0-15.74,13.47-29,29.42-29s29.42,13.3,29.42,29S3942.86,87.07,3926.91,87.07Z"/><path d="M3926.91,33c13.78,0,25.42,11.46,25.42,25s-11.64,25-25.42,25a25,25,0,0,1-9.64-1.94l-5.92-2.46-4.12-5A24.66,24.66,0,0,1,3901.49,58c0-13.57,11.64-25,25.42-25M3734.4,44.89c13.78,0,25.42,11.46,25.42,25a23.87,23.87,0,0,1-.56,5.12L3756,89.8l-14.8,4.2a25,25,0,0,1-6.81,1c-13.78,0-25.42-11.46-25.42-25s11.64-25,25.42-25m95.45,21.48a142.4,142.4,0,0,1,20.45,1.52,115.46,115.46,0,0,1,46.41,17.61l6.48,4.2,5.84,4.93a123.16,123.16,0,0,1,17.71,18.44c22.77,29.26,21.1,70.58-3.88,96.12-0.86.88-1.82,1.75-2.84,2.68l-0.37.34-8.54,7.78,10.28,5.26c2.52,1.29,5,2.65,7.43,4l3.32,1.92,3.58-1.39c22.91-8.89,48.84-14.17,77.09-15.68,4.9-.26,9.88-0.4,14.8-0.4,26,0,51,3.68,72.48,10.65,24.95,8.09,44.91,20.41,59.35,36.6,8.49,9.52,11.33,24.85.35,35.7A27.17,27.17,0,0,1,4141,304c-6.88,0-12.87-2.47-16.86-6.95a96.67,96.67,0,0,0-9.23-9.08l-0.22-.19-0.24-.17c-1.81-1.33-3-2.16-3.81-2.69-1.67-1.07-3.87-2.47-6.18-3.76-3-1.67-5.46-3-7.81-4.09-1-.47-2-0.93-3-1.38l-0.23-.11-0.24-.09c-5-1.92-9.68-3.47-14.19-4.74-6.51-1.83-12.57-3.24-18.52-4.32-1.83-.33-3.69-0.64-5.7-1l-0.15,0-0.15,0c-2.22-.27-3.59-0.42-4.44-0.5-8.06-.75-16.08-1.12-23.84-1.12-4.24,0-8.49.11-12.63,0.33-5.35.29-10.24,0.67-14.93,1.18l-0.18,0-0.18,0-1.66.25c-1.94.29-4.36,0.66-5.56,0.88l-2.11.41-1.32.26-11.89,2.26,6.73,10.05a158.11,158.11,0,0,1,5.86,166.84l-4,7,7.09,3.94A115.72,115.72,0,0,1,4017.13,477c16,16.1,28.86,33.34,38.14,51.24,2.63,5.08,5.27,10.54,7.84,16.24l3.61,8,7.64-4.35a145.29,145.29,0,0,1,28.56-12.35,21.94,21.94,0,0,1,6.49-1c11.06,0,21.61,8,24.55,18.55,3.63,13.05-4.27,26.6-18,30.85-1.5.47-3,.95-4.35,1.43l-0.32.11-0.31.14-0.3.14c-2,.87-3.54,1.58-4.48,2.08a123.7,123.7,0,0,0-12.17,7.2l-0.27.18-0.25.2-0.54.43c-1.73,1.39-3.11,2.51-3.91,3.25-1.73,1.62-3.57,3.39-5.31,5.33l-0.37.42-0.31.46-0.29.42c-0.29.42-.62,0.9-1,1.45l0,0.07,0,0.07c-1,1.75-1.95,3.48-2.8,5.27-3.3,6.9-12.34,11.73-22,11.73a24.57,24.57,0,0,1-6.44-.82c-8.38-2.28-14.73-8.64-17.86-17.92-3.23-9.53-6.76-19.74-10.79-29.81-0.24-.6-0.85-2-1.43-3.43-0.42-1-1-2.4-1.12-2.68l-0.07-.18-0.08-.18-0.37-.85c-0.28-.64-0.57-1.29-0.86-1.93-1.76-3.79-3.88-8.26-6.22-12.66a202.79,202.79,0,0,0-15.51-25.23l-0.18-.24-0.19-.23-2.14-2.49-0.24-.27c-1.17-1.34-2.38-2.73-3.62-4.11-2.21-2.44-4.78-5.28-7.47-8s-5.43-5.39-8.58-8.05c-0.4-.33-0.91-0.74-1.52-1.22l-0.19-.15-0.2-.14-0.22-.15c-0.37-.25-0.73-0.5-1.1-0.74a81.34,81.34,0,0,0-7.5-4.3l-0.47-.23-0.49-.17c-0.8-.28-1.76-0.6-2.78-0.89-2.26-.65-4.52-1.21-6.71-1.67l-0.35-.07-0.36,0-3.46-.38-3-.3-2.47,1.79a163.51,163.51,0,0,1-186.35,3.81l-4.37-2.91-4.32,2.79-0.48.3-0.22.15-0.48.31-0.45.4c-1.2,1.06-2.6,2.34-4,3.8-0.53.57-1.18,1.32-2,2.31l-0.23.28-0.2.3-0.17.26c-0.19.28-.38,0.56-0.57,0.86-1.51,2.38-2.93,4.87-4.23,7.41l-0.21.41-0.16.43-0.66,1.74c-1.15,3-2.07,5.45-2.52,7a181.82,181.82,0,0,0-5.6,25.58l0,0.12v0.12c-0.23,1.91-.52,4.43-0.77,7-0.45,4.51-.87,9.11-1.26,14.07q-0.36,4.49-.69,9c-0.41,5.49-.84,11.16-1.34,16.7l-0.26,2.86c-1.4,15.61-2.86,31.76-8.57,45.64-3.7,9-11.63,19.5-21.77,19.5a15.83,15.83,0,0,1-2-.13,499.53,499.53,0,0,1-56.12-10.92,23.82,23.82,0,0,1-14.83-11.38,25.23,25.23,0,0,1-2.73-19.34c3-10.75,13.24-18.25,24.92-18.25a27.41,27.41,0,0,1,6.57.8l1.28,0.32c4.07,1,8.29,2,12.46,3l8.93,2.12,0.89-9.13c0.36-3.71.66-7.11,0.92-10.38q0.3-3.73.58-7.47c1.39-17.88,2.83-36.37,6-54.17,4-22.3,10.55-39.21,20.14-51.7a104.33,104.33,0,0,1,12.62-13.72l5.14-4.65-3.87-5.75a158.34,158.34,0,0,1-14.38-150.92L3702.4,294l-12.38.23c-3.52.07-6.44,0.2-9.19,0.43-1.21.1-3.16,0.34-5.09,0.58l-0.2,0-0.19,0-0.42.07-1.06.19a135,135,0,0,0-13.77,3.33c-2.21.67-4.82,1.49-7.47,2.46-0.59.22-1.4,0.54-2.42,1l-0.16.07-0.16.07c-3.46,1.6-6.54,3.17-9.41,4.79-4.67,2.64-8.73,5.18-12.4,7.76l-1.78,1.27-0.63.45-0.18.13-0.17.14c-1.12.9-2.45,2-3.79,3.14a214.93,214.93,0,0,0-22.9,23c-2,2.4-3.85,4.56-5.49,6.61l-0.07.09-0.07.09-0.42.55-1,1.3c-3.59,4.84-7.23,10-10.81,15.34-5.37,8-13.85,12.78-22.7,12.78a24.44,24.44,0,0,1-12.38-3.4,26.45,26.45,0,0,1-12.06-16.79,21.5,21.5,0,0,1,2.71-17c15.46-23,30.92-41.34,47.29-55.93,19.52-17.41,39.77-29.14,61.91-35.86a163.7,163.7,0,0,1,47.55-6.72,229.78,229.78,0,0,1,41.35,4l3.75,0.69,2.9-2.47a163.85,163.85,0,0,1,17.79-13.21l8.13-5.22-6.65-7a71.29,71.29,0,0,1-6.9-8.56c-7.84-11.38-12.47-26.16-14.59-46.54-2.34-22.57,1.7-43.89,11.37-60L3758,92.93l13.69-9.62c16-11.24,35.56-16.94,58.18-16.93M3926.91,25c-18.22,0-33.42,15-33.42,33a32.52,32.52,0,0,0,7.58,20.75A124.19,124.19,0,0,0,3851.46,60a150,150,0,0,0-21.61-1.61c-22.47,0-44.38,5.46-62.77,18.39a31.78,31.78,0,0,0,.75-6.83c0-18-15.2-33-33.42-33s-33.42,15-33.42,33,15.2,33,33.42,33a32.92,32.92,0,0,0,9-1.26c-11.49,19.17-14.76,42.92-12.47,65,1.82,17.5,5.76,35.45,16,50.25a79,79,0,0,0,7.68,9.52,171.25,171.25,0,0,0-18.67,13.86,236.88,236.88,0,0,0-42.8-4.13,171,171,0,0,0-49.87,7.07c-49.64,15.07-85.61,53.39-113.51,95-10.08,15-3.05,36.49,12,45.2a32.51,32.51,0,0,0,16.39,4.48c11.51,0,22.54-6.19,29.34-16.33q5.12-7.63,10.59-15l1.36-1.79c1.74-2.17,3.53-4.31,5.34-6.42a206.26,206.26,0,0,1,22-22.17c1.18-1,2.38-2,3.59-3,0.78-.56,1.55-1.12,2.33-1.67,3.78-2.65,7.72-5.07,11.74-7.34,2.87-1.62,5.83-3.11,8.83-4.49,0.78-.32,1.59-0.64,2.16-0.85,2.31-.85,4.66-1.59,7-2.31a129.07,129.07,0,0,1,13-3.13l1.34-.24c1.49-.19,3.63-0.45,4.75-0.55,2.89-.24,5.79-0.35,8.69-0.4a166.34,166.34,0,0,0,15.1,158.55,112,112,0,0,0-13.59,14.78c-12.08,15.72-18.26,35.95-21.68,55.18-3.66,20.64-5,41.54-6.67,62.4q-0.41,5.13-.91,10.24c-4.56-1.08-9.12-2.21-13.67-3.34a35.35,35.35,0,0,0-8.48-1c-14.76,0-28.5,9.27-32.63,24.11-4.74,17,5.67,36.27,23.34,40.64a511.35,511.35,0,0,0,57,11.09,23.74,23.74,0,0,0,3.06.2c14.1,0,24.4-12.88,29.17-24.45,6.54-15.89,7.86-33.92,9.4-50.82,0.78-8.58,1.35-17.18,2-25.77q0.55-7,1.24-13.9c0.23-2.28.49-4.56,0.76-6.84a175.17,175.17,0,0,1,5.35-24.47c0.53-1.76,2.25-6.14,3-8.18q1.78-3.47,3.87-6.78c0.2-.32.42-0.62,0.63-0.93,0.56-.69,1.15-1.39,1.61-1.88,1.09-1.16,2.26-2.23,3.44-3.29l0.18-.12,0.41-.25a171.51,171.51,0,0,0,195.48-4l3.34,0.36c2.06,0.43,4.11.94,6.13,1.53,0.8,0.23,1.6.49,2.39,0.77a73.49,73.49,0,0,1,6.76,3.89c0.38,0.24.75,0.5,1.13,0.76s0.92,0.72,1.25,1c2.82,2.39,5.47,5,8.07,7.58s4.85,5.09,7.2,7.69c1.27,1.41,2.52,2.85,3.76,4.28l2.09,2.43a197.64,197.64,0,0,1,14.9,24.25c2.14,4,4.11,8.15,6,12.28,0.41,0.88.79,1.77,1.19,2.66,0.27,0.69,2.12,5,2.57,6.18,3.87,9.68,7.3,19.53,10.64,29.39,3.76,11.1,11.64,19.89,23.35,23.07a32.65,32.65,0,0,0,8.54,1.1c11.68,0,24.16-5.71,29.21-16.28,0.77-1.6,1.58-3.14,2.48-4.67,0.34-.55.71-1.07,1.07-1.6,1.52-1.7,3.17-3.28,4.83-4.84,0.74-.7,2.83-2.35,4-3.29a116.21,116.21,0,0,1,11.38-6.73c0.85-.45,2.93-1.37,4.33-2q2-.71,4.08-1.34c17.37-5.37,28.3-22.82,23.34-40.63-3.91-14.05-17.72-24.4-32.26-24.4a29.89,29.89,0,0,0-8.85,1.33,152.48,152.48,0,0,0-30.16,13q-3.8-8.42-8-16.63c-10.21-19.68-23.9-37.46-39.57-53.2a123.14,123.14,0,0,0-27.52-21A166.11,166.11,0,0,0,3989.13,275c1.12-.21,2.24-0.45,3.36-0.65,1.48-.27,5.29-0.83,7-1.1,4.82-.52,9.65-0.89,14.49-1.15q6.1-.33,12.2-0.32c7.71,0,15.43.38,23.11,1.09,1,0.09,2.75.3,4.22,0.48q2.77,0.44,5.53.93c6,1.08,11.92,2.5,17.77,4.15,4.57,1.29,9.07,2.82,13.51,4.51,1,0.44,1.91.87,2.86,1.32,2.49,1.19,4.93,2.5,7.34,3.85,2,1.1,3.88,2.29,5.77,3.51,0.81,0.52,2.2,1.53,3.39,2.41a88.31,88.31,0,0,1,8.46,8.33C4124,309,4132.46,312,4141,312a35.13,35.13,0,0,0,24.43-9.62c13.48-13.33,12-33.22,0-46.72-33.1-37.14-88.56-49.92-137.8-49.93-5.16,0-10.24.14-15.23,0.41-26.75,1.43-54.3,6.41-79.55,16.21q-3.84-2.22-7.8-4.25c1.2-1.09,2.4-2.17,3.54-3.33,28.47-29.1,29.14-74.94,4.48-106.63a131,131,0,0,0-18.86-19.64,33,33,0,0,0,12.72,2.55c18.22,0,33.42-15,33.42-33s-15.2-33-33.42-33h0Z"/><path class="cls-2" d="M3805.57,124.45c-15.15-10.55-35-6.2-43.88,10a15.23,15.23,0,0,0,5.49,20.69c7,4.06,17,1.82,20.93-5.43,0.05-.11.13-0.2,0.18-0.31,0.62,0.38,1.25.76,1.83,1.2,6.83,4.76,17,1.23,20.94-5.42C3815.54,137.57,3812.37,129.18,3805.57,124.45Z"/><path class="cls-2" d="M3895.07,119.91c-10.77-6.68-22.73-6.62-34.74-3.79-8.11,1.91-12.84,10.87-10.69,18.6,2.27,8.15,10.72,12.47,18.82,10.56,1.29-.3,2.57-0.56,3.87-0.81-0.69.19,1.41,0,2.76-.06a19.73,19.73,0,0,1,2,.25l0.35,0.12c0.73,0.39,1.45.79,2.13,1.24,7.07,4.39,16.82,1.51,20.94-5.42C3904.88,133.32,3902.12,124.28,3895.07,119.91Z"/><path class="cls-2" d="M3918,489.18c-67.92,38.76-154.74,15.76-194-51.37s-15.95-152.94,52-191.7,154.74-15.76,194,51.37S3986,450.42,3918,489.18Z"/><line class="cls-3" x1="3847.04" y1="367.65" x2="3871.35" y2="277.99"/><line class="cls-3" x1="3850.69" y1="373.88" x2="3903.59" y2="398.81"/></svg>