<svg id="Layer_1" data-name="Layer 1" xmlns="http://www.w3.org/2000/svg" viewBox="0 0 8640 1080" preserveAspectRatio="none"><defs><style>.cls-1{fill:#fff;}.cls-1,.cls-2,.cls-3,.cls-4,.cls-5,.cls-6,.cls-7,.cls-8{stroke:#000;stroke-miterlimit:10;stroke-width:5px;}.cls-2{fill:blue;}.cls-3{fill:#fcee21;}.cls-4{fill:#29abe2;}.cls-5,.cls-9{fill:none;}.cls-6{fill:#ff7bac;}.cls-7{fill:red;}.cls-8{fill:#f2f2f2;}</style></defs><title>coach-mellow</title><path class="cls-1" d="M424.62,7677.32l-16.12,121.8,123.64,49L545,7805.23s-37.55,8.31-59-17.75-5.56-122.94-5.56-122.94Z" transform="translate(-59.95 -6859.69)"/><path class="cls-2" d="M551.37,7808.24c11.27,6.89,8.63,31.7-5.88,55.41s-35.4,37.34-46.66,30.44-8.63-31.7,5.88-55.4S540.11,7801.35,551.37,7808.24Z" transform="translate(-59.95 -6859.69)"/><path class="cls-1" d="M646.12,7613.27S754.75,7625,779.39,7722.75s3,146.22,3,146.22l-37-12.38L746.32,7751,601.37,7640.12Z" transform="translate(-59.95 -6859.69)"/><path class="cls-2" d="M730.39,7857.4c3.68-12.69,28.3-16.69,55-8.95s45.36,24.29,41.68,37-28.3,16.68-55,8.94S726.71,7870.07,730.39,7857.4Z" transform="translate(-59.95 -6859.69)"/><path class="cls-3" d="M733.14,7436.06l176.26,58.71,93.94-116,53.07,21.41s-29.5,153.29-77.36,171.84-263.68-17.93-263.68-17.93Z" transform="translate(-59.95 -6859.69)"/><path class="cls-3" d="M1058.18,7404c-18.24,9-41.24-.39-51.39-21s-3.58-44.54,14.65-53.53,41.24,0.39,51.39,21S1076.41,7395,1058.18,7404Z" transform="translate(-59.95 -6859.69)"/><path class="cls-3" d="M423.17,7582s-93.26,76.3-237.93-12l19.76-39.3s50,20.36,104.59,22.45,128-32.35,128-32.35Z" transform="translate(-59.95 -6859.69)"/><ellipse class="cls-3" cx="167.88" cy="7535.64" rx="36.3" ry="48.54" transform="translate(-7265.84 -886.57) rotate(-76.76)"/><polygon class="cls-1" points="333.77 607.21 292.66 896.63 859.16 815.02 692.85 538.63 333.77 607.21"/><path class="cls-3" d="M369.75,7635.65S440,7542.34,440,7466.9c0-3.15-.24-8.81-0.24-8.81l-46.09,8.81Z" transform="translate(-59.95 -6859.69)"/><path class="cls-3" d="M842.82,7547.91S742,7496.53,713,7429.64c-1.21-2.79-8.66-22.07-8.66-22.07l48.46-9.26Z" transform="translate(-59.95 -6859.69)"/><path class="cls-3" d="M319.21,7259.47c0,40.39-78.69,118.55-7.88,148.91,107.48,46.08,155.41,243.32,427.66,49.71,102.63-73,248.86-342-36.9-342C375.5,7116.11,319.21,7157.77,319.21,7259.47Z" transform="translate(-59.95 -6859.69)"/><circle class="cls-4" cx="408.06" cy="7246.92" r="32.22" transform="translate(-6875.79 -319.65) rotate(-81.19)"/><circle class="cls-4" cx="512.51" cy="7263.11" r="32.22" transform="translate(-6803.31 -203.11) rotate(-81.19)"/><path class="cls-5" d="M439.9,7251.86s3.57-13,18.49-10.71,22.27,17,22.27,17" transform="translate(-59.95 -6859.69)"/><path class="cls-5" d="M544.35,7268.05s285.13-104.34,356.79-24.47" transform="translate(-59.95 -6859.69)"/><path class="cls-6" d="M568,7364c-6.69,39.75-71.55,62-144.88,49.62s-127.34-54.57-120.66-94.31,71.55-62,144.88-49.62S574.74,7324.29,568,7364Z" transform="translate(-59.95 -6859.69)"/><circle class="cls-7" cx="508.71" cy="609.09" r="25.17"/><path class="cls-5" d="M423.4,7186.56s101.21-130.79,186.78-49.82" transform="translate(-59.95 -6859.69)"/><path class="cls-5" d="M423.4,7156.36s101.21-130.79,186.78-49.82" transform="translate(-59.95 -6859.69)"/><polygon class="cls-8" points="398.45 331.8 341.87 41.24 208.12 95.34 362.59 360.67 398.45 331.8"/><polygon class="cls-8" points="448.72 316.62 725.02 76.75 742.87 288.55 456.52 361.99 448.72 316.62"/><rect class="cls-9" width="1080" height="1080"/><path class="cls-1" d="M1504.62,7677.32l-16.12,121.8,123.64,49,12.85-42.87s-37.55,8.31-59-17.75-5.56-122.94-5.56-122.94Z" transform="translate(-59.95 -6859.69)"/><path class="cls-2" d="M1631.37,7808.24c11.27,6.89,8.63,31.7-5.88,55.41s-35.4,37.34-46.66,30.44-8.63-31.7,5.88-55.4S1620.11,7801.35,1631.37,7808.24Z" transform="translate(-59.95 -6859.69)"/><path class="cls-1" d="M1704.77,7625.64s109.13-5.3,148.68,87.4,25.73,144,25.73,144l-38.44-6.48-15.55-104.39-160.45-87Z" transform="translate(-59.95 -6859.69)"/><path class="cls-2" d="M1826,7853.68c1.66-13.11,25.36-20.89,52.93-17.4s48.59,16.93,46.93,30-25.36,20.89-52.94,17.39S1824.35,7866.77,1826,7853.68Z" transform="translate(-59.95 -6859.69)"/><path class="cls-3" d="M1813.14,7436.06l176.26,58.71,93.94-116,53.07,21.41s-29.5,153.29-77.36,171.84-263.68-17.93-263.68-17.93Z" transform="translate(-59.95 -6859.69)"/><path class="cls-3" d="M2138.18,7404c-18.24,9-41.24-.39-51.39-21s-3.58-44.54,14.65-53.53,41.24,0.39,51.39,21S2156.41,7395,2138.18,7404Z" transform="translate(-59.95 -6859.69)"/><path class="cls-3" d="M1512.14,7580.34s-111.27,46.25-224.41-80l30.23-32s42,33.88,93.71,51.59,131.89,5.84,131.89,5.84Z" transform="translate(-59.95 -6859.69)"/><path class="cls-3" d="M1323,7486.76c-10,17.37-37,20.59-60.18,7.21s-33.93-38.32-23.92-55.68,37-20.6,60.18-7.22S1333,7469.39,1323,7486.76Z" transform="translate(-59.95 -6859.69)"/><polygon class="cls-1" points="1413.77 607.21 1372.66 896.63 1939.16 815.02 1772.85 538.63 1413.77 607.21"/><path class="cls-3" d="M1449.75,7635.65s70.3-93.31,70.3-168.75c0-3.15-.24-8.81-0.24-8.81l-46.09,8.81Z" transform="translate(-59.95 -6859.69)"/><path class="cls-3" d="M1922.82,7547.91S1822,7496.53,1793,7429.64c-1.21-2.79-8.66-22.07-8.66-22.07l48.46-9.26Z" transform="translate(-59.95 -6859.69)"/><path class="cls-3" d="M1399.21,7259.47c0,40.39-78.69,118.55-7.88,148.91,107.48,46.08,155.41,243.32,427.66,49.71,102.63-73,248.86-342-36.9-342C1455.5,7116.11,1399.21,7157.77,1399.21,7259.47Z" transform="translate(-59.95 -6859.69)"/><circle class="cls-4" cx="1488.06" cy="7246.92" r="32.22" transform="translate(-5961.23 747.6) rotate(-81.19)"/><circle class="cls-4" cx="1592.51" cy="7263.11" r="32.22" transform="translate(-5888.8 864.13) rotate(-81.19)"/><path class="cls-5" d="M1519.9,7251.86s3.57-13,18.49-10.71,22.27,17,22.27,17" transform="translate(-59.95 -6859.69)"/><path class="cls-5" d="M1624.35,7268.05s285.13-104.34,356.79-24.47" transform="translate(-59.95 -6859.69)"/><path class="cls-6" d="M1648,7364c-6.69,39.75-71.55,62-144.88,49.62s-127.34-54.57-120.66-94.31,71.55-62,144.88-49.62S1654.74,7324.29,1648,7364Z" transform="translate(-59.95 -6859.69)"/><ellipse class="cls-7" cx="1616.45" cy="601.78" rx="46.99" ry="30.91"/><path class="cls-5" d="M1503.4,7186.56s101.21-130.79,186.78-49.82" transform="translate(-59.95 -6859.69)"/><path class="cls-5" d="M1503.4,7156.36s101.21-130.79,186.78-49.82" transform="translate(-59.95 -6859.69)"/><polygon class="cls-8" points="1478.45 331.8 1421.87 41.24 1288.12 95.34 1442.59 360.67 1478.45 331.8"/><polygon class="cls-8" points="1528.72 316.62 1805.02 76.75 1822.87 288.55 1536.52 361.99 1528.72 316.62"/><rect class="cls-9" x="1080" width="1080" height="1080"/><path class="cls-1" d="M2584.62,7677.32l-16.12,121.8,123.64,49,12.85-42.87s-37.55,8.31-59-17.75-5.56-122.94-5.56-122.94Z" transform="translate(-59.95 -6859.69)"/><path class="cls-2" d="M2711.37,7808.24c11.27,6.89,8.63,31.7-5.88,55.41s-35.4,37.34-46.66,30.44-8.63-31.7,5.88-55.4S2700.11,7801.35,2711.37,7808.24Z" transform="translate(-59.95 -6859.69)"/><path class="cls-1" d="M2806.12,7613.27s108.63,11.75,133.26,109.48,3,146.22,3,146.22l-37-12.38,0.88-105.54-144.95-110.93Z" transform="translate(-59.95 -6859.69)"/><path class="cls-2" d="M2890.39,7857.4c3.68-12.69,28.3-16.69,55-8.95s45.36,24.29,41.68,37-28.3,16.68-55,8.94S2886.71,7870.07,2890.39,7857.4Z" transform="translate(-59.95 -6859.69)"/><path class="cls-3" d="M2893.14,7436.06l176.26,58.71,93.94-116,53.07,21.41s-29.5,153.29-77.36,171.84-263.68-17.93-263.68-17.93Z" transform="translate(-59.95 -6859.69)"/><path class="cls-3" d="M3218.18,7404c-18.24,9-41.24-.39-51.39-21s-3.58-44.54,14.65-53.53,41.24,0.39,51.38,21S3236.41,7395,3218.18,7404Z" transform="translate(-59.95 -6859.69)"/><path class="cls-3" d="M2583.17,7582s-93.26,76.3-237.93-12l19.76-39.3s50,20.36,104.59,22.45,128-32.35,128-32.35Z" transform="translate(-59.95 -6859.69)"/><ellipse class="cls-3" cx="2327.88" cy="7535.64" rx="36.3" ry="48.54" transform="translate(-5600.57 1216.01) rotate(-76.76)"/><polygon class="cls-1" points="2493.77 607.21 2452.66 896.63 3019.16 815.02 2852.85 538.63 2493.77 607.21"/><path class="cls-3" d="M2529.75,7635.65s70.3-93.31,70.3-168.75c0-3.15-.24-8.81-0.24-8.81l-46.09,8.81Z" transform="translate(-59.95 -6859.69)"/><path class="cls-3" d="M3002.82,7547.91S2902,7496.53,2873,7429.64c-1.21-2.79-8.66-22.07-8.66-22.07l48.46-9.26Z" transform="translate(-59.95 -6859.69)"/><path class="cls-3" d="M2465.5,7259.47c0,40.39-78.69,118.55-7.88,148.91,107.48,46.08,155.41,243.32,427.66,49.71,102.63-73,248.86-342-36.9-342C2521.79,7116.11,2465.5,7157.77,2465.5,7259.47Z" transform="translate(-59.95 -6859.69)"/><circle class="cls-4" cx="2554.35" cy="7246.92" r="32.22" transform="translate(-5058.28 1801.32) rotate(-81.19)"/><circle class="cls-4" cx="2658.8" cy="7263.11" r="32.22" transform="translate(-4985.91 1917.83) rotate(-81.19)"/><path class="cls-5" d="M2586.19,7251.86s3.57-13,18.49-10.71,22.27,17,22.27,17" transform="translate(-59.95 -6859.69)"/><path class="cls-5" d="M2690.64,7268.05s285.13-104.34,356.79-24.47" transform="translate(-59.95 -6859.69)"/><path class="cls-6" d="M2714.34,7364c-6.69,39.75-71.55,62-144.88,49.62s-127.34-54.57-120.66-94.31,71.55-62,144.88-49.62S2721,7324.29,2714.34,7364Z" transform="translate(-59.95 -6859.69)"/><circle class="cls-7" cx="2655" cy="609.09" r="25.17"/><path class="cls-5" d="M2569.69,7186.56s101.21-130.79,186.78-49.82" transform="translate(-59.95 -6859.69)"/><path class="cls-5" d="M2569.69,7156.36s101.21-130.79,186.78-49.82" transform="translate(-59.95 -6859.69)"/><polygon class="cls-8" points="2536.17 313.07 2555.74 17.7 2412.61 35.81 2494.12 331.81 2536.17 313.07"/><polygon class="cls-8" points="2595.01 316.62 2871.31 76.75 2889.16 288.55 2602.81 361.99 2595.01 316.62"/><rect class="cls-9" x="2160" width="1080" height="1080"/><path class="cls-1" d="M3664.62,7677.32l-16.12,121.8,123.64,49,12.85-42.87s-37.55,8.31-59-17.75-5.56-122.94-5.56-122.94Z" transform="translate(-59.95 -6859.69)"/><path class="cls-2" d="M3791.37,7808.24c11.27,6.89,8.63,31.7-5.88,55.41s-35.4,37.34-46.66,30.44-8.63-31.7,5.88-55.4S3780.11,7801.35,3791.37,7808.24Z" transform="translate(-59.95 -6859.69)"/><path class="cls-1" d="M3864.77,7625.64s109.13-5.3,148.68,87.4,25.73,144,25.73,144l-38.44-6.48-15.55-104.39-160.45-87Z" transform="translate(-59.95 -6859.69)"/><path class="cls-2" d="M3986,7853.68c1.66-13.11,25.36-20.89,52.93-17.4s48.59,16.93,46.93,30-25.36,20.89-52.94,17.39S3984.35,7866.77,3986,7853.68Z" transform="translate(-59.95 -6859.69)"/><path class="cls-3" d="M3973.14,7436.06l176.26,58.71,93.94-116,53.07,21.41s-29.5,153.29-77.36,171.84-263.68-17.93-263.68-17.93Z" transform="translate(-59.95 -6859.69)"/><path class="cls-3" d="M4298.18,7404c-18.24,9-41.24-.39-51.39-21s-3.58-44.54,14.65-53.53,41.24,0.39,51.38,21S4316.41,7395,4298.18,7404Z" transform="translate(-59.95 -6859.69)"/><path class="cls-3" d="M3672.14,7580.34s-111.27,46.25-224.41-80l30.23-32s42,33.88,93.71,51.59,131.89,5.84,131.89,5.84Z" transform="translate(-59.95 -6859.69)"/><ellipse class="cls-3" cx="3440.97" cy="7462.52" rx="36.3" ry="48.54" transform="translate(-4802.74 -142.52) rotate(-60.04)"/><polygon class="cls-1" points="3573.77 607.21 3532.66 896.63 4099.16 815.02 3932.85 538.63 3573.77 607.21"/><path class="cls-3" d="M3609.75,7635.65s70.3-93.31,70.3-168.75c0-3.15-.24-8.81-0.24-8.81l-46.09,8.81Z" transform="translate(-59.95 -6859.69)"/><path class="cls-3" d="M4082.82,7547.91S3982,7496.53,3953,7429.64c-1.21-2.79-8.66-22.07-8.66-22.07l48.46-9.26Z" transform="translate(-59.95 -6859.69)"/><path class="cls-3" d="M3545.5,7259.47c0,40.39-78.69,118.55-7.88,148.91,107.48,46.08,155.41,243.32,427.66,49.71,102.63-73,248.86-342-36.9-342C3601.79,7116.11,3545.5,7157.77,3545.5,7259.47Z" transform="translate(-59.95 -6859.69)"/><circle class="cls-4" cx="3634.35" cy="7246.92" r="32.22" transform="translate(-4143.72 2868.57) rotate(-81.19)"/><circle class="cls-4" cx="3738.8" cy="7263.11" r="32.22" transform="translate(-4071.41 2985.08) rotate(-81.19)"/><path class="cls-5" d="M3666.19,7251.86s3.57-13,18.49-10.71,22.27,17,22.27,17" transform="translate(-59.95 -6859.69)"/><path class="cls-5" d="M3770.64,7268.05s285.13-104.34,356.79-24.47" transform="translate(-59.95 -6859.69)"/><path class="cls-6" d="M3794.34,7364c-6.69,39.75-71.55,62-144.88,49.62s-127.34-54.57-120.66-94.31,71.55-62,144.88-49.62S3801,7324.29,3794.34,7364Z" transform="translate(-59.95 -6859.69)"/><ellipse class="cls-7" cx="3762.74" cy="601.78" rx="46.99" ry="30.91"/><path class="cls-5" d="M3649.69,7186.56s101.21-130.79,186.78-49.82" transform="translate(-59.95 -6859.69)"/><path class="cls-5" d="M3649.69,7156.36s101.21-130.79,186.78-49.82" transform="translate(-59.95 -6859.69)"/><polygon class="cls-8" points="3675.01 316.62 3951.31 76.75 3969.16 288.55 3682.81 361.99 3675.01 316.62"/><polygon class="cls-8" points="3616.17 313.07 3635.74 17.7 3492.61 35.81 3574.12 331.81 3616.17 313.07"/><rect class="cls-9" x="3240" width="1080" height="1080"/><path class="cls-1" d="M4744.62,7677.32l-16.12,121.8,123.64,49,12.85-42.87s-37.55,8.31-59-17.75-5.56-122.94-5.56-122.94Z" transform="translate(-59.95 -6859.69)"/><path class="cls-2" d="M4871.37,7808.24c11.27,6.89,8.63,31.7-5.88,55.41s-35.4,37.34-46.66,30.44-8.63-31.7,5.88-55.4S4860.11,7801.35,4871.37,7808.24Z" transform="translate(-59.95 -6859.69)"/><path class="cls-1" d="M4966.12,7613.27s108.62,11.75,133.26,109.48,3,146.22,3,146.22l-37-12.38,0.88-105.54-144.95-110.93Z" transform="translate(-59.95 -6859.69)"/><path class="cls-2" d="M5050.39,7857.4c3.68-12.69,28.3-16.69,55-8.95s45.36,24.29,41.68,37-28.3,16.68-55,8.94S5046.71,7870.07,5050.39,7857.4Z" transform="translate(-59.95 -6859.69)"/><path class="cls-3" d="M5053.14,7436.06l176.26,58.71,93.94-116,53.07,21.41s-29.5,153.29-77.36,171.84-263.68-17.93-263.68-17.93Z" transform="translate(-59.95 -6859.69)"/><path class="cls-3" d="M5378.18,7404c-18.24,9-41.24-.39-51.39-21s-3.58-44.54,14.65-53.53,41.24,0.39,51.39,21S5396.41,7395,5378.18,7404Z" transform="translate(-59.95 -6859.69)"/><path class="cls-3" d="M4743.17,7582s-93.26,76.3-237.93-12l19.76-39.3s50,20.36,104.59,22.45,128-32.35,128-32.35Z" transform="translate(-59.95 -6859.69)"/><ellipse class="cls-3" cx="4487.88" cy="7535.64" rx="36.3" ry="48.54" transform="translate(-3935.29 3318.59) rotate(-76.76)"/><polygon class="cls-1" points="4653.77 607.21 4612.66 896.63 5179.16 815.02 5012.85 538.63 4653.77 607.21"/><path class="cls-3" d="M4689.75,7635.65s70.3-93.31,70.3-168.75c0-3.15-.24-8.81-0.24-8.81l-46.09,8.81Z" transform="translate(-59.95 -6859.69)"/><path class="cls-3" d="M5162.82,7547.91S5062,7496.53,5033,7429.64c-1.21-2.79-8.66-22.07-8.66-22.07l48.46-9.26Z" transform="translate(-59.95 -6859.69)"/><path class="cls-3" d="M5070,7259.47c0,40.39,78.69,118.55,7.88,148.91-107.48,46.08-155.41,243.32-427.66,49.71-102.63-73-248.86-342,36.9-342C5013.71,7116.11,5070,7157.77,5070,7259.47Z" transform="translate(-59.95 -6859.69)"/><circle class="cls-4" cx="4981.15" cy="7246.92" r="32.22" transform="translate(-1111.29 -6011.11) rotate(-8.81)"/><circle class="cls-4" cx="4876.7" cy="7263.11" r="32.22" transform="translate(-1115.35 -6026.6) rotate(-8.81)"/><path class="cls-5" d="M4949.31,7251.86s-3.57-13-18.49-10.71-22.27,17-22.27,17" transform="translate(-59.95 -6859.69)"/><path class="cls-5" d="M4844.86,7268.05s-285.13-104.34-356.79-24.47" transform="translate(-59.95 -6859.69)"/><path class="cls-6" d="M4821.16,7364c6.69,39.75,71.55,62,144.88,49.62s127.34-54.57,120.66-94.31-71.55-62-144.88-49.62S4814.48,7324.29,4821.16,7364Z" transform="translate(-59.95 -6859.69)"/><circle class="cls-7" cx="4760.61" cy="609.09" r="25.17"/><path class="cls-5" d="M4965.81,7186.56S4864.6,7055.77,4779,7136.74" transform="translate(-59.95 -6859.69)"/><path class="cls-5" d="M4965.81,7156.36S4864.6,7025.57,4779,7106.54" transform="translate(-59.95 -6859.69)"/><polygon class="cls-8" points="4870.86 331.8 4927.45 41.24 5061.19 95.34 4906.73 360.67 4870.86 331.8"/><polygon class="cls-8" points="4820.59 316.62 4544.29 76.75 4526.44 288.55 4812.79 361.99 4820.59 316.62"/><rect class="cls-9" x="4320" width="1080" height="1080"/><path class="cls-1" d="M5824.62,7677.32l-16.12,121.8,123.64,49,12.85-42.87s-37.55,8.31-59-17.75-5.56-122.94-5.56-122.94Z" transform="translate(-59.95 -6859.69)"/><path class="cls-2" d="M5951.37,7808.24c11.27,6.89,8.63,31.7-5.88,55.41s-35.4,37.34-46.66,30.44-8.63-31.7,5.88-55.4S5940.11,7801.35,5951.37,7808.24Z" transform="translate(-59.95 -6859.69)"/><path class="cls-1" d="M6024.77,7625.64s109.13-5.3,148.68,87.4,25.73,144,25.73,144l-38.44-6.48-15.55-104.39-160.45-87Z" transform="translate(-59.95 -6859.69)"/><path class="cls-2" d="M6146,7853.68c1.66-13.11,25.36-20.89,52.94-17.4s48.59,16.93,46.93,30-25.36,20.89-52.94,17.39S6144.35,7866.77,6146,7853.68Z" transform="translate(-59.95 -6859.69)"/><path class="cls-3" d="M6133.14,7436.06l176.26,58.71,93.94-116,53.07,21.41s-29.5,153.29-77.36,171.84-263.68-17.93-263.68-17.93Z" transform="translate(-59.95 -6859.69)"/><path class="cls-3" d="M6458.18,7404c-18.24,9-41.24-.39-51.39-21s-3.58-44.54,14.65-53.53,41.24,0.39,51.39,21S6476.41,7395,6458.18,7404Z" transform="translate(-59.95 -6859.69)"/><path class="cls-3" d="M5832.14,7580.34s-111.27,46.25-224.41-80l30.23-32s42,33.88,93.71,51.59,131.89,5.84,131.89,5.84Z" transform="translate(-59.95 -6859.69)"/><path class="cls-3" d="M5643,7486.76c-10,17.37-37,20.59-60.18,7.21s-33.93-38.32-23.92-55.68,37-20.6,60.18-7.22S5653,7469.39,5643,7486.76Z" transform="translate(-59.95 -6859.69)"/><polygon class="cls-1" points="5733.77 607.21 5692.66 896.63 6259.16 815.02 6092.85 538.63 5733.77 607.21"/><path class="cls-3" d="M5769.75,7635.65s70.3-93.31,70.3-168.75c0-3.15-.24-8.81-0.24-8.81l-46.09,8.81Z" transform="translate(-59.95 -6859.69)"/><path class="cls-3" d="M6242.82,7547.91S6142,7496.53,6113,7429.64c-1.21-2.79-8.66-22.07-8.66-22.07l48.46-9.26Z" transform="translate(-59.95 -6859.69)"/><path class="cls-3" d="M6150,7259.47c0,40.39,78.69,118.55,7.88,148.91-107.48,46.08-155.41,243.32-427.66,49.71-102.63-73-248.86-342,36.9-342C6093.71,7116.11,6150,7157.77,6150,7259.47Z" transform="translate(-59.95 -6859.69)"/><circle class="cls-4" cx="6061.15" cy="7246.92" r="32.22" transform="translate(-1098.54 -5845.67) rotate(-8.81)"/><circle class="cls-4" cx="5956.7" cy="7263.11" r="32.22" transform="translate(-1102.59 -5861.1) rotate(-8.81)"/><path class="cls-5" d="M6029.31,7251.86s-3.57-13-18.49-10.71-22.27,17-22.27,17" transform="translate(-59.95 -6859.69)"/><path class="cls-5" d="M5924.86,7268.05s-285.13-104.34-356.79-24.47" transform="translate(-59.95 -6859.69)"/><path class="cls-6" d="M5901.16,7364c6.69,39.75,71.55,62,144.88,49.62s127.34-54.57,120.66-94.31-71.55-62-144.88-49.62S5894.48,7324.29,5901.16,7364Z" transform="translate(-59.95 -6859.69)"/><ellipse class="cls-7" cx="5812.86" cy="601.78" rx="46.99" ry="30.91"/><path class="cls-5" d="M6045.81,7186.56S5944.6,7055.77,5859,7136.74" transform="translate(-59.95 -6859.69)"/><path class="cls-5" d="M6045.81,7156.36S5944.6,7025.57,5859,7106.54" transform="translate(-59.95 -6859.69)"/><polygon class="cls-8" points="5950.86 331.8 6007.45 41.24 6141.19 95.34 5986.73 360.67 5950.86 331.8"/><polygon class="cls-8" points="5900.59 316.62 5624.29 76.75 5606.44 288.55 5892.79 361.99 5900.59 316.62"/><rect class="cls-9" x="5400" width="1080" height="1080"/><path class="cls-1" d="M6904.62,7677.32l-16.12,121.8,123.64,49,12.85-42.87s-37.55,8.31-59-17.75-5.56-122.94-5.56-122.94Z" transform="translate(-59.95 -6859.69)"/><path class="cls-2" d="M7031.37,7808.24c11.27,6.89,8.63,31.7-5.88,55.41s-35.4,37.34-46.66,30.44-8.63-31.7,5.88-55.4S7020.11,7801.35,7031.37,7808.24Z" transform="translate(-59.95 -6859.69)"/><path class="cls-1" d="M7126.12,7613.27s108.63,11.75,133.26,109.48,3,146.22,3,146.22l-37-12.38,0.88-105.54-144.95-110.93Z" transform="translate(-59.95 -6859.69)"/><path class="cls-2" d="M7210.39,7857.4c3.68-12.69,28.3-16.69,55-8.95s45.36,24.29,41.68,37-28.3,16.68-55,8.94S7206.71,7870.07,7210.39,7857.4Z" transform="translate(-59.95 -6859.69)"/><path class="cls-3" d="M7213.14,7436.06l176.26,58.71,93.94-116,53.07,21.41s-29.5,153.29-77.36,171.84-263.68-17.93-263.68-17.93Z" transform="translate(-59.95 -6859.69)"/><path class="cls-3" d="M7538.18,7404c-18.24,9-41.24-.39-51.39-21s-3.58-44.54,14.65-53.53,41.24,0.39,51.38,21S7556.41,7395,7538.18,7404Z" transform="translate(-59.95 -6859.69)"/><path class="cls-3" d="M6903.17,7582s-93.26,76.3-237.93-12l19.76-39.3s50,20.36,104.59,22.45,128-32.35,128-32.35Z" transform="translate(-59.95 -6859.69)"/><ellipse class="cls-3" cx="6647.88" cy="7535.64" rx="36.3" ry="48.54" transform="translate(-2270.01 5421.17) rotate(-76.76)"/><polygon class="cls-1" points="6813.77 607.21 6772.66 896.63 7339.16 815.02 7172.85 538.63 6813.77 607.21"/><path class="cls-3" d="M6849.75,7635.65s70.3-93.31,70.3-168.75c0-3.15-.24-8.81-0.24-8.81l-46.09,8.81Z" transform="translate(-59.95 -6859.69)"/><path class="cls-3" d="M7322.82,7547.91S7222,7496.53,7193,7429.64c-1.21-2.79-8.66-22.07-8.66-22.07l48.46-9.26Z" transform="translate(-59.95 -6859.69)"/><path class="cls-3" d="M7230,7259.47c0,40.39,78.69,118.55,7.88,148.91-107.48,46.08-155.41,243.32-427.66,49.71-102.63-73-248.86-342,36.9-342C7173.71,7116.11,7230,7157.77,7230,7259.47Z" transform="translate(-59.95 -6859.69)"/><circle class="cls-4" cx="7141.15" cy="7246.92" r="32.22" transform="translate(-1085.79 -5680.24) rotate(-8.81)"/><circle class="cls-4" cx="7036.7" cy="7263.11" r="32.22" transform="translate(-1089.84 -5695.6) rotate(-8.81)"/><path class="cls-5" d="M7109.31,7251.86s-3.57-13-18.49-10.71-22.27,17-22.27,17" transform="translate(-59.95 -6859.69)"/><path class="cls-5" d="M7004.86,7268.05s-285.13-104.34-356.79-24.47" transform="translate(-59.95 -6859.69)"/><path class="cls-6" d="M6981.16,7364c6.69,39.75,71.55,62,144.88,49.62s127.34-54.57,120.66-94.31-71.55-62-144.88-49.62S6974.48,7324.29,6981.16,7364Z" transform="translate(-59.95 -6859.69)"/><circle class="cls-7" cx="6920.61" cy="609.09" r="25.17"/><path class="cls-5" d="M7125.81,7186.56S7024.6,7055.77,6939,7136.74" transform="translate(-59.95 -6859.69)"/><path class="cls-5" d="M7125.81,7156.36S7024.6,7025.57,6939,7106.54" transform="translate(-59.95 -6859.69)"/><polygon class="cls-8" points="7039.44 313.07 7019.86 17.7 7163 35.81 7081.48 331.81 7039.44 313.07"/><polygon class="cls-8" points="6980.59 316.62 6704.29 76.75 6686.44 288.55 6972.79 361.99 6980.59 316.62"/><rect class="cls-9" x="6480" width="1080" height="1080"/><path class="cls-1" d="M7984.62,7677.32l-16.12,121.8,123.64,49,12.85-42.87s-37.55,8.31-59-17.75-5.56-122.94-5.56-122.94Z" transform="translate(-59.95 -6859.69)"/><path class="cls-2" d="M8111.37,7808.24c11.27,6.89,8.63,31.7-5.88,55.41s-35.4,37.34-46.66,30.44-8.63-31.7,5.88-55.4S8100.11,7801.35,8111.37,7808.24Z" transform="translate(-59.95 -6859.69)"/><path class="cls-1" d="M8184.77,7625.64s109.13-5.3,148.68,87.4,25.73,144,25.73,144l-38.44-6.48-15.55-104.39-160.45-87Z" transform="translate(-59.95 -6859.69)"/><path class="cls-2" d="M8306,7853.68c1.66-13.11,25.36-20.89,52.93-17.4s48.59,16.93,46.93,30-25.36,20.89-52.94,17.39S8304.35,7866.77,8306,7853.68Z" transform="translate(-59.95 -6859.69)"/><path class="cls-3" d="M8293.14,7436.06l176.26,58.71,93.94-116,53.07,21.41s-29.5,153.29-77.36,171.84-263.68-17.93-263.68-17.93Z" transform="translate(-59.95 -6859.69)"/><path class="cls-3" d="M8618.18,7404c-18.24,9-41.24-.39-51.39-21s-3.58-44.54,14.65-53.53,41.24,0.39,51.38,21S8636.41,7395,8618.18,7404Z" transform="translate(-59.95 -6859.69)"/><path class="cls-3" d="M7992.14,7580.34s-111.27,46.25-224.41-80l30.23-32s42,33.88,93.71,51.59,131.89,5.84,131.89,5.84Z" transform="translate(-59.95 -6859.69)"/><ellipse class="cls-3" cx="7760.97" cy="7462.52" rx="36.3" ry="48.54" transform="translate(-2640.02 3600.28) rotate(-60.04)"/><polygon class="cls-1" points="7893.77 607.21 7852.66 896.63 8419.16 815.02 8252.85 538.63 7893.77 607.21"/><path class="cls-3" d="M7929.75,7635.65s70.3-93.31,70.3-168.75c0-3.15-.24-8.81-0.24-8.81l-46.09,8.81Z" transform="translate(-59.95 -6859.69)"/><path class="cls-3" d="M8402.82,7547.91S8302,7496.53,8273,7429.64c-1.21-2.79-8.66-22.07-8.66-22.07l48.46-9.26Z" transform="translate(-59.95 -6859.69)"/><path class="cls-3" d="M8310,7259.47c0,40.39,78.69,118.55,7.88,148.91-107.48,46.08-155.41,243.32-427.66,49.71-102.63-73-248.86-342,36.9-342C8253.71,7116.11,8310,7157.77,8310,7259.47Z" transform="translate(-59.95 -6859.69)"/><circle class="cls-4" cx="8221.15" cy="7246.92" r="32.22" transform="translate(-1073.04 -5514.8) rotate(-8.81)"/><circle class="cls-4" cx="8116.7" cy="7263.11" r="32.22" transform="translate(-1077.07 -5530.12) rotate(-8.81)"/><path class="cls-5" d="M8189.31,7251.86s-3.57-13-18.49-10.71-22.27,17-22.27,17" transform="translate(-59.95 -6859.69)"/><path class="cls-5" d="M8084.86,7268.05s-285.13-104.34-356.79-24.47" transform="translate(-59.95 -6859.69)"/><path class="cls-6" d="M8061.16,7364c6.69,39.75,71.55,62,144.88,49.62s127.34-54.57,120.66-94.31-71.55-62-144.88-49.62S8054.48,7324.29,8061.16,7364Z" transform="translate(-59.95 -6859.69)"/><ellipse class="cls-7" cx="7972.86" cy="601.78" rx="46.99" ry="30.91"/><path class="cls-5" d="M8205.81,7186.56S8104.6,7055.77,8019,7136.74" transform="translate(-59.95 -6859.69)"/><path class="cls-5" d="M8205.81,7156.36S8104.6,7025.57,8019,7106.54" transform="translate(-59.95 -6859.69)"/><polygon class="cls-8" points="8060.59 316.62 7784.29 76.75 7766.44 288.55 8052.79 361.99 8060.59 316.62"/><polygon class="cls-8" points="8119.44 313.07 8099.86 17.7 8243 35.81 8161.48 331.81 8119.44 313.07"/><rect class="cls-9" x="7560" width="1080" height="1080"/></svg>