<svg id="Layer_1" data-name="Layer 1" xmlns="http://www.w3.org/2000/svg" viewBox="0 0 4320 1080" preserveAspectRatio="none"><defs><style>.cls-1{fill:#c7b299;}.cls-1,.cls-2,.cls-3,.cls-4,.cls-5,.cls-6,.cls-7,.cls-8,.cls-9{stroke:#000;stroke-miterlimit:10;stroke-width:4px;}.cls-2{fill:blue;}.cls-3{fill:#fbb03b;}.cls-4{fill:red;}.cls-5{fill:#00a99d;}.cls-10,.cls-6{fill:none;}.cls-7{fill:#ffa7a4;}.cls-8{fill:#e6e6e6;}.cls-9{fill:#666;}</style></defs><title>coach-angry</title><path class="cls-1" d="M4835.84,1211.65c-33.28-21.76-68.63-26.59-79-10.78s8.27,46.25,41.55,68,68.63,26.59,79,10.78S4869.11,1233.4,4835.84,1211.65Z" transform="translate(-4139.63 -316.65)"/><path class="cls-2" d="M4835.84,1211.65c-33.28-21.76-68.63-26.59-79-10.78s8.27,46.25,41.55,68,68.63,26.59,79,10.78S4869.11,1233.4,4835.84,1211.65Zm3.82,12.73c5,0,9,2.57,9,5.75s-4,5.75-9,5.75-9-2.57-9-5.75S4834.68,1224.38,4839.66,1224.38Zm-5.72,16.63c5,0,9,2.58,9,5.75s-4,5.75-9,5.75-9-2.58-9-5.75S4829,1241,4833.94,1241Zm-49.25-20.83c-8.39,31-18.07,13.71-24.47-9.47s48-16.93,56.89-5.12C4817.12,1205.59,4793.08,1189.18,4784.69,1220.18Zm19.55,21.41c0-3.18,4-5.75,9-5.75s9,2.57,9,5.75-4,5.75-9,5.75S4804.25,1244.77,4804.25,1241.59Zm3.82,13.54c0-3.18,4-5.75,9-5.75s9,2.57,9,5.75-4,5.75-9,5.75S4808.07,1258.31,4808.07,1255.13Zm13.54,18.95c-5,0-9-2.58-9-5.75s4-5.75,9-5.75,9,2.58,9,5.75S4826.59,1274.08,4821.6,1274.08Zm20.49,8.68c-5,0-9-2.57-9-5.75s4-5.75,9-5.75,9,2.58,9,5.75S4847.07,1282.76,4842.09,1282.76Zm0.35-16c-5,0-9-2.58-9-5.75s4-5.75,9-5.75,9,2.57,9,5.75S4847.42,1266.79,4842.44,1266.79Zm3-19c0-3.18,4-5.75,9-5.75s9,2.58,9,5.75-4,5.75-9,5.75S4845.4,1251,4845.4,1247.81Zm18.22,32.18c-5,0-9-2.58-9-5.75s4-5.75,9-5.75,9,2.58,9,5.75S4868.6,1280,4863.62,1280Zm3-13.23c-5,0-9-2.58-9-5.75s4-5.75,9-5.75,9,2.58,9,5.75S4871.56,1266.76,4866.58,1266.76Z" transform="translate(-4139.63 -316.65)"/><path class="cls-1" d="M4491.23,1225.18c8.18,12.51,36.16,8.69,62.49-8.54s41.06-41.32,32.88-53.83-36.17-8.69-62.5,8.53S4483,1212.66,4491.23,1225.18Z" transform="translate(-4139.63 -316.65)"/><path class="cls-2" d="M4491.23,1225.18c8.18,12.51,36.16,8.69,62.49-8.54s41.06-41.32,32.88-53.83-36.17-8.69-62.5,8.53S4483,1212.66,4491.23,1225.18Zm37-39.21c0,2.51-3.2,4.55-7.14,4.55s-7.14-2-7.14-4.55,3.2-4.55,7.14-4.55S4528.22,1183.45,4528.22,1186Zm4.53,13.17c0,2.51-3.2,4.55-7.14,4.55s-7.14-2-7.14-4.55,3.2-4.55,7.14-4.55S4532.74,1196.62,4532.74,1199.13Zm6.17-32.58c7.07-9.35,50.09-14.29,45,4.05s-12.72,32-19.37,7.49S4538.92,1166.55,4538.92,1166.55Zm3,33c-3.94,0-7.14-2-7.14-4.55s3.2-4.55,7.14-4.55,7.14,2,7.14,4.55S4545.91,1199.59,4542,1199.59Zm-3,10.72c-3.94,0-7.14-2-7.14-4.55s3.2-4.55,7.14-4.55,7.14,2,7.14,4.55S4542.88,1210.31,4538.94,1210.31Zm-10.71,5.89c0-2.52,3.2-4.55,7.14-4.55s7.14,2,7.14,4.55-3.2,4.55-7.14,4.55S4528.22,1218.71,4528.22,1216.2Zm-16.21,6.87c0-2.52,3.2-4.55,7.14-4.55s7.14,2,7.14,4.55-3.2,4.55-7.14,4.55S4512,1225.58,4512,1223.07Zm-0.27-12.64c0-2.51,3.2-4.55,7.14-4.55s7.14,2,7.14,4.55-3.2,4.55-7.14,4.55S4511.74,1212.94,4511.74,1210.43Zm-2.35-5.92c-3.94,0-7.14-2-7.14-4.55s3.2-4.55,7.14-4.55,7.14,2,7.14,4.55S4513.33,1204.51,4509.39,1204.51ZM4495,1220.87c0-2.51,3.2-4.55,7.14-4.55s7.14,2,7.14,4.55-3.2,4.55-7.14,4.55S4495,1223.39,4495,1220.87Zm-2.34-10.47c0-2.51,3.2-4.55,7.14-4.55s7.14,2,7.14,4.55-3.2,4.55-7.14,4.55S4492.63,1212.92,4492.63,1210.4Z" transform="translate(-4139.63 -316.65)"/><path class="cls-1" d="M4327.5,857.24L4396,908.89l75,21.38-20.29,32s-41.86-9.36-75.58-27.61-64.44-58.33-64.44-58.33Z" transform="translate(-4139.63 -316.65)"/><ellipse class="cls-1" cx="4311.03" cy="859.37" rx="25.43" ry="34" transform="translate(-3068.13 3514.08) rotate(-53.8)"/><path class="cls-3" d="M4522.79,1056.17l-58.17,78,104.88,53.09,15.48-27.66s-26.93,1.17-37.51-20,15.42-83.44,15.42-83.44h-40.1Z" transform="translate(-4139.63 -316.65)"/><path class="cls-1" d="M4944.57,814.17l9.91,24.57s-46.49,66.36-70.67,83.36L4798.67,982,4780,923S4942.29,851.35,4944.57,814.17Z" transform="translate(-4139.63 -316.65)"/><ellipse class="cls-1" cx="4953.89" cy="824.51" rx="25.79" ry="29.08" transform="translate(-3752.31 2597.67) rotate(-34.04)"/><path class="cls-3" d="M4745.1,1019.12s107.3,44.06,103.77,114.57-64.9,84.61-64.9,84.61l-22.22-15.87,22.22-70.5-74.35-104Z" transform="translate(-4139.63 -316.65)"/><polygon class="cls-3" points="314.88 558.19 280.49 743.89 711.28 770.37 639 556.94 314.88 558.19"/><path class="cls-1" d="M4433.35,989.11s64.5-33.93,92.54-79.4a72.89,72.89,0,0,0,10.67-34.63l-82-.25Z" transform="translate(-4139.63 -316.65)"/><path class="cls-1" d="M4817.75,989.11s-64.75-49.83-74-99.86c-0.39-2.08-2.38-16.37-2.38-16.37l37.26,0.71Z" transform="translate(-4139.63 -316.65)"/><path class="cls-4" d="M4436.73,782.31c0,34.77-43.24,102-4.33,128.18,59.06,39.66,107.3,52.58,214.71,65.43,93.44,11.18,132.29-10.08,137-60,4.63-48.78,43.85-46.82,25.17-98.48-25-69.19-5.18-158.5-162.2-158.5C4467.66,658.92,4436.73,694.77,4436.73,782.31Z" transform="translate(-4139.63 -316.65)"/><circle class="cls-5" cx="370.93" cy="465.66" r="27.74"/><circle class="cls-5" cx="461.91" cy="465.66" r="27.74"/><path class="cls-6" d="M4538.3,782.31s1.32-11.54,14.32-11.54,21.19,11.54,21.19,11.54" transform="translate(-4139.63 -316.65)"/><path class="cls-6" d="M4629.28,782.31S4858,656,4929.53,714.45" transform="translate(-4139.63 -316.65)"/><ellipse class="cls-7" cx="416.46" cy="546.82" rx="115.89" ry="62.82"/><path class="cls-6" d="M4521.82,700.06s87.12-112.58,160.77-42.89" transform="translate(-4139.63 -316.65)"/><path class="cls-6" d="M4521.82,674.07s87.12-112.58,160.77-42.89" transform="translate(-4139.63 -316.65)"/><polygon class="cls-8" points="385.86 365.86 126.64 160.06 52.92 302.71 376.3 416.26 385.86 365.86"/><polygon class="cls-8" points="406.8 357.79 714.73 92.02 734.16 328.01 415.27 408.38 406.8 357.79"/><polygon class="cls-9" points="385.37 587.65 385.37 630.48 679.6 620.19 654.15 487.82 385.37 587.65"/><line class="cls-6" x1="712.76" y1="379.5" x2="987.81" y2="159.79"/><line class="cls-6" x1="717.59" y1="420.73" x2="1063.77" y2="385.46"/><line class="cls-6" x1="761.44" y1="510.89" x2="1044.56" y2="563.72"/><line class="cls-6" x1="770.84" y1="646.92" x2="1034.54" y2="698.33"/><line class="cls-6" x1="771.01" y1="480.22" x2="1034.36" y2="427.03"/><line class="cls-6" x1="180.21" y1="432.54" x2="54.9" y2="282.42"/><line class="cls-6" x1="217.68" y1="495.03" x2="62.32" y2="547.58"/><line class="cls-6" x1="266.73" y1="578.5" x2="23.92" y2="751.67"/><line class="cls-6" x1="265.28" y1="736.25" x2="117.4" y2="1016.67"/><line class="cls-6" x1="733.46" y1="706.44" x2="966.97" y2="867.36"/><line class="cls-6" x1="169.01" y1="450" x2="14.77" y2="379.5"/><rect class="cls-10" width="1080" height="1080"/><path class="cls-1" d="M6995.84,1211.65c-33.28-21.76-68.63-26.59-79-10.78s8.27,46.25,41.55,68,68.63,26.59,79,10.78S7029.11,1233.4,6995.84,1211.65Z" transform="translate(-4139.63 -316.65)"/><path class="cls-2" d="M6995.84,1211.65c-33.28-21.76-68.63-26.59-79-10.78s8.27,46.25,41.55,68,68.63,26.59,79,10.78S7029.11,1233.4,6995.84,1211.65Zm3.82,12.73c5,0,9,2.57,9,5.75s-4,5.75-9,5.75-9-2.57-9-5.75S6994.68,1224.38,6999.66,1224.38Zm-5.72,16.63c5,0,9,2.58,9,5.75s-4,5.75-9,5.75-9-2.58-9-5.75S6989,1241,6993.94,1241Zm-49.25-20.83c-8.39,31-18.07,13.71-24.47-9.47s48-16.93,56.89-5.12C6977.12,1205.59,6953.08,1189.18,6944.69,1220.18Zm19.55,21.41c0-3.18,4-5.75,9-5.75s9,2.57,9,5.75-4,5.75-9,5.75S6964.25,1244.77,6964.25,1241.59Zm3.82,13.54c0-3.18,4-5.75,9-5.75s9,2.57,9,5.75-4,5.75-9,5.75S6968.07,1258.31,6968.07,1255.13Zm13.54,18.95c-5,0-9-2.58-9-5.75s4-5.75,9-5.75,9,2.58,9,5.75S6986.59,1274.08,6981.6,1274.08Zm20.49,8.68c-5,0-9-2.57-9-5.75s4-5.75,9-5.75,9,2.58,9,5.75S7007.07,1282.76,7002.09,1282.76Zm0.35-16c-5,0-9-2.58-9-5.75s4-5.75,9-5.75,9,2.57,9,5.75S7007.42,1266.79,7002.44,1266.79Zm3-19c0-3.18,4-5.75,9-5.75s9,2.58,9,5.75-4,5.75-9,5.75S7005.4,1251,7005.4,1247.81Zm18.22,32.18c-5,0-9-2.58-9-5.75s4-5.75,9-5.75,9,2.58,9,5.75S7028.6,1280,7023.62,1280Zm3-13.23c-5,0-9-2.58-9-5.75s4-5.75,9-5.75,9,2.58,9,5.75S7031.56,1266.76,7026.58,1266.76Z" transform="translate(-4139.63 -316.65)"/><path class="cls-1" d="M6651.23,1225.18c8.18,12.51,36.16,8.69,62.49-8.53s41.06-41.32,32.88-53.83-36.17-8.69-62.5,8.53S6643,1212.66,6651.23,1225.18Z" transform="translate(-4139.63 -316.65)"/><path class="cls-2" d="M6651.23,1225.18c8.18,12.51,36.16,8.69,62.49-8.53s41.06-41.32,32.88-53.83-36.17-8.69-62.5,8.53S6643,1212.66,6651.23,1225.18Zm37-39.21c0,2.51-3.2,4.55-7.14,4.55s-7.14-2-7.14-4.55,3.2-4.55,7.14-4.55S6688.21,1183.45,6688.21,1186Zm4.53,13.17c0,2.51-3.2,4.55-7.14,4.55s-7.14-2-7.14-4.55,3.2-4.55,7.14-4.55S6692.74,1196.62,6692.74,1199.13Zm6.17-32.58c7.07-9.35,50.09-14.29,45,4.05s-12.72,32-19.37,7.49S6698.91,1166.55,6698.91,1166.55Zm3,33c-3.94,0-7.14-2-7.14-4.55s3.2-4.55,7.14-4.55,7.14,2,7.14,4.55S6705.9,1199.59,6702,1199.59Zm-3,10.72c-3.94,0-7.14-2-7.14-4.55s3.2-4.55,7.14-4.55,7.14,2,7.14,4.55S6702.88,1210.31,6698.94,1210.31Zm-10.71,5.89c0-2.52,3.2-4.55,7.14-4.55s7.14,2,7.14,4.55-3.2,4.55-7.14,4.55S6688.22,1218.71,6688.22,1216.2Zm-16.21,6.87c0-2.52,3.2-4.55,7.14-4.55s7.14,2,7.14,4.55-3.2,4.55-7.14,4.55S6672,1225.59,6672,1223.07Zm-0.27-12.64c0-2.51,3.2-4.55,7.14-4.55s7.14,2,7.14,4.55-3.2,4.55-7.14,4.55S6671.73,1212.94,6671.73,1210.43Zm-2.35-5.92c-3.94,0-7.14-2-7.14-4.55s3.2-4.55,7.14-4.55,7.14,2,7.14,4.55S6673.33,1204.51,6669.39,1204.51ZM6655,1220.87c0-2.51,3.2-4.55,7.14-4.55s7.14,2,7.14,4.55-3.2,4.55-7.14,4.55S6655,1223.39,6655,1220.87Zm-2.34-10.47c0-2.51,3.2-4.55,7.14-4.55s7.14,2,7.14,4.55-3.2,4.55-7.14,4.55S6652.63,1212.92,6652.63,1210.4Z" transform="translate(-4139.63 -316.65)"/><path class="cls-1" d="M6487.5,857.24L6556,908.89l75,21.38-20.29,32s-41.86-9.36-75.58-27.61-64.44-58.33-64.44-58.33Z" transform="translate(-4139.63 -316.65)"/><ellipse class="cls-1" cx="6471.03" cy="859.37" rx="25.43" ry="33.99" transform="translate(-2183.78 5257.16) rotate(-53.8)"/><path class="cls-3" d="M6682.79,1056.17l-58.17,78,104.88,53.09,15.48-27.66s-26.93,1.17-37.51-20,15.42-83.44,15.42-83.44h-40.1Z" transform="translate(-4139.63 -316.65)"/><path class="cls-1" d="M7104.57,814.17l9.91,24.57s-46.49,66.36-70.67,83.36L6958.67,982,6940,923S7102.29,851.35,7104.57,814.17Z" transform="translate(-4139.63 -316.65)"/><ellipse class="cls-1" cx="7113.89" cy="824.51" rx="25.79" ry="29.08" transform="translate(-3382.19 3806.78) rotate(-34.04)"/><path class="cls-3" d="M6905.1,1019.12s107.3,44.06,103.77,114.57-64.9,84.61-64.9,84.61l-22.22-15.87,22.22-70.5-74.35-104Z" transform="translate(-4139.63 -316.65)"/><polygon class="cls-3" points="2474.88 558.19 2440.49 743.89 2871.28 770.37 2799 556.94 2474.88 558.19"/><path class="cls-1" d="M6593.35,989.11s64.5-33.93,92.54-79.4a72.89,72.89,0,0,0,10.67-34.63l-82-.25Z" transform="translate(-4139.63 -316.65)"/><path class="cls-1" d="M6977.75,989.11s-64.75-49.83-74-99.86c-0.39-2.09-2.38-16.37-2.38-16.37l37.26,0.71Z" transform="translate(-4139.63 -316.65)"/><path class="cls-4" d="M6596.73,782.31c0,34.77-43.24,102-4.33,128.18,59.06,39.66,107.3,52.58,214.71,65.43,93.44,11.18,132.29-10.08,137-60,4.63-48.78,43.85-46.82,25.17-98.48-25-69.19-5.18-158.5-162.2-158.5C6627.66,658.92,6596.73,694.77,6596.73,782.31Z" transform="translate(-4139.63 -316.65)"/><circle class="cls-5" cx="2530.93" cy="465.66" r="27.74"/><circle class="cls-5" cx="2621.91" cy="465.66" r="27.74"/><path class="cls-6" d="M6698.3,782.31s1.32-11.54,14.32-11.54,21.19,11.54,21.19,11.54" transform="translate(-4139.63 -316.65)"/><path class="cls-6" d="M6789.28,782.31S7018,656,7089.53,714.45" transform="translate(-4139.63 -316.65)"/><ellipse class="cls-7" cx="2576.45" cy="546.82" rx="115.89" ry="62.82"/><path class="cls-6" d="M6681.82,700.06s87.12-112.58,160.77-42.89" transform="translate(-4139.63 -316.65)"/><path class="cls-6" d="M6681.82,674.07s87.12-112.58,160.77-42.89" transform="translate(-4139.63 -316.65)"/><polygon class="cls-8" points="2564.48 388.88 2339.77 145.87 2245.11 275.58 2547.33 437.23 2564.48 388.88"/><polygon class="cls-8" points="2576.26 402.96 2799.75 63.1 2882.99 284.78 2598.25 449.3 2576.26 402.96"/><polygon class="cls-9" points="2545.37 587.65 2545.37 630.48 2839.6 620.19 2814.15 487.82 2545.37 587.65"/><line class="cls-6" x1="2823.76" y1="393.5" x2="3098.81" y2="173.79"/><line class="cls-6" x1="2869.33" y1="437.23" x2="3200.03" y2="328.96"/><line class="cls-6" x1="2830.37" y1="506.52" x2="3182.37" y2="506.52"/><line class="cls-6" x1="2918.84" y1="597.92" x2="3182.53" y2="649.33"/><line class="cls-6" x1="2414.01" y1="424" x2="2243.11" y2="328.96"/><line class="cls-6" x1="2382.37" y1="480.52" x2="2218.37" y2="480.52"/><line class="cls-6" x1="2410.28" y1="559.15" x2="2200.37" y2="771.02"/><line class="cls-6" x1="2425.28" y1="736.25" x2="2277.4" y2="1016.67"/><line class="cls-6" x1="2870.66" y1="720.79" x2="3149.77" y2="771.02"/><rect class="cls-10" x="2160" width="1080" height="1080"/><path class="cls-1" d="M5915.84,1211.65c-33.28-21.76-68.63-26.59-79-10.78s8.27,46.25,41.55,68,68.63,26.59,79,10.78S5949.11,1233.4,5915.84,1211.65Z" transform="translate(-4139.63 -316.65)"/><path class="cls-2" d="M5915.84,1211.65c-33.28-21.76-68.63-26.59-79-10.78s8.27,46.25,41.55,68,68.63,26.59,79,10.78S5949.11,1233.4,5915.84,1211.65Zm3.82,12.73c5,0,9,2.57,9,5.75s-4,5.75-9,5.75-9-2.57-9-5.75S5914.68,1224.38,5919.66,1224.38Zm-5.72,16.63c5,0,9,2.58,9,5.75s-4,5.75-9,5.75-9-2.58-9-5.75S5909,1241,5913.94,1241Zm-49.25-20.83c-8.39,31-18.07,13.71-24.47-9.47s48-16.93,56.89-5.12C5897.12,1205.59,5873.08,1189.18,5864.69,1220.18Zm19.55,21.41c0-3.18,4-5.75,9-5.75s9,2.57,9,5.75-4,5.75-9,5.75S5884.25,1244.77,5884.25,1241.59Zm3.82,13.54c0-3.18,4-5.75,9-5.75s9,2.57,9,5.75-4,5.75-9,5.75S5888.07,1258.31,5888.07,1255.13Zm13.54,18.95c-5,0-9-2.58-9-5.75s4-5.75,9-5.75,9,2.58,9,5.75S5906.59,1274.08,5901.6,1274.08Zm20.49,8.68c-5,0-9-2.57-9-5.75s4-5.75,9-5.75,9,2.58,9,5.75S5927.07,1282.76,5922.09,1282.76Zm0.35-16c-5,0-9-2.58-9-5.75s4-5.75,9-5.75,9,2.57,9,5.75S5927.42,1266.79,5922.44,1266.79Zm3-19c0-3.18,4-5.75,9-5.75s9,2.58,9,5.75-4,5.75-9,5.75S5925.4,1251,5925.4,1247.81Zm18.22,32.18c-5,0-9-2.58-9-5.75s4-5.75,9-5.75,9,2.58,9,5.75S5948.6,1280,5943.62,1280Zm3-13.23c-5,0-9-2.58-9-5.75s4-5.75,9-5.75,9,2.58,9,5.75S5951.56,1266.76,5946.58,1266.76Z" transform="translate(-4139.63 -316.65)"/><path class="cls-1" d="M5571.23,1225.18c8.18,12.51,36.16,8.69,62.49-8.54s41.06-41.32,32.88-53.83-36.17-8.69-62.5,8.53S5563,1212.66,5571.23,1225.18Z" transform="translate(-4139.63 -316.65)"/><path class="cls-2" d="M5571.23,1225.18c8.18,12.51,36.16,8.69,62.49-8.54s41.06-41.32,32.88-53.83-36.17-8.69-62.5,8.53S5563,1212.66,5571.23,1225.18Zm37-39.21c0,2.51-3.2,4.55-7.14,4.55s-7.14-2-7.14-4.55,3.2-4.55,7.14-4.55S5608.22,1183.45,5608.22,1186Zm4.53,13.17c0,2.51-3.2,4.55-7.14,4.55s-7.14-2-7.14-4.55,3.2-4.55,7.14-4.55S5612.74,1196.62,5612.74,1199.13Zm6.17-32.58c7.07-9.35,50.09-14.29,45,4.05s-12.72,32-19.37,7.49S5618.92,1166.55,5618.92,1166.55Zm3,33c-3.94,0-7.14-2-7.14-4.55s3.2-4.55,7.14-4.55,7.14,2,7.14,4.55S5625.91,1199.59,5622,1199.59Zm-3,10.72c-3.94,0-7.14-2-7.14-4.55s3.2-4.55,7.14-4.55,7.14,2,7.14,4.55S5622.88,1210.31,5618.94,1210.31Zm-10.71,5.89c0-2.52,3.2-4.55,7.14-4.55s7.14,2,7.14,4.55-3.2,4.55-7.14,4.55S5608.22,1218.71,5608.22,1216.2Zm-16.21,6.87c0-2.52,3.2-4.55,7.14-4.55s7.14,2,7.14,4.55-3.2,4.55-7.14,4.55S5592,1225.58,5592,1223.07Zm-0.27-12.64c0-2.51,3.2-4.55,7.14-4.55s7.14,2,7.14,4.55-3.2,4.55-7.14,4.55S5591.74,1212.94,5591.74,1210.43Zm-2.35-5.92c-3.94,0-7.14-2-7.14-4.55s3.2-4.55,7.14-4.55,7.14,2,7.14,4.55S5593.33,1204.51,5589.39,1204.51ZM5575,1220.87c0-2.51,3.2-4.55,7.14-4.55s7.14,2,7.14,4.55-3.2,4.55-7.14,4.55S5575,1223.39,5575,1220.87Zm-2.34-10.47c0-2.51,3.2-4.55,7.14-4.55s7.14,2,7.14,4.55-3.2,4.55-7.14,4.55S5572.63,1212.92,5572.63,1210.4Z" transform="translate(-4139.63 -316.65)"/><path class="cls-1" d="M5387.42,931l84.36,15.48L5548.43,932l-3.81,37.67S5503,980,5464.68,978.83s-83.75-23.27-83.75-23.27Z" transform="translate(-4139.63 -316.65)"/><ellipse class="cls-1" cx="5373.66" cy="940.27" rx="25.43" ry="34" transform="translate(-586.93 5766.04) rotate(-80.43)"/><path class="cls-3" d="M5602.79,1056.17l-58.17,78,104.88,53.09,15.48-27.66s-26.93,1.17-37.51-20,15.42-83.44,15.42-83.44h-40.1Z" transform="translate(-4139.63 -316.65)"/><path class="cls-1" d="M6060.41,854.33l0.36,26.49s-67.34,45.07-96,52.17l-101,25,3.91-61.73S6044.85,888.17,6060.41,854.33Z" transform="translate(-4139.63 -316.65)"/><ellipse class="cls-1" cx="6065.36" cy="867.34" rx="25.79" ry="29.08" transform="translate(-4180.67 1053.47) rotate(-12.84)"/><path class="cls-3" d="M5825.1,1019.12s107.3,44.06,103.77,114.57-64.9,84.61-64.9,84.61l-22.22-15.87,22.22-70.5-74.35-104Z" transform="translate(-4139.63 -316.65)"/><polygon class="cls-3" points="1394.88 558.19 1360.49 743.89 1791.28 770.37 1719 556.94 1394.88 558.19"/><path class="cls-1" d="M5513.35,989.11s64.5-33.93,92.54-79.4a72.88,72.88,0,0,0,10.67-34.63l-82-.25Z" transform="translate(-4139.63 -316.65)"/><path class="cls-1" d="M5897.75,989.11s-64.75-49.83-74-99.86c-0.39-2.08-2.38-16.37-2.38-16.37l37.26,0.71Z" transform="translate(-4139.63 -316.65)"/><path class="cls-4" d="M5516.73,782.31c0,34.77-43.24,102-4.33,128.18,59.06,39.66,107.3,52.58,214.71,65.43,93.44,11.18,132.29-10.08,137-60,4.63-48.78,43.85-46.82,25.17-98.48-25-69.19-5.18-158.5-162.2-158.5C5547.66,658.92,5516.73,694.77,5516.73,782.31Z" transform="translate(-4139.63 -316.65)"/><circle class="cls-5" cx="1450.93" cy="465.66" r="27.74"/><circle class="cls-5" cx="1541.91" cy="465.66" r="27.74"/><path class="cls-6" d="M5618.3,782.31s1.32-11.54,14.32-11.54,21.19,11.54,21.19,11.54" transform="translate(-4139.63 -316.65)"/><path class="cls-6" d="M5709.28,782.31S5938,656,6009.53,714.45" transform="translate(-4139.63 -316.65)"/><ellipse class="cls-7" cx="1496.46" cy="546.82" rx="115.89" ry="62.82"/><path class="cls-6" d="M5601.82,700.06s87.12-112.58,160.77-42.89" transform="translate(-4139.63 -316.65)"/><path class="cls-6" d="M5601.82,674.07s87.12-112.58,160.77-42.89" transform="translate(-4139.63 -316.65)"/><polygon class="cls-8" points="1484.48 388.88 1259.77 145.87 1165.11 275.58 1467.33 437.23 1484.48 388.88"/><polygon class="cls-8" points="1496.27 402.96 1719.75 63.1 1802.99 284.78 1518.25 449.3 1496.27 402.96"/><polygon class="cls-9" points="1450.93 556.23 1465.49 630.48 1759.66 620.19 1740.76 521.76 1450.93 556.23"/><line class="cls-6" x1="1802.99" y1="357.42" x2="1987.27" y2="143.11"/><line class="cls-6" x1="1782.01" y1="445.44" x2="2127.35" y2="402.76"/><line class="cls-6" x1="1836.38" y1="621.1" x2="2018.81" y2="626.15"/><line class="cls-6" x1="1337.65" y1="439.52" x2="1113.37" y2="408.85"/><line class="cls-6" x1="1308.15" y1="505.13" x2="1092.83" y2="539.21"/><line class="cls-6" x1="1361.84" y1="641.06" x2="1131.76" y2="742.22"/><line class="cls-6" x1="1372.78" y1="754.65" x2="1225.51" y2="877.34"/><line class="cls-6" x1="1812.6" y1="702.06" x2="2039.83" y2="871.74"/><line class="cls-6" x1="1328.76" y1="698.66" x2="1164.22" y2="841.68"/><line class="cls-6" x1="1802.84" y1="665.92" x2="1951.7" y2="720.78"/><line class="cls-6" x1="1868.89" y1="513.02" x2="2078.25" y2="530.67"/><rect class="cls-10" x="1080" width="1080" height="1080"/><path class="cls-1" d="M8075.84,1211.65c-33.28-21.76-68.63-26.59-79-10.78s8.27,46.25,41.55,68,68.63,26.59,79,10.78S8109.11,1233.4,8075.84,1211.65Z" transform="translate(-4139.63 -316.65)"/><path class="cls-2" d="M8075.84,1211.65c-33.28-21.76-68.63-26.59-79-10.78s8.27,46.25,41.55,68,68.63,26.59,79,10.78S8109.11,1233.4,8075.84,1211.65Zm3.82,12.73c5,0,9,2.57,9,5.75s-4,5.75-9,5.75-9-2.57-9-5.75S8074.68,1224.38,8079.66,1224.38Zm-5.72,16.63c5,0,9,2.58,9,5.75s-4,5.75-9,5.75-9-2.58-9-5.75S8069,1241,8073.94,1241Zm-49.25-20.83c-8.39,31-18.07,13.71-24.47-9.47s48-16.93,56.89-5.12C8057.12,1205.59,8033.08,1189.18,8024.69,1220.18Zm19.55,21.41c0-3.18,4-5.75,9-5.75s9,2.57,9,5.75-4,5.75-9,5.75S8044.25,1244.77,8044.25,1241.59Zm3.82,13.54c0-3.18,4-5.75,9-5.75s9,2.57,9,5.75-4,5.75-9,5.75S8048.07,1258.31,8048.07,1255.13Zm13.54,18.95c-5,0-9-2.58-9-5.75s4-5.75,9-5.75,9,2.58,9,5.75S8066.59,1274.08,8061.61,1274.08Zm20.49,8.68c-5,0-9-2.57-9-5.75s4-5.75,9-5.75,9,2.58,9,5.75S8087.07,1282.76,8082.09,1282.76Zm0.35-16c-5,0-9-2.58-9-5.75s4-5.75,9-5.75,9,2.57,9,5.75S8087.42,1266.79,8082.44,1266.79Zm3-19c0-3.18,4-5.75,9-5.75s9,2.58,9,5.75-4,5.75-9,5.75S8085.4,1251,8085.4,1247.81Zm18.22,32.18c-5,0-9-2.58-9-5.75s4-5.75,9-5.75,9,2.58,9,5.75S8108.6,1280,8103.62,1280Zm3-13.23c-5,0-9-2.58-9-5.75s4-5.75,9-5.75,9,2.58,9,5.75S8111.56,1266.76,8106.58,1266.76Z" transform="translate(-4139.63 -316.65)"/><path class="cls-1" d="M7731.23,1225.18c8.18,12.51,36.16,8.69,62.49-8.54s41.06-41.32,32.88-53.83-36.17-8.69-62.5,8.53S7723,1212.66,7731.23,1225.18Z" transform="translate(-4139.63 -316.65)"/><path class="cls-2" d="M7731.23,1225.18c8.18,12.51,36.16,8.69,62.49-8.54s41.06-41.32,32.88-53.83-36.17-8.69-62.5,8.53S7723,1212.66,7731.23,1225.18Zm37-39.21c0,2.51-3.2,4.55-7.14,4.55s-7.14-2-7.14-4.55,3.2-4.55,7.14-4.55S7768.22,1183.45,7768.22,1186Zm4.53,13.17c0,2.51-3.2,4.55-7.14,4.55s-7.14-2-7.14-4.55,3.2-4.55,7.14-4.55S7772.75,1196.62,7772.75,1199.13Zm6.17-32.58c7.07-9.35,50.09-14.29,45,4.05s-12.72,32-19.37,7.49S7778.92,1166.55,7778.92,1166.55Zm3,33c-3.94,0-7.14-2-7.14-4.55s3.2-4.55,7.14-4.55,7.14,2,7.14,4.55S7785.91,1199.59,7782,1199.59Zm-3,10.72c-3.94,0-7.14-2-7.14-4.55s3.2-4.55,7.14-4.55,7.14,2,7.14,4.55S7782.89,1210.31,7778.94,1210.31Zm-10.71,5.89c0-2.52,3.2-4.55,7.14-4.55s7.14,2,7.14,4.55-3.2,4.55-7.14,4.55S7768.23,1218.71,7768.23,1216.2Zm-16.21,6.87c0-2.52,3.2-4.55,7.14-4.55s7.14,2,7.14,4.55-3.2,4.55-7.14,4.55S7752,1225.59,7752,1223.07Zm-0.27-12.64c0-2.51,3.2-4.55,7.14-4.55s7.14,2,7.14,4.55-3.2,4.55-7.14,4.55S7751.74,1212.94,7751.74,1210.43Zm-2.35-5.92c-3.94,0-7.14-2-7.14-4.55s3.2-4.55,7.14-4.55,7.14,2,7.14,4.55S7753.33,1204.51,7749.39,1204.51ZM7735,1220.87c0-2.51,3.2-4.55,7.14-4.55s7.14,2,7.14,4.55-3.2,4.55-7.14,4.55S7735,1223.39,7735,1220.87Zm-2.34-10.47c0-2.51,3.2-4.55,7.14-4.55s7.14,2,7.14,4.55-3.2,4.55-7.14,4.55S7732.63,1212.92,7732.63,1210.4Z" transform="translate(-4139.63 -316.65)"/><path class="cls-1" d="M7547.42,931l84.36,15.48L7708.43,932l-3.81,37.67S7663,980,7624.68,978.83s-83.75-23.27-83.75-23.27Z" transform="translate(-4139.63 -316.65)"/><ellipse class="cls-1" cx="7533.66" cy="940.27" rx="25.43" ry="34" transform="translate(1213.8 7895.96) rotate(-80.43)"/><path class="cls-3" d="M7762.79,1056.17l-58.17,78,104.88,53.09,15.48-27.66s-26.93,1.17-37.51-20,15.42-83.44,15.42-83.44h-40.1Z" transform="translate(-4139.63 -316.65)"/><path class="cls-1" d="M8220.42,854.33l0.36,26.49s-67.34,45.07-96,52.17l-101,25,3.91-61.73S8204.85,888.17,8220.42,854.33Z" transform="translate(-4139.63 -316.65)"/><ellipse class="cls-1" cx="8225.37" cy="867.34" rx="25.79" ry="29.08" transform="translate(-4126.61 1533.66) rotate(-12.84)"/><path class="cls-3" d="M7985.1,1019.12s107.3,44.06,103.77,114.57-64.9,84.61-64.9,84.61l-22.22-15.87,22.22-70.5-74.35-104Z" transform="translate(-4139.63 -316.65)"/><polygon class="cls-3" points="3554.89 558.19 3520.49 743.89 3951.28 770.37 3879 556.94 3554.89 558.19"/><path class="cls-1" d="M7673.35,989.11s64.5-33.93,92.54-79.4a72.89,72.89,0,0,0,10.67-34.63l-82-.25Z" transform="translate(-4139.63 -316.65)"/><path class="cls-1" d="M8057.75,989.11s-64.75-49.83-74-99.86c-0.39-2.08-2.38-16.37-2.38-16.37l37.26,0.71Z" transform="translate(-4139.63 -316.65)"/><path class="cls-4" d="M7676.73,782.31c0,34.77-43.24,102-4.33,128.18,59.06,39.66,107.3,52.58,214.71,65.43,93.44,11.18,132.29-10.08,137-60,4.63-48.78,43.85-46.82,25.17-98.48-25-69.19-5.18-158.5-162.2-158.5C7707.66,658.92,7676.73,694.77,7676.73,782.31Z" transform="translate(-4139.63 -316.65)"/><circle class="cls-5" cx="3610.94" cy="465.66" r="27.74"/><circle class="cls-5" cx="3701.91" cy="465.66" r="27.74"/><path class="cls-6" d="M7778.3,782.31s1.32-11.54,14.32-11.54,21.19,11.54,21.19,11.54" transform="translate(-4139.63 -316.65)"/><path class="cls-6" d="M7869.28,782.31S8098,656,8169.53,714.45" transform="translate(-4139.63 -316.65)"/><ellipse class="cls-7" cx="3656.46" cy="546.82" rx="115.89" ry="62.82"/><path class="cls-6" d="M7761.82,700.06s87.12-112.58,160.77-42.89" transform="translate(-4139.63 -316.65)"/><path class="cls-6" d="M7761.82,674.07s87.12-112.58,160.77-42.89" transform="translate(-4139.63 -316.65)"/><polygon class="cls-8" points="3625.86 365.86 3366.64 160.06 3292.92 302.71 3616.3 416.26 3625.86 365.86"/><polygon class="cls-8" points="3646.8 357.79 3954.73 92.02 3974.16 328.01 3655.28 408.38 3646.8 357.79"/><polygon class="cls-9" points="3610.94 556.23 3625.49 630.48 3919.66 620.19 3900.76 521.76 3610.94 556.23"/><line class="cls-6" x1="3962.99" y1="357.42" x2="4147.27" y2="143.11"/><line class="cls-6" x1="3939.01" y1="486.44" x2="4186" y2="416.26"/><line class="cls-6" x1="3520.16" y1="444.98" x2="3316.87" y2="345.39"/><line class="cls-6" x1="3487.43" y1="486.28" x2="3273.55" y2="444.06"/><line class="cls-6" x1="3521.84" y1="641.06" x2="3260.55" y2="691.64"/><line class="cls-6" x1="3532.78" y1="754.65" x2="3427.82" y2="994.68"/><line class="cls-6" x1="3971.22" y1="703.94" x2="4045.01" y2="825.19"/><line class="cls-6" x1="3488.76" y1="698.66" x2="3324.22" y2="841.68"/><line class="cls-6" x1="4006.07" y1="657.9" x2="4255" y2="691.64"/><line class="cls-6" x1="4026.82" y1="524.44" x2="4303.32" y2="567.96"/><line class="cls-6" x1="4072.84" y1="774.92" x2="4221.7" y2="829.78"/><line class="cls-6" x1="3443.78" y1="774.65" x2="3374.54" y2="915.89"/><rect class="cls-10" x="3240" width="1080" height="1080"/></svg>