<svg id="Layer_1" data-name="Layer 1" xmlns="http://www.w3.org/2000/svg" viewBox="0 0 3400 850" preserveAspectRatio="none"><defs><style>.cls-1,.cls-2{fill:#005ca7;}.cls-1,.cls-10,.cls-11,.cls-2,.cls-3,.cls-4,.cls-5,.cls-6,.cls-7,.cls-8,.cls-9{stroke:#000;stroke-miterlimit:10;}.cls-1,.cls-11,.cls-4,.cls-5,.cls-6,.cls-7,.cls-8,.cls-9{stroke-width:7.18px;}.cls-10,.cls-2,.cls-3{stroke-width:7px;}.cls-3,.cls-4{fill:#bcff76;}.cls-5{fill:#ff8ae3;}.cls-6{fill:#29abe2;}.cls-12,.cls-7{fill:none;}.cls-8{fill:#ff7bac;}.cls-9{fill:red;}.cls-10{fill:#f2f2f2;}.cls-11{fill:#442eff;}</style></defs><title>coach-blue</title><path class="cls-1" d="M6977.36,4797.53l136.07,26.76,58.55-94.78,41.32,10.82s-7.31,116.29-41,134.57-196.92,11.72-196.92,11.72Z" transform="translate(-6420.99 -4453.56)"/><ellipse class="cls-1" cx="7197.84" cy="4717.18" rx="27.48" ry="30.99" transform="translate(-7828.87 310.51) rotate(-33.55)"/><path class="cls-2" d="M6689.5,4957.72s-53.65,71.38-173.87,31.94l8.16-31.94s39,6.25,79-1.57,86.67-45.39,86.67-45.39v47Z" transform="translate(-6420.99 -4453.56)"/><ellipse class="cls-1" cx="77.21" cy="514.15" rx="36.23" ry="27.1"/><path class="cls-3" d="M6741.86,5047.5l-62,83.78,111.77,56.91,16.49-29.3s-28.7.65-40-21.89,16.44-89.51,16.44-89.51h-42.73Z" transform="translate(-6420.99 -4453.56)"/><path class="cls-4" d="M6978.78,5009.38s114.35,47,110.59,122.09-69.16,90.16-69.16,90.16l-23.68-16.91,23.68-75.14L6941,5018.76Z" transform="translate(-6420.99 -4453.56)"/><polygon class="cls-5" points="270.16 426.21 236.34 624.38 702.2 568.5 565.44 379.25 270.16 426.21"/><path class="cls-1" d="M6671.43,4995.31s57.81-63.89,57.81-115.55c0-2.15-.19-6-0.19-6l-37.9,6Z" transform="translate(-6420.99 -4453.56)"/><path class="cls-1" d="M7060.45,4935.24s-82.87-35.18-106.75-81c-1-1.91-7.12-15.11-7.12-15.11l39.85-6.34Z" transform="translate(-6420.99 -4453.56)"/><path class="cls-1" d="M6632.91,4746.07c0,30.15-37.49,88.49-3.75,111.15,51.21,34.39,92.38,56.74,186.19,56.74,155.61,0,185.74,15.41,185.74-60.5,0-9.49,0-31.8-45.08-76.95s-4.49-137.45-140.66-137.45C6659.73,4639.07,6632.91,4670.16,6632.91,4746.07Z" transform="translate(-6420.99 -4453.56)"/><circle class="cls-6" cx="275.95" cy="292.52" r="24.05"/><circle class="cls-6" cx="354.84" cy="292.52" r="24.05"/><path class="cls-7" d="M6721,4746.07s1.15-10,12.42-10,18.37,10,18.37,10" transform="translate(-6420.99 -4453.56)"/><path class="cls-7" d="M6799.88,4746.07s198.38-109.57,260.37-58.85" transform="translate(-6420.99 -4453.56)"/><ellipse class="cls-8" cx="314.3" cy="353.89" rx="100.49" ry="54.47"/><circle class="cls-9" cx="447.67" cy="400.85" r="18.78"/><path class="cls-7" d="M6706.7,4674.75s75.55-97.62,139.42-37.19" transform="translate(-6420.99 -4453.56)"/><path class="cls-7" d="M6706.7,4652.21s75.55-97.62,139.42-37.19" transform="translate(-6420.99 -4453.56)"/><polygon class="cls-10" points="306.51 219.87 111.62 116.79 80.21 219.87 306.51 254.24 306.51 219.87"/><polygon class="cls-10" points="378.51 217.06 613.27 75.56 599.03 233.62 378.51 251.42 378.51 217.06"/><ellipse class="cls-11" cx="6786" cy="5188.76" rx="37.57" ry="17.84" transform="translate(-8089.35 1958.64) rotate(-45.64)"/><ellipse class="cls-11" cx="7017.06" cy="5222.58" rx="17.84" ry="37.57" transform="translate(-7615.24 3783.81) rotate(-56.82)"/><rect class="cls-12" width="850" height="850"/><path class="cls-1" d="M7813.66,4882l115.13-77.29-25.62-108.42,36.87-21.57s77.06,87.4,66.17,124.13-131,147.53-131,147.53Z" transform="translate(-6420.99 -4453.56)"/><ellipse class="cls-1" cx="7912.74" cy="4669.24" rx="27.48" ry="30.99" transform="translate(-4655.18 7044.2) rotate(-78.55)"/><path class="cls-3" d="M7571.7,5051.3l-40.28,96.12,122.1,28.69,9-32.38s-27.72,7.46-44-11.75-5.33-90.85-5.33-90.85Z" transform="translate(-6420.99 -4453.56)"/><ellipse class="cls-11" cx="7648.18" cy="5178.01" rx="37.57" ry="17.84" transform="translate(-7122.98 4671.74) rotate(-59.4)"/><path class="cls-4" d="M7864.17,5003.94s96.3,77.5,71.36,148.48-91.92,66.81-91.92,66.81l-17.9-22.93,44-65.32-44.49-128.77Z" transform="translate(-6420.99 -4453.56)"/><ellipse class="cls-11" cx="7840.31" cy="5219.24" rx="17.84" ry="37.57" transform="translate(-7935.6 1859.43) rotate(-40.32)"/><path class="cls-2" d="M7560,4955.36s-68.9,56.8-176.51-9.74l15.42-29.13s36.45,15.23,77.21,17,94.9-23.79,94.9-23.79Z" transform="translate(-6420.99 -4453.56)"/><ellipse class="cls-1" cx="7371.65" cy="4920.19" rx="27.1" ry="36.23" transform="translate(-5561.49 6478.4) rotate(-76.43)"/><polygon class="cls-5" points="1120.16 426.21 1086.35 624.38 1552.2 568.5 1415.44 379.25 1120.16 426.21"/><path class="cls-1" d="M7521.43,4995.31s57.81-63.89,57.81-115.55c0-2.15-.19-6-0.19-6l-37.9,6Z" transform="translate(-6420.99 -4453.56)"/><path class="cls-1" d="M7910.45,4935.24s-82.87-35.18-106.75-81c-1-1.91-7.12-15.11-7.12-15.11l39.85-6.34Z" transform="translate(-6420.99 -4453.56)"/><path class="cls-1" d="M7482.91,4746.07c0,30.15-37.49,88.49-3.75,111.15,51.21,34.39,92.38,56.74,186.19,56.74,155.61,0,185.74,15.41,185.74-60.5,0-9.49,0-31.8-45.08-76.95s-4.49-137.45-140.66-137.45C7509.73,4639.07,7482.91,4670.16,7482.91,4746.07Z" transform="translate(-6420.99 -4453.56)"/><circle class="cls-6" cx="1125.95" cy="292.52" r="24.05"/><circle class="cls-6" cx="1204.84" cy="292.52" r="24.05"/><path class="cls-7" d="M7571,4746.07s1.15-10,12.42-10,18.37,10,18.37,10" transform="translate(-6420.99 -4453.56)"/><path class="cls-7" d="M7649.88,4746.07s198.38-109.57,260.37-58.85" transform="translate(-6420.99 -4453.56)"/><ellipse class="cls-8" cx="1164.3" cy="353.89" rx="100.49" ry="54.47"/><ellipse class="cls-9" cx="1316.11" cy="400.85" rx="29.61" ry="18.78"/><path class="cls-7" d="M7556.7,4674.75s75.55-97.62,139.42-37.19" transform="translate(-6420.99 -4453.56)"/><path class="cls-7" d="M7556.7,4652.21s75.55-97.62,139.42-37.19" transform="translate(-6420.99 -4453.56)"/><polygon class="cls-10" points="1161.6 207.27 945.82 162.05 944.11 269.8 1171.1 240.3 1161.6 207.27"/><polygon class="cls-10" points="1236.67 218.9 1435.77 30.5 1455.64 187.96 1244.02 252.47 1236.67 218.9"/><rect class="cls-12" x="850" width="850" height="850"/><path class="cls-1" d="M8677.36,4797.53l136.07,26.76,58.55-94.78,41.32,10.82s-7.31,116.29-41,134.57-196.92,11.72-196.92,11.72Z" transform="translate(-6420.99 -4453.56)"/><ellipse class="cls-1" cx="8897.84" cy="4717.18" rx="27.48" ry="30.99" transform="translate(-7545.64 1250.07) rotate(-33.55)"/><path class="cls-2" d="M8389.5,4957.72s-53.65,71.38-173.87,31.94l8.16-31.94s39,6.25,79-1.57,86.67-45.39,86.67-45.39v47Z" transform="translate(-6420.99 -4453.56)"/><ellipse class="cls-1" cx="1777.21" cy="514.15" rx="36.23" ry="27.1"/><path class="cls-3" d="M8441.86,5047.5l-62,83.78,111.77,56.91,16.49-29.3s-28.7.65-40-21.89,16.44-89.51,16.44-89.51h-42.73Z" transform="translate(-6420.99 -4453.56)"/><path class="cls-4" d="M8678.78,5009.38s114.35,47,110.59,122.09-69.16,90.16-69.16,90.16l-23.68-16.91,23.68-75.14L8641,5018.76Z" transform="translate(-6420.99 -4453.56)"/><polygon class="cls-5" points="1970.16 426.21 1936.35 624.38 2402.2 568.5 2265.44 379.25 1970.16 426.21"/><path class="cls-1" d="M8371.43,4995.31s57.81-63.89,57.81-115.55c0-2.15-.19-6-0.19-6l-37.9,6Z" transform="translate(-6420.99 -4453.56)"/><path class="cls-1" d="M8760.45,4935.24s-82.87-35.18-106.75-81c-1-1.91-7.12-15.11-7.12-15.11l39.85-6.34Z" transform="translate(-6420.99 -4453.56)"/><path class="cls-1" d="M8736.54,4746.07c0,30.15,37.49,88.49,3.75,111.15-51.21,34.39-92.38,56.74-186.19,56.74-155.61,0-185.74,15.41-185.74-60.5,0-9.49,0-31.8,45.08-76.95s4.49-137.45,140.66-137.45C8709.72,4639.07,8736.54,4670.16,8736.54,4746.07Z" transform="translate(-6420.99 -4453.56)"/><circle class="cls-6" cx="2251.53" cy="292.52" r="24.05"/><circle class="cls-6" cx="2172.64" cy="292.52" r="24.05"/><path class="cls-7" d="M8648.47,4746.07s-1.15-10-12.42-10-18.37,10-18.37,10" transform="translate(-6420.99 -4453.56)"/><path class="cls-7" d="M8569.57,4746.07s-198.38-109.57-260.37-58.85" transform="translate(-6420.99 -4453.56)"/><ellipse class="cls-8" cx="2213.18" cy="353.89" rx="100.49" ry="54.47"/><circle class="cls-9" cx="2079.81" cy="400.85" r="18.78"/><path class="cls-7" d="M8662.76,4674.75s-75.55-97.62-139.42-37.19" transform="translate(-6420.99 -4453.56)"/><path class="cls-7" d="M8662.76,4652.21s-75.55-97.62-139.42-37.19" transform="translate(-6420.99 -4453.56)"/><polygon class="cls-10" points="2220.51 219.87 2415.63 116.79 2446.93 219.87 2220.51 254.24 2220.51 219.87"/><polygon class="cls-10" points="2148.51 217.06 1913.98 75.56 1928.11 233.62 2148.51 251.42 2148.51 217.06"/><ellipse class="cls-11" cx="8486" cy="5188.76" rx="37.57" ry="17.84" transform="translate(-7578 3174) rotate(-45.64)"/><ellipse class="cls-11" cx="8717.06" cy="5222.58" rx="17.84" ry="37.57" transform="translate(-6845.6 5206.63) rotate(-56.82)"/><rect class="cls-12" x="1700" width="850" height="850"/><path class="cls-1" d="M9513.66,4882l115.13-77.29-25.62-108.42,36.87-21.57s77.06,87.4,66.17,124.13-131,147.53-131,147.53Z" transform="translate(-6420.99 -4453.56)"/><ellipse class="cls-1" cx="9612.74" cy="4669.24" rx="27.48" ry="30.99" transform="translate(-3292.61 8710.37) rotate(-78.55)"/><path class="cls-3" d="M9271.7,5051.3l-40.28,96.12,122.1,28.69,9-32.38s-27.72,7.46-44-11.75-5.33-90.85-5.33-90.85Z" transform="translate(-6420.99 -4453.56)"/><ellipse class="cls-11" cx="9348.18" cy="5178.01" rx="37.57" ry="17.84" transform="translate(-6288.35 6135.01) rotate(-59.4)"/><path class="cls-4" d="M9564.16,5003.94s96.3,77.5,71.36,148.48-91.92,66.81-91.92,66.81l-17.9-22.93,44-65.32-44.49-128.77Z" transform="translate(-6420.99 -4453.56)"/><ellipse class="cls-11" cx="9540.31" cy="5219.24" rx="17.84" ry="37.57" transform="translate(-7531.75 2959.42) rotate(-40.32)"/><path class="cls-2" d="M9260,4955.36s-68.9,56.8-176.51-9.74l15.42-29.13s36.45,15.23,77.21,17,94.9-23.79,94.9-23.79Z" transform="translate(-6420.99 -4453.56)"/><ellipse class="cls-1" cx="9071.65" cy="4920.19" rx="27.1" ry="36.23" transform="translate(-4260.28 8130.97) rotate(-76.43)"/><polygon class="cls-5" points="2820.16 426.21 2786.34 624.38 3252.2 568.5 3115.43 379.25 2820.16 426.21"/><path class="cls-1" d="M9221.43,4995.31s57.81-63.89,57.81-115.55c0-2.15-.19-6-0.19-6l-37.9,6Z" transform="translate(-6420.99 -4453.56)"/><path class="cls-1" d="M9610.45,4935.24s-82.87-35.18-106.75-81c-1-1.91-7.12-15.11-7.12-15.11l39.85-6.34Z" transform="translate(-6420.99 -4453.56)"/><path class="cls-1" d="M9586.54,4746.07c0,30.15,37.49,88.49,3.75,111.15-51.21,34.39-92.38,56.74-186.19,56.74-155.61,0-185.74,15.41-185.74-60.5,0-9.49,0-31.8,45.08-76.95s4.49-137.45,140.66-137.45C9559.72,4639.07,9586.54,4670.16,9586.54,4746.07Z" transform="translate(-6420.99 -4453.56)"/><circle class="cls-6" cx="3101.53" cy="292.52" r="24.05"/><circle class="cls-6" cx="3022.64" cy="292.52" r="24.05"/><path class="cls-7" d="M9498.47,4746.07s-1.15-10-12.42-10-18.37,10-18.37,10" transform="translate(-6420.99 -4453.56)"/><path class="cls-7" d="M9419.57,4746.07s-198.38-109.57-260.37-58.85" transform="translate(-6420.99 -4453.56)"/><ellipse class="cls-8" cx="3063.18" cy="353.89" rx="100.49" ry="54.47"/><circle class="cls-9" cx="2929.81" cy="400.85" r="18.78"/><path class="cls-7" d="M9512.76,4674.75s-75.55-97.62-139.42-37.19" transform="translate(-6420.99 -4453.56)"/><path class="cls-7" d="M9512.76,4652.21s-75.55-97.62-139.42-37.19" transform="translate(-6420.99 -4453.56)"/><polygon class="cls-10" points="3070.51 219.87 3265.63 116.79 3296.93 219.87 3070.51 254.24 3070.51 219.87"/><polygon class="cls-10" points="2998.51 217.06 2763.98 75.56 2778.11 233.62 2998.51 251.42 2998.51 217.06"/><rect class="cls-12" x="2550" width="850" height="850"/></svg>