<svg id="Layer_1" data-name="Layer 1" xmlns="http://www.w3.org/2000/svg" viewBox="0 0 1199.91 2157.72" preserveAspectRatio="none"><defs><style>.cls-1{fill:none;stroke:#662d91;stroke-linecap:round;stroke-miterlimit:10;stroke-width:50px;}</style></defs><title>worldtraveler-squiggles</title><path class="cls-1" d="M6568.78,2617.83c-25.18,11.89-60.55,24.06-103.26,24.82-47.2.84-53.51-23.26-91.06-16.06-44.56,8.54-57.31,41.41-95.75,38-25.46-2.28-45.58-19-58.2-32.12" transform="translate(-6132 -2031.84)"/><path class="cls-1" d="M6161,2484c169.83,61.15,200.09,58.55,244.68,43.23,75-25.76,53.21-79,108.43-89.14,35.16-6.46,54.67,14.87,54.67,14.87" transform="translate(-6132 -2031.84)"/><path class="cls-1" d="M6197.87,2802.2c86.54-48.35,135.53-44.89,164.93-29.11,46.37,24.9,53.11,85.36,87.32,87.32,27.31,1.57,52.11-35.3,69.85-69.85" transform="translate(-6132 -2031.84)"/><path class="cls-1" d="M6162.94,2980.71c50.27-40.57,82.62-42.51,102.84-36.87,43.06,12,52.24,64.38,87.32,64,32.58-.32,40.14-45.65,73.73-46.57,37.95-1,52.48,56.15,85.38,56.27,18.51,0.07,44.33-17.93,75.68-99" transform="translate(-6132 -2031.84)"/><path class="cls-1" d="M6201.75,3141.76c9.88-5.44,151.42-80.53,273.59-7.76,44.93,26.76,71.15,63.94,85.38,89.26" transform="translate(-6132 -2031.84)"/><path class="cls-1" d="M6168.76,3264.3c123.14,12.65,174.14-4.86,196.55-26.17,12.18-11.58,19-27.18,35.91-28.92,25.07-2.58,51.93,27.26,71.82,55.09" transform="translate(-6132 -2031.84)"/><path class="cls-1" d="M6605.8,2250.26c-25.18,11.89-60.55,24.06-103.26,24.82-47.2.84-53.51-23.26-91.06-16.06-44.56,8.54-57.31,41.41-95.75,38-25.46-2.28-45.58-19-58.2-32.12" transform="translate(-6132 -2031.84)"/><path class="cls-1" d="M6198,2116.4c169.83,61.15,200.09,58.55,244.68,43.23,75-25.76,53.21-79,108.43-89.14,35.16-6.46,54.67,14.87,54.67,14.87" transform="translate(-6132 -2031.84)"/><path class="cls-1" d="M6234.89,2434.63c86.54-48.35,135.53-44.89,164.93-29.11,46.37,24.9,53.11,85.36,87.32,87.32,27.31,1.57,52.11-35.3,69.85-69.85" transform="translate(-6132 -2031.84)"/><path class="cls-1" d="M6200,2613.14c50.27-40.57,82.62-42.51,102.84-36.87,43.06,12,52.24,64.38,87.32,64,32.58-.32,40.14-45.65,73.73-46.57,37.95-1,52.48,56.15,85.38,56.27,18.51,0.07,44.33-17.93,75.68-99" transform="translate(-6132 -2031.84)"/><path class="cls-1" d="M6238.77,2774.2c9.88-5.44,151.42-80.53,273.59-7.76,44.93,26.76,71.15,63.94,85.38,89.26" transform="translate(-6132 -2031.84)"/><path class="cls-1" d="M6205.79,2896.73c123.14,12.65,174.14-4.86,196.55-26.17,12.18-11.58,19-27.18,35.91-28.92,25.07-2.58,51.93,27.26,71.82,55.09" transform="translate(-6132 -2031.84)"/><path class="cls-1" d="M7250.78,2862.83c-25.18,11.89-60.55,24.06-103.26,24.82-47.2.84-53.51-23.26-91.06-16.06-44.56,8.54-57.31,41.41-95.75,38-25.46-2.28-45.58-19-58.2-32.12" transform="translate(-6132 -2031.84)"/><path class="cls-1" d="M6843,2729c169.83,61.15,200.09,58.55,244.68,43.23,75-25.76,53.21-79,108.43-89.14,35.16-6.46,54.67,14.87,54.67,14.87" transform="translate(-6132 -2031.84)"/><path class="cls-1" d="M6879.87,3047.2c86.54-48.35,135.53-44.89,164.93-29.11,46.37,24.9,53.11,85.36,87.32,87.32,27.31,1.57,52.11-35.3,69.85-69.85" transform="translate(-6132 -2031.84)"/><path class="cls-1" d="M6844.94,3225.71c50.27-40.57,82.62-42.51,102.84-36.87,43.06,12,52.24,64.38,87.32,64,32.58-.32,40.14-45.65,73.73-46.57,37.95-1,52.48,56.15,85.38,56.27,18.51,0.07,44.33-17.93,75.68-99" transform="translate(-6132 -2031.84)"/><path class="cls-1" d="M6883.75,3386.76c9.88-5.44,151.42-80.53,273.59-7.76,44.93,26.76,71.15,63.94,85.38,89.26" transform="translate(-6132 -2031.84)"/><path class="cls-1" d="M6850.76,3509.3c123.14,12.65,174.14-4.86,196.55-26.17,12.18-11.58,19-27.18,35.91-28.92,25.07-2.58,51.93,27.26,71.82,55.09" transform="translate(-6132 -2031.84)"/><path class="cls-1" d="M7287.8,2495.26c-25.18,11.89-60.55,24.06-103.26,24.82-47.2.84-53.51-23.26-91.06-16.06-44.56,8.54-57.31,41.41-95.75,38-25.46-2.28-45.58-19-58.2-32.12" transform="translate(-6132 -2031.84)"/><path class="cls-1" d="M6880,2361.4c169.83,61.15,200.09,58.55,244.68,43.23,75-25.76,53.21-79,108.43-89.14,35.16-6.46,54.67,14.87,54.67,14.87" transform="translate(-6132 -2031.84)"/><path class="cls-1" d="M6916.89,2679.63c86.54-48.35,135.53-44.89,164.93-29.11,46.37,24.9,53.11,85.36,87.32,87.32,27.31,1.57,52.11-35.3,69.85-69.85" transform="translate(-6132 -2031.84)"/><path class="cls-1" d="M6882,2858.14c50.27-40.57,82.62-42.51,102.84-36.87,43.06,12,52.24,64.38,87.32,64,32.58-.32,40.14-45.65,73.73-46.57,37.95-1,52.48,56.15,85.38,56.27,18.51,0.07,44.33-17.93,75.68-99" transform="translate(-6132 -2031.84)"/><path class="cls-1" d="M6920.77,3019.2c9.88-5.44,151.42-80.53,273.59-7.76,44.93,26.76,71.15,63.94,85.38,89.26" transform="translate(-6132 -2031.84)"/><path class="cls-1" d="M6887.79,3141.73c123.14,12.65,174.14-4.86,196.55-26.17,12.18-11.58,19-27.18,35.91-28.92,25.07-2.58,51.93,27.26,71.82,55.09" transform="translate(-6132 -2031.84)"/><path class="cls-1" d="M7250.78,2862.83c-25.18,11.89-60.55,24.06-103.26,24.82-47.2.84-53.51-23.26-91.06-16.06-44.56,8.54-57.31,41.41-95.75,38-25.46-2.28-45.58-19-58.2-32.12" transform="translate(-6132 -2031.84)"/><path class="cls-1" d="M6843,2729c169.83,61.15,200.09,58.55,244.68,43.23,75-25.76,53.21-79,108.43-89.14,35.16-6.46,54.67,14.87,54.67,14.87" transform="translate(-6132 -2031.84)"/><path class="cls-1" d="M6879.87,3047.2c86.54-48.35,135.53-44.89,164.93-29.11,46.37,24.9,53.11,85.36,87.32,87.32,27.31,1.57,52.11-35.3,69.85-69.85" transform="translate(-6132 -2031.84)"/><path class="cls-1" d="M6844.94,3225.71c50.27-40.57,82.62-42.51,102.84-36.87,43.06,12,52.24,64.38,87.32,64,32.58-.32,40.14-45.65,73.73-46.57,37.95-1,52.48,56.15,85.38,56.27,18.51,0.07,44.33-17.93,75.68-99" transform="translate(-6132 -2031.84)"/><path class="cls-1" d="M6883.75,3386.76c9.88-5.44,151.42-80.53,273.59-7.76,44.93,26.76,71.15,63.94,85.38,89.26" transform="translate(-6132 -2031.84)"/><path class="cls-1" d="M6850.76,3509.3c123.14,12.65,174.14-4.86,196.55-26.17,12.18-11.58,19-27.18,35.91-28.92,25.07-2.58,51.93,27.26,71.82,55.09" transform="translate(-6132 -2031.84)"/><path class="cls-1" d="M7287.8,2495.26c-25.18,11.89-60.55,24.06-103.26,24.82-47.2.84-53.51-23.26-91.06-16.06-44.56,8.54-57.31,41.41-95.75,38-25.46-2.28-45.58-19-58.2-32.12" transform="translate(-6132 -2031.84)"/><path class="cls-1" d="M6880,2361.4c169.83,61.15,200.09,58.55,244.68,43.23,75-25.76,53.21-79,108.43-89.14,35.16-6.46,54.67,14.87,54.67,14.87" transform="translate(-6132 -2031.84)"/><path class="cls-1" d="M6916.89,2679.63c86.54-48.35,135.53-44.89,164.93-29.11,46.37,24.9,53.11,85.36,87.32,87.32,27.31,1.57,52.11-35.3,69.85-69.85" transform="translate(-6132 -2031.84)"/><path class="cls-1" d="M6882,2858.14c50.27-40.57,82.62-42.51,102.84-36.87,43.06,12,52.24,64.38,87.32,64,32.58-.32,40.14-45.65,73.73-46.57,37.95-1,52.48,56.15,85.38,56.27,18.51,0.07,44.33-17.93,75.68-99" transform="translate(-6132 -2031.84)"/><path class="cls-1" d="M6920.77,3019.2c9.88-5.44,151.42-80.53,273.59-7.76,44.93,26.76,71.15,63.94,85.38,89.26" transform="translate(-6132 -2031.84)"/><path class="cls-1" d="M6887.79,3141.73c123.14,12.65,174.14-4.86,196.55-26.17,12.18-11.58,19-27.18,35.91-28.92,25.07-2.58,51.93,27.26,71.82,55.09" transform="translate(-6132 -2031.84)"/><path class="cls-1" d="M6523.11,2237.83c25.18,11.89,60.55,24.06,103.26,24.82,47.2,0.84,53.51-23.26,91.06-16.06,44.56,8.54,57.31,41.41,95.75,38,25.46-2.28,45.58-19,58.2-32.12" transform="translate(-6132 -2031.84)"/><path class="cls-1" d="M6930.89,2104c-169.83,61.15-200.09,58.55-244.68,43.23-75-25.76-53.21-79-108.43-89.14-35.16-6.46-54.67,14.87-54.67,14.87" transform="translate(-6132 -2031.84)"/><path class="cls-1" d="M6894,2422.2c-86.54-48.35-135.53-44.89-164.93-29.11-46.37,24.9-53.11,85.36-87.32,87.32-27.31,1.57-52.11-35.3-69.85-69.85" transform="translate(-6132 -2031.84)"/><path class="cls-1" d="M6928.94,2600.71c-50.27-40.57-82.62-42.51-102.84-36.87-43.06,12-52.24,64.38-87.32,64-32.58-.32-40.14-45.65-73.73-46.57-37.95-1-52.48,56.15-85.38,56.27-18.51.07-44.33-17.93-75.68-99" transform="translate(-6132 -2031.84)"/><path class="cls-1" d="M6890.14,2761.76c-9.88-5.44-151.42-80.53-273.59-7.76-44.93,26.76-71.15,63.94-85.38,89.26" transform="translate(-6132 -2031.84)"/><path class="cls-1" d="M6923.12,2884.3c-123.14,12.65-174.14-4.86-196.55-26.17-12.18-11.58-19-27.18-35.91-28.92-25.07-2.58-51.93,27.26-71.82,55.09" transform="translate(-6132 -2031.84)"/><path class="cls-1" d="M6851.78,2967.83c-25.18,11.89-60.55,24.06-103.26,24.82-47.2.84-53.51-23.26-91.06-16.06-44.56,8.54-57.31,41.41-95.75,38-25.46-2.28-45.58-19-58.2-32.12" transform="translate(-6132 -2031.84)"/><path class="cls-1" d="M6444,2834c169.83,61.15,200.09,58.55,244.68,43.23,75-25.76,53.21-79,108.43-89.14,35.16-6.46,54.67,14.87,54.67,14.87" transform="translate(-6132 -2031.84)"/><path class="cls-1" d="M6480.87,3152.2c86.54-48.35,135.53-44.89,164.93-29.11,46.37,24.9,53.11,85.36,87.32,87.32,27.31,1.57,52.11-35.3,69.85-69.85" transform="translate(-6132 -2031.84)"/><path class="cls-1" d="M6445.94,3330.71c50.27-40.57,82.62-42.51,102.84-36.87,43.06,12,52.24,64.38,87.32,64,32.58-.32,40.14-45.65,73.73-46.57,37.95-1,52.48,56.15,85.38,56.27,18.51,0.07,44.33-17.93,75.68-99" transform="translate(-6132 -2031.84)"/><path class="cls-1" d="M6484.75,3491.76c9.88-5.44,151.42-80.53,273.59-7.76,44.93,26.76,71.15,63.94,85.38,89.26" transform="translate(-6132 -2031.84)"/><path class="cls-1" d="M6451.76,3614.3c123.14,12.65,174.14-4.86,196.55-26.17,12.18-11.58,19-27.18,35.91-28.92,25.07-2.58,51.93,27.26,71.82,55.09" transform="translate(-6132 -2031.84)"/><path class="cls-1" d="M6882.11,3419.83c25.18,11.89,60.55,24.06,103.26,24.82,47.2,0.84,53.51-23.26,91.06-16.06,44.56,8.54,57.31,41.41,95.75,38,25.46-2.28,45.58-19,58.2-32.12" transform="translate(-6132 -2031.84)"/><path class="cls-1" d="M7289.89,3286c-169.83,61.15-200.09,58.55-244.68,43.23-75-25.76-53.21-79-108.43-89.14-35.16-6.46-54.67,14.87-54.67,14.87" transform="translate(-6132 -2031.84)"/><path class="cls-1" d="M7253,3604.2c-86.54-48.35-135.53-44.89-164.93-29.11-46.37,24.9-53.11,85.36-87.32,87.32-27.31,1.57-52.11-35.3-69.85-69.85" transform="translate(-6132 -2031.84)"/><path class="cls-1" d="M7287.94,3782.71c-50.27-40.57-82.62-42.51-102.84-36.87-43.06,12-52.24,64.38-87.32,64-32.58-.32-40.14-45.65-73.73-46.57-37.95-1-52.48,56.15-85.38,56.27-18.51.07-44.33-17.93-75.68-99" transform="translate(-6132 -2031.84)"/><path class="cls-1" d="M7249.14,3943.76c-9.88-5.44-151.42-80.53-273.59-7.76-44.93,26.76-71.15,63.94-85.38,89.26" transform="translate(-6132 -2031.84)"/><path class="cls-1" d="M7282.12,4066.3c-123.14,12.65-174.14-4.86-196.55-26.17-12.18-11.58-19-27.18-35.91-28.92-25.07-2.58-51.93,27.26-71.82,55.09" transform="translate(-6132 -2031.84)"/><path class="cls-1" d="M6894.78,3513.83c-25.18,11.89-60.55,24.06-103.26,24.82-47.2.84-53.51-23.26-91.06-16.06-44.56,8.54-57.31,41.41-95.75,38-25.46-2.28-45.58-19-58.2-32.12" transform="translate(-6132 -2031.84)"/><path class="cls-1" d="M6487,3380c169.83,61.15,200.09,58.55,244.68,43.23,75-25.76,53.21-79,108.43-89.14,35.16-6.46,54.67,14.87,54.67,14.87" transform="translate(-6132 -2031.84)"/><path class="cls-1" d="M6523.87,3698.2c86.54-48.35,135.53-44.89,164.93-29.11,46.37,24.9,53.11,85.36,87.32,87.32,27.31,1.57,52.11-35.3,69.85-69.85" transform="translate(-6132 -2031.84)"/><path class="cls-1" d="M6488.94,3876.71c50.27-40.57,82.62-42.51,102.84-36.87,43.06,12,52.24,64.38,87.32,64,32.58-.32,40.14-45.65,73.73-46.57,37.95-1,52.48,56.15,85.38,56.27,18.51,0.07,44.33-17.93,75.68-99" transform="translate(-6132 -2031.84)"/><path class="cls-1" d="M6527.75,4037.76c9.88-5.44,151.42-80.53,273.59-7.76,44.93,26.76,71.15,63.94,85.38,89.26" transform="translate(-6132 -2031.84)"/><path class="cls-1" d="M6494.76,4160.3c123.14,12.65,174.14-4.86,196.55-26.17,12.18-11.58,19-27.18,35.91-28.92,25.07-2.58,51.93,27.26,71.82,55.09" transform="translate(-6132 -2031.84)"/><path class="cls-1" d="M6176.11,3485.83c25.18,11.89,60.55,24.06,103.26,24.82,47.2,0.84,53.51-23.26,91.06-16.06,44.56,8.54,57.31,41.41,95.75,38,25.46-2.28,45.58-19,58.2-32.12" transform="translate(-6132 -2031.84)"/><path class="cls-1" d="M6583.89,3352c-169.83,61.15-200.09,58.55-244.68,43.23-75-25.76-53.21-79-108.43-89.14-35.16-6.46-54.67,14.87-54.67,14.87" transform="translate(-6132 -2031.84)"/><path class="cls-1" d="M6547,3670.2c-86.54-48.35-135.53-44.89-164.93-29.11-46.37,24.9-53.11,85.36-87.32,87.32-27.31,1.57-52.11-35.3-69.85-69.85" transform="translate(-6132 -2031.84)"/><path class="cls-1" d="M6581.94,3848.71c-50.27-40.57-82.62-42.51-102.84-36.87-43.06,12-52.24,64.38-87.32,64-32.58-.32-40.14-45.65-73.73-46.57-37.95-1-52.48,56.15-85.38,56.27-18.51.07-44.33-17.93-75.68-99" transform="translate(-6132 -2031.84)"/><path class="cls-1" d="M6543.14,4009.76c-9.88-5.44-151.42-80.53-273.59-7.76-44.93,26.76-71.15,63.94-85.38,89.26" transform="translate(-6132 -2031.84)"/><path class="cls-1" d="M6576.12,4132.3c-123.14,12.65-174.14-4.86-196.55-26.17-12.18-11.58-19-27.18-35.91-28.92-25.07-2.58-51.93,27.26-71.82,55.09" transform="translate(-6132 -2031.84)"/><path class="cls-1" d="M6708.11,2282.83c25.18,11.89,60.55,24.06,103.26,24.82,47.2,0.84,53.51-23.26,91.06-16.06,44.56,8.54,57.31,41.41,95.75,38,25.46-2.28,45.58-19,58.2-32.12" transform="translate(-6132 -2031.84)"/><path class="cls-1" d="M7115.89,2149c-169.83,61.15-200.09,58.55-244.68,43.23-75-25.76-53.21-79-108.43-89.14-35.16-6.46-54.67,14.87-54.67,14.87" transform="translate(-6132 -2031.84)"/><path class="cls-1" d="M7079,2467.2c-86.54-48.35-135.53-44.89-164.93-29.11-46.37,24.9-53.11,85.36-87.32,87.32-27.31,1.57-52.11-35.3-69.85-69.85" transform="translate(-6132 -2031.84)"/><path class="cls-1" d="M7113.94,2645.71c-50.27-40.57-82.62-42.51-102.84-36.87-43.06,12-52.24,64.38-87.32,64-32.58-.32-40.14-45.65-73.73-46.57-37.95-1-52.48,56.15-85.38,56.27-18.51.07-44.33-17.93-75.68-99" transform="translate(-6132 -2031.84)"/><path class="cls-1" d="M7075.14,2806.76c-9.88-5.44-151.42-80.53-273.59-7.76-44.93,26.76-71.15,63.94-85.38,89.26" transform="translate(-6132 -2031.84)"/><path class="cls-1" d="M7108.12,2929.3c-123.14,12.65-174.14-4.86-196.55-26.17-12.18-11.58-19-27.18-35.91-28.92-25.07-2.58-51.93,27.26-71.82,55.09" transform="translate(-6132 -2031.84)"/></svg>