<svg id="Layer_1" data-name="Layer 1" xmlns="http://www.w3.org/2000/svg" viewBox="0 0 2479.17 1628.95" preserveAspectRatio="none"><defs><style>.cls-1,.cls-2{fill:#d1d1d1;}.cls-2{stroke:#000;stroke-miterlimit:10;stroke-width:16.55px;}</style></defs><title>worldtraveler-pyramids</title><polygon class="cls-1" points="9.74 1620.47 217.41 122.43 430.84 122.43 677.08 1620.47 9.74 1620.47"/><path d="M8442.47,2602L8685.92,4083H8038.31L8243.63,2602h198.84m14.4-17h-228l-210,1515H8705.9l-249-1515h0Z" transform="translate(-8018.83 -2471.05)"/><path class="cls-1" d="M8342.87,2634c-29.15,0-56.43-5.66-76.8-15.93-18.26-9.2-28.73-21.26-28.73-33.07s10.47-23.86,28.73-33.07c20.37-10.27,47.65-15.93,76.8-15.93s56.43,5.66,76.8,15.93c18.26,9.2,28.73,21.26,28.73,33.07s-10.47,23.86-28.73,33.07C8399.29,2628.34,8372,2634,8342.87,2634Z" transform="translate(-8018.83 -2471.05)"/><path d="M8342.87,2544.49c27.45,0,54,5.47,73,15,15.07,7.6,24.06,17.13,24.06,25.49s-9,17.9-24.06,25.49c-18.93,9.54-45.53,15-73,15s-54-5.47-73-15c-15.07-7.6-24.06-17.13-24.06-25.49s9-17.9,24.06-25.49c18.93-9.54,45.53-15,73-15m0-17c-63,0-114,25.73-114,57.48s51,57.48,114,57.48,114-25.73,114-57.48-51-57.48-114-57.48h0Z" transform="translate(-8018.83 -2471.05)"/><polygon class="cls-1" points="695.57 1620.67 695.57 1191.23 1302.2 1308.51 1302.2 1620.67 695.57 1620.67"/><path d="M8722.68,3672.31l590.08,114.08v297.06H8722.68V3672.31m-16.55-20.05V4100h623.18V3772.73l-623.18-120.48h0Z" transform="translate(-8018.83 -2471.05)"/><polyline class="cls-2" points="1250.82 1329.35 1250.82 974.05 749.92 853.57 749.92 1299.23 998.48 1314.17"/><polyline class="cls-2" points="1186.48 999.46 1186.48 701.71 810.48 581.23 810.48 969.34 998.48 984.4"/><polyline class="cls-2" points="998.47 716.4 849.9 701.71 849.9 320.54 1154.48 441.02 1154.48 731.83"/><polyline class="cls-2" points="999.08 456.08 886.98 441.02 886.98 13.84 1111.17 134.32 1111.17 471.14"/><path class="cls-1" d="M9342.14,4092c10.18-30,36.13-114.67,52.3-253.14,10.4-89,28.12-140.32,43.75-185.49,14.95-43.18,27.85-80.53,31.29-139.19,4.45-75.9,38.58-110.68,71.59-144.27,28.91-29.43,56.22-57.25,56.43-108.24,0.22-56.36-24.08-86.74-57.71-128.77-25.37-31.7-56.93-71.15-87.11-134.91-29-61.33-117.36-248-40.76-355.43,20.48-28.74,51.89-50.87,93.34-65.8,36.28-13.06,79.06-20,123.72-20,41.37,0,81.61,6,113.31,16.84,30.08,10.3,50,24.38,54.62,38.62,7,21.54-23.67,46.06-59.18,74.45-49.59,39.65-111.31,89-113.23,162.7-0.92,35.35,11.72,66.07,39.79,96.68,24.29,26.49,57.13,49.57,91.91,74,35.57,25,72.36,50.83,103.68,82.77,35.17,35.88,57.71,74.12,68.9,116.92,9.77,37.37,5.94,72.1-12,109.3-16.35,33.81-42.16,65.28-69.49,98.6-28.23,34.42-57.42,70-78.27,111-23.88,46.94-32.85,94-27.42,143.87,6.07,55.81,22.66,112.86,49.3,169.56,21.25,45.22,48.9,90.58,82.2,134.32,38.07,50,74.32,85.58,94.69,105.58h-625.6Z" transform="translate(-8018.83 -2471.05)"/><path d="M9629,2565.29c40.46,0,79.72,5.82,110.56,16.38,14.37,4.92,26.57,10.84,35.28,17.12,7.5,5.41,12.35,11,14,16.09,0.81,2.5,3,9.15-9.87,24.08-10.71,12.46-28.11,26.37-46.54,41.1-24.75,19.79-52.8,42.21-75.09,69-26.9,32.35-40.42,65.09-41.33,100.11-1,37.17,12.78,70.75,42,102.65,24.91,27.17,58.12,50.51,93.29,75.21s71.72,50.38,102.49,81.77c34.11,34.79,55.94,71.79,66.75,113.12,9.23,35.3,5.58,68.17-11.47,103.45-15.91,32.9-41.41,64-68.41,96.91-28.52,34.77-58,70.73-79.28,112.53-24.65,48.46-33.91,97.08-28.3,148.64,6.17,56.75,23,114.7,50.06,172.25,21.5,45.76,49.47,91.39,83.13,135.61a881.81,881.81,0,0,0,80.36,91.68H9353.88c3.56-11.14,8.06-26.24,13-45.27,10.61-40.71,25.47-108.14,36-198.14,10.29-88.08,27.85-138.81,43.34-183.57,14.52-42,28.24-81.58,31.75-141.41,4.26-72.72,37.26-106.3,69.17-138.78,28.83-29.35,58.65-59.7,58.86-114.15,0.23-59.36-26.16-92.35-59.57-134.11-25.09-31.35-56.31-70.37-86.06-133.23-14.26-30.13-43.94-92.83-59.75-160.3-18.85-80.39-12.71-143.16,18.23-186.56,19.46-27.3,49.51-48.41,89.3-62.73,35.37-12.73,77.15-19.46,120.84-19.46m0-17c-84.94,0-178,24.81-224,89.33-79.49,111.52,10.33,301.31,40,364,69.35,146.52,144.38,164.49,144,260-0.41,102.79-119.37,104.88-128,252-7,119.38-54.74,150.56-75,324C9365.87,4010,9330,4100,9330,4100h660s-213.82-177.81-240-418.38c-23.18-213,232.72-289.11,187-464-51-195.14-307.82-221.24-304-368,3.26-125.16,191.92-178.68,172-240-11.58-35.66-89.61-61.33-176-61.33h0Z" transform="translate(-8018.83 -2471.05)"/><polygon class="cls-1" points="1982.16 1620.67 2187.93 905.33 2197.84 141.78 2469.24 1620.67 1982.16 1620.67"/><path d="M10223.84,2697.75l254.29,1385.7H10012l202.43-703.71,0.62-2.14,0-2.22,8.79-677.63m-14.34-169.85-11,847.26L9990,4100h508l-288.5-1572.1h0Z" transform="translate(-8018.83 -2471.05)"/><path class="cls-2" d="M10312.72,3875c-227.68,81.77-317.91,97.75-333.5,80-37.48-42.7,353.38-284.43,328.2-308-17.51-16.4-215.44,92.36-238.21,72-28.57-25.54,249.53-226.7,217-256-21.32-19.22-157.71,52.3-180,32-31.54-28.74,211.5-199.88,169.39-244-25.08-26.28-130,14.84-153.51-12-34.47-39.39,156.87-167.63,121.75-204-15.94-16.51-63.12,1.88-84.7-16-30.21-25,19.38-96.67,68.82-156" transform="translate(-8018.83 -2471.05)"/></svg>