<svg id="Layer_1" data-name="Layer 1" xmlns="http://www.w3.org/2000/svg" viewBox="0 0 1274.86 894.61"><defs><style>.cls-1{fill:#ffbf2e;}.cls-1,.cls-2,.cls-3,.cls-4,.cls-5,.cls-6,.cls-7{stroke:#000;stroke-miterlimit:10;}.cls-1,.cls-6,.cls-7{stroke-width:5px;}.cls-2{fill:#beb03b;}.cls-2,.cls-3,.cls-5{stroke-width:4px;}.cls-3{fill:#89a5ff;}.cls-4{fill:#8973ff;stroke-width:2px;}.cls-5,.cls-7{fill:none;}.cls-6{fill:#f268f2;}</style></defs><title>bedside</title><rect class="cls-1" x="184.06" y="637.68" width="145.38" height="71.99"/><rect class="cls-1" x="329.44" y="637.68" width="145.38" height="71.99"/><rect class="cls-1" x="256.75" y="565.69" width="145.38" height="71.99"/><rect class="cls-1" x="402.13" y="565.69" width="145.38" height="71.99"/><ellipse class="cls-2" cx="506.36" cy="43.89" rx="42.81" ry="41.89"/><path class="cls-2" d="M455.81,4582.77S413,4759.65,413,4927.22,455.81,5364,455.81,5364s42.81-263,42.81-433.67S455.81,4582.77,455.81,4582.77Z" transform="translate(50.55 -4496.98)"/><path class="cls-3" d="M421.35,5244V4831.12S414.55,4745,492.1,4745h628.3V5244H421.35Z" transform="translate(50.55 -4496.98)"/><ellipse class="cls-2" cx="471.9" cy="58.89" rx="42.81" ry="41.89"/><path class="cls-2" d="M421.35,4597.77s-42.81,176.88-42.81,344.46S421.35,5379,421.35,5379s42.81-263,42.81-433.67S421.35,4597.77,421.35,4597.77Z" transform="translate(50.55 -4496.98)"/><path class="cls-4" d="M1161.33,4762.19S1124,4699,1032.08,4722s-192.44,54.57-215.42,189.57,8.62,226.91-71.81,264.25-112,114.89,0,114.89,247-31.59,313.07-14.36,86.17-23,146.48-20.11S1161.33,4762.19,1161.33,4762.19Z" transform="translate(50.55 -4496.98)"/><path class="cls-5" d="M1072.29,4911.54s-88.22,5.74-124.53,120.63S831,5198.77,831,5198.77" transform="translate(50.55 -4496.98)"/><path class="cls-5" d="M931.56,4868.46s6.46-46,97.66-31.59" transform="translate(50.55 -4496.98)"/><circle class="cls-6" cx="119.47" cy="512.68" r="116.97"/><path class="cls-7" d="M-45.91,5032s160.21,46.84,226.21-58.16" transform="translate(50.55 -4496.98)"/><path class="cls-7" d="M-35.3,5062.82s45.3,58.52,131,39.18c36.56-8.25,73.33-49.33,90.23-92.34" transform="translate(50.55 -4496.98)"/><path class="cls-7" d="M-45.91,5002s44.87-61.48,93.58-72.67c49.33-11.33,76-7.26,119.33,14.92" transform="translate(50.55 -4496.98)"/></svg>