<svg id="Layer_1" data-name="Layer 1" xmlns="http://www.w3.org/2000/svg" xmlns:xlink="http://www.w3.org/1999/xlink" viewBox="0 0 1323.57 1342.27"><defs><style>.cls-1{fill:none;}.cls-1,.cls-2,.cls-3,.cls-4,.cls-5,.cls-7,.cls-8,.cls-9{stroke:#000;stroke-miterlimit:10;}.cls-2,.cls-5{fill:#39b54a;}.cls-2,.cls-4{stroke-width:3px;}.cls-3{fill:#00d0aa;}.cls-3,.cls-5{stroke-width:5px;}.cls-4{fill:red;}.cls-6{clip-path:url(#clip-path);}.cls-7{fill:#00c3ff;}.cls-8{fill:#fff;}.cls-9{fill:#fcee21;}</style><clipPath id="clip-path" transform="translate(-2270.21 -2992.01)"><polygon class="cls-1" points="3507.28 3670.57 3106.64 3670.57 3103.5 3660.67 3091.5 3656.17 3087.5 3639.17 3072 3628.97 3072 3024.84 3066.33 3005.5 3110.33 2992.51 3507.28 2992.51 3507.28 3670.57"/></clipPath></defs><title>furniture</title><path class="cls-2" d="M2461.16,3374.54s-172.52,594.67,0,957.1C2461.16,4331.64,2630.67,4148.67,2461.16,3374.54Z" transform="translate(-2270.21 -2992.01)"/><path class="cls-3" d="M2648.67,3515.56s-86.32-168-203.67-168-171.36,168-171.36,168h375Z" transform="translate(-2270.21 -2992.01)"/><line class="cls-4" x1="318.46" y1="523.55" x2="228.79" y2="403.54"/><line class="cls-4" x1="261.46" y1="523.55" x2="216.45" y2="439.54"/><line class="cls-4" x1="123.44" y1="523.55" x2="153.45" y2="463.54"/><line class="cls-4" x1="48.43" y1="523.55" x2="138.44" y2="403.54"/><path class="cls-5" d="M2460.49,3515.56" transform="translate(-2270.21 -2992.01)"/><line class="cls-2" x1="190.28" y1="523.55" x2="190.28" y2="439.54"/><g class="cls-6"><polygon class="cls-7" points="1237.07 678.57 801.79 678.57 791.48 0.5 1237.07 0.5 1237.07 678.57"/><ellipse class="cls-8" cx="920.07" cy="155.16" rx="52" ry="23"/><ellipse class="cls-8" cx="989.07" cy="178.66" rx="59" ry="23.5"/><ellipse class="cls-8" cx="1034.07" cy="138.16" rx="62" ry="28"/><ellipse class="cls-8" cx="915.07" cy="206.41" rx="47" ry="27.75"/><ellipse class="cls-8" cx="1050.07" cy="192.29" rx="46" ry="14.13"/><ellipse class="cls-8" cx="952.07" cy="197.41" rx="37" ry="18.75"/><ellipse class="cls-8" cx="966.09" cy="156.68" rx="67.98" ry="22.36"/><ellipse class="cls-8" cx="891.07" cy="181.54" rx="61" ry="24.87"/><ellipse class="cls-8" cx="1147.07" cy="199.16" rx="52" ry="23"/><ellipse class="cls-8" cx="1216.07" cy="222.66" rx="59" ry="23.5"/><ellipse class="cls-8" cx="1261.07" cy="182.16" rx="62" ry="28"/><ellipse class="cls-8" cx="1142.07" cy="250.41" rx="47" ry="27.75"/><ellipse class="cls-8" cx="1277.07" cy="236.29" rx="46" ry="14.13"/><ellipse class="cls-8" cx="1179.07" cy="241.41" rx="37" ry="18.75"/><ellipse class="cls-8" cx="1193.09" cy="200.68" rx="67.98" ry="22.36"/><ellipse class="cls-8" cx="1118.07" cy="225.54" rx="61" ry="24.87"/><ellipse class="cls-8" cx="844.07" cy="310.16" rx="52" ry="23"/><ellipse class="cls-8" cx="913.07" cy="333.66" rx="59" ry="23.5"/><ellipse class="cls-8" cx="958.07" cy="293.16" rx="62" ry="28"/><ellipse class="cls-8" cx="839.07" cy="361.41" rx="47" ry="27.75"/><ellipse class="cls-8" cx="974.07" cy="347.29" rx="46" ry="14.13"/><ellipse class="cls-8" cx="876.07" cy="352.41" rx="37" ry="18.75"/><ellipse class="cls-8" cx="890.09" cy="311.68" rx="67.98" ry="22.36"/><ellipse class="cls-8" cx="815.07" cy="336.54" rx="61" ry="24.87"/><ellipse class="cls-9" cx="1015.79" cy="644.16" rx="275" ry="108"/></g><polygon class="cls-1" points="1237.07 678.57 836.43 678.57 833.29 668.66 821.29 664.16 817.29 647.16 801.79 636.96 801.79 32.83 796.13 13.49 840.13 0.5 1237.07 0.5 1237.07 678.57"/></svg>