<svg id="Layer_1" data-name="Layer 1" xmlns="http://www.w3.org/2000/svg" viewBox="0 0 552.6 475.98"><defs><style>.cls-1{fill:red;}.cls-1,.cls-2,.cls-3,.cls-4,.cls-5,.cls-6{stroke:#000;stroke-miterlimit:10;stroke-width:9px;}.cls-2{fill:#00a99d;}.cls-3{fill:none;}.cls-4{fill:#ffa7a4;}.cls-5{fill:#e6e6e6;}.cls-6{fill:#666;}</style></defs><title>lose_coach</title><path class="cls-1" d="M3186.07,1269.5c0,26.79-33.31,78.63-3.34,98.76,45.51,30.56,82.68,40.51,165.44,50.42,72,8.62,101.94-7.77,105.59-46.24,3.57-37.59,33.79-36.08,19.39-75.88-19.28-53.32-4-122.13-125-122.13C3209.9,1174.43,3186.07,1202.05,3186.07,1269.5Z" transform="translate(-3016.04 -949.45)"/><circle class="cls-2" cx="226.92" cy="320.06" r="21.37"/><circle class="cls-2" cx="297.02" cy="320.06" r="21.37"/><path class="cls-3" d="M3264.33,1269.5s1-8.89,11-8.89,16.33,8.89,16.33,8.89" transform="translate(-3016.04 -949.45)"/><path class="cls-3" d="M3334.43,1269.5s176.27-97.36,231.35-52.29" transform="translate(-3016.04 -949.45)"/><ellipse class="cls-4" cx="262" cy="382.59" rx="89.29" ry="48.4"/><path class="cls-3" d="M3251.63,1206.13s67.13-86.74,123.88-33" transform="translate(-3016.04 -949.45)"/><path class="cls-3" d="M3251.63,1186.1s67.13-86.74,123.88-33" transform="translate(-3016.04 -949.45)"/><polygon class="cls-5" points="252.77 260.9 79.62 73.65 6.69 173.59 239.56 298.15 252.77 260.9"/><polygon class="cls-5" points="261.85 271.74 434.05 9.87 498.19 180.68 278.8 307.45 261.85 271.74"/><polygon class="cls-6" points="234.46 414.05 234.46 447.05 462.97 439.13 442.46 337.13 234.46 414.05"/></svg>