<svg id="Layer_1" data-name="Layer 1" xmlns="http://www.w3.org/2000/svg" viewBox="0 0 967.69 914.46"><defs><style>.cls-1{fill:#005ca7;}.cls-1,.cls-2,.cls-3,.cls-4,.cls-5,.cls-6,.cls-7,.cls-8,.cls-9{stroke:#000;stroke-miterlimit:10;stroke-width:9px;}.cls-2{fill:#428b00;}.cls-3{fill:#a27300;}.cls-4{fill:#29abe2;}.cls-5{fill:none;}.cls-6{fill:#ff7bac;}.cls-7{fill:red;}.cls-8{fill:#f2f2f2;}.cls-9{fill:#442eff;}</style></defs><title>tippy_coach</title><path class="cls-1" d="M1622.5,3192s-67.38,89.52-218.14,40l10.18-40s49,7.84,99.2-2,108.76-56.92,108.76-56.92V3192Z" transform="translate(-1332.47 -2646.04)"/><ellipse class="cls-1" cx="49.93" cy="558.45" rx="45.43" ry="33.98"/><path class="cls-2" d="M1688,3304.5l-77.74,105.1L1750.39,3481l20.68-36.74s-36,.79-50.13-27.47,20.61-112.28,20.61-112.28H1688Z" transform="translate(-1332.47 -2646.04)"/><path class="cls-2" d="M1985.08,3256.75s143.4,58.89,138.69,153.11S2037,3522.94,2037,3522.94l-29.7-21.2,29.7-94.22-99.36-139Z" transform="translate(-1332.47 -2646.04)"/><polygon class="cls-3" points="291.89 448.17 249.49 696.69 833.69 626.62 662.19 389.28 291.89 448.17"/><path class="cls-1" d="M1599.64,3239.11s72.5-80.12,72.5-144.9c0-2.7-.24-7.56-0.24-7.56l-47.53,7.56Z" transform="translate(-1332.47 -2646.04)"/><path class="cls-1" d="M2087.49,3163.78s-103.92-44.12-133.88-101.56c-1.25-2.4-8.93-19-8.93-19l50-7.95Z" transform="translate(-1332.47 -2646.04)"/><path class="cls-1" d="M1983.3,2991.09l170.64,33.55,73.43-118.86,51.82,13.57s-9.16,145.84-51.39,168.75-247,14.7-247,14.7Z" transform="translate(-1332.47 -2646.04)"/><ellipse class="cls-1" cx="2259.79" cy="2890.33" rx="34.46" ry="38.87" transform="translate(-2553.41 -915.53) rotate(-33.55)"/><path class="cls-1" d="M1551.34,2926.55c0,37.81-47,111-4.71,139.39,64.22,43.13,115.85,71.15,233.49,71.15,195.15,0,232.93,19.33,232.93-75.87,0-11.9,0-39.88-56.54-96.5s-5.63-172.36-176.39-172.36C1585,2792.37,1551.34,2831.36,1551.34,2926.55Z" transform="translate(-1332.47 -2646.04)"/><circle class="cls-4" cx="299.16" cy="280.52" r="30.16"/><circle class="cls-4" cx="398.09" cy="280.52" r="30.16"/><path class="cls-5" d="M1661.79,2926.55s1.44-12.55,15.57-12.55,23,12.55,23,12.55" transform="translate(-1332.47 -2646.04)"/><path class="cls-5" d="M1760.73,2926.55s248.78-137.4,326.52-73.8" transform="translate(-1332.47 -2646.04)"/><ellipse class="cls-6" cx="347.25" cy="357.48" rx="126.03" ry="68.31"/><circle class="cls-7" cx="514.5" cy="416.37" r="23.56"/><path class="cls-5" d="M1643.87,2837.11s94.74-122.43,174.84-46.64" transform="translate(-1332.47 -2646.04)"/><path class="cls-5" d="M1643.87,2808.84s94.74-122.43,174.84-46.64" transform="translate(-1332.47 -2646.04)"/><polygon class="cls-8" points="337.02 189.42 92.85 60.14 53.35 189.42 337.02 232.51 337.02 189.42"/><polygon class="cls-8" points="428.02 185.89 722.3 8.44 704.51 206.66 428.02 228.98 428.02 185.89"/><ellipse class="cls-9" cx="1743.33" cy="3481.72" rx="47.11" ry="22.38" transform="translate(-3297.24 -352.42) rotate(-45.64)"/><ellipse class="cls-9" cx="2033.08" cy="3524.13" rx="22.38" ry="47.11" transform="translate(-3361.58 651.02) rotate(-56.82)"/></svg>