<svg id="Layer_1" data-name="Layer 1" xmlns="http://www.w3.org/2000/svg" viewBox="0 0 1026 1874"><defs><style>.cls-1,.cls-2{fill:none;stroke:#fff;stroke-miterlimit:10;}.cls-1{stroke-width:14px;}.cls-2{stroke-width:15.44px;}</style></defs><title>tippy_field</title><rect class="cls-1" x="7" y="7" width="1012" height="1860" rx="24" ry="24"/><path class="cls-1" d="M5828,2739l-960-12" transform="translate(-4845 -2192)"/><path class="cls-1" d="M5810.1,3063.74l-916.2-149.48" transform="translate(-4845 -2192)"/><path class="cls-1" d="M5816,3278l-888-8" transform="translate(-4845 -2192)"/><path class="cls-2" d="M5794,3598l-900,4" transform="translate(-4845 -2192)"/><path class="cls-1" d="M5588,3929q-394.37,166.75-428,112-27.08-44.11,180-232" transform="translate(-4845 -2192)"/><path class="cls-1" d="M5164,2243c118.26-17,370.21-48.47,384,0,12.31,43.28-170.27,132.55-284,184" transform="translate(-4845 -2192)"/><path class="cls-1" d="M5392,2335" transform="translate(-4845 -2192)"/></svg>