<svg id="Layer_1" data-name="Layer 1" xmlns="http://www.w3.org/2000/svg" viewBox="0 0 510.1 304.16"><defs><style>.cls-1{fill:#00ff81;}.cls-1,.cls-2,.cls-3,.cls-4,.cls-5,.cls-6{stroke:#000;stroke-miterlimit:10;stroke-width:9px;}.cls-2{fill:#e3e028;}.cls-3{fill:none;}.cls-4{fill:#ffa7a4;}.cls-5{fill:red;}.cls-6{fill:#e6e6e6;}</style></defs><title>win_coach</title><path class="cls-1" d="M3342,1894.5c0,26.79,33.31,78.63,3.34,98.76-45.51,30.56-82.68,40.51-165.44,50.42-72,8.62-101.94-7.77-105.59-46.24-3.57-37.59-33.79-36.08-19.39-75.88,19.28-53.32,4-122.13,125-122.13C3318.17,1799.43,3342,1827.05,3342,1894.5Z" transform="translate(-2947.97 -1746.26)"/><circle class="cls-2" cx="337.15" cy="148.24" r="21.37"/><circle class="cls-2" cx="267.05" cy="148.24" r="21.37"/><path class="cls-3" d="M3263.74,1894.5s-1-8.89-11-8.89-16.33,8.89-16.33,8.89" transform="translate(-2947.97 -1746.26)"/><path class="cls-3" d="M3193.64,1894.5s-176.27-97.36-231.35-52.29" transform="translate(-2947.97 -1746.26)"/><ellipse class="cls-4" cx="302.07" cy="210.77" rx="89.29" ry="48.4"/><path class="cls-5" d="M3115.84,1990.77a16.69,16.69,0,0,0,33.38,0c0-9.22-40-55.54-49.27-55.54S3115.84,1981.55,3115.84,1990.77Z" transform="translate(-2947.97 -1746.26)"/><path class="cls-3" d="M3276.44,1831.13s-67.13-86.74-123.88-33" transform="translate(-2947.97 -1746.26)"/><path class="cls-3" d="M3276.44,1811.1s-67.13-86.74-123.88-33" transform="translate(-2947.97 -1746.26)"/><polygon class="cls-6" points="311.66 10.54 503.75 54.9 464.67 142.09 291.75 33.7 311.66 10.54"/><polygon class="cls-6" points="248.91 4.81 9.39 38.78 107.55 139.91 268.29 28.41 248.91 4.81"/></svg>