<svg id="Layer_1" data-name="Layer 1" xmlns="http://www.w3.org/2000/svg" viewBox="0 0 3731.74 939" preserveAspectRatio="none"><defs><style>.cls-1{fill:#fff;stroke:gray;stroke-miterlimit:10;stroke-width:3px;}</style></defs><title>clouds</title><ellipse class="cls-1" cx="1894.55" cy="490.19" rx="219.38" ry="68.33"/><ellipse class="cls-1" cx="2124.72" cy="560.32" rx="230.17" ry="70.13"/><ellipse class="cls-1" cx="1853.19" cy="604.43" rx="70.13" ry="89.07"/><ellipse class="cls-1" cx="2189.45" cy="670.81" rx="165.43" ry="78.31"/><ellipse class="cls-1" cx="2175.07" cy="366.12" rx="251.75" ry="91.71"/><ellipse class="cls-1" cx="2371.07" cy="443.44" rx="221.18" ry="97.1"/><ellipse class="cls-1" cx="2178.66" cy="480.3" rx="154.64" ry="80.02"/><ellipse class="cls-1" cx="2558.08" cy="547.31" rx="106.09" ry="57.12"/><ellipse class="cls-1" cx="3015.22" cy="495.82" rx="45.93" ry="53.95"/><ellipse class="cls-1" cx="3159.32" cy="562.35" rx="168.13" ry="52.15"/><ellipse class="cls-1" cx="3647.53" cy="555.16" rx="82.72" ry="44.95"/><ellipse class="cls-1" cx="3372.41" cy="738.57" rx="120.48" ry="80.92"/><ellipse class="cls-1" cx="2855.27" cy="790.72" rx="42.1" ry="28.77"/><ellipse class="cls-1" cx="3052.5" cy="698.11" rx="155.13" ry="40.46"/><ellipse class="cls-1" cx="3116" cy="666.64" rx="146.71" ry="52.15"/><ellipse class="cls-1" cx="3310.95" cy="649.11" rx="129.47" ry="49"/><ellipse class="cls-1" cx="3280.87" cy="628.84" rx="73.24" ry="66.49"/><ellipse class="cls-1" cx="3467.55" cy="676.53" rx="140.1" ry="114.18"/><ellipse class="cls-1" cx="3621.82" cy="702.58" rx="74.26" ry="73.75"/><ellipse class="cls-1" cx="2827.68" cy="165.27" rx="163.51" ry="36.86"/><ellipse class="cls-1" cx="3194.55" cy="286.65" rx="13.08" ry="28.77"/><ellipse class="cls-1" cx="3347.73" cy="302.56" rx="66.86" ry="43.78"/><ellipse class="cls-1" cx="3175.5" cy="304.8" rx="45" ry="30.39"/><ellipse class="cls-1" cx="3234.08" cy="318.88" rx="28.63" ry="16.32"/><ellipse class="cls-1" cx="3298.61" cy="297.37" rx="35.89" ry="21.51"/><ellipse class="cls-1" cx="3393.5" cy="327.04" rx="21.1" ry="8.16"/><ellipse class="cls-1" cx="3426.45" cy="288.83" rx="54.05" ry="30.05"/><ellipse class="cls-1" cx="3502.02" cy="324.45" rx="34.48" ry="21.89"/><ellipse class="cls-1" cx="3303.01" cy="418.99" rx="51.09" ry="24.45"/><ellipse class="cls-1" cx="3358.81" cy="447.22" rx="55.79" ry="28.23"/><ellipse class="cls-1" cx="2772.5" cy="196.5" rx="24" ry="19"/><ellipse class="cls-1" cx="2876.32" cy="113.5" rx="21.05" ry="36"/><ellipse class="cls-1" cx="2956.9" cy="190.38" rx="12.4" ry="25.12"/><ellipse class="cls-1" cx="2991.5" cy="136.73" rx="47" ry="31.23"/><ellipse class="cls-1" cx="2496.24" cy="13.5" rx="44.26" ry="12"/><ellipse class="cls-1" cx="2494.5" cy="66.5" rx="26" ry="11"/><ellipse class="cls-1" cx="2602.5" cy="56.5" rx="22" ry="31"/><ellipse class="cls-1" cx="2620.37" cy="64.5" rx="28.13" ry="23"/><ellipse class="cls-1" cx="2676.44" cy="76" rx="56.06" ry="11.5"/><ellipse class="cls-1" cx="2786.41" cy="364.87" rx="89.91" ry="29.67"/><ellipse class="cls-1" cx="2795.09" cy="355.6" rx="32.59" ry="9.27"/><ellipse class="cls-1" cx="2893.5" cy="375.07" rx="51" ry="19.47"/><ellipse class="cls-1" cx="1690.78" cy="790.72" rx="92.28" ry="28.77"/><ellipse class="cls-1" cx="1858.52" cy="765.31" rx="36.02" ry="16.19"/><ellipse class="cls-1" cx="1924.51" cy="776.31" rx="65.99" ry="27.19"/><ellipse class="cls-1" cx="2138.5" cy="329.81" rx="72" ry="36.31"/><ellipse class="cls-1" cx="1850.5" cy="80.5" rx="120" ry="25"/><ellipse class="cls-1" cx="1886.91" cy="71.5" rx="36.41" ry="16"/><ellipse class="cls-1" cx="1788.99" cy="124.02" rx="21.51" ry="25.48"/><ellipse class="cls-1" cx="2063.78" cy="188.5" rx="111.28" ry="39"/><ellipse class="cls-1" cx="2130.5" cy="217" rx="80" ry="20.5"/><ellipse class="cls-1" cx="1351.5" cy="270.5" rx="109" ry="23"/><ellipse class="cls-1" cx="900.5" cy="381.5" rx="72" ry="62"/><ellipse class="cls-1" cx="1024.5" cy="470.01" rx="106" ry="88.51"/><ellipse class="cls-1" cx="1204" cy="516.5" rx="147.5" ry="15"/><ellipse class="cls-1" cx="1100.25" cy="370.68" rx="103.75" ry="51.18"/><ellipse class="cls-1" cx="1177.5" cy="426.5" rx="85" ry="31"/><ellipse class="cls-1" cx="856.5" cy="492.69" rx="132" ry="22.68"/><ellipse class="cls-1" cx="1026.5" cy="558.5" rx="126" ry="57"/><ellipse class="cls-1" cx="1111.5" cy="585.97" rx="85" ry="18.47"/><ellipse class="cls-1" cx="565.5" cy="844.49" rx="99" ry="25.01"/><ellipse class="cls-1" cx="624.5" cy="896.5" rx="40" ry="41"/><ellipse class="cls-1" cx="1007" cy="802.31" rx="170.5" ry="53.19"/><ellipse class="cls-1" cx="1159.5" cy="835.91" rx="103" ry="33.59"/><ellipse class="cls-1" cx="1248.5" cy="872.7" rx="118" ry="36.8"/><ellipse class="cls-1" cx="967" cy="846.1" rx="144.5" ry="26.61"/><ellipse class="cls-1" cx="1058.46" cy="750.7" rx="157.96" ry="57.2"/><ellipse class="cls-1" cx="1285.5" cy="767.91" rx="133" ry="34.41"/><ellipse class="cls-1" cx="1254.5" cy="802.31" rx="86" ry="53.19"/><ellipse class="cls-1" cx="1390.5" cy="849.5" rx="70" ry="68"/><ellipse class="cls-1" cx="1478.5" cy="716.7" rx="112" ry="51.2"/><ellipse class="cls-1" cx="309.5" cy="149.5" rx="148" ry="36"/><ellipse class="cls-1" cx="389.5" cy="210" rx="40" ry="60.5"/><ellipse class="cls-1" cx="498.5" cy="186.75" rx="109" ry="23.25"/><ellipse class="cls-1" cx="498.5" cy="101.5" rx="109" ry="34"/><ellipse class="cls-1" cx="546" cy="155.75" rx="97.5" ry="54.25"/><ellipse class="cls-1" cx="145.5" cy="150.13" rx="144" ry="36.63"/><ellipse class="cls-1" cx="282.81" cy="205.5" rx="75.31" ry="42"/><ellipse class="cls-1" cx="238.5" cy="793.7" rx="98" ry="25.79"/><ellipse class="cls-1" cx="301.5" cy="831.7" rx="55" ry="23.8"/><ellipse class="cls-1" cx="335.5" cy="778.52" rx="57" ry="29.39"/><ellipse class="cls-1" cx="415.81" cy="757.5" rx="59.31" ry="24"/><ellipse class="cls-1" cx="186" cy="762.31" rx="115.5" ry="45.6"/><ellipse class="cls-1" cx="207.32" cy="808.7" rx="55.18" ry="27.2"/><ellipse class="cls-1" cx="145.5" cy="829.1" rx="75" ry="20.4"/></svg>