<svg id="Layer_1" data-name="Layer 1" xmlns="http://www.w3.org/2000/svg" viewBox="0 0 1080 960" preserveAspectRatio="none"><defs><style>.cls-1{fill:#c1e296;}</style></defs><title>object-0</title><path class="cls-1" d="M878,325.9h0a8.49,8.49,0,0,1-8.46-8.46V155A8.49,8.49,0,0,1,878,146.5h0a8.49,8.49,0,0,1,8.46,8.46V317.44A8.49,8.49,0,0,1,878,325.9Z"/><path class="cls-1" d="M901.37,180h0c-2.71,0-5.45,4-5.45,8.61V226H884.82c-4,0-7.91,5.2-7.91,12.08h0c0,6.88,3.55,12.49,7.56,12.49l17,0.26c2.71,0,5.44-3.8,5.44-8.44V188.61C906.9,184,904.09,180,901.37,180Z"/><path class="cls-1" d="M871,243H864.9V206.42c0-3.21-2.18-5.42-4.06-5.42h-2.42c-1.88,0-3.52,2.2-3.52,5.42V261.7a9,9,0,0,0,.75,3.56c1.12,4,3.55,6.74,6.27,6.74h9c3.8,0,6.94-5.43,6.94-11.95V255.5C877.9,249,874.76,243,871,243Z"/><path class="cls-1" d="M481.26,666.7h0a12,12,0,0,1-12-12V424.88a12,12,0,0,1,12-12h0a12,12,0,0,1,12,12V654.73A12,12,0,0,1,481.26,666.7Z"/><path class="cls-1" d="M514.31,460h0c-3.84,0-7.38,5.9-7.38,12.48V525h-16c-5.67,0-11,7.73-11,17.46v0c0,9.73,4.91,17.67,10.58,17.67l23.89,0.37c3.84,0,7.52-5.37,7.52-11.95v-76C521.9,465.9,518.15,460,514.31,460Z"/><path class="cls-1" d="M471.29,550H461.9V497.67c0-4.55-2.27-7.67-4.93-7.67h-3.42c-2.65,0-4.65,3.12-4.65,7.67v78.2a11.7,11.7,0,0,0,.9,4.82c1.59,5.59,4.86,9.31,8.71,9.31h12.78c5.38,0,9.61-7.24,9.61-16.46V567.1C480.9,557.88,476.67,550,471.29,550Z"/><path class="cls-1" d="M119.28,325.9h0a8.49,8.49,0,0,1-8.46-8.46V155a8.49,8.49,0,0,1,8.46-8.46h0a8.49,8.49,0,0,1,8.46,8.46V317.44A8.49,8.49,0,0,1,119.28,325.9Z"/><path class="cls-1" d="M142.64,180h0c-2.71,0-5.72,4-5.72,8.61V226H126.09c-4,0-8.18,5.2-8.18,12.08h0c0,6.88,3.68,12.49,7.69,12.49l16.94,0.26c2.71,0,5.37-3.8,5.37-8.44V188.61C147.9,184,145.35,180,142.64,180Z"/><path class="cls-1" d="M112.23,243H105.9V206.42c0-3.21-1.92-5.42-3.79-5.42H99.7c-1.88,0-3.79,2.2-3.79,5.42V261.7a9,9,0,0,0,.89,3.56c1.12,4,3.68,6.74,6.41,6.74h9c3.8,0,6.67-5.43,6.67-11.95V255.5C118.9,249,116,243,112.23,243Z"/></svg>