<svg id="Layer_1" data-name="Layer 1" xmlns="http://www.w3.org/2000/svg" viewBox="0 0 1080 960" preserveAspectRatio="none"><defs><style>.cls-1{fill:#fffb7b;}</style></defs><title>object-1</title><path class="cls-1" d="M130.59,627.2c8.38,35.75,240,33,248.06-2.16,3.64-15.81-35.11-27.33-50-72-11.48-34.4-44.63-47-60-62-16.81-16.38-53.61-15.15-72,2-16.28,15.15,33.11,36-20,66C133.93,583.06,127,611.86,130.59,627.2Z"/><path class="cls-1" d="M694.51,413.84c-50.69,40.13-56.72,40.63-56.61,46.5,0.6,32.28,184.32,82,220.39,28.31,11.57-17.23,9.81-47.87-4-58.64-12.27-9.53-24.4,4-50.55,0-39.24-6-48.92-42.24-76.83-38.42C720.25,392.51,718.5,394.85,694.51,413.84Z"/><path class="cls-1" d="M363.38,212.68c-34.19,1.45-76.72,14.17-76.44,26.81s44.3,26.48,83.62,21.26c30.07-4,63.52-19.86,62.14-31.33C431.27,217.43,392,211.46,363.38,212.68Z"/></svg>