<svg id="Layer_1" data-name="Layer 1" xmlns="http://www.w3.org/2000/svg" viewBox="0 0 1080 960" preserveAspectRatio="none"><defs><style>.cls-1{fill:#ff931e;}</style></defs><title>object-3</title><polygon class="cls-1" points="252.13 186.02 183.08 224.75 203.29 238.23 172.98 250.02 252.13 265.17 231.92 308.96 274.03 270.23 289.19 300.54 317.81 247.49 284.13 228.12 338.02 164.13 270.66 194.44 247.08 138.86 252.13 186.02"/><polygon class="cls-1" points="636.4 631.53 520.99 595.87 564.05 631.62 531.33 661 586.45 661 578.7 728.07 620.75 693.57 643 707.3 643 678.04 677.6 678.02 703.51 616.01 679.43 626.35 663.94 524.72 636.4 631.53"/><polygon class="cls-1" points="880.93 338.19 818.99 396 849.75 396 829.06 437 859.26 437 874.32 387.5 933 396.18 933 338.02 912.91 349.72 914.61 280.93 862.6 302.83 880.93 338.19"/></svg>