<svg id="Layer_1" data-name="Layer 1" xmlns="http://www.w3.org/2000/svg" viewBox="0 0 1077.78 236" preserveAspectRatio="none"><defs><style>.cls-1{fill:#00a090;}</style></defs><title>sky-3</title><path class="cls-1" d="M5409.44,3792h967.24a336.1,336.1,0,0,1-4.61-43.5c-1.2-33-9.14-71.55-62.51-64.5-90.8,12-130.28-128-130.28-128l-15.79,118s-15.79-44-94.75-33-126.33,0-126.33,0l-23.69,151-55.27-216s-43.43,92-86.85,98-79-62-79-62l-19.74,29-75-45-43.43,78-47.37-32s-94.75-34-118.44,32-94.75,118-94.75,118h110.54Z" transform="translate(-5298.9 -3556)"/></svg>