<svg id="Layer_1" data-name="Layer 1" xmlns="http://www.w3.org/2000/svg" xmlns:xlink="http://www.w3.org/1999/xlink" viewBox="0 0 2160 1918.08" preserveAspectRatio="none"><defs><style>.cls-1{fill:url(#linear-gradient);}.cls-2{fill:red;}.cls-3{fill:#001704;}.cls-4{fill:#009c64;stroke:#000;stroke-width:6px;}.cls-4,.cls-5{stroke-miterlimit:10;}.cls-5{fill:#ffb573;stroke:#201d89;stroke-width:10px;}</style><linearGradient id="linear-gradient" y1="1482" x2="2160" y2="1482" gradientUnits="userSpaceOnUse"><stop offset="0" stop-color="#2e6a92"/><stop offset="1" stop-color="#007773"/></linearGradient></defs><title>room</title><rect class="cls-1" y="1045.92" width="2160" height="872.16"/><rect y="1010.6" width="2160" height="35.32"/><polygon class="cls-2" points="1203.65 1042.27 1203.65 962.41 1283.65 962.41 1283.65 875.25 1363.65 875.25 1363.65 788.09 1443.65 788.09 1443.65 700.93 1523.65 700.93 1523.65 613.77 1603.65 613.77 1603.65 526.61 1683.65 526.61 1683.65 439.45 1763.65 439.45 1763.65 352.29 1843.65 352.29 1843.65 265.13 1923.65 265.13 1923.65 177.97 2003.65 177.97 2003.65 90.81 2083.65 90.81 2083.65 3.65 2156.35 3.65 2156.35 1042.27 1203.65 1042.27"/><path class="cls-3" d="M6772.69,4844.39V5875.7H5827.31v-72.55h80V5716h80v-87.16h80v-87.16h80v-87.16h80v-87.16h80v-87.16h80V5193h80v-87.16h80v-87.16h80v-87.16h80v-87.16h65.39m7.31-7.31h-80v87.16h-80v87.16h-80v87.16h-80v87.16h-80v87.16h-80V5360h-80v87.16h-80v87.16h-80v87.16h-80v87.16h-80v87.16h-80V5883h960V4837.09h0Z" transform="translate(-4620 -4837.09)"/><path class="cls-4" d="M6463.29,5508.17c16.26-21-7.17,3.35-.36,4.63-12-13-3.88-13.29-.94,13-0.79,1.48,4.84,20-1.29,19.89,4.19,14.1-7.32,22.65-1.42,25.41-9.8.12,13,24.71-1.33,29.52-5.84,22.95,4.26,31.64-1,32.23-4.41,31.1.12,32.07-.47,33.52-5.21,24.32-.18,29.54.29,33.42,4.74,4.2-5.9,18.92,1.28,31.9,4.62,6.91,1.85,21.42,2.49,29,1.06,9,2.36,17.31,3.93,24.65,4.72,22,11.93,35.44,22.64,33.93,50-7.05,111.85,0,111.85,0v-39.56c2.55-.11-0.92-32.66,0-26.86,8.9-9.51-10.45-35.88,0-31.26,5.28,5.4-7.44-29.78,0-34.19,23.73-14.71,4.07-18.3,0-35.65,10.15,4.25-2-44.6,0-35.65-2.27-6.41-9.74-37.81,0-34.19-1.79,15.73,2.85-5.88,0-31.26-0.38-17.53,9.71-12.43,0-26.86-6.5,3.63,2.48-7.07,0-21-13.49,12,7.38.2,0-13.68-18.16-1.26,5.31-30.39,0-4.88,0.85,6-11.76,4.38-3,9.38,6.12,9.25,3.59,12.42-6.54,20.63-1.33-8.56,9.84,32.72-6.54,20.63-3-8.88-5.41-.91-3,9.38,3.24,16.57,1.45,4.74-3.09-8.3-8.12-16.3-8.52-12.63-5.73-15.41-7.47-11.09-2-1.75-3.08-8.3,0.71-6.8-7.77,4-4.32,12.44-10.41,17.43-8.41,24.26-8,23.11-11.08,19.3-7.28,9.49-4.32,12.44,0.23,4.5-21.55-12.46,0-11.41,5.1-37.12.62-20.29,0-21.19,1.89-.08,2.1-11.34,0-11.41,3.67,2.93,4.16-12.37-5.24,11.41-1.18,22.6-5.24,5.33-9.74,21.19-3.61,7.65,8.54,9.48-5.24,11.41,4-2.93-20,3.5-8.92-10,1.17-8.25-20.05-2.19-8.92-10-1.3,13.81.91,11.87,0,12-4-2.23,18.86,41,0,26.47-6.14-6.11-.87,37.41,0,26.47,17.09-6.18,2.86,8.64,0,12-2.47-19.9-10-11.11-4.94-12.7,1.35-25.44-8.69,4-9.17-23.59,5.08,8.5-11.71-8.88-4.94-12.7,9-14.74-4.26.71-3.09,12.7,4.63,10.71-9.89.54-5.73,23.59-2,10.77-15.79,7-3.09,12.7,3.12,13.33,8.79-25.84-1.41-8.07-1.38,40.11-3-1.07-3.53-20.19,2.75,1.78-6.66-17.25-4.58-26.24,4.43-7.37,9.73-3.24-4.58-26.24,4.23-.92-0.21-31.44-3.53-20.19C6463,5535.31,6472.49,5498.9,6463.29,5508.17Z" transform="translate(-4620 -4837.09)"/><path class="cls-5" d="M6625.12,5852.08c0,57.39-42.08,103.91-94,103.91s-94-46.52-94-103.91c0-133.07,43.25-36,95.16-36S6625.12,5740.17,6625.12,5852.08Z" transform="translate(-4620 -4837.09)"/></svg>