<svg id="Layer_1" data-name="Layer 1" xmlns="http://www.w3.org/2000/svg" xmlns:xlink="http://www.w3.org/1999/xlink" viewBox="0 0 1157.98 741.16" preserveAspectRatio="none"><defs><style>.cls-1{fill:url(#radial-gradient);}.cls-2{fill:#ba557d;}.cls-2,.cls-3,.cls-5{stroke:#000;stroke-width:11px;}.cls-2,.cls-3,.cls-4,.cls-5{stroke-miterlimit:10;}.cls-3{fill:url(#radial-gradient-2);}.cls-4{fill:#b7b573;stroke:#1b1464;stroke-width:6px;}.cls-5{fill:#a5d764;}</style><radialGradient id="radial-gradient" cx="5525.49" cy="8338.83" r="1.48" gradientUnits="userSpaceOnUse"><stop offset="0" stop-color="#d9e021"/><stop offset="0.22" stop-color="#662d91"/><stop offset="0.47" stop-color="lime"/><stop offset="0.77" stop-color="aqua"/><stop offset="1" stop-color="red"/></radialGradient><radialGradient id="radial-gradient-2" cx="4941.64" cy="8133.34" r="382.94" gradientTransform="translate(-4368.95 -1357.82) scale(1 0.18)" gradientUnits="userSpaceOnUse"><stop offset="0" stop-color="#ff7773"/><stop offset="0.09" stop-color="#be591c"/><stop offset="0.25" stop-color="#f17060"/><stop offset="0.38" stop-color="#b75613"/><stop offset="0.45" stop-color="#f9746b"/><stop offset="0.58" stop-color="#b05309"/><stop offset="0.66" stop-color="#cd6030"/><stop offset="0.76" stop-color="#eb6d58"/><stop offset="0.93" stop-color="#f67367"/><stop offset="1" stop-color="#aa5000"/></radialGradient></defs><title>sofa</title><path class="cls-1" d="M5525.49,8340.33a1.5,1.5,0,0,0,0-3,1.5,1.5,0,0,0,0,3h0Z" transform="translate(-4368.95 -8027.16)"/><ellipse class="cls-2" cx="168.81" cy="239.5" rx="28" ry="115.76"/><ellipse class="cls-2" cx="1018.81" cy="228.14" rx="30" ry="121.96"/><ellipse class="cls-2" cx="602.75" cy="270.24" rx="30.06" ry="146.5"/><ellipse class="cls-3" cx="572.69" cy="106.18" rx="532.12" ry="100.68"/><polygon class="cls-4" points="672.69 55.01 376.69 55.01 376.69 81.01 376.69 131.01 376.69 157.01 672.69 157.01 672.69 81.01 571.43 81.01 672.69 55.01"/><path class="cls-5" d="M4565.76,8517.6c0,114.33-33.2,244.57-33.2,244.57h-124.9s-33.2-130.25-33.2-244.57c0-208.55,42.83-377.61,95.65-377.61S4565.76,8309,4565.76,8517.6Z" transform="translate(-4368.95 -8027.16)"/><path class="cls-5" d="M5330.62,8517.6c0,114.33-33.2,244.57-33.2,244.57h-124.9s-33.2-130.25-33.2-244.57c0-208.55,42.83-377.61,95.65-377.61S5330.62,8309,5330.62,8517.6Z" transform="translate(-4368.95 -8027.16)"/><rect class="cls-5" x="44.14" y="336.47" width="821.88" height="399.19"/></svg>