<svg xmlns="http://www.w3.org/2000/svg" viewBox="0 0 534.2 378.74"><defs><style>.cls-1{fill:#fcee57;}</style></defs><title>shakyvibrate-background</title><g id="Layer_2" data-name="Layer 2"><g id="Layer_1-2" data-name="Layer 1"><path class="cls-1" d="M237.3,202.85c-37-22.95-41.88-21.21-27,23.7-24.53-41.44-29.36-39.7-39,4.2,9.62-43.9,5.7-47.22-33.42-19.82,31.28-34,27.36-37.34-14.42-30,41.78-7.33,42.69-12.38,3.2-32.93,41.32,10.45,42.23,5.4,15.57-23.2,26.66,28.6,31.49,26.87,24.7-14.08,16.45,37.48,21.28,35.74,27.06-1.88-5.78,37.63-1.86,40.94,25.13,9.85-19.15,37.73-15.24,41,20,21.91C203.9,159.7,203,164.75,246.56,168.8,201.17,174.85,200.25,179.91,237.3,202.85Z"/><path class="cls-1" d="M333.91,291.52c-14.36-8.89-16.23-8.22-10.47,9.18-9.51-16.06-11.38-15.39-15.11,1.63,3.73-17,2.21-18.3-13-7.68,12.12-13.19,10.6-14.47-5.59-11.63,16.19-2.84,16.55-4.8,1.24-12.76,16,4.05,16.37,2.09,6-9,10.33,11.09,12.21,10.41,9.57-5.46,6.38,14.53,8.25,13.85,10.49-.73-2.24,14.58-.72,15.87,9.74,3.82-7.42,14.62-5.91,15.91,7.75,8.49-13.65,7.42-14,9.37,2.88,10.94C319.9,280.67,319.55,282.63,333.91,291.52Z"/><path class="cls-1" d="M86.51,339.57C73.29,324.38,71.23,326.06,74,359.82c-6.92-30.39-9-28.71-15.89,6,6.92-34.69,5.58-37-12-13,14.9-28.56,13.56-30.85-3.67-22.25,17.23-8.6,18-12.58,3.58-25.74C61.88,310,62.6,306,53.93,285.72,62.6,306,64.65,304.34,64.8,273.08c4,27.89,6,26.21,11-3.35-4.94,29.56-3.61,31.86,9.37,5.87-10.3,30.57-9,32.87,6.47,15.58-15.43,17.29-16.15,21.27,1,21.36C74,320.4,73.29,324.38,86.51,339.57Z"/><path class="cls-1" d="M413.29,160.4c-16.26-18.19-18.76-16.2-15.14,24.09-8.64-36.29-11.14-34.3-19.41,7,8.27-41.34,6.62-44.09-14.74-15.6,18.06-34,16.41-36.72-4.62-26.56,21-10.16,21.89-14.9,4.24-30.69,19.36,6.3,20.22,1.56,9.5-22.7,10.72,24.26,13.22,22.27,13.22-15,5,33.29,7.51,31.3,13.39-3.94-5.88,35.23-4.23,38,11.49,7.06-12.43,36.41-10.78,39.16,8,18.62-18.78,20.54-19.64,25.28,1.35,25.48C397.88,137.46,397,142.21,413.29,160.4Z"/><path class="cls-1" d="M44.12,36.45c-14.36-8.89-16.23-8.22-10.47,9.18-9.51-16.06-11.38-15.39-15.11,1.63,3.73-17,2.21-18.3-13-7.68C17.71,26.39,16.19,25.11,0,27.95c16.19-2.84,16.55-4.8,1.24-12.76,16,4.05,16.37,2.09,6-9C17.61,17.27,19.48,16.6,16.85.73,23.22,15.26,25.1,14.58,27.33,0c-2.24,14.58-.72,15.87,9.74,3.82-7.42,14.62-5.91,15.91,7.75,8.49-13.65,7.42-14,9.37,2.88,10.94C30.11,25.6,29.76,27.55,44.12,36.45Z"/><path class="cls-1" d="M283.66,90.51c4.18-19.7,1.6-20.33-23.68,2.22,20.12-23.81,17.54-24.44-14.34-9.1,31.88-15.34,32.91-17.79,3.19-17.41,31.77-5.28,32.8-7.73,15.56-16.32,17.24,8.59,20.85,6.77,22.72-12.63,5.35,15.76,9,13.94,20-5.2-11,19.14-8.42,19.77,16.64,1.08C303.82,53.11,306.4,53.74,333,39.9c-26.59,13.83-27.62,16.28.95,11-30.62,10.16-31.65,12.61-8.55,14.54-23.1-1.93-26.71-.11-16.46,13.65C291.45,69,287.84,70.81,283.66,90.51Z"/><path class="cls-1" d="M524.94,350.84c-37-22.95-41.88-21.21-27,23.7-24.53-41.44-29.36-39.7-39,4.2,9.62-43.9,5.7-47.22-33.42-19.82,31.28-34,27.36-37.34-14.42-30,41.78-7.33,42.69-12.38,3.2-32.93,41.32,10.45,42.23,5.4,15.57-23.2,26.66,28.6,31.49,26.87,24.7-14.09,16.45,37.48,21.28,35.74,27.06-1.88-5.78,37.63-1.86,40.94,25.13,9.85-19.15,37.73-15.24,41,20,21.91-35.22,19.14-36.13,24.19,7.44,28.23C488.8,322.84,487.89,327.89,524.94,350.84Z"/></g></g></svg>