<svg id="Layer_1" data-name="Layer 1" xmlns="http://www.w3.org/2000/svg" viewBox="0 0 1080 960"><defs><style>.cls-1{fill:#fff;stroke:#e6e6e6;stroke-width:10px;}.cls-1,.cls-10,.cls-11,.cls-12,.cls-13,.cls-2,.cls-3,.cls-4,.cls-5,.cls-6,.cls-7,.cls-8,.cls-9{stroke-miterlimit:10;}.cls-2,.cls-3{fill:#005ca7;}.cls-10,.cls-11,.cls-12,.cls-2,.cls-3,.cls-4,.cls-5,.cls-6,.cls-7,.cls-8,.cls-9{stroke:#000;}.cls-10,.cls-12,.cls-13,.cls-2,.cls-4,.cls-6,.cls-8,.cls-9{stroke-width:6.52px;}.cls-11,.cls-3,.cls-5{stroke-width:6.36px;}.cls-4,.cls-5{fill:#bcff76;}.cls-6{fill:#ff8ae3;}.cls-7{stroke-width:4.57px;}.cls-8{fill:none;}.cls-9{fill:#ff7bac;}.cls-10{fill:red;}.cls-11{fill:#f2f2f2;}.cls-12{fill:#442eff;}.cls-13{fill:aqua;stroke:#29abe2;opacity:0.5;}</style></defs><title>shakyvibrate-coach</title><ellipse class="cls-1" cx="303.92" cy="714.13" rx="85.9" ry="47.79"/><ellipse class="cls-1" cx="383.45" cy="752.19" rx="135.17" ry="71.63"/><ellipse class="cls-1" cx="469.23" cy="674.22" rx="128.17" ry="54.57"/><ellipse class="cls-1" cx="191.02" cy="762.72" rx="122.72" ry="75.04"/><ellipse class="cls-1" cx="531.44" cy="800.56" rx="148.88" ry="86.43"/><ellipse class="cls-1" cx="657.31" cy="675.47" rx="122.72" ry="75.04"/><ellipse class="cls-1" cx="776.91" cy="717.93" rx="148.88" ry="86.43"/><ellipse class="cls-1" cx="341.05" cy="823.82" rx="148.88" ry="86.43"/><ellipse class="cls-1" cx="706.31" cy="796.34" rx="130.4" ry="98.72"/><ellipse class="cls-1" cx="463.91" cy="880.62" rx="93.79" ry="54.57"/><ellipse class="cls-1" cx="583.98" cy="877.67" rx="93.79" ry="54.57"/><ellipse class="cls-1" cx="925.8" cy="775.71" rx="85.9" ry="47.79"/><ellipse class="cls-1" cx="843.92" cy="850.74" rx="122.72" ry="75.04"/><path class="cls-2" d="M649.94,628.93l-7.59,125.82L734.83,796l-4.73,38.54s-105.65,7.53-126.19-20.58-34.46-176-34.46-176Z"/><ellipse class="cls-2" cx="749.08" cy="817.79" rx="28.17" ry="24.98" transform="translate(-353.26 696.37) rotate(-41.23)"/><path class="cls-3" d="M452,434.79s-29.76,75.52-144.63,70l-.57-30s35.69-4,68.88-20.48,65-60.72,65-60.72Z"/><ellipse class="cls-2" cx="286.81" cy="489.79" rx="32.93" ry="24.63" transform="translate(-119.94 93.92) rotate(-15.42)"/><path class="cls-4" d="M459.28,655.92s-28.42,108.71-96.56,114.44S273.1,719,273.1,719l12.35-23.38L356,707.83,446.23,623Z"/><path class="cls-5" d="M462.53,645.29l-83-45.67L341.83,707.2l28.4,11.3s-4.07-25.78,14.86-38.66,82.63,3.94,82.63,3.94Z"/><polygon class="cls-6" points="541.12 381.09 358.5 374.69 465.38 787.54 619.26 641.38 541.12 381.09"/><path class="cls-2" d="M434.64,377.36s64.57,44.32,111.1,38c1.94-.26,5.41-.91,5.41-.91l-10-33.41Z"/><path class="cls-2" d="M536,720.49s21.63-78.92,60-106c1.6-1.13,12.75-8.25,12.75-8.25l10.55,35.13Z"/><path class="cls-2" d="M703.48,676c-27.16,3.66-147.45,48.53-172,20.89-37.2-42,87.75-105.66,0-226.11C455.38,366.27,506.15,342.44,562,357.38c8.33,2.23,28.64-3.86,74.79,31.27s124.36-12.64,140.88,110C796.61,638.85,771.86,666.79,703.48,676Z"/><ellipse class="cls-7" cx="694.41" cy="614.89" rx="9.98" ry="23.51" transform="translate(-75.89 98.24) rotate(-7.67)"/><ellipse class="cls-7" cx="684.11" cy="549.36" rx="9.98" ry="23.51" transform="translate(-67.23 96.28) rotate(-7.67)"/><path class="cls-8" d="M692.78,596.66s8.88-2.25,7.51-12.4S689,568.92,689,568.92"/><path class="cls-8" d="M683.21,525.59s74.62-192,21.41-241.69"/><ellipse class="cls-9" cx="635.77" cy="591.23" rx="49.51" ry="91.34" transform="translate(-73.26 90.2) rotate(-7.67)"/><circle class="cls-10" cx="550.91" cy="396.8" r="17.07" transform="translate(-48.06 77.12) rotate(-7.67)"/><path class="cls-8" d="M758.77,600.87s78.77-79.9,16.58-130.1"/><path class="cls-8" d="M779.07,598.14s78.77-79.9,16.58-130.1"/><polygon class="cls-11" points="757.37 581.57 873.92 744.81 784.86 785.52 726.42 585.74 757.37 581.57"/><polygon class="cls-11" points="751.17 516.37 850.17 287.92 709.5 319.83 720.22 520.54 751.17 516.37"/><ellipse class="cls-12" cx="340.64" cy="702.2" rx="16.22" ry="34.15" transform="translate(-425.97 555.81) rotate(-53.31)"/><ellipse class="cls-12" cx="271.87" cy="716.28" rx="34.15" ry="16.22" transform="translate(-491.67 653.22) rotate(-64.49)"/><path class="cls-13" d="M742,215.91C742,321.45,570.77,407,550.9,407c-17.56,0-191.1-85.56-191.1-191.1s85.56-191.1,191.1-191.1S742,110.37,742,215.91Z"/></svg>