<svg id="Layer_1" data-name="Layer 1" xmlns="http://www.w3.org/2000/svg" viewBox="0 0 1080 960"><defs><style>.cls-1{fill:#333;stroke:#ff931e;stroke-miterlimit:10;stroke-width:60.26px;}.cls-2{fill:red;}</style></defs><title>shakyvibrate-alarm</title><path class="cls-1" d="M821.35,656.05,301,710.28a73.54,73.54,0,0,1-80.53-65.33L193.32,384.48a73.54,73.54,0,0,1,65.33-80.53L779,249.72a73.54,73.54,0,0,1,80.53,65.33l27.14,260.47A73.54,73.54,0,0,1,821.35,656.05Z"/><path class="cls-2" d="M316.4,360.42l.59.77c.38.51,1,1.26,1.68,2.26s1.6,2.21,2.59,3.65,2.12,3.1,3.35,5c2.47,3.72,5.28,8.27,8.38,13.5,1.55,2.61,3.13,5.4,4.77,8.35a6.48,6.48,0,0,1,.83,2.29,13.3,13.3,0,0,1,0,2.45,30.14,30.14,0,0,0,.41,5l12.19,99.72,12.19,99.72.31,2.52a12.8,12.8,0,0,0,.45,2.45,10.22,10.22,0,0,1,.54,2.38,6.92,6.92,0,0,1-.4,2.44c-.93,3.26-1.76,6.34-2.64,9.25-1.74,5.82-3.37,10.91-4.83,15.11-.72,2.1-1.38,4-2,5.62s-1.13,3-1.57,4.16-.81,2-1,2.59l-.37.89-.57-.78c-.37-.51-.95-1.27-1.64-2.26s-1.56-2.22-2.53-3.66-2.08-3.11-3.29-5c-2.43-3.73-5.23-8.27-8.33-13.5-1.55-2.61-3.1-5.41-4.79-8.35a6.91,6.91,0,0,1-1-2.27,10.22,10.22,0,0,1,0-2.44,12.82,12.82,0,0,0-.15-2.49l-.31-2.52-12.19-99.72-12.19-99.72a30.17,30.17,0,0,0-.81-5,13.28,13.28,0,0,1-.57-2.38,6.48,6.48,0,0,1,.26-2.42c.88-3.25,1.74-6.34,2.61-9.25,1.75-5.82,3.39-10.91,4.89-15.12.74-2.1,1.41-4,2.05-5.62s1.17-3,1.63-4.17.84-2,1.09-2.6Z"/><path class="cls-2" d="M255.47,364.51l.59.77c.38.51,1,1.26,1.68,2.26s1.6,2.21,2.59,3.66,2.12,3.1,3.35,5c2.47,3.72,5.28,8.27,8.38,13.5,1.55,2.61,3.13,5.4,4.77,8.35a6.49,6.49,0,0,1,.83,2.29,13.3,13.3,0,0,1,0,2.45,30.13,30.13,0,0,0,.41,5l12.19,99.72,12.19,99.72.31,2.52a12.81,12.81,0,0,0,.45,2.45,10.2,10.2,0,0,1,.54,2.38,6.89,6.89,0,0,1-.4,2.44c-.93,3.26-1.76,6.34-2.64,9.25-1.74,5.82-3.37,10.91-4.83,15.11-.72,2.1-1.38,4-2,5.62s-1.13,3-1.57,4.16-.81,2-1,2.59l-.37.89-.57-.78c-.37-.51-.95-1.27-1.64-2.26s-1.56-2.22-2.53-3.66-2.08-3.11-3.29-5c-2.43-3.73-5.23-8.27-8.33-13.5-1.55-2.61-3.1-5.41-4.79-8.35a6.91,6.91,0,0,1-1-2.27,10.2,10.2,0,0,1,0-2.44,12.82,12.82,0,0,0-.15-2.49l-.31-2.52-12.19-99.72-12.19-99.72a30.17,30.17,0,0,0-.81-5,13.33,13.33,0,0,1-.57-2.38,6.47,6.47,0,0,1,.26-2.42c.88-3.25,1.74-6.34,2.61-9.25,1.75-5.82,3.39-10.91,4.89-15.12.74-2.1,1.41-4,2.05-5.62s1.17-3,1.63-4.17.84-2,1.09-2.59Z"/><path class="cls-2" d="M435,348l.59.77c.38.51,1,1.26,1.68,2.26s1.6,2.21,2.59,3.66,2.12,3.1,3.35,5c2.47,3.72,5.28,8.27,8.38,13.5,1.55,2.61,3.13,5.4,4.77,8.35a6.47,6.47,0,0,1,.83,2.29,13.26,13.26,0,0,1,0,2.45,30.26,30.26,0,0,0,.41,5l12.19,99.72L482,590.67l.31,2.52a12.83,12.83,0,0,0,.45,2.45,10.22,10.22,0,0,1,.54,2.38,6.92,6.92,0,0,1-.4,2.44c-.93,3.26-1.76,6.34-2.64,9.25-1.74,5.82-3.37,10.91-4.83,15.11-.72,2.1-1.38,4-2,5.62s-1.13,3-1.57,4.16-.81,2-1,2.59l-.37.89-.57-.77c-.37-.51-.95-1.27-1.64-2.26s-1.56-2.22-2.53-3.66-2.08-3.11-3.29-5c-2.43-3.73-5.23-8.27-8.33-13.5-1.55-2.61-3.1-5.41-4.79-8.35a6.9,6.9,0,0,1-1-2.27,10.2,10.2,0,0,1,0-2.44,12.81,12.81,0,0,0-.15-2.49l-.31-2.52-12.19-99.72-12.19-99.72a30.15,30.15,0,0,0-.81-5,13.3,13.3,0,0,1-.57-2.38,6.48,6.48,0,0,1,.26-2.42c.88-3.25,1.74-6.34,2.61-9.25,1.75-5.82,3.39-10.91,4.89-15.12.74-2.1,1.41-4,2.05-5.62s1.17-3,1.63-4.17.84-2,1.09-2.59Z"/><path class="cls-2" d="M374,352.08l.59.77c.38.51,1,1.26,1.68,2.26s1.6,2.21,2.59,3.65,2.12,3.1,3.35,5c2.47,3.72,5.28,8.27,8.38,13.5,1.55,2.61,3.13,5.4,4.77,8.35a6.48,6.48,0,0,1,.83,2.29,13.34,13.34,0,0,1,0,2.45,30.15,30.15,0,0,0,.41,5L408.84,495,421,594.76l.31,2.52a12.8,12.8,0,0,0,.45,2.45,10.22,10.22,0,0,1,.54,2.38,6.92,6.92,0,0,1-.4,2.44c-.93,3.26-1.76,6.34-2.64,9.25-1.74,5.82-3.37,10.91-4.83,15.11-.72,2.1-1.38,4-2,5.62s-1.13,3-1.57,4.16-.81,2-1,2.59l-.37.89-.57-.77c-.37-.51-.95-1.27-1.64-2.26s-1.56-2.22-2.53-3.66-2.08-3.11-3.29-5c-2.43-3.73-5.23-8.27-8.33-13.5-1.55-2.61-3.1-5.41-4.79-8.35a6.93,6.93,0,0,1-1-2.27,10.23,10.23,0,0,1,0-2.44,12.81,12.81,0,0,0-.15-2.49l-.31-2.52-12.19-99.72-12.19-99.72a30.15,30.15,0,0,0-.81-5,13.32,13.32,0,0,1-.57-2.38,6.48,6.48,0,0,1,.26-2.42c.88-3.25,1.74-6.34,2.61-9.25,1.75-5.82,3.39-10.91,4.89-15.12.74-2.1,1.41-4,2.05-5.62s1.17-3,1.63-4.17.84-2,1.09-2.6Z"/><path class="cls-2" d="M555,340.85l.59.77c.38.51,1,1.26,1.68,2.26s1.6,2.21,2.59,3.65,2.12,3.1,3.35,5c2.47,3.72,5.28,8.27,8.38,13.5,1.55,2.61,3.13,5.4,4.77,8.35a6.49,6.49,0,0,1,.83,2.29,13.26,13.26,0,0,1,0,2.45,30.14,30.14,0,0,0,.41,5l12.19,99.72L602,583.53l.31,2.52a12.83,12.83,0,0,0,.45,2.45,10.2,10.2,0,0,1,.54,2.38,6.9,6.9,0,0,1-.4,2.44c-.93,3.26-1.76,6.34-2.64,9.25-1.74,5.82-3.37,10.91-4.83,15.11-.72,2.1-1.38,4-2,5.62s-1.13,3-1.57,4.16-.81,2-1,2.59l-.37.89-.57-.77c-.37-.51-.95-1.27-1.64-2.26s-1.56-2.22-2.53-3.66-2.08-3.11-3.29-5c-2.43-3.73-5.23-8.27-8.33-13.5-1.55-2.61-3.1-5.41-4.79-8.35a6.92,6.92,0,0,1-1-2.27,10.22,10.22,0,0,1,0-2.44,12.78,12.78,0,0,0-.15-2.49l-.31-2.52L555.67,488l-12.19-99.72a30.17,30.17,0,0,0-.81-5,13.28,13.28,0,0,1-.57-2.38,6.49,6.49,0,0,1,.26-2.42c.88-3.25,1.74-6.34,2.61-9.25,1.75-5.82,3.39-10.91,4.89-15.12.75-2.1,1.41-4,2.05-5.62s1.17-3,1.63-4.17.84-2,1.09-2.6Z"/><path class="cls-2" d="M494.09,344.94l.59.77c.38.51,1,1.26,1.68,2.26s1.6,2.21,2.59,3.66,2.12,3.1,3.35,5c2.47,3.72,5.28,8.27,8.38,13.5,1.55,2.61,3.13,5.4,4.77,8.35a6.47,6.47,0,0,1,.83,2.29,13.27,13.27,0,0,1,0,2.45,30.19,30.19,0,0,0,.41,5L528.9,487.9l12.19,99.72.31,2.52a12.81,12.81,0,0,0,.45,2.45,10.2,10.2,0,0,1,.54,2.38,6.92,6.92,0,0,1-.4,2.44c-.93,3.26-1.76,6.34-2.64,9.25-1.74,5.82-3.37,10.91-4.83,15.11-.72,2.1-1.38,4-2,5.62s-1.13,3-1.57,4.16-.81,2-1,2.59l-.37.89-.57-.78c-.37-.51-.95-1.27-1.64-2.26s-1.56-2.22-2.53-3.66-2.08-3.11-3.29-5c-2.43-3.73-5.23-8.27-8.33-13.5-1.55-2.61-3.1-5.41-4.79-8.35a6.91,6.91,0,0,1-1-2.27,10.2,10.2,0,0,1,0-2.44,12.82,12.82,0,0,0-.15-2.49l-.31-2.52-12.19-99.72-12.19-99.72a30.17,30.17,0,0,0-.81-5,13.29,13.29,0,0,1-.57-2.38,6.48,6.48,0,0,1,.26-2.42c.88-3.25,1.74-6.34,2.61-9.25,1.75-5.82,3.39-10.91,4.89-15.12.74-2.1,1.41-4,2.05-5.62s1.17-3,1.63-4.17.84-2,1.09-2.6Z"/><path class="cls-2" d="M673.57,328.42l.59.77c.38.51,1,1.26,1.68,2.26s1.6,2.21,2.59,3.66,2.12,3.1,3.35,5c2.47,3.72,5.28,8.27,8.38,13.5,1.55,2.61,3.13,5.4,4.77,8.35a6.49,6.49,0,0,1,.83,2.29,13.3,13.3,0,0,1,0,2.45,30.15,30.15,0,0,0,.41,5l12.19,99.72,12.19,99.72.31,2.52a12.8,12.8,0,0,0,.45,2.45,10.22,10.22,0,0,1,.54,2.38,6.9,6.9,0,0,1-.4,2.44c-.93,3.26-1.76,6.34-2.64,9.25-1.74,5.82-3.37,10.91-4.83,15.11-.72,2.1-1.38,4-2,5.62s-1.13,3-1.57,4.16-.81,2-1,2.59l-.37.89-.57-.77c-.37-.51-.95-1.27-1.64-2.26s-1.56-2.22-2.53-3.66-2.08-3.11-3.29-5c-2.43-3.73-5.23-8.27-8.33-13.5-1.55-2.61-3.1-5.41-4.79-8.35a6.9,6.9,0,0,1-1-2.27,10.2,10.2,0,0,1,0-2.44,12.81,12.81,0,0,0-.15-2.49l-.31-2.52-12.19-99.72L662,375.84a30.15,30.15,0,0,0-.81-5,13.34,13.34,0,0,1-.57-2.38,6.47,6.47,0,0,1,.26-2.42c.88-3.25,1.74-6.34,2.61-9.25,1.75-5.82,3.39-10.91,4.89-15.12.74-2.1,1.41-4,2.05-5.62s1.17-3,1.63-4.17.84-2,1.09-2.59Z"/><path class="cls-2" d="M612.64,332.51l.59.77c.38.51,1,1.26,1.68,2.26s1.6,2.21,2.59,3.65,2.12,3.1,3.35,5c2.47,3.72,5.28,8.27,8.38,13.5,1.55,2.61,3.13,5.4,4.77,8.35a6.47,6.47,0,0,1,.83,2.29,13.26,13.26,0,0,1,0,2.45,30.26,30.26,0,0,0,.41,5l12.19,99.72,12.19,99.72.31,2.52a12.83,12.83,0,0,0,.45,2.45,10.22,10.22,0,0,1,.54,2.38,6.92,6.92,0,0,1-.4,2.44c-.93,3.26-1.76,6.34-2.64,9.25-1.74,5.82-3.37,10.91-4.83,15.11-.72,2.1-1.38,4-2,5.62s-1.13,3-1.57,4.16-.81,2-1,2.59l-.37.89-.57-.77c-.37-.51-.95-1.27-1.64-2.26s-1.56-2.22-2.53-3.66-2.08-3.11-3.29-5c-2.43-3.73-5.23-8.27-8.33-13.5-1.55-2.61-3.1-5.41-4.79-8.35a6.91,6.91,0,0,1-1-2.27,10.2,10.2,0,0,1,0-2.44,12.81,12.81,0,0,0-.15-2.49l-.31-2.52L613.3,479.64l-12.19-99.72a30.15,30.15,0,0,0-.81-5,13.28,13.28,0,0,1-.57-2.38,6.49,6.49,0,0,1,.26-2.42c.88-3.25,1.74-6.34,2.61-9.25,1.75-5.82,3.39-10.91,4.89-15.12.74-2.1,1.41-4,2.05-5.62s1.17-3,1.63-4.17.84-2,1.09-2.6Z"/><path class="cls-2" d="M785.44,314.32l.59.77c.38.51,1,1.26,1.68,2.26s1.6,2.21,2.59,3.65,2.12,3.1,3.35,5c2.47,3.72,5.28,8.27,8.38,13.5,1.55,2.61,3.13,5.4,4.77,8.35a6.49,6.49,0,0,1,.83,2.29,13.34,13.34,0,0,1,0,2.45,30.14,30.14,0,0,0,.41,5l12.19,99.72L832.45,557l.31,2.52a12.8,12.8,0,0,0,.45,2.45,10.22,10.22,0,0,1,.54,2.38,6.92,6.92,0,0,1-.4,2.44c-.93,3.26-1.76,6.34-2.64,9.25-1.74,5.82-3.37,10.91-4.83,15.11-.72,2.1-1.38,4-2,5.62s-1.13,3-1.57,4.16-.81,2-1,2.59l-.37.89-.57-.78c-.37-.51-.95-1.27-1.64-2.26s-1.56-2.22-2.53-3.66-2.08-3.11-3.29-5c-2.43-3.73-5.23-8.27-8.33-13.5-1.55-2.61-3.1-5.41-4.79-8.35a6.91,6.91,0,0,1-1-2.27,10.22,10.22,0,0,1,0-2.44,12.82,12.82,0,0,0-.15-2.49l-.31-2.52-12.19-99.72L773.9,361.73a30.22,30.22,0,0,0-.81-5,13.28,13.28,0,0,1-.57-2.38,6.48,6.48,0,0,1,.26-2.42c.88-3.25,1.74-6.34,2.61-9.25,1.75-5.82,3.39-10.91,4.89-15.12.74-2.1,1.41-4,2.05-5.62s1.17-3,1.63-4.17.84-2,1.09-2.6Z"/><path class="cls-2" d="M728.85,317.52l.59.77c.38.51,1,1.26,1.68,2.26s1.6,2.21,2.59,3.65,2.12,3.1,3.35,5c2.47,3.72,5.28,8.27,8.38,13.5,1.55,2.61,3.13,5.4,4.77,8.35a6.48,6.48,0,0,1,.83,2.29,13.3,13.3,0,0,1,0,2.45,30.14,30.14,0,0,0,.41,5l12.19,99.72,12.19,99.72.31,2.52a12.8,12.8,0,0,0,.45,2.45,10.22,10.22,0,0,1,.54,2.38,6.92,6.92,0,0,1-.4,2.44c-.93,3.26-1.76,6.34-2.64,9.25-1.74,5.82-3.37,10.91-4.83,15.11-.72,2.1-1.38,4-2,5.62s-1.13,3-1.57,4.16-.81,2-1,2.59l-.37.89-.57-.78c-.37-.51-.95-1.27-1.64-2.26s-1.56-2.22-2.53-3.66-2.08-3.11-3.29-5c-2.43-3.73-5.23-8.27-8.33-13.5-1.55-2.61-3.1-5.41-4.79-8.35a6.92,6.92,0,0,1-1-2.27,10.22,10.22,0,0,1,0-2.44,12.82,12.82,0,0,0-.15-2.49l-.31-2.52L729.5,464.66l-12.19-99.72a30.17,30.17,0,0,0-.81-5,13.28,13.28,0,0,1-.57-2.38,6.48,6.48,0,0,1,.26-2.42c.88-3.25,1.74-6.34,2.61-9.25,1.75-5.82,3.39-10.91,4.89-15.12.74-2.1,1.41-4,2.05-5.62s1.17-3,1.63-4.17.84-2,1.09-2.6Z"/></svg>