<svg id="Layer_1" data-name="Layer 1" xmlns="http://www.w3.org/2000/svg" xmlns:xlink="http://www.w3.org/1999/xlink" viewBox="0 0 850 850"><defs><style>.cls-1,.cls-10,.cls-11,.cls-12,.cls-2,.cls-3,.cls-4,.cls-5,.cls-6,.cls-7,.cls-8,.cls-9{stroke:#000;stroke-miterlimit:10;}.cls-1,.cls-11,.cls-3,.cls-4{stroke-width:7px;}.cls-1{fill:url(#radial-gradient);}.cls-2,.cls-3{fill:#00bc78;}.cls-10,.cls-12,.cls-2,.cls-5,.cls-6,.cls-7,.cls-8,.cls-9{stroke-width:7.18px;}.cls-4,.cls-5{fill:#fff;}.cls-6{fill:#d5ff8d;}.cls-13,.cls-8{fill:none;}.cls-9{fill:url(#radial-gradient-2);}.cls-10{fill:#afafaf;}.cls-11{fill:#d3be00;}.cls-12{fill:#c6c6c6;}</style><radialGradient id="radial-gradient" cx="6873.8" cy="7114.96" r="407.11" gradientTransform="translate(-6420.99 -1332.23) scale(1 0.28)" gradientUnits="userSpaceOnUse"><stop offset="0" stop-color="#7effff"/><stop offset="0.03" stop-color="#81fffa"/><stop offset="0.06" stop-color="#8bffeb"/><stop offset="0.1" stop-color="#9affd3"/><stop offset="0.13" stop-color="#b0ffb2"/><stop offset="0.17" stop-color="#cdff86"/><stop offset="0.21" stop-color="#eeff52"/><stop offset="0.23" stop-color="#ffff39"/><stop offset="0.43" stop-color="#ff0039"/><stop offset="0.59" stop-color="#000039"/><stop offset="0.74" stop-color="blue"/><stop offset="0.91" stop-color="#bff"/></radialGradient><radialGradient id="radial-gradient-2" cx="6735.29" cy="6808.89" r="104.66" gradientTransform="translate(-6420.99 -2982.47) scale(1 0.49)" gradientUnits="userSpaceOnUse"><stop offset="0" stop-color="#7e78ff"/><stop offset="0.12" stop-color="#8177fa"/><stop offset="0.26" stop-color="#8b76eb"/><stop offset="0.42" stop-color="#9a73d3"/><stop offset="0.58" stop-color="#b06fb2"/><stop offset="0.75" stop-color="#cd6b86"/><stop offset="0.92" stop-color="#ee6552"/><stop offset="1" stop-color="#ff6239"/></radialGradient></defs><title>staystill-coach-1</title><ellipse class="cls-1" cx="452.82" cy="659.96" rx="372.6" ry="124.96"/><path class="cls-2" d="M6959.33,6868.73l138.06-13.08-171.84-82.53,42.69-1.39s227.09,88.56,200,115.66-185.44,67.28-185.44,67.28Z" transform="translate(-6420.99 -6455)"/><ellipse class="cls-2" cx="6946.82" cy="6753.95" rx="27.48" ry="30.99" transform="translate(-9111.82 1293.8) rotate(-50.09)"/><path class="cls-3" d="M6667.33,6929.05c-22.54,4.38-46.22-18,6.46-83.92a6.2,6.2,0,0,0,1.17-2.33l1-4a6.17,6.17,0,0,0-10.81-5.38c-26.47,33.24-72.39,96.54-62.34,124.15,16.87,46.33,39.21,30.16,42.27,27.65a6.42,6.42,0,0,1,.82-0.58l39.74-9.94C6708.29,6958.57,6691.33,6924.39,6667.33,6929.05Z" transform="translate(-6420.99 -6455)"/><ellipse class="cls-2" cx="252.21" cy="376.15" rx="36.23" ry="27.1"/><path class="cls-4" d="M6741.86,7048.5l-62,84,116.63,35.29,65.19-77.07s-82.26,70-93.53,47.48,16.44-89.7,16.44-89.7h-42.73Z" transform="translate(-6420.99 -6455)"/><path class="cls-5" d="M6978.78,7010.82s114.35,47,110.59,122.09-178.16,18.16-178.16,18.16l-23.68-16.91L7020.2,7131,6941,7020.21Z" transform="translate(-6420.99 -6455)"/><polygon class="cls-6" points="270.16 426.21 236.34 624.38 702.2 568.5 565.44 379.25 270.16 426.21"/><path class="cls-2" d="M6671.43,6996.75s57.81-63.89,57.81-115.55c0-2.15-.19-6-0.19-6l-37.9,6Z" transform="translate(-6420.99 -6455)"/><path class="cls-2" d="M7060.45,6936.68s-82.87-35.18-106.75-81c-1-1.91-7.12-15.11-7.12-15.11l39.85-6.34Z" transform="translate(-6420.99 -6455)"/><path class="cls-2" d="M6635.31,6747.52c0,30.15-42.55,88.49-4.26,111.15,58.12,34.39,7.12,90.27,113.58,90.27,176.6,0,213-9.67,213-85.58,0-9.49,95.56-40.25,44.4-85.4s-5.1-137.45-159.63-137.45C6665.76,6640.51,6635.31,6671.61,6635.31,6747.52Z" transform="translate(-6420.99 -6455)"/><circle class="cls-7" cx="275.95" cy="292.52" r="24.05"/><circle class="cls-7" cx="354.84" cy="292.52" r="24.05"/><path class="cls-8" d="M6721,6747.52s1.15-10,12.42-10,18.37,10,18.37,10" transform="translate(-6420.99 -6455)"/><path class="cls-8" d="M6799.88,6747.52s198.38-109.57,260.37-58.85" transform="translate(-6420.99 -6455)"/><ellipse class="cls-9" cx="314.3" cy="353.89" rx="100.49" ry="54.47"/><ellipse class="cls-10" cx="405.67" cy="447.15" rx="18.79" ry="2.48"/><path class="cls-8" d="M6706.7,6676.19s75.55-97.62,139.42-37.19" transform="translate(-6420.99 -6455)"/><path class="cls-8" d="M6706.7,6653.65s75.55-97.62,139.42-37.19" transform="translate(-6420.99 -6455)"/><polygon class="cls-11" points="306.51 219.87 111.62 116.79 80.21 219.87 306.51 254.24 306.51 219.87"/><polygon class="cls-11" points="378.51 217.06 613.27 75.56 599.03 233.62 378.51 251.42 378.51 217.06"/><ellipse class="cls-12" cx="6846" cy="7109.21" rx="37.57" ry="17.84" transform="translate(-9444.27 577.75) rotate(-45.64)"/><ellipse class="cls-12" cx="6908.06" cy="7152.03" rx="17.84" ry="37.57" transform="translate(-9279.44 2564.66) rotate(-56.82)"/><rect class="cls-13" width="850" height="850"/></svg>