<svg id="Layer_1" data-name="Layer 1" xmlns="http://www.w3.org/2000/svg" xmlns:xlink="http://www.w3.org/1999/xlink" viewBox="0 0 3400 850" preserveAspectRatio="none"><defs><style>.cls-1,.cls-10,.cls-11,.cls-12,.cls-14,.cls-15,.cls-16,.cls-17,.cls-18,.cls-19,.cls-2,.cls-3,.cls-4,.cls-5,.cls-6,.cls-7,.cls-8,.cls-9{stroke:#000;stroke-miterlimit:10;}.cls-1,.cls-11,.cls-14,.cls-16,.cls-18,.cls-3,.cls-4{stroke-width:7px;}.cls-1{fill:url(#radial-gradient);}.cls-2,.cls-3{fill:#00bc78;}.cls-10,.cls-12,.cls-15,.cls-17,.cls-19,.cls-2,.cls-5,.cls-6,.cls-7,.cls-8,.cls-9{stroke-width:7.18px;}.cls-4,.cls-5{fill:#fff;}.cls-6{fill:#d5ff8d;}.cls-7{fill:#29abe2;}.cls-13,.cls-8{fill:none;}.cls-9{fill:url(#radial-gradient-2);}.cls-10{fill:#afafaf;}.cls-11{fill:#d3be00;}.cls-12{fill:#c6c6c6;}.cls-14{fill:url(#radial-gradient-3);}.cls-15{fill:url(#radial-gradient-4);}.cls-16{fill:url(#radial-gradient-5);}.cls-17{fill:url(#radial-gradient-6);}.cls-18{fill:url(#radial-gradient-7);}.cls-19{fill:url(#radial-gradient-8);}</style><radialGradient id="radial-gradient" cx="6873.8" cy="6103.58" r="407.11" gradientTransform="translate(-6420.99 -1049.04) scale(1 0.28)" gradientUnits="userSpaceOnUse"><stop offset="0" stop-color="#7effff"/><stop offset="0.03" stop-color="#81fffa"/><stop offset="0.06" stop-color="#8bffeb"/><stop offset="0.1" stop-color="#9affd3"/><stop offset="0.13" stop-color="#b0ffb2"/><stop offset="0.17" stop-color="#cdff86"/><stop offset="0.21" stop-color="#eeff52"/><stop offset="0.23" stop-color="#ffff39"/><stop offset="0.43" stop-color="#ff0039"/><stop offset="0.59" stop-color="#000039"/><stop offset="0.74" stop-color="blue"/><stop offset="0.91" stop-color="#bff"/></radialGradient><radialGradient id="radial-gradient-2" cx="6735.29" cy="5797.5" r="104.66" gradientTransform="translate(-6420.99 -2486.89) scale(1 0.49)" gradientUnits="userSpaceOnUse"><stop offset="0" stop-color="#7e78ff"/><stop offset="0.12" stop-color="#8177fa"/><stop offset="0.26" stop-color="#8b76eb"/><stop offset="0.42" stop-color="#9a73d3"/><stop offset="0.58" stop-color="#b06fb2"/><stop offset="0.75" stop-color="#cd6b86"/><stop offset="0.92" stop-color="#ee6552"/><stop offset="1" stop-color="#ff6239"/></radialGradient><radialGradient id="radial-gradient-3" cx="7723.8" cy="6103.58" r="407.11" xlink:href="#radial-gradient"/><radialGradient id="radial-gradient-4" cx="7585.29" cy="5797.5" r="104.66" xlink:href="#radial-gradient-2"/><radialGradient id="radial-gradient-5" cx="8573.8" cy="6103.58" r="407.11" xlink:href="#radial-gradient"/><radialGradient id="radial-gradient-6" cx="8500.29" cy="5795.5" r="104.66" gradientTransform="matrix(-1, 0, 0, 0.49, 10670.99, -2487.91)" xlink:href="#radial-gradient-2"/><radialGradient id="radial-gradient-7" cx="9423.8" cy="6103.58" r="407.11" xlink:href="#radial-gradient"/><radialGradient id="radial-gradient-8" cx="7650.29" cy="5795.5" r="104.66" gradientTransform="matrix(-1, 0, 0, 0.49, 10670.99, -2487.91)" xlink:href="#radial-gradient-2"/></defs><title>staystill-coach-talk</title><ellipse class="cls-1" cx="452.82" cy="659.96" rx="372.6" ry="124.96"/><path class="cls-2" d="M6959.33,5857.34l138.06-13.08-171.84-82.53,42.69-1.39s227.09,88.56,200,115.66-185.44,67.28-185.44,67.28Z" transform="translate(-6420.99 -5443.61)"/><ellipse class="cls-2" cx="6946.82" cy="5742.56" rx="27.48" ry="30.99" transform="translate(-8336.07 1942.73) rotate(-50.09)"/><path class="cls-3" d="M6667.33,5917.67c-22.54,4.38-46.22-18,6.46-83.92a6.2,6.2,0,0,0,1.17-2.33l1-4a6.17,6.17,0,0,0-10.81-5.38c-26.47,33.24-72.39,96.54-62.34,124.15,16.87,46.33,39.21,30.16,42.27,27.65a6.42,6.42,0,0,1,.82-0.58l39.74-9.94C6708.29,5947.18,6691.33,5913,6667.33,5917.67Z" transform="translate(-6420.99 -5443.61)"/><ellipse class="cls-2" cx="252.21" cy="376.15" rx="36.23" ry="27.1"/><path class="cls-4" d="M6741.86,6037.5l-62,83.81,116.63,35.19,65.19-77.12s-82.26,70.19-93.53,47.65,16.44-89.54,16.44-89.54h-42.73Z" transform="translate(-6420.99 -5443.61)"/><path class="cls-5" d="M6978.78,5999.43s114.35,47,110.59,122.09-178.16,18.16-178.16,18.16l-23.68-16.91,132.68-3.14L6941,6008.82Z" transform="translate(-6420.99 -5443.61)"/><polygon class="cls-6" points="270.16 426.21 236.34 624.38 702.2 568.5 565.44 379.25 270.16 426.21"/><path class="cls-2" d="M6671.43,5985.37s57.81-63.89,57.81-115.55c0-2.15-.19-6-0.19-6l-37.9,6Z" transform="translate(-6420.99 -5443.61)"/><path class="cls-2" d="M7060.45,5925.29s-82.87-35.18-106.75-81c-1-1.91-7.12-15.11-7.12-15.11l39.85-6.34Z" transform="translate(-6420.99 -5443.61)"/><path class="cls-2" d="M6635.31,5736.13c0,30.15-42.55,88.49-4.26,111.15,58.12,34.39,7.12,90.27,113.58,90.27,176.6,0,213-9.67,213-85.58,0-9.49,95.56-40.25,44.4-85.4s-5.1-137.45-159.63-137.45C6665.76,5629.13,6635.31,5660.22,6635.31,5736.13Z" transform="translate(-6420.99 -5443.61)"/><circle class="cls-7" cx="275.95" cy="292.52" r="24.05"/><circle class="cls-7" cx="354.84" cy="292.52" r="24.05"/><path class="cls-8" d="M6721,5736.13s1.15-10,12.42-10,18.37,10,18.37,10" transform="translate(-6420.99 -5443.61)"/><path class="cls-8" d="M6799.88,5736.13s198.38-109.57,260.37-58.85" transform="translate(-6420.99 -5443.61)"/><ellipse class="cls-9" cx="314.3" cy="353.89" rx="100.49" ry="54.47"/><circle class="cls-10" cx="405.67" cy="430.85" r="18.78"/><path class="cls-8" d="M6706.7,5664.8s75.55-97.62,139.42-37.19" transform="translate(-6420.99 -5443.61)"/><path class="cls-8" d="M6706.7,5642.26s75.55-97.62,139.42-37.19" transform="translate(-6420.99 -5443.61)"/><polygon class="cls-11" points="306.51 219.87 111.62 116.79 80.21 219.87 306.51 254.24 306.51 219.87"/><polygon class="cls-11" points="378.51 217.06 613.27 75.56 599.03 233.62 378.51 251.42 378.51 217.06"/><ellipse class="cls-12" cx="6846" cy="6097.82" rx="37.57" ry="17.84" transform="translate(-8721.21 1284.92) rotate(-45.64)"/><ellipse class="cls-12" cx="6908.06" cy="6140.64" rx="17.84" ry="37.57" transform="translate(-8432.95 3118.16) rotate(-56.82)"/><rect class="cls-13" width="850" height="850"/><ellipse class="cls-14" cx="1302.82" cy="659.96" rx="372.6" ry="124.96"/><path class="cls-2" d="M7809.33,5857.34l138.06-13.08-171.84-82.53,42.69-1.39s227.09,88.56,200,115.66-185.44,67.28-185.44,67.28Z" transform="translate(-6420.99 -5443.61)"/><ellipse class="cls-2" cx="7796.82" cy="5742.56" rx="27.48" ry="30.99" transform="translate(-8031.45 2594.7) rotate(-50.09)"/><path class="cls-3" d="M7517.33,5917.67c-22.54,4.38-46.22-18,6.46-83.92a6.2,6.2,0,0,0,1.17-2.33l1-4a6.17,6.17,0,0,0-10.81-5.38c-26.47,33.24-72.39,96.54-62.34,124.15,16.87,46.33,39.21,30.16,42.27,27.65a6.42,6.42,0,0,1,.82-0.58l39.74-9.94C7558.29,5947.18,7541.33,5913,7517.33,5917.67Z" transform="translate(-6420.99 -5443.61)"/><ellipse class="cls-2" cx="1102.21" cy="376.15" rx="36.23" ry="27.1"/><path class="cls-4" d="M7591.86,6037.5l-62,83.81,116.63,35.19,65.19-77.12s-82.26,70.19-93.53,47.65,16.44-89.54,16.44-89.54h-42.73Z" transform="translate(-6420.99 -5443.61)"/><path class="cls-5" d="M7828.78,5999.43s114.35,47,110.59,122.09-178.16,18.16-178.16,18.16l-23.68-16.91,132.68-3.14L7791,6008.82Z" transform="translate(-6420.99 -5443.61)"/><polygon class="cls-6" points="1120.16 426.21 1086.35 624.38 1552.2 568.5 1415.43 379.25 1120.16 426.21"/><path class="cls-2" d="M7521.43,5985.37s57.81-63.89,57.81-115.55c0-2.15-.19-6-0.19-6l-37.9,6Z" transform="translate(-6420.99 -5443.61)"/><path class="cls-2" d="M7910.45,5925.29s-82.87-35.18-106.75-81c-1-1.91-7.12-15.11-7.12-15.11l39.85-6.34Z" transform="translate(-6420.99 -5443.61)"/><path class="cls-2" d="M7485.31,5736.13c0,30.15-42.55,88.49-4.26,111.15,58.12,34.39,7.12,90.27,113.58,90.27,176.6,0,213-9.67,213-85.58,0-9.49,95.56-40.25,44.4-85.4s-5.1-137.45-159.63-137.45C7515.76,5629.13,7485.31,5660.22,7485.31,5736.13Z" transform="translate(-6420.99 -5443.61)"/><circle class="cls-7" cx="1125.95" cy="292.52" r="24.05"/><circle class="cls-7" cx="1204.84" cy="292.52" r="24.05"/><path class="cls-8" d="M7571,5736.13s1.15-10,12.42-10,18.37,10,18.37,10" transform="translate(-6420.99 -5443.61)"/><path class="cls-8" d="M7649.88,5736.13s198.38-109.57,260.37-58.85" transform="translate(-6420.99 -5443.61)"/><ellipse class="cls-15" cx="1164.3" cy="353.89" rx="100.49" ry="54.47"/><path class="cls-10" d="M7758,5846.85c0,10.37-27.84,46.39-53.57,46.39s-46.57-8.41-46.57-18.78,20.85-18.79,46.57-18.79S7758,5836.48,7758,5846.85Z" transform="translate(-6420.99 -5443.61)"/><path class="cls-8" d="M7556.7,5664.8s75.55-97.62,139.42-37.19" transform="translate(-6420.99 -5443.61)"/><path class="cls-8" d="M7556.7,5642.26s75.55-97.62,139.42-37.19" transform="translate(-6420.99 -5443.61)"/><polygon class="cls-11" points="1124.66 223.51 904.65 209.3 918.21 316.2 1138.73 254.86 1124.66 223.51"/><polygon class="cls-11" points="1226.47 205.97 1494.49 148.51 1429.62 293.35 1215.3 238.47 1226.47 205.97"/><ellipse class="cls-12" cx="7696" cy="6097.82" rx="37.57" ry="17.84" transform="translate(-7305.51 -4119.3) rotate(-9.3)"/><ellipse class="cls-12" cx="7758.05" cy="6140.64" rx="17.84" ry="37.57" transform="translate(-8552.35 1004.19) rotate(-40.14)"/><rect class="cls-13" x="850" width="850" height="850"/><ellipse class="cls-16" cx="2152.82" cy="659.96" rx="372.6" ry="124.96"/><path class="cls-2" d="M8659.33,5857.34l138.06-13.08-171.84-82.53,42.69-1.39s227.09,88.56,200,115.66-185.44,67.28-185.44,67.28Z" transform="translate(-6420.99 -5443.61)"/><ellipse class="cls-2" cx="8646.82" cy="5742.56" rx="27.48" ry="30.99" transform="translate(-7726.83 3246.67) rotate(-50.09)"/><path class="cls-3" d="M8367.33,5917.67c-22.54,4.38-46.22-18,6.46-83.92a6.2,6.2,0,0,0,1.17-2.33l1-4a6.17,6.17,0,0,0-10.81-5.38c-26.47,33.24-72.39,96.54-62.34,124.15,16.87,46.33,39.21,30.16,42.27,27.65a6.42,6.42,0,0,1,.82-0.58l39.74-9.94C8408.29,5947.18,8391.33,5913,8367.33,5917.67Z" transform="translate(-6420.99 -5443.61)"/><ellipse class="cls-2" cx="1952.21" cy="376.15" rx="36.23" ry="27.1"/><path class="cls-4" d="M8441.86,6037.5l-62,83.81,116.63,35.19,65.19-77.12s-82.26,70.19-93.53,47.65,16.44-89.54,16.44-89.54h-42.73Z" transform="translate(-6420.99 -5443.61)"/><path class="cls-5" d="M8678.78,5999.43s114.35,47,110.59,122.09-178.16,18.16-178.16,18.16l-23.68-16.91,132.68-3.14L8641,6008.82Z" transform="translate(-6420.99 -5443.61)"/><polygon class="cls-6" points="1970.16 426.21 1936.35 624.38 2402.2 568.5 2265.43 379.25 1970.16 426.21"/><path class="cls-2" d="M8371.43,5985.37s57.81-63.89,57.81-115.55c0-2.15-.19-6-0.19-6l-37.9,6Z" transform="translate(-6420.99 -5443.61)"/><path class="cls-2" d="M8760.45,5925.29s-82.87-35.18-106.75-81c-1-1.91-7.12-15.11-7.12-15.11l39.85-6.34Z" transform="translate(-6420.99 -5443.61)"/><path class="cls-2" d="M8691.66,5734.13c0,30.15,42.55,88.49,4.26,111.15-58.12,34.39-7.12,90.27-113.58,90.27-176.6,0-213-9.67-213-85.58,0-9.49-95.56-40.25-44.4-85.4s5.1-137.45,159.63-137.45C8661.22,5627.13,8691.66,5658.22,8691.66,5734.13Z" transform="translate(-6420.99 -5443.61)"/><circle class="cls-7" cx="2209.05" cy="290.52" r="24.05"/><circle class="cls-7" cx="2130.16" cy="290.52" r="24.05"/><path class="cls-8" d="M8606,5734.13s-1.15-10-12.42-10-18.37,10-18.37,10" transform="translate(-6420.99 -5443.61)"/><path class="cls-8" d="M8527.09,5734.13s-198.38-109.57-260.37-58.85" transform="translate(-6420.99 -5443.61)"/><ellipse class="cls-17" cx="2170.7" cy="351.89" rx="100.49" ry="54.47"/><circle class="cls-10" cx="2079.33" cy="428.85" r="18.78"/><path class="cls-8" d="M8620.28,5662.8s-75.55-97.62-139.42-37.19" transform="translate(-6420.99 -5443.61)"/><path class="cls-8" d="M8620.28,5640.26s-75.55-97.62-139.42-37.19" transform="translate(-6420.99 -5443.61)"/><polygon class="cls-11" points="2178.51 217.87 2373.39 114.79 2404.81 217.87 2178.51 252.24 2178.51 217.87"/><polygon class="cls-11" points="2106.51 215.06 1875.99 120.76 1885.99 231.62 2106.51 249.42 2106.51 215.06"/><ellipse class="cls-12" cx="8546" cy="6097.82" rx="37.57" ry="17.84" transform="translate(-8194.48 -1275.98) rotate(-24.91)"/><ellipse class="cls-12" cx="8599.05" cy="6140.64" rx="17.84" ry="37.57" transform="translate(-8368.87 54.2) rotate(-32.04)"/><rect class="cls-13" x="8120.99" y="5443.61" width="850" height="850" transform="translate(10670.99 6293.61) rotate(-180)"/><ellipse class="cls-18" cx="3002.82" cy="659.96" rx="372.6" ry="124.96"/><path class="cls-2" d="M9509.33,5857.34l138.06-13.08-171.84-82.53,42.69-1.39s227.09,88.56,200,115.66-185.44,67.28-185.44,67.28Z" transform="translate(-6420.99 -5443.61)"/><ellipse class="cls-2" cx="9496.82" cy="5742.56" rx="27.48" ry="30.99" transform="translate(-7422.21 3898.63) rotate(-50.09)"/><path class="cls-3" d="M9217.33,5917.67c-22.54,4.38-46.22-18,6.46-83.92a6.2,6.2,0,0,0,1.17-2.33l1-4a6.17,6.17,0,0,0-10.81-5.38c-26.47,33.24-72.39,96.54-62.34,124.15,16.87,46.33,39.21,30.16,42.27,27.65a6.42,6.42,0,0,1,.82-0.58l39.74-9.94C9258.29,5947.18,9241.33,5913,9217.33,5917.67Z" transform="translate(-6420.99 -5443.61)"/><ellipse class="cls-2" cx="2802.21" cy="376.15" rx="36.23" ry="27.1"/><path class="cls-4" d="M9291.86,6037.5l-62,83.81,116.63,35.19,65.19-77.12s-82.26,70.19-93.53,47.65,16.44-89.54,16.44-89.54h-42.73Z" transform="translate(-6420.99 -5443.61)"/><path class="cls-5" d="M9528.78,5999.43s114.35,47,110.59,122.09-178.16,18.16-178.16,18.16l-23.68-16.91,132.68-3.14L9491,6008.82Z" transform="translate(-6420.99 -5443.61)"/><polygon class="cls-6" points="2820.16 426.21 2786.34 624.38 3252.2 568.5 3115.43 379.25 2820.16 426.21"/><path class="cls-2" d="M9221.43,5985.37s57.81-63.89,57.81-115.55c0-2.15-.19-6-0.19-6l-37.9,6Z" transform="translate(-6420.99 -5443.61)"/><path class="cls-2" d="M9610.45,5925.29s-82.87-35.18-106.75-81c-1-1.91-7.12-15.11-7.12-15.11l39.85-6.34Z" transform="translate(-6420.99 -5443.61)"/><ellipse class="cls-12" cx="9397" cy="6091.82" rx="17.84" ry="37.57" transform="translate(-5531.02 7931.35) rotate(-73.52)"/><ellipse class="cls-12" cx="9458.05" cy="6140.64" rx="17.84" ry="37.57" transform="translate(-7311.65 5176.56) rotate(-56.4)"/><rect class="cls-13" x="8970.99" y="5443.61" width="850" height="850" transform="translate(12370.99 6293.61) rotate(-180)"/><path class="cls-2" d="M9541.66,5734.13c0,30.15,42.55,88.49,4.26,111.15-58.12,34.39-7.12,90.27-113.58,90.27-176.6,0-213-9.67-213-85.58,0-9.49-95.56-40.25-44.4-85.4s5.1-137.45,159.63-137.45C9511.22,5627.13,9541.66,5658.22,9541.66,5734.13Z" transform="translate(-6420.99 -5443.61)"/><circle class="cls-7" cx="3059.05" cy="290.52" r="24.05"/><circle class="cls-7" cx="2980.16" cy="290.52" r="24.05"/><path class="cls-8" d="M9456,5734.13s-1.15-10-12.42-10-18.37,10-18.37,10" transform="translate(-6420.99 -5443.61)"/><path class="cls-8" d="M9377.09,5734.13s-198.38-109.57-260.37-58.85" transform="translate(-6420.99 -5443.61)"/><ellipse class="cls-19" cx="3020.7" cy="351.89" rx="100.49" ry="54.47"/><path class="cls-10" d="M9292,5872.46c2.92,10,47.94,18.78,58.32,18.78a18.78,18.78,0,1,0,0-37.57C9339.94,5853.68,9279.24,5829,9292,5872.46Z" transform="translate(-6420.99 -5443.61)"/><path class="cls-8" d="M9470.28,5662.8s-75.55-97.62-139.42-37.19" transform="translate(-6420.99 -5443.61)"/><path class="cls-8" d="M9470.28,5640.26s-75.55-97.62-139.42-37.19" transform="translate(-6420.99 -5443.61)"/><polygon class="cls-11" points="3046.44 205.15 3261.87 158.32 3264.38 266.06 3037.19 238.25 3046.44 205.15"/><polygon class="cls-11" points="2927.82 208.96 2678.97 198.91 2726.16 299.72 2939.54 241.26 2927.82 208.96"/></svg>