<svg id="Layer_1" data-name="Layer 1" xmlns="http://www.w3.org/2000/svg" xmlns:xlink="http://www.w3.org/1999/xlink" viewBox="0 0 1538.55 2225.38" preserveAspectRatio="none"><defs><style>.cls-1,.cls-2,.cls-3,.cls-4,.cls-5,.cls-6,.cls-7,.cls-8,.cls-9{stroke:blue;stroke-miterlimit:10;stroke-width:13px;}.cls-1{fill:url(#radial-gradient);}.cls-2{fill:url(#radial-gradient-2);}.cls-3{fill:url(#radial-gradient-3);}.cls-4{fill:url(#radial-gradient-4);}.cls-5{fill:url(#radial-gradient-5);}.cls-6{fill:url(#radial-gradient-6);}.cls-7{fill:url(#radial-gradient-7);}.cls-8{fill:url(#radial-gradient-8);}.cls-9{fill:url(#radial-gradient-9);}</style><radialGradient id="radial-gradient" cx="8734.87" cy="7695.98" r="274.75" gradientUnits="userSpaceOnUse"><stop offset="0" stop-color="#ffa2e1"/><stop offset="0.2" stop-color="#f7afe5"/><stop offset="0.57" stop-color="#e3d0f0"/><stop offset="1" stop-color="#c6ffff"/></radialGradient><radialGradient id="radial-gradient-2" cx="8089.29" cy="8836.35" r="381.7" xlink:href="#radial-gradient"/><radialGradient id="radial-gradient-3" cx="8555.27" cy="9217.44" r="285.67" xlink:href="#radial-gradient"/><radialGradient id="radial-gradient-4" cx="8870.46" cy="8756.91" r="221.9" xlink:href="#radial-gradient"/><radialGradient id="radial-gradient-5" cx="8367.89" cy="8161.66" r="288.92" xlink:href="#radial-gradient"/><radialGradient id="radial-gradient-6" cx="7918.3" cy="7594.42" r="254.23" xlink:href="#radial-gradient"/><radialGradient id="radial-gradient-7" cx="7874.17" cy="8181.72" r="212.52" xlink:href="#radial-gradient"/><radialGradient id="radial-gradient-8" cx="7722.57" cy="8484.18" r="139.33" xlink:href="#radial-gradient"/><radialGradient id="radial-gradient-9" cx="7878.95" cy="9398.5" r="203.03" xlink:href="#radial-gradient"/></defs><title>staystill-background</title><path class="cls-1" d="M8928,7463c-58.52-21-94,16.45-396,204-79.54,49.39-102.23,62.41-104,88-5.74,83.2,214.89,226.05,400,164,113.43-38,230-158.51,212-292C9032.28,7569.76,8996.8,7487.69,8928,7463Z" transform="translate(-7561.14 -7393.99)"/><path class="cls-2" d="M8357.94,8674.45c-78.15,31.06-144.3-117.07-262.85-111.62-99.8,4.59-106.81,112.07-238.8,125.35-37.08,3.73-77.23-.65-143.82,17.7-42.6,11.74-85.31,23.5-88.32,45.58-5.24,38.39,117.88,47.19,168,145.74,27.41,53.88,2.43,74.49,32.44,122.61,40.87,65.52,138.19,109.05,204.08,82.09,61.32-25.09,54-94.27,106.41-106,68-15.23,121,92.31,171.42,73.86,49.26-18,23.83-129.93,83.64-158.33,48.9-23.22,112.91,29.29,124.15,13.31,14.29-20.32-93.68-98.86-74.88-143.93,14.8-35.47,92.68-13.25,111.2-50.44,22.16-44.48-53.54-148-109.2-140.73C8400.47,8595,8404.74,8655.85,8357.94,8674.45Z" transform="translate(-7561.14 -7393.99)"/><path class="cls-3" d="M8676,9135c-94.75-23.7-117.12-104.78-168-92-57,14.31-36.19,117.86-116,176-82.86,60.36-191.78,11.74-200,40-7.3,25.09,71.15,88.7,160,96,70,5.75,83.8-28.62,152-20,85.56,10.81,107.56,70.42,152,56,53.52-17.36,37.57-109,100-136,50.45-21.85,90.28,25.24,128,0,37.87-25.34,47.79-106.3,16-136C8858.93,9080.63,8785.13,9162.3,8676,9135Z" transform="translate(-7561.14 -7393.99)"/><path class="cls-4" d="M8768,8687c-29.5,84.91-114.41,85.61-120,144-5.34,55.83,67,110.56,120,132,103.12,41.71,199.42-15.73,220-28,38.66-23.06,115.68-81.84,104-132-9.18-39.43-62.71-28.69-108-84-53.23-65-18.08-127.21-68-164-37.11-27.35-99.78-24.84-128,4C8758.28,8589.37,8789.18,8626,8768,8687Z" transform="translate(-7561.14 -7393.99)"/><path class="cls-5" d="M8304,7915c-154.59,5.93-247.46,9.5-260,48-12,36.85,63,64.39,164,180,123,140.8,108.29,210.54,192,248,111.69,50,276.8-12,292-84,11.31-53.58-70.44-64.94-164-220-47.84-79.29-63.78-138.17-128-164C8381.78,7915.67,8363.9,7912.7,8304,7915Z" transform="translate(-7561.14 -7393.99)"/><path class="cls-6" d="M7992,7451c-256.83,150.93-385.05,226.91-376,252,12.29,34.07,110.51-13.3,296,28,136.2,30.32,180.67,77.55,236,48,84.48-45.12,73-204.4,72-216-2.49-29.76-10.77-128.94-72-156C8102.62,7386.95,8050.72,7416.49,7992,7451Z" transform="translate(-7561.14 -7393.99)"/><path class="cls-7" d="M7884,7995c-46.63-48.86-217.92,1.58-228,68-7.5,49.45,81.13,63.12,236,216,74,73.05,100.45,116,136,108,45.34-10.22,82.33-98.13,56-148-32.64-61.81-140.78-24-184-92C7864,8090.35,7917.16,8029.75,7884,7995Z" transform="translate(-7561.14 -7393.99)"/><path class="cls-8" d="M7576,8427c34.88-75,178.12-86.83,252-24,4,3.41,59.19,51.6,48,104-16.32,76.4-168.16,135.55-252,72C7579.22,8545.06,7553.34,8475.73,7576,8427Z" transform="translate(-7561.14 -7393.99)"/><path class="cls-9" d="M7688,9223c4-28.23,215.15-86.63,324,36,57.18,64.42,79.79,171.66,32,252-75.08,126.2-283.19,117.61-308,68-26.12-52.23,151.88-148,124-244C7836.2,9253.07,7684.53,9247.47,7688,9223Z" transform="translate(-7561.14 -7393.99)"/></svg>