<svg id="Layer_1" data-name="Layer 1" xmlns="http://www.w3.org/2000/svg" xmlns:xlink="http://www.w3.org/1999/xlink" viewBox="0 0 1314.64 1314.64"><defs><style>.cls-1,.cls-2{stroke:blue;stroke-miterlimit:10;}.cls-1{stroke-width:22px;fill:url(#radial-gradient);}.cls-2{fill:none;stroke-width:15px;}</style><radialGradient id="radial-gradient" cx="657.32" cy="657.32" r="646.32" gradientUnits="userSpaceOnUse"><stop offset="0" stop-color="#fff"/><stop offset="0.03" stop-color="#fcfcff"/><stop offset="0.46" stop-color="#d7d0ff"/><stop offset="0.8" stop-color="#c0b4ff"/><stop offset="1" stop-color="#b7aaff"/></radialGradient></defs><title>staystill-clock</title><circle class="cls-1" cx="657.32" cy="657.32" r="646.32"/><path class="cls-2" d="M8138,7605.74l-2.45-93.27" transform="translate(-7587.07 -7452)"/><path class="cls-2" d="M8182.16,7519.83c48,3.56,88.18,11.11,90.82,27,3.61,21.76-65.32,46.74-61.36,58.91,2.15,6.61,25.29,7.92,95.73-4.91" transform="translate(-7587.07 -7452)"/><path class="cls-2" d="M8653.43,7757.92c28.65-.27,62.23,2.76,68.73,19.64,10.94,28.43-62.7,76.07-54,90.82,3.66,6.21,22.06,6.8,85.91-17.18" transform="translate(-7587.07 -7452)"/><path class="cls-2" d="M8756.52,8030.37c34.57,0.9,71.15,4.59,73.64,17.18,3.36,17.07-57.79,41-54,51.55,3.73,10.4,64.49-8.66,71.18,4.91,4.82,9.79-20.37,32.72-51.55,56.45" transform="translate(-7587.07 -7452)"/><path class="cls-2" d="M8733.2,8286.87c-31.23,25.12-35.7,60.82-22.09,76.09,12.28,13.77,41.54,13.48,56.45,0,24.37-22,9.54-78.45,2.45-78.54-5.55-.07-12.78,34.28-22.09,149.73" transform="translate(-7587.07 -7452)"/><path class="cls-2" d="M8592.07,8469.73c-41.84-16.66-83.53-5.18-100.64,22.09-13.27,21.16-13.23,54.22,0,61.36,23,12.41,71.36-61.1,93.27-49.09,13.52,7.41,13.1,45.27-4.91,68.73-19.05,24.81-57.53,33.16-93.27,17.18" transform="translate(-7587.07 -7452)"/><path class="cls-2" d="M8265.62,8590c-55.51,22.65-80.74,65.89-71.18,90.82,9.85,25.68,60.91,43.08,85.91,22.09,18.36-15.41,23-51.8,7.36-63.82-10.76-8.28-29.84-4-41.73,4.91-16.27,12.22-17.11,31.71-17.18,34.36" transform="translate(-7587.07 -7452)"/><path class="cls-2" d="M7953.89,8511.46c38.57-6.23,74.48-.83,83.45,17.18,10.91,21.92-15.15,68.36-76.09,100.64" transform="translate(-7587.07 -7452)"/><path class="cls-2" d="M7799.26,8275.83c-29.68-2.17-55.31,34.7-49.09,51.55,6.51,17.66,45,5.08,73.64,34.36,10.5,10.73,23.11,30.56,17.18,44.18-11.47,26.39-88.89,21.34-93.27,4.91-5.12-19.21,92.79-41.54,93.27-88.36C7841.2,8301.55,7822,8277.49,7799.26,8275.83Z" transform="translate(-7587.07 -7452)"/><path class="cls-2" d="M7735.44,8035.28c-44.15,5.3-68.13,37.18-63.82,56.45,4.95,22.09,42.24,39.73,63.82,29.45,30.67-14.61,23.76-83.43,29.45-83.45,3.41,0,7.51,24.66,12.27,100.64" transform="translate(-7587.07 -7452)"/><path class="cls-2" d="M7762.44,7787.38l-34.36,88.36" transform="translate(-7587.07 -7452)"/><path class="cls-2" d="M7831.16,7799.65a63.94,63.94,0,0,0-25.74,3.71c-2.94,1.08-35.75,13.66-38.08,40.48-2.38,27.4,29.19,45.16,31.91,46.64,30.38,16.53,75.71,8.63,85.91-14.73,4.28-9.8,3.13-24.05-2.51-34.9a38.2,38.2,0,0,0-12.21-14.19,39,39,0,0,0-17.82-6.48,48.91,48.91,0,0,0-23.43,2.86c-0.37.13-1.49,0.54-2.93,1.16-7.1,3-17.81,7.64-22.09,17.18a25.75,25.75,0,0,0,2.45,24.55c7.26,10.25,22.82,14,36.82,7.36" transform="translate(-7587.07 -7452)"/><path class="cls-2" d="M7895,7632.74q23.52-17.74,31.91-12.27,14.74,9.61-17.18,90.82" transform="translate(-7587.07 -7452)"/><path class="cls-2" d="M7956.35,7618q24.81-13.66,31.91-7.36,13.46,11.95-36.82,95.73" transform="translate(-7587.07 -7452)"/><path class="cls-2" d="M8481.61,7583.65l4.91,90.82" transform="translate(-7587.07 -7452)"/><path class="cls-2" d="M8454.61,7672l61.36-2.45" transform="translate(-7587.07 -7452)"/><path class="cls-2" d="M8452.16,7593.47c3.21-3.63,40.24-45,54-36.82,2,1.16,9,6.59,2.45,36.82" transform="translate(-7587.07 -7452)"/></svg>