<svg xmlns="http://www.w3.org/2000/svg" viewBox="0 0 132.13 183.19"><defs><style>.cls-1{fill:#fff9ce;}.cls-2{fill:#fbb03b;}.cls-3{fill:#22b573;}</style></defs><title>medit8-egg</title><g id="Layer_2" data-name="Layer 2"><g id="Layer_1-2" data-name="Layer 1"><path class="cls-1" d="M122.37,77.1c-12.64-56-41.21-71.6-55.13-71.6S21.76,21.08,9.12,77.1C-4.82,138.92,18.65,177,63.65,177.69v0C112.65,177,136.32,138.92,122.37,77.1Z"/><path class="cls-2" d="M64.23,183.19l-.08-5.47-.09,5.47c-20.75-.32-37.7-8.09-49-22.46-15.1-19.19-19-49.31-11-84.84,5.72-25.37,16.1-46,30-59.54C44.57,6.11,57,0,67.37,0,77.52,0,89.51,6.16,99.44,16.48,112.57,30.11,122.17,50.1,128,75.89c8,35.68,4.31,64.69-10.82,83.88C105.36,174.76,87.05,182.86,64.23,183.19Zm-.08-5.47h0Zm-.5,0h0ZM67.37,11c-5.56,0-15.6,3.46-25.61,13.23-8.64,8.43-20.33,24.66-27,54.08-7.27,32.23-4.11,59.08,8.9,75.61,9.18,11.66,23.16,18,40.45,18.26,19.36-.3,34.7-6.94,44.38-19.23,6.26-7.94,10.23-18.17,11.81-30.41,1.67-12.92.63-27.8-3.08-44.24h0C104.81,23.09,77,11,67.37,11Z"/><path class="cls-3" d="M34.8,59.57c.36-.37.74-.71,1.1-1.07a2.81,2.81,0,0,0,3.88.91,37.87,37.87,0,0,0,8.41-7,22.32,22.32,0,0,0,4.95-4.11,3.53,3.53,0,0,0,.48-.69c.72-.43,1.45-.83,2.15-1.27,3.31-2.08.42-6.91-3-5.2a27.65,27.65,0,0,0-2.51,1.41,3,3,0,0,0-1.68.26c-.35.18-.68.37-1,.56a3.12,3.12,0,0,0-.76,0C41.3,43.91,35.64,45,33,50.44a3.4,3.4,0,0,0-.14,2.69l-.55.51a2.83,2.83,0,0,0-1.08.82l-.71.85C28.09,58.24,32,62.38,34.8,59.57Z"/><path class="cls-3" d="M60,85.86a58.5,58.5,0,0,0-9.62,3.3c-13.71-1.43-30.37,4.6-37,16-1,1.78.24,4.84,2.6,4.53a111.34,111.34,0,0,0,11.42-2.08,3,3,0,0,0,.38,1.52c-1.7,1.19-3.42,2.43-5.07,3.73h-.06c0,.16-.36.31-.56.47-2.89,2.31.82,6,3.67,4.73a209.13,209.13,0,0,0,30.62-16.7c.75-.35,1.5-.67,2.25-1a2.75,2.75,0,0,0,1.18-3.75,12.07,12.07,0,0,0,.81-1.79,2.6,2.6,0,0,0-.6-2.65c.52-.14,1-.32,1.55-.45C65.32,90.73,63.73,84.92,60,85.86Z"/><path class="cls-3" d="M108.08,120.49a10.63,10.63,0,0,0-4.51-.9,10.1,10.1,0,0,0-2.91.55,31.52,31.52,0,0,0-2.82-3.81,3,3,0,0,0-1.06-.8,111,111,0,0,0-5.18-10.64c-.81-1.43-1.78-3-3.35-3.46-.21,3.66,1.42,7.14,3.09,10.41,1,2,2.07,4,3.2,5.92,0,0,0,0,0,.07a19.09,19.09,0,0,0,.37,6.41c-.12.15-.26.29-.37.45a22.35,22.35,0,0,0-3.86,9.92,18.64,18.64,0,0,0,5.49-.79l6.72,2.62c0,.67,0,1.35,0,2,2.25-1.61,2.58-4.67,2.16-7.5a28.36,28.36,0,0,0,5.28,3.56c2.54,1.29,6.34,1.78,7.61-.76.91-1.81-.16-4-1.3-5.62a23.07,23.07,0,0,0-6.91-6.82c.17-.46.38-.89.51-1.37C109.58,119.42,108.73,119.85,108.08,120.49ZM103,134.4c-.26-1.14-.55-2.28-.85-3.41.54-.37,1.06-.77,1.57-1.2l.05.05A29.2,29.2,0,0,0,103,134.4Z"/><path class="cls-3" d="M53.41,145.94a4,4,0,0,0-.59-1c1.16-2.27-1.45-5.61-4.27-4-.93.53-1.83,1.08-2.72,1.64a2.7,2.7,0,0,0-3.3-.3c.48-2.21-2.24-4.91-4.53-3.34-.75.51-1.44,1.08-2.14,1.63-7.29.39-16.32,7.56-20.43,11.2-2.21,2,.11,6,2.93,5a79.53,79.53,0,0,0,8.25-3.49l-.34.26-.07,0h0l-.61.47c-1.64,1.29-1,3.48.46,4.55-.5.66-.92,1.26-1.26,1.77-1.55,2.33,1,4.94,3.4,4.43,8-1.74,23.37-6.09,27-14.46C55.89,148.67,55.45,146.45,53.41,145.94Z"/><path class="cls-3" d="M73.24,69.42a3.07,3.07,0,0,0,3.81,2.9c9.44-1.44,18-7.57,25-13.77,3.76-3.32,14.61-12.61,12.44-18.85s-11.82-1.53-15.42.54c-6,3.47-11.13,8.53-15.46,14.06C78.9,58.19,72.83,63.57,73.24,69.42ZM81.14,65l.12,0-.19.07Z"/><path class="cls-3" d="M42.24,23.34c.8-.31,1.58-.65,2.36-1a2.64,2.64,0,0,0,1.75,1.86c.09.1.16.21.26.31,6.11,6.49,21-1.27,25.11-8,1-.58,2-1.14,2.9-1.68,3.36-2,.39-7-3-5.2l-1.25.65c-.85.1-2.08.27-3.54.53a34.87,34.87,0,0,0-10-.29,2.47,2.47,0,0,0-3.16-.06c-.47.33-1,.63-1.43.94A37,37,0,0,0,43.7,14.8a2.69,2.69,0,0,0-1.29,1.54q-1.25.73-2.49,1.49C37.14,19.54,38.94,24.62,42.24,23.34Z"/><path class="cls-3" d="M105.89,153.72a8.78,8.78,0,0,0-2.31-.92,3.08,3.08,0,0,0-2.89-3.11,28.13,28.13,0,0,0-25.52,12.42c-2.53,1.68-4.76,3.32-6.46,4.62a3.52,3.52,0,0,0-.85,4.43c-.46.49-.94,1-1.39,1.48-2.09,2.39,0,5.48,2.93,5a65.84,65.84,0,0,0,7.31-1.55,2.92,2.92,0,0,0,1.64.1,52.86,52.86,0,0,0,26.84-15.86,3.32,3.32,0,0,0,.61-1,16.47,16.47,0,0,0,1.17-1.57A3.05,3.05,0,0,0,105.89,153.72Z"/><path class="cls-3" d="M123.81,78.71c.18-1.66-1.53-3-3-3-.76,0-1.51,0-2.26,0a2.8,2.8,0,0,0-3.67-.64c-.67.39-1.28.84-1.91,1.26a33.72,33.72,0,0,0-3.5.9c-1-1.43-2.9-2.1-4.3-.34-.16.2-.31.41-.47.61h0v0q-1,1.32-2,2.66c-.82.47-1.62,1-2.41,1.52a3.09,3.09,0,0,0-1.11,3.89,3.07,3.07,0,0,0,3.49,3.9,2.64,2.64,0,0,0,2,1.79c3.29.57,5.86-.49,8.51-2.08C118.16,87.67,123.27,83.77,123.81,78.71Z"/><path class="cls-3" d="M24.15,83.92a2.87,2.87,0,0,0,2.25.31,5.45,5.45,0,0,0,3.19-2.37,2.37,2.37,0,0,0,.28-2.71q.84-1.7,1.77-3.36a2.9,2.9,0,0,0,.13-.29c3-2.1,0-7.05-3.22-5.07-.81.5-1.58,1-2.37,1.57C26,69.73,22.71,68.34,21,70.17c-.81.85-1.57,1.74-2.3,2.63a31,31,0,0,0-9.41,7,47.29,47.29,0,0,0,6.52-3.14,53,53,0,0,0-6,11.72c-.92,2.53,2.28,4.67,4.43,3.4A52.43,52.43,0,0,0,24.15,83.92Z"/></g></g></svg>