<svg id="Layer_1" data-name="Layer 1" xmlns="http://www.w3.org/2000/svg" xmlns:xlink="http://www.w3.org/1999/xlink" viewBox="0 0 850 850"><defs><style>.cls-1,.cls-10,.cls-11,.cls-13,.cls-2,.cls-3,.cls-4,.cls-5,.cls-6,.cls-7,.cls-8,.cls-9{stroke:#000;stroke-miterlimit:10;}.cls-1,.cls-10,.cls-3,.cls-4{stroke-width:7px;}.cls-1{fill:url(#radial-gradient);}.cls-2,.cls-3{fill:#b3c4bd;}.cls-11,.cls-13,.cls-2,.cls-5,.cls-6,.cls-7,.cls-8,.cls-9{stroke-width:7.18px;}.cls-4,.cls-5{fill:#fff;}.cls-6{fill:#d5ff8d;}.cls-12,.cls-8{fill:none;}.cls-9{fill:url(#radial-gradient-2);}.cls-10{fill:#d3be00;}.cls-11{fill:#c6c6c6;}.cls-13{fill:#afafaf;}</style><radialGradient id="radial-gradient" cx="8900.82" cy="7114.96" r="407.11" gradientTransform="translate(-8448 -1332.23) scale(1 0.28)" gradientUnits="userSpaceOnUse"><stop offset="0" stop-color="#7effff"/><stop offset="0.03" stop-color="#81fffa"/><stop offset="0.06" stop-color="#8bffeb"/><stop offset="0.1" stop-color="#9affd3"/><stop offset="0.13" stop-color="#b0ffb2"/><stop offset="0.17" stop-color="#cdff86"/><stop offset="0.21" stop-color="#eeff52"/><stop offset="0.23" stop-color="#ffff39"/><stop offset="0.43" stop-color="#ff0039"/><stop offset="0.59" stop-color="#000039"/><stop offset="0.74" stop-color="blue"/><stop offset="0.91" stop-color="#bff"/></radialGradient><radialGradient id="radial-gradient-2" cx="8762.3" cy="6808.89" r="104.66" gradientTransform="translate(-8448 -2982.47) scale(1 0.49)" gradientUnits="userSpaceOnUse"><stop offset="0" stop-color="#7e78ff"/><stop offset="0.12" stop-color="#8177fa"/><stop offset="0.26" stop-color="#8b76eb"/><stop offset="0.42" stop-color="#9a73d3"/><stop offset="0.58" stop-color="#b06fb2"/><stop offset="0.75" stop-color="#cd6b86"/><stop offset="0.92" stop-color="#ee6552"/><stop offset="1" stop-color="#ff6239"/></radialGradient></defs><title>staystill-coach-3</title><ellipse class="cls-1" cx="452.82" cy="659.96" rx="372.6" ry="124.96"/><path class="cls-2" d="M8986.34,6868.73l138.06-13.08-171.84-82.53,42.69-1.39s227.09,88.56,200,115.66-185.44,67.28-185.44,67.28Z" transform="translate(-8448 -6455)"/><ellipse class="cls-2" cx="8973.84" cy="6753.95" rx="27.48" ry="30.99" transform="translate(-10412.4 2848.56) rotate(-50.09)"/><path class="cls-3" d="M8694.35,6929.05c-22.54,4.38-46.22-18,6.46-83.92a6.2,6.2,0,0,0,1.17-2.33l1-4a6.17,6.17,0,0,0-10.81-5.38c-26.47,33.24-72.39,96.54-62.34,124.15,16.87,46.33,39.21,30.16,42.27,27.65a6.42,6.42,0,0,1,.82-0.58l39.74-9.94C8735.31,6958.57,8718.35,6924.39,8694.35,6929.05Z" transform="translate(-8448 -6455)"/><ellipse class="cls-2" cx="252.21" cy="376.15" rx="36.23" ry="27.1"/><path class="cls-4" d="M8768.87,7048.5l-62,84,116.63,35.29,65.19-77.07s-82.26,70-93.53,47.48,16.44-89.7,16.44-89.7h-42.73Z" transform="translate(-8448 -6455)"/><path class="cls-5" d="M9005.79,7010.82s114.35,47,110.59,122.09-178.16,18.16-178.16,18.16l-23.68-16.91,132.68-3.14L8968,7020.21Z" transform="translate(-8448 -6455)"/><polygon class="cls-6" points="270.16 426.21 236.34 624.38 702.2 568.5 565.44 379.25 270.16 426.21"/><path class="cls-2" d="M8698.44,6996.75s57.81-63.89,57.81-115.55c0-2.15-.19-6-0.19-6l-37.9,6Z" transform="translate(-8448 -6455)"/><path class="cls-2" d="M9087.46,6936.68s-82.87-35.18-106.75-81c-1-1.91-7.12-15.11-7.12-15.11l39.85-6.34Z" transform="translate(-8448 -6455)"/><path class="cls-2" d="M8662.33,6747.52c0,30.15-42.55,88.49-4.26,111.15,58.12,34.39,7.12,90.27,113.58,90.27,176.6,0,213-9.67,213-85.58,0-9.49,95.56-40.25,44.4-85.4s-5.1-137.45-159.63-137.45C8692.77,6640.51,8662.33,6671.6,8662.33,6747.52Z" transform="translate(-8448 -6455)"/><circle class="cls-7" cx="275.95" cy="292.52" r="24.05"/><circle class="cls-7" cx="354.84" cy="292.52" r="24.05"/><path class="cls-8" d="M8748,6747.52s1.15-10,12.42-10,18.37,10,18.37,10" transform="translate(-8448 -6455)"/><path class="cls-8" d="M8826.9,6747.52s198.38-109.57,260.37-58.85" transform="translate(-8448 -6455)"/><ellipse class="cls-9" cx="314.3" cy="353.89" rx="100.49" ry="54.47"/><path class="cls-8" d="M8733.71,6676.19s75.55-97.62,139.42-37.19" transform="translate(-8448 -6455)"/><path class="cls-8" d="M8733.71,6653.65s75.55-97.62,139.42-37.19" transform="translate(-8448 -6455)"/><polygon class="cls-10" points="306.5 219.87 111.62 116.79 80.2 219.87 306.5 254.24 306.5 219.87"/><polygon class="cls-10" points="378.5 217.06 613.27 75.56 599.02 233.62 378.5 251.42 378.5 217.06"/><ellipse class="cls-11" cx="8873.02" cy="7109.21" rx="37.57" ry="17.84" transform="translate(-10861.57 2026.9) rotate(-45.64)"/><ellipse class="cls-11" cx="8935.07" cy="7152.03" rx="17.84" ry="37.57" transform="translate(-10388.77 4261.17) rotate(-56.82)"/><rect class="cls-12" width="850" height="850"/><path class="cls-13" d="M9010.17,6761c-9.1-1.75-39.9-7.67-60,9-17,14.08-8.92,29.84-28.5,43.5-10.68,7.45-17.12,5.58-25.5,15-9.92,11.15-6,19.48-13.5,27-10.6,10.58-25.22.85-51,3-37.14,3.09-38.64,25.94-72,25.5-21.89-.29-37.76-4-49.5-10.5s-27.53-35.83-49.5-31.5c-7.34,1.45-14.92,7.54-15,13.5-0.14,10.23,22,11,37.5,30,11.37,13.89,4.68,19.78,15,39,12.11,22.56,56.78,219.9,81.5,247s17.16,34.2,31.5,42c31.27,17,65.74-18,90,0,15.12,11.19,8.41,29.71,21,34.5,23.93,9.1,65.79-51.07,72-60,15.87-22.81,27.06-38.9,27-61.5-0.05-19.78-40.67-225-36.5-244,0.5-2.28,6.94-29.89,28.5-39,13.74-5.81,20.3,1.53,28.5-4.5,15.17-11.15,13.91-51.81-7.5-69C9027,6764.24,9019.68,6762.84,9010.17,6761Z" transform="translate(-8448 -6455)"/><ellipse class="cls-13" cx="405.67" cy="447.15" rx="18.79" ry="2.48"/></svg>