<svg id="Layer_1" data-name="Layer 1" xmlns="http://www.w3.org/2000/svg" viewBox="0 0 1080 960" preserveAspectRatio="none"><defs><style>.cls-1{fill:#ff0;}</style></defs><title>object</title><path class="cls-1" d="M401,683h80.16S502.53,363.89,401,683Z"/><path class="cls-1" d="M572,683H481.16S461.89,363.89,572,683Z"/><ellipse cx="464.41" cy="643.11" rx="20.66" ry="39.89"/><ellipse cx="507.16" cy="643.11" rx="20.66" ry="39.89"/><polygon points="489.93 604.05 483.07 562.5 541.85 482.73 548.71 524.28 489.93 604.05"/><polygon points="471.65 602.92 414.97 504.21 423.3 464.91 479.97 563.63 471.65 602.92"/><path class="cls-1" d="M94,330H229S265,34.84,94,330Z"/><path class="cls-1" d="M382,330H229S196.54,34.84,382,330Z"/><ellipse cx="200.79" cy="293.11" rx="34.79" ry="36.89"/><ellipse cx="272.79" cy="293.11" rx="34.79" ry="36.89"/><rect x="225.76" y="187.37" width="123.47" height="27" transform="translate(-63.05 211.63) rotate(-36.7)"/><rect x="158.77" y="126.06" width="27" height="132.1" transform="translate(-85.63 183.81) rotate(-46.27)"/><path class="cls-1" d="M819,438H928.69S957.94,259.63,819,438Z"/><path class="cls-1" d="M1053,438H928.69S902.32,259.63,1053,438Z"/><ellipse cx="905.77" cy="415.7" rx="28.27" ry="22.3"/><ellipse cx="964.27" cy="415.7" rx="28.27" ry="22.3"/><polygon points="939.38 400.11 932.62 364.4 1013.06 319.81 1019.82 355.52 939.38 400.11"/><polygon points="917.16 399.59 839.6 344.41 848.02 309.75 925.59 364.93 917.16 399.59"/></svg>