<svg xmlns="http://www.w3.org/2000/svg" xmlns:xlink="http://www.w3.org/1999/xlink" viewBox="0 0 1080 280" preserveAspectRatio="none"><defs><style>.cls-1{fill:url(#linear-gradient);}.cls-2{fill:url(#linear-gradient-2);}</style><linearGradient id="linear-gradient" x1="362.9" y1="2.33" x2="362.9" y2="317.33" gradientUnits="userSpaceOnUse"><stop offset="0.29" stop-color="red"/><stop offset="1" stop-color="#fff"/></linearGradient><linearGradient id="linear-gradient-2" x1="900.93" y1="30.19" x2="900.93" y2="313.59" xlink:href="#linear-gradient"/></defs><title>sky</title><g id="Layer_2" data-name="Layer 2"><g id="Layer_1-2" data-name="Layer 1"><path class="cls-1" d="M548,194.23c-4,.7-47.39-135.31-44.41-144.25-3.71,11.16-15.18,18.15-1.17,11.62q-29.88,9.46-.75,10.47c-8.32,3-8.8,22.23-2,22.44q-21.55.94.58-.81c-4.46,1.14-13.29,9.26-13.94,11.77,0,.12,6.78,11.78,1.44,17.37-6.39,6.69-19.59,19.29-23.51,22.82-4.57,4.12-4.79,9.45-9.83,11.85-5.63,2.67-41.12,6.64-33.24.05,0,0,27.31,23,28.85,29.35,3.49,14.49-8.94,43.61-22.58,56.15,10.69-9.83-31.7-68.92-34.51-83.53.14,5.8-9.37-21-36.79-25.18q35-2.25-2.16-9.55c39.45,1.32-8.81-29.42-14.65-34.39q12.37,9.62,26.11,18.8c-7.53-4.4-21.55-18.85-25.16-21.74Q351.93,96,364,104.32c-8.08-5.47-15.87-11.23-23.87-16.71a90.82,90.82,0,0,0,23.26,11.75A125.13,125.13,0,0,0,341.4,84c34.36,17,12.92,5.7,0-.34,29.13,9.94,15.19,1.51,1.94-5.17q25.11,7.12,8.14-.89-16.26-8.31,6.09.22c-1.57.58-6.86-7.38-10.86-9,8,3.19,9.22,3.83,7.88,8,.23-.71-9.12,19.36-16.16,30.83-17.49,28.5-39,55.19-58.07,83.59-4.8-19.83,9.56-29.75,8.79-48-.39-9.25-7.4-24.6-8.1-36.41-1.05-17.71-22.89-74.64,1.48-86.33-11.78,5.65-18.25,27-25.15,36.8-2.79,4-.46,17.55,1.3,14.14-1.64,3.16-21.22,18.4-2.34,11.73-14.62,7.67-23.32,13.46-45.6,14.38,29.84,5.17-12.87,55-24.21,80.76-3.32-21.09-13.09-46.4-15.77-60.24-3.06-15.76-4.41-42.78,7.46-46q-31,3.91-.85-4.77-31.3,5.3-1.13-4.57c-19,4.14-7.95-4-9.87-4.8,5.09,2.17-4-13-8.94-3.15q33.28-10.21,1.47-2.81.69-5.84,17.66-6.9c-35.81,8.16-10.46.9,1-2-32,5.68-19.14.46.74-6.52-29,8.68-20.1,4.19-1.66-4.46-37.23,13.53-14.73,4-.76-1.42q-11.52,5.51-26.6,4.76-4.75-8.55,2.29-17.09-6.27,7.07-4.12,14.42,12.1-3.44,19.14-9.53c-21.72,11.54-25.85,8-27.56-6.57.93,14.09,4.7,15.49,18.26,2.83-13.82,11.16-18.53,8.55-23-3.15,4.44,11.67,9,14.24,22.1,2.89-13.06,12.39-17.28,10.64-20.06-2.72,3.12,13.8,7.51,16.57,25.19,4.47-17.35,13.18-20.49,11.64-17.38-3.84q-4.72,8.31,1.76,16,15.1-1.23,24.23-7.7c-22,12-24.14,13.18-2.67-1.45-17.08,13.87-21,16.67,4.33,2.87q-13.2,6.06-20.75,13.9a87.46,87.46,0,0,0,26.67-6.38c-22.12,8.2-35.54,14.15.59,5.38-30.35,8.6-31.06,9.05,0-1.41a247.44,247.44,0,0,0-28.23,12.06,202.57,202.57,0,0,0,27.93-9.88q-15.32,6.92-29,14.57,15.21-6.32,28.69-13.51c-8.7,5.1-19.15,12.55-28.82,17.76q14.71-8.43,28.54-17.19c-8.21,5.86-18.92,16.06-30.41,21.36C156.79,59,170.33,37,175.16,31.81,155,55.06,143.59,85.56,93.6,59.41,90.4,57.29,129.67,80.8,123,84.19a64.3,64.3,0,0,1-24.1-2.47c16.07,5.42,39.15,12.8,7.36,14.07q33.72,3.07,5.55,7.86c7.82.72,12.56,4.93,14.49,8.1-.3-.49-6,8.19-15.59,7.93,8.79,4,7.51,19.6,7.13,22.86.17-1.49-5.83,10-18.29,9.16q24.54,7.36.19,12.68c26.74,3.26,2.06,54-.71,65.75C93.14,214.2,40.85,119,71.71,112c-16.36-1.5-7.44-13.31,1.85-16.25-28.46,3.31-13.06-4.14.1-9.35C43,92.07,57.25,84.2,72,77.59c-31.47,8.67-16.66,1-.75-5.87-41.07,10.85-5.71-4.58,4-8.51C78.88,62,52.26,72.66,50,69.5c-5.23-7.33-2.8-21.21-4.48-28a61,61,0,0,1,1,23c1.2-5.75,11.94-17,15.14-20.31A79.24,79.24,0,0,1,43.84,58.94,208.28,208.28,0,0,0,33.59,39q7.62,8.45.92,16.49A74.13,74.13,0,0,1,7,49.94a66.58,66.58,0,0,0,26.84,3.68q6.46-7.22-.33-14.89C45.68,54,47.34,52.88,43.4,37.57c1.77,12.51-2.53,9.74-11,.77,10,9.26,14.71,11.54,13.72-1,1.48,12.26-2.52,9-9.73.28,7.17,8.67,11.11,12,9.23-.27,1.1,12.43-3.86,10.29-14.43,1.17,8.42,8.53,12.48,11.44,8.5-.76,5.67,14.47,3.91,15.41-9.84,1.56C37.69,52.73,33.17,54.6,9,47.91c23.25,7.78,27,7.91,10.34-5.24q11.37,7,17.7,15.32A92.43,92.43,0,0,1,11.2,47.29C26.39,57.5,46.22,70,6.75,68.94a60.22,60.22,0,0,0,25.87-.27Q22.38,60.22,5,54.72q19.21,7,30.94,16.83A51.29,51.29,0,0,1,7.6,69c21.75,6.31,44.51,13.78.63.37a179.66,179.66,0,0,1,28.45,12.2,89.77,89.77,0,0,1-24.3-6.84Q27,80.45,36.55,88.1a55.4,55.4,0,0,1-23.79-5c14.72,6.48,38.55,17.68,1.42,9.17,13.53,5.46,35.35,15,2,10.34q36.33,10.59-.15,7c22.25,6.52,22.37,28.71,20.7,48.54q10.63,4,18.24-5.18c-16.34,13.52-39.47,24.45-33.67,41.36C21.43,194.51,2.82,261,0,280H725.8c-6.74-21-38.8-95.72-15.12-96.55q-28.87-4.3-3.65-13.9c-6.6,1-50.66-55.74-22.31-65.13q-29.69-.09-.22-9-33.35,2.73-1.87-8.8c-26.66,5.5-15.22-1.21-1.94-7.4-31,7.58-10.74-2.85.1-7.63-35.3,7.76-12.33-4.37.66-10.8-38.36,12.95-15.66,2,.29-5q-10.45,5.78-24.49,5,9.15-9.74,24.82-17.5-11,6.63-26.85,9.67,10.62-8.36,26.43-14.73A113.8,113.8,0,0,1,655,47c-6.22-.3,39.6-31.36,29.91-24.75C688.75,19.9,659,40.55,654.82,41.9Q669.36,36,682.88,29.62C631.61,49.21,635.27,21.41,630.07.16c-.62-2.71,3.31,29.22,12.08,29.86,8.26.61,28.54-27.67,26.66-25.44-23.14,25.3-32.59,31.85-67.54,5.95-5.38-3.91,24.84,19,28.25,17.14,5.09-2.81-11-26.22-10.65-25.59.71,1.36,14.87,21.66,8.79,25.63-4.78,3.12-34.78-12.08-31.54-10.59a154.26,154.26,0,0,0,27.06,11.82A166.68,166.68,0,0,0,598.63,13q15.11,8,22.6,17.94A44.76,44.76,0,0,1,596,27c19.06,6.74,33.44,12.16,1.19,3.16,14.59,5.52,30,12.24.92,8.14q31.59,9.39-.12,10.21c8.65,1.65,5.64,7.84,3.8,18.17-2.12,11.91-15.14,30.69-21.93,44.3C574.44,121.8,540.49,195.54,548,194.23ZM80.86,272.53c1.17,1.31-38.52-8.17-49.06-6.21,13.88-10.1,10.4-16.17-11.47-22.44q34.72.78,11.47-9.66Q55.1,245,49.92,228.5c13.29,10,23.11,12,30.94-.5-7.87,12.58-3,13.85,20.25,5.87C79.55,247.15,73,256.15,80.86,272.53,72.93,263.68,72.93,256,80.86,272.53ZM300,258.76c-37.21-10.59-53.14-9.72-36.59,12.12q-4.17-10.82-20.23-18.16Q224.95,258,222.8,269.07c0-27.38-16.82-37.62-70.69-46.87a76.55,76.55,0,0,0,30.11-.46,94.07,94.07,0,0,0-26.31-8,58.74,58.74,0,0,0,29.17,3.16q2.18-8.25-9.82-14.94c18.76,5.87,41.14,9.81,27.91-5.06,8.63,9.7,17.18,14.57,19.2.19,13.31,20.08,30.69,27.62,75.17,26-31,9.48-19.4,13.47,11.07,16.56q-16.95-3.93-31,.78,4.16,10.88,22.4,18.37C252.76,245.32,265.48,239,300,258.76Zm245.51-23.29c-34.24,7.11-46.07,16-57.17,32.76,4-14.47-3.35-6.77-9.92.93,9.86-11.57,2.38-10.82-13.49-2.92q20.06-16.35-5.33-7.15,25.31-8.81.68-5.82c21.71-8,33.8-15.5,32.41-28.78,18.13,10.83,12.31-5.76,22.78-1.92q-6.78-.84-4.66,2.64,17.82-.17,28.46-8.65c-27.46,11.39-13.11,15.11,9.36,6.26q-19.45,3.48-20.53,12l17.41.64C508.09,243.23,518,236.11,545.49,235.47Zm99.06-33.91c-3.69,7.31-9.75,14.3,14.05,12.56-19.25,12.39-21.41,42.08-17.4,47.82Q629.8,249.87,629,266.56q-11.51-17.63-27.81-1.78,1.32-13.61-10.14-5.22c4.23-4.85-1.3-17.29-.88-26.37q1-9.33-13.68-16.4,27.23-2.82,8.74-13.93c14.74,11.61,11.95-1.52,10.18-7.55,10.83,10.21,35.91,15.5,34.18-2.4C628.2,190.57,635.83,218.83,644.55,201.56Z"/><path class="cls-2" d="M1019.17,71.3l18.33,6q5.37-6.07-14.91-9.56c17.52,9.11,21.6,12.64-4.63,5.11,14.54,6.78,27.23,14.21-2.07,12.59,16.85,6.34,7.38,81.62-18.78,80.7,13.62,5.8,5,28.13,2.56,42.38-8.51-21.77-19.9-35.7,6.16-51.2-14.77-1.87-35.28-12-8.45-14-8.81-2.93-37.22-14.12-6.25-14.07-11.25-4.56-36-16.31-2.63-15-11.47-4.44-41.76-19-.5-9.5q-17-7.09-27.76-16.47,11.28-3.32,22.06,3C969.07,84.5,955,77.59,942.39,70.61c-24-13.26-3.09,4.36-5.3-11q-27.92.84-4-7.39.43-5.2-10.14,4.51c.84-.93,20-20.71-.47-9.59q15.12-8.7,7-19c1.18,2-4.35,33.19.21,18.56-1.46,4.7-5.8,30.47-27.43,36.31,26,2.95,14.4,11.62,2.19,18.8,11.13-1,4.55,138.44-17.35,158.58,9-8.27-52.58-78.46-58.83-90.11-10.6-19.76-45.51-73.38-25.25-84.93-26.36.55-47-38.11-54.21-47.36q7.37,9.34,16,18.42c-3.09-2.67-10.54-20.37-10.37-20.09q4.43,7.81,9.63,15.51-3.81-8-8.22-15.88c14.75,27.76,2.2,3.83.18-.06,7.66,14.76,8.16,16.9-3.33.71q6.85,7.63,7.13,15.79Q746.36,48.22,739,41.1c17.72,14.77,26.06,23.26-16.8,19q19,3.27,31.44,10.58-4.31,5.61-18.56,5c27.27,5.23,22.09,50.55-13.21,61.07C778.89,140.37,730,256,725.8,280h353c-5.49-26-45.88-96.25,1.22-114.22-29.57-2.7-33.09-40.53-57.62-53.45,39.91,9.27,6.42-7.49-2.43-11.54,39.29,7.74,8.67-5.8-2.67-10.25,38.32,6.8,13.36-4.52-1.55-10.67,34.5,8.53,21.21.5,3.43-8.57C1046.58,81,1046.58,85.27,1019.17,71.3ZM864.9,258.91q-17.65-1.91-1.1,1.87c-29-3.11-35.38,1.72-34.81,15.86-14.15-14.12-25.65-19-57.57-14.81,4.37-1,14.18-6.41-2.21-11.45,11.82-1.8,13.62-9.06,10.72-11.22,22.19,6.08,32.69,3.07,42.39-8.21,4.64,11,13.4,14.38,34.57,9.64C856.65,240.77,862.19,258.64,864.9,258.91ZM1024,254.77c-1.15,0-51.65,11.49-53.27,13q-2-13.77-16.42-3.11,15.46-11.36-12.58-5.57c19.45-10.62,19.45-17.53,0-28.15q28,5.78,12.58-5.57,14.42,10.66,16.42-3.11c3.27,3,53.56,13,53.27,13q-23.89,9.78,0,19.55C1008.07,255.06,1008.07,247.39,1024,254.77Z"/></g></g></svg>