<svg id="Layer_1" data-name="Layer 1" xmlns="http://www.w3.org/2000/svg" viewBox="0 0 614.94 662.66"><defs><style>.cls-1{fill:#fff;}.cls-1,.cls-2{stroke:#000;stroke-miterlimit:10;stroke-width:23px;}.cls-2{fill:none;}</style></defs><title>coach-menu</title><path class="cls-1" d="M1601.13,2098.81c0,38.8-75.58,113.87-7.57,143,103.23,44.25,149.27,233.7,410.75,47.75,98.57-70.1,239-328.46-35.44-328.46C1655.19,1961.13,1601.13,2001.14,1601.13,2098.81Z" transform="translate(-1553.68 -1718.68)"/><circle class="cls-1" cx="1686.47" cy="2086.76" r="30.95" transform="translate(-2187.69 1714.98) rotate(-81.19)"/><circle class="cls-1" cx="1786.79" cy="2102.31" r="30.95" transform="translate(-2118.18 1827.16) rotate(-81.19)"/><path class="cls-1" d="M1717.05,2091.5s3.43-12.5,17.76-10.28,21.39,16.35,21.39,16.35" transform="translate(-1553.68 -1718.68)"/><path class="cls-2" d="M1817.37,2107.06s273.86-100.22,342.69-23.5" transform="translate(-1553.68 -1718.68)"/><ellipse class="cls-1" cx="1712.61" cy="2177.79" rx="70.09" ry="129.32" transform="translate(-2272.87 1786.56) rotate(-80.45)"/><path class="cls-2" d="M1721.31,2045.29s53.79-149.46,155.93-100.79" transform="translate(-1553.68 -1718.68)"/><path class="cls-2" d="M1712.38,2017.7s53.79-149.46,155.93-100.79" transform="translate(-1553.68 -1718.68)"/><polygon class="cls-1" points="172.91 296.85 191.7 13.16 54.23 30.56 132.52 314.85 172.91 296.85"/><polygon class="cls-1" points="229.42 300.26 494.8 69.88 511.94 273.3 236.91 343.83 229.42 300.26"/><ellipse cx="246.74" cy="600.31" rx="22" ry="27.45"/></svg>