<svg id="Layer_1" data-name="Layer 1" xmlns="http://www.w3.org/2000/svg" viewBox="0 0 751 326.96" preserveAspectRatio="none"><defs><style>.cls-1{fill:#fcee21;stroke:#000;stroke-miterlimit:10;stroke-width:13px;}</style></defs><title>vibey-switch</title><path class="cls-1" d="M2657.66,7392.44q-46.72-.25-93.45,0c-4.67,0-5.83-1.53-5.82-6q0.2-88,0-175.9c0-4.56,1.27-6,5.87-6q46.72,0.25,93.45,0c4.67,0,5.85,1.53,5.82,6-0.18,29.48-.09,59-0.09,88.45,0,29.15-.09,58.3.1,87.45C2663.56,7391,2662.25,7392.47,2657.66,7392.44Zm488.72,20q-46.47-.3-92.94,0c-5,0-6.08-1.63-6.05-6.31,0.18-32.65.1-65.29,0.1-97.94,0-32.48.09-65-.1-97.44,0-4.76,1.25-6.27,6.12-6.24q46.47,0.3,92.94,0c5.1,0,6.48,1.58,6.47,6.56q-0.22,97.44,0,194.88C3152.92,7411.05,3151.38,7412.49,3146.37,7412.46Zm71.13-211h-738v-103h738v103Z" transform="translate(-2473 -7092)"/></svg>