<svg id="Layer_1" data-name="Layer 1" xmlns="http://www.w3.org/2000/svg" viewBox="0 0 965.57 1838.07"><defs><style>.cls-1,.cls-5{fill:none;}.cls-1,.cls-2,.cls-3,.cls-4,.cls-5,.cls-6{stroke:#000;stroke-miterlimit:10;}.cls-1{stroke-width:7px;}.cls-2,.cls-4,.cls-6{fill:#999;}.cls-2,.cls-3{stroke-width:9px;}.cls-3{fill:#fcee21;}.cls-4,.cls-5{stroke-width:8px;}.cls-6{stroke-width:6.7px;}</style></defs><title>vibey-background</title><path class="cls-1" d="M3595,6267l72,1760" transform="translate(-3591.5 -6225.25)"/><path class="cls-1" d="M4555,7836.5c-263.55,194.07-587.28,172.21-744,0-131.19-144.16-106-350.43-100-392.5" transform="translate(-3591.5 -6225.25)"/><path class="cls-1" d="M4168.11,7355.22c-90.06,2.75-189.25-12.17-289.11-44.22" transform="translate(-3591.5 -6225.25)"/><path class="cls-1" d="M3751,6315c252.8-114.32,511.9-119.64,648,12,88.17,85.28,101,205.08,124,420,25.2,235.39,40.19,375.45-44,480" transform="translate(-3591.5 -6225.25)"/><path class="cls-1" d="M4439,7775c-308.28-447.83-734-1142.79-536-1364,57.2-63.92,181-104.54,460-32" transform="translate(-3591.5 -6225.25)"/><rect class="cls-2" x="47.5" y="97.75" width="277.5" height="328"/><rect class="cls-2" x="98.81" y="97.75" width="226.19" height="328"/><rect class="cls-2" x="186.25" y="97.75" width="138.75" height="328"/><rect class="cls-2" x="511.5" y="97.75" width="180" height="328" rx="90" ry="90"/><rect class="cls-2" x="4132.74" y="6323" width="120.52" height="328" rx="60.26" ry="60.26" transform="translate(7088.5 -3931.25) rotate(90)"/><circle class="cls-3" cx="907.75" cy="146.25" r="24.25"/><circle class="cls-3" cx="907.75" cy="261.75" r="24.25"/><circle class="cls-3" cx="907.75" cy="377.25" r="24.25"/><ellipse class="cls-2" cx="116.87" cy="1611.57" rx="69.38" ry="217.82"/><ellipse class="cls-2" cx="168.19" cy="1611.57" rx="69.38" ry="217.82"/><path class="cls-4" d="M4011.47,7958.24c-14.67,0-43,27.65-54.07,2.77-16.73-37.77-27.6-68.13-27.6-137.32,0-114.77-7.5-137,29.43-137,4.62,0,15.47,0,37.43,33.25s66.86,3.31,66.86,103.74C4063.52,7938.46,4048.4,7958.24,4011.47,7958.24Z" transform="translate(-3591.5 -6225.25)"/><ellipse class="cls-5" cx="419.97" cy="1685.77" rx="11.7" ry="17.74"/><ellipse class="cls-5" cx="419.97" cy="1627.59" rx="11.7" ry="17.74"/><path class="cls-5" d="M4011.47,7893.28s4.87-.85,4.87-9.16a21.23,21.23,0,0,0-4.87-13.55" transform="translate(-3591.5 -6225.25)"/><path class="cls-5" d="M4011.47,7835.1s53.3-146.31,28.63-192" transform="translate(-3591.5 -6225.25)"/><ellipse class="cls-4" cx="390.11" cy="1657.49" rx="26.5" ry="74.12"/><ellipse class="cls-4" cx="367.26" cy="1559.13" rx="9.14" ry="13.85"/><path class="cls-5" d="M4046.17,7903.82s47.49-55.72,18.09-102.82" transform="translate(-3591.5 -6225.25)"/><path class="cls-5" d="M4057.13,7903.82s47.49-55.72,18.09-102.82" transform="translate(-3591.5 -6225.25)"/><polygon class="cls-4" points="455.3 1665.75 505.45 1808.22 455.3 1832.02 438.59 1665.75 455.3 1665.75"/><polygon class="cls-4" points="456.67 1611.75 525.51 1437.8 448.62 1448.71 439.96 1611.75 456.67 1611.75"/><polygon class="cls-6" points="664.75 1617.6 631.41 1594.39 643.31 1565.46 691.5 1552.59 739.68 1565.46 751.59 1594.39 718.24 1617.6 664.75 1617.6"/><polygon class="cls-2" points="840.21 1612.54 806.87 1570.73 818.77 1518.58 866.96 1495.38 915.14 1518.58 927.04 1570.73 893.7 1612.54 840.21 1612.54"/><polygon class="cls-6" points="664.75 1767.9 631.41 1744.7 643.31 1715.77 691.5 1702.9 739.68 1715.77 751.59 1744.7 718.24 1767.9 664.75 1767.9"/><polygon class="cls-2" points="840.21 1767.9 806.87 1726.09 818.77 1673.94 866.96 1650.74 915.14 1673.94 927.04 1726.09 893.7 1767.9 840.21 1767.9"/></svg>