<svg id="Layer_1" data-name="Layer 1" xmlns="http://www.w3.org/2000/svg" viewBox="0 0 1267.59 1764.84" preserveAspectRatio="none"><defs><style>.cls-1{fill:#fcee57;stroke:#000;stroke-miterlimit:10;stroke-width:12.7px;}</style></defs><title>tap-background-1</title><path class="cls-1" d="M1555.66,9620.72c-78.86-44-414.9,336.71-359.93,407.92,28.59,37,183.51,17,288.9-42.23,23.09-13,39.71-25.52,65-23.76,85.28,5.95,105.31,163,156,162,65.47-1.29,143.89-265.86,72-317.94-43.73-31.67-113.81,36.4-168,0C1547,9764.55,1596,9643.23,1555.66,9620.72Z" transform="translate(-1173.34 -8366.13)"/><path class="cls-1" d="M2099.56,8426.19c-91.32-20.74-232.2-6.43-273,72-52.72,101.28,117.27,202,84,363-31.21,151.06-208,193.79-189,249,20.38,59.2,246.28,76.16,411-30,142-91.5,226.52-266.7,186-315-39.53-47.17-190.16,36-213-3-25.76-43.94,160.73-157.64,132-252C2220.36,8453.63,2135,8434.25,2099.56,8426.19Z" transform="translate(-1173.34 -8366.13)"/><path class="cls-1" d="M2170.55,9763.13c-89,123.64-227.08,144.41-219,177,7.61,30.8,132.91,20.56,138,54,2.17,14.2-19.65,21.19-18,36,3.67,33.05,120.6,72.72,171,30,40.91-34.66,4.6-95.25,48-138,47.67-47,143.25-24.92,144-36,0.62-9-62.83-10-72-39-9-28.52,41.17-62.75,33-75-9.36-14-73.14,34-111,12-41.62-24.22-19.9-114.51-42-120C2225.25,9659.81,2206.11,9713.73,2170.55,9763.13Z" transform="translate(-1173.34 -8366.13)"/><path class="cls-1" d="M1727.76,8906.19c-166.33,15.32-350.13,95.7-345,162,5.45,70.88,220,38.87,306,174,114.32,179.64-131,446.47-39,537.05,69.73,68.65,300.46,3.84,360-126,45.21-98.54-44-156.42-21-315,26.34-181.79,161.49-229.83,132-318C2085.54,8914.69,1862.2,8893.81,1727.76,8906.19Z" transform="translate(-1173.34 -8366.13)"/><path class="cls-1" d="M1437.76,8544.17c-29.47,103.28-261.33,111.8-258,153,1.32,16.41,39,26.42,68.33,34.22,82.68,22,114.24-4.57,156.69,10.78,82.1,29.7,56.37,162.46,120,189,97.13,40.53,325.26-198.5,282-288-31.06-64.32-188.71-23.6-234-117-19.43-40.05-.59-68.47-30-105-38-47.19-119.39-61.93-141-36C1376.14,8415.88,1457,8476.6,1437.76,8544.17Z" transform="translate(-1173.34 -8366.13)"/><path class="cls-1" d="M1403.73,9365.24c12.2,36.68-183.11,116.11-171,165,9,36.31,125.41,27.92,132,66,4.89,28.19-56.64,45.8-54,78,3.34,40.84,108.33,86.77,153,54,52-38.1.84-166.83,48-189,25.76-12.12,58.87,17.9,69,6,15-17.6-59.88-80.34-42-126,14.17-36.2,73.57-28.4,78-54,4.12-23.82-49.2-51.21-156-105-69.41-35-87.72-39.81-108-33-42.76,14.34-72.42,73.09-57,102C1314.8,9365,1396,9342,1403.73,9365.24Z" transform="translate(-1173.34 -8366.13)"/></svg>