<svg id="Layer_1" data-name="Layer 1" xmlns="http://www.w3.org/2000/svg" viewBox="0 0 982.55 1744.8" preserveAspectRatio="none"><defs><style>.cls-1{fill:#2ecc80;stroke:#000;stroke-miterlimit:10;stroke-width:12.7px;}</style></defs><title>tap-background-2</title><path class="cls-1" d="M446.73,8677.67c-173.1-21.15-384.23,120.82-371.93,281.94,10.21,133.7,172.14,252.85,323.94,234,184.66-23,310.77-244.85,251.95-383.92C603.9,8699,456.17,8678.83,446.73,8677.67Z" transform="translate(-67.94 -8357)"/><path class="cls-1" d="M778.66,9543.54c-167.86,76.17-397.14,226.9-371.93,275.94,21.24,41.31,196.76-40.66,234,18s-99.84,201.64-78,222c22.46,20.88,168.84-128.57,216-96,34.08,23.57-1.41,130.19,6,132,10.82,2.6,61.77-230.78,102-228,32,2.25,26.65,151.83,60,156,43.12,5.35,144.78-233.35,72-305.94-54.22-54.07-180.12,9.09-204-36-23-43.58,79.81-130.55,60-156C860.22,9507,793.13,9537,778.66,9543.54Z" transform="translate(-67.94 -8357)"/><path class="cls-1" d="M346.78,9331.53C248,9310.85,55.29,9495,88.83,9673.46c27.12,144.25,198.39,265.12,293.94,222,96.65-43.66,114.66-254.6,54-293.94-56.88-36.88-165.58,88.29-222,48-41.33-29.55-38.73-136.75,12-180,63.29-53.92,176,13.44,198-24C441.08,9417.63,400.51,9342.78,346.78,9331.53Z" transform="translate(-67.94 -8357)"/><path class="cls-1" d="M646.64,8971.62c-198,72.14-351.74,255.81-317.94,317.94,39.88,73.29,334.5-33.83,359.93,30,18.46,46.32-130.92,117.33-114,174,22.12,73.93,317,87.69,353.93,0,37.17-88.29-215-213.26-180-347.93,30.63-117.63,252.44-135.23,246-174C988.92,8937.87,813.78,8910.74,646.64,8971.62Z" transform="translate(-67.94 -8357)"/><path class="cls-1" d="M227.76,8485.75c-51.12-16.43-159.14,128.74-132,168,21.16,30.55,120-9.46,132,18,8.48,19.42-38,46-30,72,10.11,32.57,91.17,15.36,108,48,24.49,47.53-120.46,136.5-102,180,21.71,51.07,270,41.52,317.94-66,39.4-88.27-79.84-189.58-36-251.95,45.25-64.36,151.93,71.61,216-30,82.32-130.64-126.74-6.74-234-90-58.16-45.16-77.69-90.72-108-84-50.5,11.23-53.57,150.65-78,150C261,8599.15,266.4,8498.16,227.76,8485.75Z" transform="translate(-67.94 -8357)"/><path class="cls-1" d="M567.72,8667.15c42.26,114.94-168.22,246.28-129,321,25.57,48.76,149.39,58.16,201,6,59.61-60.22.86-180.14,45-204,46.81-25.32,142.8,93.33,168,75,36.71-26.68-147.23-292.18-84-357,44.63-45.79,179.71,42,231-18,15.66-18.32,20.92-47.36,12-69-30.11-73.11-226.42-73.08-372-21-17.23,6.16-193.93,70.94-189,147C454.15,8600.45,542.93,8599.73,567.72,8667.15Z" transform="translate(-67.94 -8357)"/></svg>