<svg id="Layer_1" data-name="Layer 1" xmlns="http://www.w3.org/2000/svg" viewBox="0 0 709.17 498.61" preserveAspectRatio="none"><defs><style>.cls-1{fill:#005ca7;}.cls-1,.cls-2,.cls-3,.cls-4,.cls-5,.cls-6{stroke:#000;stroke-miterlimit:10;stroke-width:10px;}.cls-2{fill:#29abe2;}.cls-3{fill:none;}.cls-4{fill:#ff7bac;}.cls-5{fill:red;}.cls-6{fill:#f2f2f2;}</style></defs><title>tap-coach</title><path class="cls-1" d="M2669.34,9059.55c0,37.81-47,111-4.71,139.39,64.22,43.13,115.85,71.15,233.49,71.15,195.15,0,232.93,19.33,232.93-75.87,0-11.9,0-39.88-56.54-96.5s-5.63-172.36-176.39-172.36C2703,8925.37,2669.34,8964.36,2669.34,9059.55Z" transform="translate(-2499.25 -8778.1)"/><circle class="cls-2" cx="250.38" cy="281.46" r="30.16"/><circle class="cls-2" cx="349.32" cy="281.46" r="30.16"/><path class="cls-3" d="M2779.79,9059.55s1.44-12.55,15.57-12.55,23,12.55,23,12.55" transform="translate(-2499.25 -8778.1)"/><path class="cls-3" d="M2878.73,9059.55s248.78-137.4,326.52-73.8" transform="translate(-2499.25 -8778.1)"/><ellipse class="cls-4" cx="298.47" cy="358.42" rx="126.03" ry="68.31"/><circle class="cls-5" cx="465.72" cy="417.31" r="23.56"/><path class="cls-3" d="M2761.87,8970.11s94.74-122.43,174.84-46.64" transform="translate(-2499.25 -8778.1)"/><path class="cls-3" d="M2761.87,8941.84s94.74-122.43,174.84-46.64" transform="translate(-2499.25 -8778.1)"/><polygon class="cls-6" points="290.75 190.36 45.33 61.09 6.45 190.36 290.75 233.45 290.75 190.36"/><polygon class="cls-6" points="381.75 186.83 674.78 9.38 657.61 207.6 381.75 229.92 381.75 186.83"/></svg>