<svg id="Layer_1" data-name="Layer 1" xmlns="http://www.w3.org/2000/svg" viewBox="0 0 1453.07 2259.22"><defs><style>.cls-1{fill:#faa62c;stroke:#000;stroke-miterlimit:10;stroke-width:10px;}</style></defs><title>letsgo-background</title><path class="cls-1" d="M6,8695c-75.34,16.58-128.23,130.44-116,216,20.32,142.17,227.71,257.13,400,220,168.45-36.3,300-217.26,264-300-23.5-54-126-83.63-200-60-74.47,23.78-92.93,92.8-136,84-45.42-9.28-36.7-88.48-112-136C96.62,8713.08,51.95,8684.89,6,8695Z" transform="translate(165.43 -8114.63)"/><path class="cls-1" d="M450,8127c-82.26-55.35-490.73,212-428,432,41.27,144.74,278,239.17,436,184,150.7-52.62,186.61-226.27,260-212,98.54,19.17,74.55,340.17,140,348,63.66,7.61,233.36-278.49,112-452-55.15-78.84-163.83-125.06-260-112-142.39,19.33-207.18,161.81-252,140C398,8425.8,514.54,8170.43,450,8127Z" transform="translate(165.43 -8114.63)"/><path class="cls-1" d="M734,8971c-210.11,148.62-315.16,222.93-308,284,9.1,77.58,146,148.09,264,140,232.29-15.93,396.15-336.57,336-428-32.8-49.86-149.65-58-232-28A247.39,247.39,0,0,0,734,8971Z" transform="translate(165.43 -8114.63)"/><path class="cls-1" d="M182,9151c168.44-2.94,320.47,169.85,312,316-12.38,213.56-367.63,373.13-520,264-112.24-80.39-124.81-314-16-456C-24.73,9252.47,56.19,9153.19,182,9151Z" transform="translate(165.43 -8114.63)"/><path class="cls-1" d="M794,9435c-125.25-50.09-258.82,79.56-284,104-10.88,10.56-209.68,208.64-120,372,83.69,152.46,349.05,147.91,372,96,26.3-59.5-259.54-195.55-228-296,31.34-99.82,340.62-51.33,364-148C909.28,9516.38,849,9457,794,9435Z" transform="translate(165.43 -8114.63)"/><path class="cls-1" d="M1102,9187c-13.33-13.34-115.3,35.39-168,128-63,110.67-64.9,300.39,40,356,123.95,65.7,321.33-95.95,308-144-10.86-39.15-164.75-14.37-176-60-11-44.66,126.25-109.51,116-132s-148.93,38.49-176,0C1020.23,9298.36,1117.08,9202.1,1102,9187Z" transform="translate(165.43 -8114.63)"/><path class="cls-1" d="M1142,8619c-61.5-15.17-138.12,59.61-144,136-7.19,93.39,93.07,166.73,112,156,18.29-10.37-31.7-103.55,0-128,26.12-20.14,77.36,29.74,100,12C1239.72,8771.72,1214.07,8636.78,1142,8619Z" transform="translate(165.43 -8114.63)"/><path class="cls-1" d="M698,8627c-59.19-5.91-156.48,129.64-120,236,13.92,40.57,51.83,90.1,92,88,61.6-3.22,120.94-127.43,96-228C764.11,8715.38,742.41,8631.43,698,8627Z" transform="translate(165.43 -8114.63)"/><path class="cls-1" d="M90,9807c21.63-26,175.51,18.86,240,140,58.41,109.72,11.08,221.08,8,228-41.39,93.06-139.88,160.13-172,140-42.85-26.86,42.75-202.45-12-236-11.36-7-20.85-3-48,0-92.14,10-186.35-13.8-188-32-2.35-25.83,182.93-28.09,208-112C143,9878.11,73.44,9826.94,90,9807Z" transform="translate(165.43 -8114.63)"/><path class="cls-1" d="M750,10051c-88.54,155.75-368.17,101.21-380,172-9.09,54.41,143.65,161.19,292,144,174.8-20.25,263.31-203.3,312-304,35.29-73,75.09-155.3,36-208-38.51-51.91-141.56-58.86-196-16C751.78,9888,797.89,9966.75,750,10051Z" transform="translate(165.43 -8114.63)"/><path class="cls-1" d="M826,9667c-29.35-3-151.14-15.4-172,36-13.63,33.58,18.68,87.32,60,108,90.46,45.26,229.86-65.1,220-108C928.12,9677.4,868,9671.28,826,9667Z" transform="translate(165.43 -8114.63)"/><path class="cls-1" d="M108,8203c-39.58-24.33-320.18,248.55-260,380,15.2,33.19,53.25,59.82,76,52,50.33-17.3-18.9-187.82,72-276,39.56-38.38,94.29-46.45,112-104C108.66,8252.84,121.19,8211.11,108,8203Z" transform="translate(165.43 -8114.63)"/><path class="cls-1" d="M904,8179c-275.71-.1-304.52,21.94-320,44-24.67,35.15-28.43,88.73-8,104,35.16,26.29,106.19-87.61,220-88,128.29-.44,196,143.74,248,116,35.22-18.79,41.86-105,4-148C1025.43,8181.4,994,8179,904,8179Z" transform="translate(165.43 -8114.63)"/><path class="cls-1" d="M1144,9903c-25.4-12.82-130.72,100.36-160,240-7.9,37.67-26.41,126,12,152,57.87,39.23,212.73-84.65,200-116-10.45-25.74-132.16,15.12-148-20-13.74-30.46,71.74-74.74,96-184C1147.74,9958.18,1158.38,9910.25,1144,9903Z" transform="translate(165.43 -8114.63)"/><path class="cls-1" d="M-84,10159c41-24.86,117.56-43.46,156,0,50.1,56.64-11.25,165.93-28,164-13.83-1.6,3.63-79-36-104-49.75-31.44-140.46,50.56-156,32C-158.47,10238.49-129.55,10186.62-84,10159Z" transform="translate(165.43 -8114.63)"/></svg>