<?xml version="1.0" encoding="utf-8"?>
<!-- Generator: Adobe Illustrator 16.0.0, SVG Export Plug-In . SVG Version: 6.00 Build 0)  -->
<!DOCTYPE svg PUBLIC "-//W3C//DTD SVG 1.1//EN" "http://www.w3.org/Graphics/SVG/1.1/DTD/svg11.dtd">
<svg version="1.1" id="Layer_1" xmlns="http://www.w3.org/2000/svg" xmlns:xlink="http://www.w3.org/1999/xlink" x="0px" y="0px"
	 width="662.091px" height="189.133px" viewBox="0 0 662.091 189.133" enable-background="new 0 0 662.091 189.133"
	 xml:space="preserve">
<g>
	<path fill="#9E9E9E" stroke="#000000" stroke-width="10" stroke-miterlimit="10" d="M351.828,149.451l278.289-30.833
		c0,0,25.547-2.167,26.929-25.615c1.381-23.447-29.49-25.725-29.49-25.725L365.588,36.242c0,0-20.898-0.049-26.617,19.168
		c-5.718,19.218-13.736,52.84-11.585,73.45C329.536,149.473,351.828,149.451,351.828,149.451z"/>
	<path stroke="#000000" stroke-width="10" stroke-miterlimit="10" d="M340.34,50.306c0,0-49.623-78.879-149.577-28.478
		C90.809,72.23,57.759,91.24,11.533,77.858c-46.224-13.383,162.782,198.606,313.612,57.471L340.34,50.306z"/>
	<path fill="#FFFFFF" stroke="#000000" stroke-width="10" stroke-miterlimit="10" d="M171.863,67.019
		c-2.972-8.476,69.336-51.452,66.945-58.151c-0.937-2.621-20.24-3.856-50.122,11.212C88.732,70.481,57.759,91.24,11.533,77.858
		c-39.242-11.362,112.699,142.154,244.099,98.41c46.236-15.393-116.884-13.132-76.073-38.512
		c40.81-25.381,91.264-18.678,90.928-48.773C270.149,58.888,181.5,94.505,171.863,67.019z"/>
</g>
</svg>
