<svg xmlns="http://www.w3.org/2000/svg" width="662.091" height="189.133" viewBox="0 0 662.091 189.133"><g stroke="#000" stroke-width="10" stroke-miterlimit="10"><path fill="#9E9E9E" d="M351.828 149.45l278.29-30.832s25.546-2.167 26.928-25.615c1.38-23.447-29.49-25.725-29.49-25.725L365.588 36.242s-20.898-.05-26.617 19.168c-5.717 19.218-13.735 52.84-11.584 73.45 2.15 20.613 24.442 20.59 24.442 20.59z"/><path d="M340.34 50.306s-49.623-78.88-149.577-28.478C90.81 72.23 57.76 91.24 11.533 77.858c-46.224-13.383 162.782 198.606 313.612 57.47l15.195-85.022z"/><path fill="#fff" d="M171.863 67.02c-3.98-8.052 69.336-51.453 66.945-58.152-.937-2.62-20.24-3.856-50.122 11.212C88.732 70.48 57.76 91.24 11.533 77.858c-39.242-11.362 112.7 142.154 244.1 98.41 46.235-15.393-116.885-13.132-76.074-38.512 40.81-25.38 91.263-18.678 90.927-48.773-.338-30.095-92.32-9.222-98.624-21.964z"/></g></svg>