<svg id="Layer_1" data-name="Layer 1" xmlns="http://www.w3.org/2000/svg" xmlns:xlink="http://www.w3.org/1999/xlink" viewBox="0 0 6000 1000" preserveAspectRatio="none"><defs><style>.cls-1,.cls-10,.cls-100,.cls-101,.cls-102,.cls-103,.cls-104,.cls-105,.cls-106,.cls-107,.cls-108,.cls-109,.cls-11,.cls-110,.cls-12,.cls-13,.cls-14,.cls-15,.cls-16,.cls-17,.cls-18,.cls-19,.cls-2,.cls-21,.cls-22,.cls-23,.cls-24,.cls-25,.cls-26,.cls-27,.cls-28,.cls-29,.cls-3,.cls-30,.cls-31,.cls-32,.cls-33,.cls-34,.cls-35,.cls-36,.cls-37,.cls-38,.cls-39,.cls-4,.cls-40,.cls-41,.cls-42,.cls-43,.cls-44,.cls-45,.cls-46,.cls-47,.cls-48,.cls-49,.cls-5,.cls-50,.cls-51,.cls-52,.cls-53,.cls-54,.cls-55,.cls-56,.cls-57,.cls-58,.cls-59,.cls-6,.cls-60,.cls-61,.cls-62,.cls-63,.cls-64,.cls-65,.cls-66,.cls-67,.cls-68,.cls-69,.cls-7,.cls-70,.cls-71,.cls-72,.cls-73,.cls-74,.cls-75,.cls-76,.cls-77,.cls-78,.cls-79,.cls-8,.cls-80,.cls-81,.cls-82,.cls-83,.cls-84,.cls-85,.cls-86,.cls-87,.cls-88,.cls-89,.cls-9,.cls-90,.cls-91,.cls-92,.cls-93,.cls-94,.cls-95,.cls-96,.cls-97,.cls-98,.cls-99{stroke:#000;stroke-miterlimit:10;stroke-width:3px;}.cls-1{fill:url(#radial-gradient);}.cls-2{fill:url(#radial-gradient-2);}.cls-3{fill:url(#radial-gradient-3);}.cls-4{fill:url(#radial-gradient-4);}.cls-5{fill:url(#radial-gradient-5);}.cls-6{fill:url(#radial-gradient-6);}.cls-7{fill:url(#radial-gradient-7);}.cls-8{fill:url(#radial-gradient-8);}.cls-9{fill:url(#radial-gradient-9);}.cls-10{fill:url(#radial-gradient-10);}.cls-11{fill:url(#radial-gradient-11);}.cls-12{fill:url(#radial-gradient-12);}.cls-13,.cls-20{fill:none;}.cls-14{fill:url(#radial-gradient-13);}.cls-15{fill:url(#radial-gradient-14);}.cls-16{fill:url(#radial-gradient-15);}.cls-17{fill:url(#radial-gradient-16);}.cls-18{fill:url(#radial-gradient-17);}.cls-19{fill:url(#radial-gradient-18);}.cls-21{fill:url(#radial-gradient-19);}.cls-22{fill:url(#radial-gradient-20);}.cls-23{fill:url(#radial-gradient-21);}.cls-24{fill:url(#radial-gradient-22);}.cls-25{fill:url(#radial-gradient-23);}.cls-26{fill:url(#radial-gradient-24);}.cls-27{fill:url(#radial-gradient-25);}.cls-28{fill:url(#radial-gradient-26);}.cls-29{fill:url(#radial-gradient-27);}.cls-30{fill:url(#radial-gradient-28);}.cls-31{fill:url(#radial-gradient-29);}.cls-32{fill:url(#radial-gradient-30);}.cls-33{fill:url(#radial-gradient-31);}.cls-34{fill:url(#radial-gradient-32);}.cls-35{fill:url(#radial-gradient-33);}.cls-36{fill:url(#radial-gradient-34);}.cls-37{fill:url(#radial-gradient-35);}.cls-38{fill:url(#radial-gradient-36);}.cls-39{fill:url(#radial-gradient-37);}.cls-40{fill:url(#radial-gradient-38);}.cls-41{fill:url(#radial-gradient-39);}.cls-42{fill:url(#radial-gradient-40);}.cls-43{fill:url(#radial-gradient-41);}.cls-44{fill:url(#radial-gradient-42);}.cls-45{fill:url(#radial-gradient-43);}.cls-46{fill:url(#radial-gradient-44);}.cls-47{fill:url(#radial-gradient-45);}.cls-48{fill:url(#radial-gradient-46);}.cls-49{fill:url(#radial-gradient-47);}.cls-50{fill:url(#radial-gradient-48);}.cls-51{fill:url(#radial-gradient-49);}.cls-52{fill:url(#radial-gradient-50);}.cls-53{fill:url(#radial-gradient-51);}.cls-54{fill:url(#radial-gradient-52);}.cls-55{fill:url(#radial-gradient-53);}.cls-56{fill:url(#radial-gradient-54);}.cls-57{fill:url(#radial-gradient-55);}.cls-58{fill:url(#radial-gradient-56);}.cls-59{fill:url(#radial-gradient-57);}.cls-60{fill:url(#radial-gradient-58);}.cls-61{fill:url(#radial-gradient-59);}.cls-62{fill:url(#radial-gradient-60);}.cls-63{fill:url(#radial-gradient-61);}.cls-64{fill:url(#radial-gradient-62);}.cls-65{fill:url(#radial-gradient-63);}.cls-66{fill:url(#radial-gradient-64);}.cls-67{fill:url(#radial-gradient-65);}.cls-68{fill:url(#radial-gradient-66);}.cls-69{fill:url(#radial-gradient-67);}.cls-70{fill:url(#radial-gradient-68);}.cls-71{fill:url(#radial-gradient-69);}.cls-72{fill:url(#radial-gradient-70);}.cls-73{fill:url(#radial-gradient-71);}.cls-74{fill:url(#radial-gradient-72);}.cls-75{fill:url(#radial-gradient-73);}.cls-76{fill:url(#radial-gradient-74);}.cls-77{fill:url(#radial-gradient-75);}.cls-78{fill:url(#radial-gradient-76);}.cls-79{fill:url(#radial-gradient-77);}.cls-80{fill:url(#radial-gradient-78);}.cls-81{fill:url(#radial-gradient-79);}.cls-82{fill:url(#radial-gradient-80);}.cls-83{fill:url(#radial-gradient-81);}.cls-84{fill:url(#radial-gradient-82);}.cls-85{fill:url(#radial-gradient-83);}.cls-86{fill:url(#radial-gradient-84);}.cls-87{fill:url(#radial-gradient-85);}.cls-88{fill:url(#radial-gradient-86);}.cls-89{fill:url(#radial-gradient-87);}.cls-90{fill:url(#radial-gradient-88);}.cls-91{fill:url(#radial-gradient-89);}.cls-92{fill:url(#radial-gradient-90);}.cls-93{fill:url(#radial-gradient-91);}.cls-94{fill:url(#radial-gradient-92);}.cls-95{fill:url(#radial-gradient-93);}.cls-96{fill:url(#radial-gradient-94);}.cls-97{fill:url(#radial-gradient-95);}.cls-98{fill:url(#radial-gradient-96);}.cls-99{fill:url(#radial-gradient-97);}.cls-100{fill:url(#radial-gradient-98);}.cls-101{fill:url(#radial-gradient-99);}.cls-102{fill:url(#radial-gradient-100);}.cls-103{fill:url(#radial-gradient-101);}.cls-104{fill:url(#radial-gradient-102);}.cls-105{fill:url(#radial-gradient-103);}.cls-106{fill:url(#radial-gradient-104);}.cls-107{fill:url(#radial-gradient-105);}.cls-108{fill:url(#radial-gradient-106);}.cls-109{fill:url(#radial-gradient-107);}.cls-110{fill:url(#radial-gradient-108);}</style><radialGradient id="radial-gradient" cx="5172.28" cy="1135.2" r="71.53" gradientUnits="userSpaceOnUse"><stop offset="0"/><stop offset="1" stop-color="#39b54a"/></radialGradient><radialGradient id="radial-gradient-2" cx="5066.59" cy="1118.14" r="34.86" gradientTransform="translate(5326.43 -4063.85) rotate(80.43)" xlink:href="#radial-gradient"/><radialGradient id="radial-gradient-3" cx="5334.98" cy="1328.12" r="73.28" xlink:href="#radial-gradient"/><radialGradient id="radial-gradient-4" cx="5729.82" cy="1064.83" r="99.24" xlink:href="#radial-gradient"/><radialGradient id="radial-gradient-5" cx="5831" cy="980.24" r="31.92" gradientTransform="translate(1513.23 -3059.35) rotate(33.55)" xlink:href="#radial-gradient"/><radialGradient id="radial-gradient-6" cx="5630.5" cy="1325.35" r="99.79" xlink:href="#radial-gradient"/><radialGradient id="radial-gradient-7" cx="512.55" cy="606.53" r="197.37" xlink:href="#radial-gradient"/><radialGradient id="radial-gradient-8" cx="5288.72" cy="1108.5" r="63.22" xlink:href="#radial-gradient"/><radialGradient id="radial-gradient-9" cx="5630.81" cy="1107.37" r="57.1" xlink:href="#radial-gradient"/><radialGradient id="radial-gradient-10" cx="5440.01" cy="977.18" r="209.69" xlink:href="#radial-gradient"/><radialGradient id="radial-gradient-11" cx="367.45" cy="376.62" r="32.21" xlink:href="#radial-gradient"/><radialGradient id="radial-gradient-12" cx="473.1" cy="376.62" r="32.21" xlink:href="#radial-gradient"/><radialGradient id="radial-gradient-13" cx="5371.31" cy="1028.96" r="164.41" gradientTransform="translate(-4951 -43.62) scale(1 0.5)" xlink:href="#radial-gradient"/><radialGradient id="radial-gradient-14" cx="597.39" cy="521.69" r="25.15" xlink:href="#radial-gradient"/><radialGradient id="radial-gradient-15" cx="258.72" cy="233.34" r="125.51" xlink:href="#radial-gradient"/><radialGradient id="radial-gradient-16" cx="664" cy="203.85" r="138.48" xlink:href="#radial-gradient"/><radialGradient id="radial-gradient-17" cx="5380.75" cy="1405.17" r="32.05" gradientTransform="translate(2623.01 -3424.09) rotate(45.64)" xlink:href="#radial-gradient"/><radialGradient id="radial-gradient-18" cx="5632.51" cy="1442.02" r="32.05" gradientTransform="translate(3756.81 -4061.28) rotate(56.82)" xlink:href="#radial-gradient"/><radialGradient id="radial-gradient-19" cx="6313" cy="1301.55" r="73.28" gradientTransform="translate(1012.64 -2346.04) rotate(22.74)" xlink:href="#radial-gradient"/><radialGradient id="radial-gradient-20" cx="6358.77" cy="1378.6" r="32.05" gradientTransform="translate(2883.46 -4126.23) rotate(45.64)" xlink:href="#radial-gradient"/><radialGradient id="radial-gradient-21" cx="6585.31" cy="1374.41" r="99.79" gradientTransform="translate(1912.77 -3508.11) rotate(34.36)" xlink:href="#radial-gradient"/><radialGradient id="radial-gradient-22" cx="6587.31" cy="1491.08" r="32.05" gradientTransform="translate(1912.77 -3508.11) rotate(34.36)" xlink:href="#radial-gradient"/><radialGradient id="radial-gradient-23" cx="6169.13" cy="1081.8" r="71.53" gradientTransform="translate(1001.08 -2420.49) rotate(24.19)" xlink:href="#radial-gradient"/><radialGradient id="radial-gradient-24" cx="6063.43" cy="1064.75" r="34.86" gradientTransform="translate(6137.24 -5120.8) rotate(80.43)" xlink:href="#radial-gradient"/><radialGradient id="radial-gradient-25" cx="6764.21" cy="1105.6" r="99.24" gradientTransform="matrix(0.83, 0.55, -0.55, 0.83, 1716.73, -3563.25)" xlink:href="#radial-gradient"/><radialGradient id="radial-gradient-26" cx="6865.38" cy="1021.01" r="31.92" gradientTransform="translate(11509.05 -4063.96) rotate(123.55)" xlink:href="#radial-gradient"/><radialGradient id="radial-gradient-27" cx="1512.55" cy="606.53" r="197.37" xlink:href="#radial-gradient"/><radialGradient id="radial-gradient-28" cx="6288.72" cy="1108.5" r="63.22" xlink:href="#radial-gradient"/><radialGradient id="radial-gradient-29" cx="6630.81" cy="1107.37" r="57.1" xlink:href="#radial-gradient"/><radialGradient id="radial-gradient-30" cx="6440.01" cy="977.18" r="209.69" xlink:href="#radial-gradient"/><radialGradient id="radial-gradient-31" cx="1367.45" cy="376.62" r="32.21" xlink:href="#radial-gradient"/><radialGradient id="radial-gradient-32" cx="1473.1" cy="376.62" r="32.21" xlink:href="#radial-gradient"/><radialGradient id="radial-gradient-33" cx="6371.31" cy="1028.96" r="164.41" gradientTransform="translate(-4951 -43.62) scale(1 0.5)" xlink:href="#radial-gradient"/><radialGradient id="radial-gradient-34" cx="6540.59" cy="1120.1" r="25.15" gradientTransform="translate(-15742.21 -1254.39) scale(2.65 1.61)" xlink:href="#radial-gradient"/><radialGradient id="radial-gradient-35" cx="1300.23" cy="253.96" r="94.02" xlink:href="#radial-gradient"/><radialGradient id="radial-gradient-36" cx="1654.81" cy="237.27" r="120.02" xlink:href="#radial-gradient"/><radialGradient id="radial-gradient-37" cx="7269.64" cy="890.49" r="73.28" gradientTransform="translate(168.36 -92.07) rotate(3.93)" xlink:href="#radial-gradient"/><radialGradient id="radial-gradient-38" cx="7315.41" cy="967.55" r="32.05" gradientTransform="translate(2977.01 -4532.32) rotate(45.64)" xlink:href="#radial-gradient"/><radialGradient id="radial-gradient-39" cx="7365.22" cy="773.44" r="99.79" gradientTransform="translate(1912.77 -3508.11) rotate(34.36)" xlink:href="#radial-gradient"/><radialGradient id="radial-gradient-40" cx="7367.22" cy="890.11" r="32.05" gradientTransform="translate(1912.77 -3508.11) rotate(34.36)" xlink:href="#radial-gradient"/><radialGradient id="radial-gradient-41" cx="7081.33" cy="672.05" r="71.53" gradientTransform="translate(98.22 564.68) rotate(-1.21)" xlink:href="#radial-gradient"/><radialGradient id="radial-gradient-42" cx="6975.63" cy="655" r="34.86" gradientTransform="matrix(0.17, 0.99, -0.99, 0.17, 6571.78, -5915.61)" xlink:href="#radial-gradient"/><radialGradient id="radial-gradient-43" cx="7563.95" cy="517.62" r="99.24" gradientTransform="translate(311.42 -577.64) rotate(8.7)" xlink:href="#radial-gradient"/><radialGradient id="radial-gradient-44" cx="7665.13" cy="433.03" r="31.92" gradientTransform="translate(1674.23 -3588) rotate(33.55)" xlink:href="#radial-gradient"/><radialGradient id="radial-gradient-45" cx="2512.55" cy="606.53" r="197.37" xlink:href="#radial-gradient"/><radialGradient id="radial-gradient-46" cx="7288.72" cy="1108.5" r="63.22" xlink:href="#radial-gradient"/><radialGradient id="radial-gradient-47" cx="7630.81" cy="1107.37" r="57.1" xlink:href="#radial-gradient"/><radialGradient id="radial-gradient-48" cx="7440.01" cy="977.18" r="209.69" xlink:href="#radial-gradient"/><radialGradient id="radial-gradient-49" cx="2367.45" cy="376.62" r="32.21" xlink:href="#radial-gradient"/><radialGradient id="radial-gradient-50" cx="2473.1" cy="376.62" r="32.21" xlink:href="#radial-gradient"/><radialGradient id="radial-gradient-51" cx="7371.31" cy="1028.96" r="164.41" gradientTransform="translate(-4951 -43.62) scale(1 0.5)" xlink:href="#radial-gradient"/><radialGradient id="radial-gradient-52" cx="6917.76" cy="1120.1" r="25.15" gradientTransform="translate(-4319.03 -1254.39) scale(0.99 1.61)" xlink:href="#radial-gradient"/><radialGradient id="radial-gradient-53" cx="7257.84" cy="780.81" r="94.02" gradientTransform="matrix(1.43, 0.42, -0.28, 0.96, -7927.91, -3596.37)" xlink:href="#radial-gradient"/><radialGradient id="radial-gradient-54" cx="7584.51" cy="856.94" r="120.02" gradientTransform="translate(-6582.33 -3154.8) rotate(15.46) scale(1.29 1)" xlink:href="#radial-gradient"/><radialGradient id="radial-gradient-55" cx="8172.28" cy="1135.2" r="71.53" gradientTransform="matrix(-1, 0, 0, 1, 18902, 0)" xlink:href="#radial-gradient"/><radialGradient id="radial-gradient-56" cx="8066.59" cy="1118.14" r="34.86" gradientTransform="matrix(-0.99, -0.17, -0.17, 0.99, 18975.61, 1357.3)" xlink:href="#radial-gradient"/><radialGradient id="radial-gradient-57" cx="8334.98" cy="1328.12" r="73.28" gradientTransform="matrix(-1, 0, 0, 1, 18902, 0)" xlink:href="#radial-gradient"/><radialGradient id="radial-gradient-58" cx="8729.82" cy="1064.83" r="99.24" gradientTransform="matrix(-1, 0, 0, 1, 18902, 0)" xlink:href="#radial-gradient"/><radialGradient id="radial-gradient-59" cx="8831" cy="980.24" r="31.92" gradientTransform="matrix(-0.55, -0.83, -0.83, 0.55, 15768.62, 7798.19)" xlink:href="#radial-gradient"/><radialGradient id="radial-gradient-60" cx="8630.5" cy="1325.35" r="99.79" gradientTransform="matrix(-1, 0, 0, 1, 18902, 0)" xlink:href="#radial-gradient"/><radialGradient id="radial-gradient-61" cx="8463.55" cy="1164.63" r="197.37" gradientTransform="matrix(-1, 0, 0, 1, 13951, -558.1)" xlink:href="#radial-gradient"/><radialGradient id="radial-gradient-62" cx="8288.72" cy="1108.5" r="63.22" gradientTransform="matrix(-1, 0, 0, 1, 18902, 0)" xlink:href="#radial-gradient"/><radialGradient id="radial-gradient-63" cx="8630.81" cy="1107.37" r="57.1" gradientTransform="matrix(-1, 0, 0, 1, 18902, 0)" xlink:href="#radial-gradient"/><radialGradient id="radial-gradient-64" cx="8440.01" cy="977.18" r="209.69" gradientTransform="matrix(-1, 0, 0, 1, 18902, 0)" xlink:href="#radial-gradient"/><radialGradient id="radial-gradient-65" cx="8318.45" cy="934.72" r="32.21" gradientTransform="matrix(-1, 0, 0, 1, 13951, -558.1)" xlink:href="#radial-gradient"/><radialGradient id="radial-gradient-66" cx="8424.1" cy="934.72" r="32.21" gradientTransform="matrix(-1, 0, 0, 1, 13951, -558.1)" xlink:href="#radial-gradient"/><radialGradient id="radial-gradient-67" cx="8371.31" cy="1028.96" r="164.41" gradientTransform="matrix(-1, 0, 0, 0.5, 13951, -43.62)" xlink:href="#radial-gradient"/><radialGradient id="radial-gradient-68" cx="8548.39" cy="1079.78" r="25.15" gradientTransform="matrix(-1, 0, 0, 1, 13951, -558.1)" xlink:href="#radial-gradient"/><radialGradient id="radial-gradient-69" cx="8209.72" cy="791.44" r="125.51" gradientTransform="matrix(-1, 0, 0, 1, 13951, -558.1)" xlink:href="#radial-gradient"/><radialGradient id="radial-gradient-70" cx="8615" cy="761.95" r="138.48" gradientTransform="matrix(-1, 0, 0, 1, 13951, -558.1)" xlink:href="#radial-gradient"/><radialGradient id="radial-gradient-71" cx="8380.75" cy="1405.17" r="32.05" gradientTransform="matrix(-0.71, -0.7, -0.7, 0.71, 17495.25, 6260.56)" xlink:href="#radial-gradient"/><radialGradient id="radial-gradient-72" cx="8632.51" cy="1442.02" r="32.05" gradientTransform="matrix(-0.84, -0.55, -0.55, 0.84, 18283.63, 4959.57)" xlink:href="#radial-gradient"/><radialGradient id="radial-gradient-73" cx="9079.75" cy="141.76" r="73.28" gradientTransform="matrix(-0.92, 0.39, 0.39, 0.92, 17889.36, -2346.04)" xlink:href="#radial-gradient"/><radialGradient id="radial-gradient-74" cx="9125.51" cy="218.81" r="32.05" gradientTransform="matrix(-0.71, -0.7, -0.7, 0.71, 16234.87, 7607.94)" xlink:href="#radial-gradient"/><radialGradient id="radial-gradient-75" cx="9061.94" cy="-318.6" r="99.79" gradientTransform="matrix(-0.83, 0.56, 0.56, 0.83, 16989.23, -3508.11)" xlink:href="#radial-gradient"/><radialGradient id="radial-gradient-76" cx="9063.95" cy="-201.92" r="32.05" gradientTransform="matrix(-0.83, 0.56, 0.56, 0.83, 16989.23, -3508.11)" xlink:href="#radial-gradient"/><radialGradient id="radial-gradient-77" cx="8905.72" cy="-147.45" r="71.53" gradientTransform="matrix(-0.91, 0.41, 0.41, 0.91, 17900.92, -2420.49)" xlink:href="#radial-gradient"/><radialGradient id="radial-gradient-78" cx="8800.03" cy="-164.5" r="34.86" gradientTransform="matrix(-0.99, -0.17, -0.17, 0.99, 18456.23, 2661.19)" xlink:href="#radial-gradient"/><radialGradient id="radial-gradient-79" cx="9260.74" cy="-557.92" r="99.24" gradientTransform="matrix(-0.83, 0.55, 0.55, 0.83, 17185.27, -3563.25)" xlink:href="#radial-gradient"/><radialGradient id="radial-gradient-80" cx="9361.92" cy="-642.5" r="31.92" gradientTransform="matrix(-0.83, 0.55, 0.55, 0.83, 17195.48, -3545.34)" xlink:href="#radial-gradient"/><radialGradient id="radial-gradient-81" cx="9463.55" cy="1164.63" r="197.37" gradientTransform="matrix(-1, 0, 0, 1, 13951, -558.1)" xlink:href="#radial-gradient"/><radialGradient id="radial-gradient-82" cx="9288.72" cy="1108.5" r="63.22" gradientTransform="matrix(-1, 0, 0, 1, 18902, 0)" xlink:href="#radial-gradient"/><radialGradient id="radial-gradient-83" cx="9630.81" cy="1107.37" r="57.1" gradientTransform="matrix(-1, 0, 0, 1, 18902, 0)" xlink:href="#radial-gradient"/><radialGradient id="radial-gradient-84" cx="9440.01" cy="977.18" r="209.69" gradientTransform="matrix(-1, 0, 0, 1, 18902, 0)" xlink:href="#radial-gradient"/><radialGradient id="radial-gradient-85" cx="9318.45" cy="934.72" r="32.21" gradientTransform="matrix(-1, 0, 0, 1, 13951, -558.1)" xlink:href="#radial-gradient"/><radialGradient id="radial-gradient-86" cx="9424.1" cy="934.72" r="32.21" gradientTransform="matrix(-1, 0, 0, 1, 13951, -558.1)" xlink:href="#radial-gradient"/><radialGradient id="radial-gradient-87" cx="9371.31" cy="1028.96" r="164.41" gradientTransform="matrix(-1, 0, 0, 0.5, 13951, -43.62)" xlink:href="#radial-gradient"/><radialGradient id="radial-gradient-88" cx="7672.1" cy="1120.1" r="25.15" gradientTransform="matrix(-2.65, 0, 0, 1.61, 24742.21, -1254.39)" xlink:href="#radial-gradient"/><radialGradient id="radial-gradient-89" cx="9251.23" cy="812.06" r="94.02" gradientTransform="matrix(-1, 0, 0, 1, 13951, -558.1)" xlink:href="#radial-gradient"/><radialGradient id="radial-gradient-90" cx="9605.81" cy="795.36" r="120.02" gradientTransform="matrix(-1, 0, 0, 1, 13951, -558.1)" xlink:href="#radial-gradient"/><radialGradient id="radial-gradient-91" cx="10262.6" cy="685.1" r="73.28" gradientTransform="matrix(-1, 0.07, 0.07, 1, 18733.64, -92.07)" xlink:href="#radial-gradient"/><radialGradient id="radial-gradient-92" cx="10308.37" cy="762.15" r="32.05" gradientTransform="matrix(-0.71, -0.7, -0.7, 0.71, 16404.1, 8036.97)" xlink:href="#radial-gradient"/><radialGradient id="radial-gradient-93" cx="9841.85" cy="-919.57" r="99.79" gradientTransform="matrix(-0.83, 0.56, 0.56, 0.83, 16989.23, -3508.11)" xlink:href="#radial-gradient"/><radialGradient id="radial-gradient-94" cx="9843.85" cy="-802.9" r="32.05" gradientTransform="matrix(-0.83, 0.56, 0.56, 0.83, 16989.23, -3508.11)" xlink:href="#radial-gradient"/><radialGradient id="radial-gradient-95" cx="10080.65" cy="735.59" r="71.53" gradientTransform="matrix(-1, -0.02, -0.02, 1, 18803.78, 564.68)" xlink:href="#radial-gradient"/><radialGradient id="radial-gradient-96" cx="9974.96" cy="718.54" r="34.86" gradientTransform="matrix(-0.99, -0.17, -0.17, 0.99, 18771.36, 2022.41)" xlink:href="#radial-gradient"/><radialGradient id="radial-gradient-97" cx="10529.47" cy="64.07" r="99.24" gradientTransform="matrix(-0.99, 0.15, 0.15, 0.99, 18590.58, -577.64)" xlink:href="#radial-gradient"/><radialGradient id="radial-gradient-98" cx="10630.65" cy="-20.52" r="31.92" gradientTransform="matrix(-0.55, -0.83, -0.83, 0.55, 13937.24, 9880.1)" xlink:href="#radial-gradient"/><radialGradient id="radial-gradient-99" cx="10463.55" cy="1164.63" r="197.37" gradientTransform="matrix(-1, 0, 0, 1, 13951, -558.1)" xlink:href="#radial-gradient"/><radialGradient id="radial-gradient-100" cx="10288.72" cy="1108.5" r="63.22" gradientTransform="matrix(-1, 0, 0, 1, 18902, 0)" xlink:href="#radial-gradient"/><radialGradient id="radial-gradient-101" cx="10630.81" cy="1107.37" r="57.1" gradientTransform="matrix(-1, 0, 0, 1, 18902, 0)" xlink:href="#radial-gradient"/><radialGradient id="radial-gradient-102" cx="10440.01" cy="977.18" r="209.69" gradientTransform="matrix(-1, 0, 0, 1, 18902, 0)" xlink:href="#radial-gradient"/><radialGradient id="radial-gradient-103" cx="10318.45" cy="934.72" r="32.21" gradientTransform="matrix(-1, 0, 0, 1, 13951, -558.1)" xlink:href="#radial-gradient"/><radialGradient id="radial-gradient-104" cx="10424.1" cy="934.72" r="32.21" gradientTransform="matrix(-1, 0, 0, 1, 13951, -558.1)" xlink:href="#radial-gradient"/><radialGradient id="radial-gradient-105" cx="10371.31" cy="1028.96" r="164.41" gradientTransform="matrix(-1, 0, 0, 0.5, 13951, -43.62)" xlink:href="#radial-gradient"/><radialGradient id="radial-gradient-106" cx="9935.86" cy="1120.1" r="25.15" gradientTransform="matrix(-0.99, 0, 0, 1.61, 13319.03, -1254.39)" xlink:href="#radial-gradient"/><radialGradient id="radial-gradient-107" cx="9184.15" cy="-65.84" r="94.02" gradientTransform="matrix(-1.43, 0.42, 0.28, 0.96, 16927.91, -3596.37)" xlink:href="#radial-gradient"/><radialGradient id="radial-gradient-108" cx="9817.4" cy="57.22" r="120.02" gradientTransform="matrix(-1.25, 0.35, 0.27, 0.96, 15582.33, -3154.8)" xlink:href="#radial-gradient"/></defs><title>levelup-coach</title><path class="cls-1" d="M5082.57,1107.37l98,18,89-16.84-4.43,43.74s-48.32,12.07-92.82,10.67-97.25-27-97.25-27Z" transform="translate(-4951 -558.1)"/><ellipse class="cls-2" cx="5066.59" cy="1118.15" rx="29.52" ry="39.47" transform="translate(-1829.71 5370.08) rotate(-80.43)"/><path class="cls-3" d="M5332.65,1251.6l-67.55,91.12,121.78,61.93,18-32s-31.27.87-43.56-23.69,17.91-97.38,17.91-97.38h-46.56Z" transform="translate(-4951 -558.1)"/><path class="cls-4" d="M5820.28,968.14l11.26,28.63s-54.64,76.6-82.88,96.09l-99.46,68.66-21.1-68.66S5817.27,1011.29,5820.28,968.14Z" transform="translate(-4951 -558.1)"/><ellipse class="cls-5" cx="5831" cy="980.24" rx="29.94" ry="33.77" transform="translate(-4521.28 2827.88) rotate(-33.55)"/><path class="cls-6" d="M5590.8,1209.7s124.6,51.17,120.5,133-75.36,98.25-75.36,98.25l-25.8-18.42,25.8-81.87-86.33-120.76Z" transform="translate(-4951 -558.1)"/><polygon class="cls-7" points="302.37 484.06 262.43 699.69 762.66 730.44 678.73 482.62 302.37 484.06"/><path class="cls-8" d="M5228.8,1174.85s74.9-39.4,107.45-92.2a84.63,84.63,0,0,0,12.39-40.21l-95.27-.29Z" transform="translate(-4951 -558.1)"/><path class="cls-9" d="M5675.16,1174.85s-75.18-57.86-85.94-116c-0.45-2.42-2.76-19-2.76-19l43.27,0.82Z" transform="translate(-4951 -558.1)"/><path class="cls-10" d="M5232.72,934.72c0,40.37-50.2,118.49-5,148.84,68.58,46.05,124.59,61.05,249.32,76,108.5,13,153.62-11.71,159.12-69.69,5.38-56.64,50.92-54.37,29.22-114.36-29.06-80.35-6-184-188.35-184C5268.64,791.44,5232.72,833.07,5232.72,934.72Z" transform="translate(-4951 -558.1)"/><circle class="cls-11" cx="367.45" cy="376.62" r="32.21"/><circle class="cls-12" cx="473.1" cy="376.62" r="32.21"/><path class="cls-13" d="M5350.66,934.72s1.54-13.4,16.63-13.4,24.6,13.4,24.6,13.4" transform="translate(-4951 -558.1)"/><path class="cls-13" d="M5456.3,934.72S5721.95,788,5805,855.92" transform="translate(-4951 -558.1)"/><ellipse class="cls-14" cx="420.31" cy="470.86" rx="134.57" ry="72.94"/><circle class="cls-15" cx="597.39" cy="521.69" r="25.15"/><path class="cls-13" d="M5331.52,839.22s101.16-130.72,186.68-49.8" transform="translate(-4951 -558.1)"/><path class="cls-13" d="M5331.52,809s101.16-130.72,186.68-49.8" transform="translate(-4951 -558.1)"/><polygon class="cls-16" points="410.5 279.35 148.47 141.32 106.94 279.35 410.5 325.37 410.5 279.35"/><polygon class="cls-17" points="507.5 275.58 820.5 86.11 802.11 297.76 507.5 321.59 507.5 275.58"/><ellipse class="cls-18" cx="5380.75" cy="1405.17" rx="40.93" ry="19.44" transform="translate(-4337.13 3711.3) rotate(-45.64)"/><ellipse class="cls-19" cx="5632.51" cy="1442.02" rx="19.44" ry="40.94" transform="translate(-3607.97 4808.83) rotate(-56.82)"/><rect class="cls-20" width="1000" height="1000"/><path class="cls-21" d="M6359.06,1223.43l-97.52,57.92,88.37,104.19,28.94-22.54s-29.18-11.29-31-38.69,54.16-82.89,54.16-82.89Z" transform="translate(-4951 -558.1)"/><ellipse class="cls-22" cx="6344.04" cy="1383.66" rx="40.93" ry="19.44" transform="translate(-4989.56 2018.78) rotate(-22.89)"/><path class="cls-23" d="M6606.09,1225s74,112.56,24.4,177.83-117.66,38.58-117.66,38.58l-10.91-29.77,67.5-53-3.12-148.41Z" transform="translate(-4951 -558.1)"/><path class="cls-24" d="M6493.78,1402.47c9.93-4.1,25,9.51,33.61,30.4s7.6,41.15-2.33,45.26-25-9.51-33.61-30.4S6483.85,1406.57,6493.78,1402.47Z" transform="translate(-4951 -558.1)"/><path class="cls-25" d="M6114.85,1032l82,56.54,88.09,21.11-22,38.09s-49-8.79-89-28.3-77.64-64.49-77.64-64.49Z" transform="translate(-4951 -558.1)"/><ellipse class="cls-26" cx="6095.85" cy="1035.27" rx="29.52" ry="39.47" transform="translate(-3103.68 4969.51) rotate(-56.24)"/><path class="cls-27" d="M6861.59,1077.31l-6.5,30.07s-87.95,33.44-122.26,34l-120.84,2,20.51-68.83S6835.15,1111.55,6861.59,1077.31Z" transform="translate(-4951 -558.1)"/><ellipse class="cls-28" cx="6863.8" cy="1093.32" rx="33.77" ry="29.94" transform="translate(804.41 7396.6) rotate(-89.87)"/><polygon class="cls-29" points="1302.37 484.06 1262.43 699.69 1762.66 730.44 1678.73 482.62 1302.37 484.06"/><path class="cls-30" d="M6228.8,1174.85s74.9-39.4,107.45-92.2a84.63,84.63,0,0,0,12.39-40.21l-95.27-.29Z" transform="translate(-4951 -558.1)"/><path class="cls-31" d="M6675.16,1174.85s-75.18-57.86-85.94-116c-0.45-2.42-2.76-19-2.76-19l43.27,0.82Z" transform="translate(-4951 -558.1)"/><path class="cls-32" d="M6232.72,934.72c0,40.37-50.2,118.49-5,148.84,68.58,46.05,124.59,61.05,249.32,76,108.5,13,153.62-11.71,159.12-69.69,5.38-56.64,50.92-54.37,29.22-114.36-29.06-80.35-6-184-188.35-184C6268.64,791.44,6232.72,833.07,6232.72,934.72Z" transform="translate(-4951 -558.1)"/><circle class="cls-33" cx="1367.45" cy="376.62" r="32.21"/><circle class="cls-34" cx="1473.1" cy="376.62" r="32.21"/><path class="cls-13" d="M6350.66,934.72s1.54-13.4,16.63-13.4,24.6,13.4,24.6,13.4" transform="translate(-4951 -558.1)"/><path class="cls-13" d="M6456.3,934.72S6721.95,788,6805,855.92" transform="translate(-4951 -558.1)"/><ellipse class="cls-35" cx="1420.31" cy="470.86" rx="134.57" ry="72.94"/><ellipse class="cls-36" cx="1598.93" cy="550.57" rx="66.69" ry="40.53"/><path class="cls-13" d="M6331.52,839.22s101.16-130.72,186.68-49.8" transform="translate(-4951 -558.1)"/><path class="cls-13" d="M6331.52,809s101.16-130.72,186.68-49.8" transform="translate(-4951 -558.1)"/><polygon class="cls-37" points="1410.5 279.35 1221.28 179.67 1189.96 328.25 1410.5 325.37 1410.5 279.35"/><polygon class="cls-38" points="1507.5 275.58 1760.4 152.94 1802.11 297.76 1507.5 321.59 1507.5 275.58"/><rect class="cls-20" x="1000" width="1000" height="1000"/><path class="cls-39" d="M7362.89,1217.55l-73.63,86.28,117.26,70.12,20.12-30.67s-31.26-1.27-41.83-26.62,24.53-95.93,24.53-95.93Z" transform="translate(-4951 -558.1)"/><ellipse class="cls-40" cx="7400.36" cy="1374.06" rx="40.93" ry="19.44" transform="translate(-3989.42 4714.1) rotate(-41.71)"/><path class="cls-41" d="M7589.09,1169s74,112.56,24.4,177.83-117.66,38.58-117.66,38.58l-10.91-29.77,67.5-53-3.12-148.41Z" transform="translate(-4951 -558.1)"/><path class="cls-42" d="M7476.78,1346.47c9.93-4.1,25,9.51,33.61,30.4s7.6,41.15-2.33,45.26-25-9.51-33.61-30.4S7466.85,1350.57,7476.78,1346.47Z" transform="translate(-4951 -558.1)"/><path class="cls-43" d="M7101.91,1060.68l98.31,15.9,88.63-18.72-3.5,43.83s-48.05,13.09-92.57,12.63-97.8-25-97.8-25Z" transform="translate(-4951 -558.1)"/><ellipse class="cls-44" cx="7086.16" cy="1071.79" rx="29.52" ry="39.47" transform="translate(44.37 7368.7) rotate(-81.64)"/><path class="cls-45" d="M7814.22,995.65l6.81,30s-65.6,67.46-96.46,82.46l-108.7,52.83-10.48-71.06S7804.71,1037.85,7814.22,995.65Z" transform="translate(-4951 -558.1)"/><ellipse class="cls-46" cx="7822.98" cy="1009.23" rx="29.94" ry="33.77" transform="translate(-4650.57 2823.63) rotate(-24.86)"/><polygon class="cls-47" points="2302.37 484.06 2262.43 699.69 2762.66 730.44 2678.73 482.62 2302.37 484.06"/><path class="cls-48" d="M7228.8,1174.85s74.9-39.4,107.45-92.2a84.63,84.63,0,0,0,12.39-40.21l-95.27-.29Z" transform="translate(-4951 -558.1)"/><path class="cls-49" d="M7675.16,1174.85s-75.18-57.86-85.94-116c-0.45-2.42-2.76-19-2.76-19l43.27,0.82Z" transform="translate(-4951 -558.1)"/><path class="cls-50" d="M7232.72,934.72c0,40.37-50.2,118.49-5,148.84,68.58,46.05,124.59,61.05,249.32,76,108.5,13,153.62-11.71,159.12-69.69,5.38-56.64,50.92-54.37,29.22-114.36-29.06-80.35-6-184-188.35-184C7268.64,791.44,7232.72,833.07,7232.72,934.72Z" transform="translate(-4951 -558.1)"/><circle class="cls-51" cx="2367.45" cy="376.62" r="32.21"/><circle class="cls-52" cx="2473.1" cy="376.62" r="32.21"/><path class="cls-13" d="M7350.66,934.72s1.54-13.4,16.63-13.4,24.6,13.4,24.6,13.4" transform="translate(-4951 -558.1)"/><path class="cls-13" d="M7456.3,934.72S7721.95,788,7805,855.92" transform="translate(-4951 -558.1)"/><ellipse class="cls-53" cx="2420.31" cy="470.86" rx="134.57" ry="72.94"/><ellipse class="cls-54" cx="2557.24" cy="550.57" rx="25" ry="40.53"/><path class="cls-13" d="M7331.52,839.22s101.16-130.72,186.68-49.8" transform="translate(-4951 -558.1)"/><path class="cls-13" d="M7331.52,809s101.16-130.72,186.68-49.8" transform="translate(-4951 -558.1)"/><polygon class="cls-55" points="2405.64 283.82 2162.55 108.41 2075.73 237.74 2392.65 327.96 2405.64 283.82"/><polygon class="cls-56" points="2461.19 275.35 2809.52 244.44 2822.97 398.42 2448.92 319.69 2461.19 275.35"/><rect class="cls-20" x="2000" width="1000" height="1000"/><path class="cls-57" d="M10819.43,1107.37l-98,18-89-16.84,4.43,43.74s48.32,12.07,92.82,10.67,97.25-27,97.25-27Z" transform="translate(-4951 -558.1)"/><ellipse class="cls-58" cx="10835.41" cy="1118.15" rx="39.47" ry="29.52" transform="translate(-4986.04 1259.74) rotate(-9.57)"/><path class="cls-59" d="M10569.35,1251.6l67.55,91.12-121.78,61.93-18-32s31.27,0.87,43.56-23.69-17.91-97.38-17.91-97.38h46.56Z" transform="translate(-4951 -558.1)"/><path class="cls-60" d="M10081.72,968.14l-11.26,28.63s54.64,76.6,82.88,96.09l99.46,68.66,21.1-68.66S10084.73,1011.29,10081.72,968.14Z" transform="translate(-4951 -558.1)"/><ellipse class="cls-61" cx="10071" cy="980.24" rx="33.77" ry="29.94" transform="matrix(0.55, -0.83, 0.83, 0.55, -1262.94, 8273.51)"/><path class="cls-62" d="M10311.2,1209.7s-124.6,51.17-120.5,133,75.36,98.25,75.36,98.25l25.8-18.42-25.8-81.87,86.33-120.76Z" transform="translate(-4951 -558.1)"/><polygon class="cls-63" points="5697.63 484.06 5737.57 699.69 5237.34 730.44 5321.27 482.62 5697.63 484.06"/><path class="cls-64" d="M10673.2,1174.85s-74.9-39.4-107.45-92.2a84.63,84.63,0,0,1-12.39-40.21l95.27-.29Z" transform="translate(-4951 -558.1)"/><path class="cls-65" d="M10226.84,1174.85s75.18-57.86,85.94-116c0.45-2.42,2.76-19,2.76-19l-43.27.82Z" transform="translate(-4951 -558.1)"/><path class="cls-66" d="M10669.28,934.72c0,40.37,50.2,118.49,5,148.84-68.58,46.05-124.59,61.05-249.32,76-108.5,13-153.62-11.71-159.12-69.69-5.38-56.64-50.92-54.37-29.22-114.36,29.06-80.35,6-184,188.35-184C10633.36,791.44,10669.28,833.07,10669.28,934.72Z" transform="translate(-4951 -558.1)"/><circle class="cls-67" cx="5632.55" cy="376.62" r="32.21"/><circle class="cls-68" cx="5526.9" cy="376.62" r="32.21"/><path class="cls-13" d="M10551.34,934.72s-1.54-13.4-16.63-13.4-24.6,13.4-24.6,13.4" transform="translate(-4951 -558.1)"/><path class="cls-13" d="M10445.7,934.72S10180.05,788,10097,855.92" transform="translate(-4951 -558.1)"/><ellipse class="cls-69" cx="5579.69" cy="470.86" rx="134.57" ry="72.94"/><circle class="cls-70" cx="5402.61" cy="521.69" r="25.15"/><path class="cls-13" d="M10570.48,839.22s-101.16-130.72-186.68-49.8" transform="translate(-4951 -558.1)"/><path class="cls-13" d="M10570.48,809s-101.16-130.72-186.68-49.8" transform="translate(-4951 -558.1)"/><polygon class="cls-71" points="5589.5 279.35 5851.53 141.32 5893.06 279.35 5589.5 325.37 5589.5 279.35"/><polygon class="cls-72" points="5492.5 275.58 5179.5 86.11 5197.89 297.76 5492.5 321.59 5492.5 275.58"/><ellipse class="cls-73" cx="10521.25" cy="1405.17" rx="19.44" ry="40.93" transform="translate(-2934.01 7199.14) rotate(-44.36)"/><ellipse class="cls-74" cx="10269.49" cy="1442.02" rx="40.94" ry="19.44" transform="translate(-4065.71 5297.38) rotate(-33.18)"/><rect class="cls-20" x="9951" y="558.1" width="1000" height="1000" transform="translate(15951 1558.1) rotate(-180)"/><path class="cls-75" d="M9542.94,1223.43l97.52,57.92-88.37,104.19L9523.16,1363s29.18-11.29,31-38.69-54.16-82.89-54.16-82.89Z" transform="translate(-4951 -558.1)"/><ellipse class="cls-76" cx="9557.96" cy="1383.66" rx="19.44" ry="40.93" transform="translate(-385.85 9092.42) rotate(-67.11)"/><path class="cls-77" d="M9295.91,1225s-74,112.56-24.4,177.83,117.66,38.58,117.66,38.58l10.91-29.77-67.5-53,3.12-148.41Z" transform="translate(-4951 -558.1)"/><path class="cls-78" d="M9408.22,1402.47c-9.93-4.1-25,9.51-33.61,30.4s-7.6,41.15,2.33,45.26,25-9.51,33.61-30.4S9418.15,1406.57,9408.22,1402.47Z" transform="translate(-4951 -558.1)"/><path class="cls-79" d="M9787.15,1032l-82,56.54-88.09,21.11,22,38.09s49-8.79,89-28.3,77.64-64.49,77.64-64.49Z" transform="translate(-4951 -558.1)"/><ellipse class="cls-80" cx="9806.15" cy="1035.27" rx="39.47" ry="29.52" transform="translate(-3872.44 5066.46) rotate(-33.76)"/><path class="cls-81" d="M9040.41,1077.31l6.5,30.07s87.95,33.44,122.26,34l120.84,2-20.51-68.83S9066.85,1111.55,9040.41,1077.31Z" transform="translate(-4951 -558.1)"/><ellipse class="cls-82" cx="9038.2" cy="1093.32" rx="29.94" ry="33.77" transform="translate(-4953.38 -538.25) rotate(-0.13)"/><polygon class="cls-83" points="4697.63 484.06 4737.57 699.69 4237.34 730.44 4321.27 482.62 4697.63 484.06"/><path class="cls-84" d="M9673.2,1174.85s-74.9-39.4-107.45-92.2a84.63,84.63,0,0,1-12.39-40.21l95.27-.29Z" transform="translate(-4951 -558.1)"/><path class="cls-85" d="M9226.84,1174.85s75.18-57.86,85.94-116c0.45-2.42,2.76-19,2.76-19l-43.27.82Z" transform="translate(-4951 -558.1)"/><path class="cls-86" d="M9669.28,934.72c0,40.37,50.2,118.49,5,148.84-68.58,46.05-124.59,61.05-249.32,76-108.5,13-153.62-11.71-159.12-69.69-5.38-56.64-50.92-54.37-29.22-114.36,29.06-80.35,6-184,188.35-184C9633.36,791.44,9669.28,833.07,9669.28,934.72Z" transform="translate(-4951 -558.1)"/><circle class="cls-87" cx="4632.55" cy="376.62" r="32.21"/><circle class="cls-88" cx="4526.9" cy="376.62" r="32.21"/><path class="cls-13" d="M9551.34,934.72s-1.54-13.4-16.63-13.4-24.6,13.4-24.6,13.4" transform="translate(-4951 -558.1)"/><path class="cls-13" d="M9445.7,934.72S9180.05,788,9097,855.92" transform="translate(-4951 -558.1)"/><ellipse class="cls-89" cx="4579.69" cy="470.86" rx="134.57" ry="72.94"/><ellipse class="cls-90" cx="4401.07" cy="550.57" rx="66.69" ry="40.53"/><path class="cls-13" d="M9570.48,839.22s-101.16-130.72-186.68-49.8" transform="translate(-4951 -558.1)"/><path class="cls-13" d="M9570.48,809s-101.16-130.72-186.68-49.8" transform="translate(-4951 -558.1)"/><polygon class="cls-91" points="4589.5 279.35 4778.72 179.67 4810.04 328.25 4589.5 325.37 4589.5 279.35"/><polygon class="cls-92" points="4492.5 275.58 4239.6 152.94 4197.89 297.76 4492.5 321.59 4492.5 275.58"/><rect class="cls-20" x="8951" y="558.1" width="1000" height="1000" transform="translate(13951 1558.1) rotate(-180)"/><path class="cls-93" d="M8539.11,1217.55l73.63,86.28-117.26,70.12-20.12-30.67s31.26-1.27,41.83-26.62-24.53-95.93-24.53-95.93Z" transform="translate(-4951 -558.1)"/><ellipse class="cls-94" cx="8501.64" cy="1374.06" rx="19.44" ry="40.93" transform="translate(-3131.77 6248.39) rotate(-48.29)"/><path class="cls-95" d="M8312.91,1169s-74,112.56-24.4,177.83,117.66,38.58,117.66,38.58l10.91-29.77-67.5-53,3.12-148.41Z" transform="translate(-4951 -558.1)"/><path class="cls-96" d="M8425.22,1346.47c-9.93-4.1-25,9.51-33.61,30.4s-7.6,41.15,2.33,45.26,25-9.51,33.61-30.4S8435.15,1350.57,8425.22,1346.47Z" transform="translate(-4951 -558.1)"/><path class="cls-97" d="M8800.09,1060.68l-98.31,15.9-88.63-18.72,3.5,43.83s48.05,13.09,92.57,12.63,97.8-25,97.8-25Z" transform="translate(-4951 -558.1)"/><ellipse class="cls-98" cx="8815.84" cy="1071.79" rx="39.47" ry="29.52" transform="translate(-5013.15 735.2) rotate(-8.36)"/><path class="cls-99" d="M8087.78,995.65l-6.81,30s65.6,67.46,96.46,82.46l108.7,52.83,10.48-71.06S8097.29,1037.85,8087.78,995.65Z" transform="translate(-4951 -558.1)"/><ellipse class="cls-100" cx="8079.02" cy="1009.23" rx="33.77" ry="29.94" transform="translate(-1183.6 7357.59) rotate(-65.14)"/><polygon class="cls-101" points="3697.63 484.06 3737.57 699.69 3237.34 730.44 3321.27 482.62 3697.63 484.06"/><path class="cls-102" d="M8673.2,1174.85s-74.9-39.4-107.45-92.2a84.63,84.63,0,0,1-12.39-40.21l95.27-.29Z" transform="translate(-4951 -558.1)"/><path class="cls-103" d="M8226.84,1174.85s75.18-57.86,85.94-116c0.45-2.42,2.76-19,2.76-19l-43.27.82Z" transform="translate(-4951 -558.1)"/><path class="cls-104" d="M8669.28,934.72c0,40.37,50.2,118.49,5,148.84-68.58,46.05-124.59,61.05-249.32,76-108.5,13-153.62-11.71-159.12-69.69-5.38-56.64-50.92-54.37-29.22-114.36,29.06-80.35,6-184,188.35-184C8633.36,791.44,8669.28,833.07,8669.28,934.72Z" transform="translate(-4951 -558.1)"/><circle class="cls-105" cx="3632.55" cy="376.62" r="32.21"/><circle class="cls-106" cx="3526.9" cy="376.62" r="32.21"/><path class="cls-13" d="M8551.34,934.72s-1.54-13.4-16.63-13.4-24.6,13.4-24.6,13.4" transform="translate(-4951 -558.1)"/><path class="cls-13" d="M8445.7,934.72S8180.05,788,8097,855.92" transform="translate(-4951 -558.1)"/><ellipse class="cls-107" cx="3579.69" cy="470.86" rx="134.57" ry="72.94"/><ellipse class="cls-108" cx="3442.76" cy="550.57" rx="25" ry="40.53"/><path class="cls-13" d="M8570.48,839.22s-101.16-130.72-186.68-49.8" transform="translate(-4951 -558.1)"/><path class="cls-13" d="M8570.48,809s-101.16-130.72-186.68-49.8" transform="translate(-4951 -558.1)"/><polygon class="cls-109" points="3594.36 283.82 3837.45 108.41 3924.27 237.74 3607.35 327.96 3594.36 283.82"/><polygon class="cls-110" points="3538.81 275.35 3190.48 244.44 3177.03 398.42 3551.08 319.69 3538.81 275.35"/><rect class="cls-20" x="7951" y="558.1" width="1000" height="1000" transform="translate(11951 1558.1) rotate(-180)"/></svg>