<svg id="Layer_1" data-name="Layer 1" xmlns="http://www.w3.org/2000/svg" xmlns:xlink="http://www.w3.org/1999/xlink" viewBox="0 0 1584.05 1528.07"><defs><style>.cls-1,.cls-10,.cls-11,.cls-12,.cls-13,.cls-2,.cls-3,.cls-4,.cls-5,.cls-6,.cls-7,.cls-8,.cls-9{stroke:#fff;stroke-miterlimit:10;stroke-width:10px;}.cls-1{fill:url(#radial-gradient);}.cls-2{fill:url(#radial-gradient-2);}.cls-3{fill:url(#radial-gradient-3);}.cls-4{fill:url(#radial-gradient-4);}.cls-5{fill:url(#radial-gradient-5);}.cls-6{fill:url(#radial-gradient-6);}.cls-7{fill:url(#radial-gradient-7);}.cls-8{fill:url(#radial-gradient-8);}.cls-9{fill:url(#radial-gradient-9);}.cls-10{fill:url(#radial-gradient-10);}.cls-11{fill:url(#radial-gradient-11);}.cls-12{fill:url(#radial-gradient-12);}.cls-13{fill:url(#radial-gradient-13);}</style><radialGradient id="radial-gradient" cx="474.05" cy="608.05" r="267.86" gradientUnits="userSpaceOnUse"><stop offset="0" stop-color="#d5ff00"/><stop offset="0.64" stop-color="#ebbb3e"/><stop offset="1" stop-color="#f79362"/></radialGradient><radialGradient id="radial-gradient-2" cx="3534.04" cy="1375.05" r="267.86" gradientTransform="translate(-2789.7 2950.13) rotate(-53.11)" xlink:href="#radial-gradient"/><radialGradient id="radial-gradient-3" cx="3827.88" cy="1039.08" r="267.86" gradientTransform="translate(-3506.03 1633.77) rotate(-27.51)" xlink:href="#radial-gradient"/><radialGradient id="radial-gradient-4" cx="4267.32" cy="2824.49" r="267.86" gradientTransform="translate(3598.05 -3906.53) rotate(87.79)" xlink:href="#radial-gradient"/><radialGradient id="radial-gradient-5" cx="2197.79" cy="3076.36" r="267.86" gradientTransform="translate(540.9 -3343.11) rotate(34.67)" xlink:href="#radial-gradient"/><radialGradient id="radial-gradient-6" cx="3357.96" cy="3150.75" r="267.86" gradientTransform="translate(1828.6 -4109.78) rotate(60.27)" xlink:href="#radial-gradient"/><radialGradient id="radial-gradient-7" cx="2875.92" cy="2961.53" r="267.86" gradientTransform="translate(5140.9 -466.74) rotate(119.84)" xlink:href="#radial-gradient"/><radialGradient id="radial-gradient-8" cx="3213.63" cy="27.62" r="267.86" gradientTransform="matrix(-1, 0.08, -0.08, -1, 4331.35, 656.94)" xlink:href="#radial-gradient"/><radialGradient id="radial-gradient-9" cx="3715.47" cy="183.44" r="267.86" gradientTransform="matrix(-0.84, 0.53, -0.53, -0.84, 4453.89, -1119.94)" xlink:href="#radial-gradient"/><radialGradient id="radial-gradient-10" cx="3541.78" cy="3291.76" r="267.86" gradientTransform="translate(-2159.28 4997.98) rotate(-97.04)" xlink:href="#radial-gradient"/><radialGradient id="radial-gradient-11" cx="1388.57" cy="2776.51" r="267.86" gradientTransform="translate(839.68 4179.55) rotate(-150.15)" xlink:href="#radial-gradient"/><radialGradient id="radial-gradient-12" cx="2498.62" cy="3230.01" r="267.86" gradientTransform="translate(-379 5051.76) rotate(-124.55)" xlink:href="#radial-gradient"/><radialGradient id="radial-gradient-13" cx="2610.89" cy="2989.59" r="267.86" gradientTransform="translate(-2961.86 2986.31) rotate(-77.68)" xlink:href="#radial-gradient"/></defs><title>levelup-background3</title><polyline class="cls-1" points="816.3 770.39 150.72 445.7 131.8 608.05"/><polyline class="cls-2" points="766.59 772.52 107.4 1109.99 225.89 1222.57"/><polyline class="cls-3" points="747.48 772.92 7.18 792.41 65.39 945.14"/><polyline class="cls-4" points="791.6 815.03 1090.33 137.4 927.37 124.76"/><polyline class="cls-5" points="787.55 765.44 424.86 119.78 316.94 242.53"/><polyline class="cls-6" points="786.42 746.36 738.33 7.37 587.96 71.44"/><polyline class="cls-7" points="829.9 770.39 1442.72 354.62 1311.32 257.42"/><polyline class="cls-8" points="772.09 766.58 1462.6 1034.17 1467.81 870.81"/><polyline class="cls-9" points="840.45 758.28 1576.49 676.62 1505.64 529.33"/><polyline class="cls-10" points="792.95 720.03 552.25 1420.37 715.69 1419.27"/><polyline class="cls-11" points="801.15 769.11 1216.84 1381.99 1314.06 1250.6"/><polyline class="cls-12" points="803.88 788.02 913.93 1520.35 1058.38 1443.87"/><polyline class="cls-13" points="747.48 773.5 288.28 1354.5 442.86 1407.62"/></svg>