<svg xmlns="http://www.w3.org/2000/svg" viewBox="0 0 821.42 3840"><defs><style>.cls-1{fill:#f91085;}.cls-2{fill:#0071bc;}</style></defs><title>chargephone-background</title><g id="Layer_2" data-name="Layer 2"><g id="Layer_2-2" data-name="Layer 2"><path class="cls-1" d="M207.72,268.71l.94-1.75c8.32-15.53,19.36-28,32.82-37.13,16.91-11.44,37.82-17.49,60.46-17.49,2.48,0,5,.07,7.53.22,24.79,1.41,50.56,9.72,74.5,24l1.71,1-8.81,14.74-1.71-1c-21.58-12.89-44.63-20.36-66.67-21.62-2.2-.13-4.41-.19-6.57-.19-19.19,0-36.76,5-50.82,14.54-11.12,7.53-20.31,18-27.31,31l-.94,1.75Z"/><path class="cls-2" d="M301.93,214.34q3.68,0,7.42.21c24.48,1.39,49.93,9.61,73.59,23.74l-6.77,11.33C354.33,236.57,331,229,308.6,227.72q-3.37-.19-6.68-.19c-19.64,0-37.48,5.1-51.94,14.88-11.4,7.71-20.8,18.38-27.94,31.72l-11.63-6.23c8.17-15.24,19-27.5,32.18-36.42,16.66-11.27,37.05-17.14,59.34-17.14m0-4c-23,0-44.33,6.17-61.57,17.83-13.73,9.29-25,22-33.46,37.84L205,269.53l3.51,1.88,11.63,6.23,3.51,1.88,1.88-3.51c6.84-12.76,15.81-23,26.67-30.3,13.73-9.29,30.92-14.2,49.71-14.2,2.12,0,4.29.06,6.45.19,21.72,1.24,44.46,8.62,65.77,21.34l3.42,2,2-3.42,6.77-11.33,2-3.42-3.42-2c-24.22-14.47-50.3-22.87-75.41-24.3-2.55-.15-5.13-.22-7.64-.22Z"/><path class="cls-1" d="M2.69,419.28l.94-1.75C12,402,23,389.5,36.45,380.4,53.36,369,74.28,362.91,96.93,362.91c2.47,0,5,.07,7.51.21,24.8,1.41,50.56,9.72,74.5,24l1.71,1-8.81,14.74-1.71-1c-21.58-12.89-44.63-20.36-66.67-21.62-2.18-.12-4.38-.19-6.53-.19-19.22,0-36.81,5-50.86,14.53-11.13,7.53-20.31,18-27.31,31l-.94,1.75Z"/><path class="cls-2" d="M96.93,364.9q3.67,0,7.4.21c24.48,1.4,49.93,9.61,73.59,23.75l-6.77,11.33c-21.85-13.05-45.22-20.62-67.58-21.9q-3.35-.19-6.64-.19c-19.66,0-37.51,5.09-52,14.88-11.4,7.71-20.8,18.38-27.94,31.72L5.39,418.46c8.17-15.24,19-27.5,32.18-36.42,16.67-11.27,37.07-17.14,59.36-17.14m0-4c-23.06,0-44.35,6.16-61.59,17.83-13.73,9.29-25,22-33.46,37.84L0,420.09,3.51,422l11.63,6.23,3.51,1.88,1.88-3.51c6.84-12.76,15.81-23,26.67-30.3,13.72-9.29,30.93-14.19,49.75-14.19,2.11,0,4.27.06,6.41.18,21.72,1.24,44.46,8.62,65.76,21.34l3.42,2,2-3.42,6.77-11.33,2-3.42-3.42-2c-24.22-14.47-50.29-22.87-75.41-24.3-2.55-.15-5.11-.22-7.63-.22Z"/><path class="cls-1" d="M420.77,407.7l.94-1.75c8.32-15.53,19.36-28,32.82-37.13,16.91-11.44,37.82-17.48,60.48-17.48,2.47,0,5,.07,7.51.21,24.8,1.41,50.56,9.72,74.5,24l1.71,1-8.81,14.74-1.71-1c-21.58-12.89-44.63-20.36-66.67-21.62-2.18-.12-4.38-.19-6.53-.19-19.22,0-36.8,5-50.86,14.53-11.13,7.53-20.31,18-27.31,31l-.94,1.76Z"/><path class="cls-2" d="M515,353.33q3.67,0,7.4.21c24.48,1.4,49.93,9.61,73.59,23.74l-6.77,11.33C567.39,375.56,544,368,521.66,366.71q-3.35-.19-6.64-.19c-19.65,0-37.51,5.09-52,14.88-11.4,7.71-20.8,18.38-27.94,31.72l-11.63-6.23c8.17-15.25,19-27.5,32.18-36.42,16.67-11.27,37.06-17.14,59.36-17.14m0-4c-23.06,0-44.35,6.16-61.59,17.82-13.73,9.29-25,22-33.46,37.84l-1.88,3.51,3.51,1.88,11.63,6.23,3.51,1.88L438.6,415c6.84-12.76,15.81-23,26.67-30.3C479,375.41,496.19,370.5,515,370.5c2.11,0,4.27.06,6.42.18,21.72,1.24,44.46,8.62,65.76,21.34l3.42,2,2-3.42,6.77-11.33,2-3.42-3.42-2c-24.22-14.47-50.29-22.87-75.41-24.3-2.55-.15-5.11-.22-7.63-.22Z"/><path class="cls-1" d="M640.73,280l.94-1.75c8.32-15.53,19.36-28,32.82-37.13,16.91-11.44,37.82-17.48,60.49-17.48,2.47,0,5,.07,7.5.21,24.8,1.41,50.56,9.72,74.5,24l1.71,1-8.81,14.74-1.71-1c-21.58-12.89-44.63-20.36-66.67-21.62-2.19-.13-4.39-.19-6.54-.19-19.21,0-36.79,5-50.85,14.53-11.13,7.53-20.31,18-27.3,31l-.94,1.75Z"/><path class="cls-2" d="M735,225.67q3.66,0,7.39.21c24.48,1.4,49.93,9.61,73.59,23.74l-6.77,11.33c-21.85-13.05-45.22-20.62-67.58-21.9q-3.36-.19-6.66-.19c-19.65,0-37.5,5.09-52,14.88-11.4,7.71-20.8,18.38-27.94,31.72l-11.63-6.23c8.17-15.24,19-27.5,32.18-36.42,16.67-11.28,37.07-17.14,59.37-17.14m0-4c-23.07,0-44.37,6.16-61.61,17.82-13.73,9.29-25,22-33.46,37.84L638,280.86l3.51,1.88L653.17,289l3.51,1.88,1.88-3.51c6.84-12.76,15.81-23,26.67-30.3,13.72-9.29,30.92-14.19,49.73-14.19,2.12,0,4.28.06,6.43.18,21.72,1.24,44.46,8.62,65.77,21.34l3.42,2,2-3.42,6.77-11.33,2-3.42-3.42-2c-24.22-14.47-50.29-22.87-75.41-24.3-2.54-.14-5.11-.22-7.61-.22Z"/><path class="cls-1" d="M207.72,58.36l.94-1.75c8.32-15.53,19.36-28,32.82-37.13C258.38,8,279.29,2,301.93,2c2.48,0,5,.07,7.53.22,24.8,1.41,50.56,9.72,74.5,24l1.71,1L376.87,42l-1.71-1c-21.58-12.89-44.63-20.36-66.67-21.62-2.2-.13-4.41-.19-6.57-.19-19.19,0-36.76,5-50.82,14.54-11.12,7.53-20.31,18-27.31,31l-.94,1.75Z"/><path class="cls-2" d="M301.93,4q3.68,0,7.42.21c24.48,1.39,49.93,9.61,73.59,23.74l-6.77,11.33C354.33,26.21,331,18.64,308.6,17.37q-3.37-.19-6.68-.19c-19.64,0-37.48,5.1-51.94,14.88-11.4,7.71-20.8,18.38-27.94,31.72l-11.63-6.23c8.17-15.24,19-27.5,32.18-36.42C259.25,9.85,279.64,4,301.93,4m0-4c-23,0-44.33,6.17-61.57,17.83-13.73,9.29-25,22-33.46,37.84L205,59.17l3.51,1.88,11.63,6.23,3.51,1.88,1.88-3.51c6.84-12.76,15.81-23,26.67-30.3,13.73-9.29,30.92-14.2,49.71-14.2,2.12,0,4.29.06,6.45.19,21.72,1.24,44.46,8.62,65.77,21.34l3.42,2,2-3.42L386.36,30l2-3.42-3.42-2C360.77,10.05,334.69,1.65,309.58.22,307,.07,304.45,0,301.93,0Z"/><path class="cls-1" d="M2.69,208.92l.94-1.75C12,191.63,23,179.14,36.45,170c16.91-11.44,37.82-17.48,60.48-17.48,2.47,0,5,.07,7.51.21,24.8,1.41,50.56,9.72,74.5,24l1.71,1-8.81,14.74-1.71-1c-21.58-12.89-44.63-20.36-66.67-21.62-2.18-.12-4.38-.19-6.53-.19-19.22,0-36.81,5-50.86,14.53-11.13,7.53-20.31,18-27.31,31L17.83,217Z"/><path class="cls-2" d="M96.93,154.54q3.67,0,7.4.21c24.48,1.4,49.93,9.61,73.59,23.75l-6.77,11.33c-21.85-13.05-45.22-20.62-67.58-21.9q-3.35-.19-6.64-.19c-19.66,0-37.51,5.09-52,14.88C33.57,190.32,24.17,201,17,214.34L5.39,208.11c8.17-15.24,19-27.5,32.18-36.42,16.67-11.27,37.07-17.14,59.36-17.14m0-4c-23.06,0-44.35,6.16-61.59,17.83-13.73,9.29-25,22-33.46,37.84L0,209.73l3.51,1.88,11.63,6.23,3.51,1.88,1.88-3.51c6.84-12.76,15.81-23,26.67-30.3,13.72-9.29,30.93-14.19,49.75-14.19,2.11,0,4.27.06,6.41.18,21.72,1.24,44.46,8.62,65.76,21.34l3.42,2,2-3.42,6.77-11.33,2-3.42-3.42-2c-24.22-14.47-50.29-22.87-75.41-24.3-2.55-.15-5.11-.22-7.63-.22Z"/><path class="cls-1" d="M420.77,197.35l.94-1.75c8.32-15.53,19.36-28,32.82-37.13C471.44,147,492.35,141,515,141c2.48,0,5,.07,7.52.22,24.8,1.41,50.56,9.72,74.5,24l1.71,1L589.92,181l-1.71-1c-21.58-12.89-44.63-20.36-66.67-21.62-2.18-.12-4.38-.19-6.53-.19-19.22,0-36.8,5-50.86,14.53-11.13,7.53-20.31,18-27.31,31l-.94,1.76Z"/><path class="cls-2" d="M515,143q3.67,0,7.4.21c24.48,1.4,49.93,9.61,73.59,23.74l-6.77,11.33c-21.85-13.05-45.22-20.62-67.58-21.9q-3.35-.19-6.64-.19c-19.65,0-37.51,5.09-52,14.88-11.4,7.71-20.8,18.38-27.94,31.72l-11.63-6.23c8.17-15.25,19-27.5,32.18-36.42C472.31,148.84,492.71,143,515,143m0-4c-23.05,0-44.35,6.16-61.59,17.83-13.73,9.29-25,22-33.46,37.84l-1.88,3.51,3.51,1.88,11.63,6.23,3.51,1.88,1.88-3.51c6.84-12.76,15.81-23,26.67-30.3,13.72-9.28,30.92-14.19,49.74-14.19,2.11,0,4.27.06,6.42.18,21.72,1.24,44.46,8.62,65.76,21.34l3.42,2,2-3.42L599.42,169l2-3.42-3.42-2c-24.22-14.47-50.29-22.87-75.41-24.3-2.55-.15-5.12-.22-7.63-.22Z"/><path class="cls-1" d="M640.73,69.69l.94-1.75C650,52.4,661,39.91,674.48,30.8,691.39,19.37,712.31,13.32,735,13.32c2.47,0,5,.07,7.5.21,24.8,1.41,50.56,9.72,74.5,24l1.71,1-8.81,14.74-1.71-1c-21.58-12.89-44.63-20.36-66.67-21.62-2.19-.13-4.39-.19-6.55-.19-19.21,0-36.79,5-50.84,14.53C673,52.56,663.8,63,656.8,76l-.94,1.75Z"/><path class="cls-2" d="M735,15.31q3.66,0,7.39.21c24.48,1.4,49.93,9.61,73.59,23.74l-6.77,11.33C787.34,37.54,764,30,741.61,28.7q-3.36-.19-6.66-.19c-19.65,0-37.5,5.09-52,14.88C671.6,51.09,662.2,61.76,655,75.1l-11.63-6.23c8.17-15.25,19-27.5,32.18-36.42C692.27,21.18,712.67,15.31,735,15.31m0-4c-23.07,0-44.37,6.16-61.61,17.82-13.73,9.29-25,22-33.46,37.84L638,70.5l3.51,1.88,11.63,6.23,3.51,1.88L658.56,77c6.84-12.76,15.81-23,26.67-30.3,13.73-9.29,30.92-14.19,49.73-14.19,2.12,0,4.28.06,6.43.18,21.72,1.24,44.46,8.62,65.77,21.34l3.42,2,2-3.42,6.77-11.33,2-3.42-3.42-2C793.78,21.38,767.7,13,742.59,11.55c-2.54-.14-5.11-.22-7.61-.22Z"/><path class="cls-1" d="M207.72,689.43l.94-1.75c8.32-15.53,19.36-28,32.82-37.13,16.91-11.44,37.82-17.48,60.46-17.48,2.48,0,5,.07,7.53.22,24.8,1.41,50.56,9.72,74.5,24l1.71,1-8.81,14.74-1.71-1c-21.57-12.89-44.63-20.36-66.67-21.62-2.2-.13-4.41-.19-6.57-.19-19.19,0-36.76,5-50.82,14.54-11.13,7.53-20.31,18-27.31,31l-.94,1.75Z"/><path class="cls-2" d="M301.94,635q3.67,0,7.42.21c24.48,1.4,49.93,9.61,73.59,23.74l-6.77,11.33c-21.85-13.05-45.22-20.62-67.58-21.9q-3.37-.19-6.68-.19c-19.64,0-37.48,5.1-51.94,14.88-11.4,7.71-20.8,18.38-27.94,31.72l-11.63-6.23c8.17-15.24,19-27.5,32.18-36.42C259.25,640.92,279.64,635,301.94,635m0-4c-23,0-44.34,6.16-61.58,17.83-13.73,9.29-25,22-33.46,37.84L205,690.24l3.51,1.88,11.63,6.23,3.51,1.88,1.88-3.51c6.84-12.76,15.81-23,26.67-30.31,13.73-9.29,30.92-14.19,49.71-14.19,2.12,0,4.29.06,6.45.19,21.73,1.24,44.47,8.62,65.77,21.34l3.42,2,2-3.42L386.36,661l2-3.42-3.42-2c-24.22-14.47-50.29-22.87-75.41-24.3-2.55-.15-5.12-.22-7.64-.22Z"/><path class="cls-1" d="M2.69,840l.94-1.75C12,822.7,23,810.21,36.45,801.11c16.91-11.44,37.82-17.48,60.48-17.48,2.47,0,5,.07,7.51.21,24.8,1.41,50.56,9.72,74.5,24l1.71,1-8.81,14.74-1.71-1c-21.57-12.89-44.63-20.36-66.67-21.62-2.18-.12-4.38-.19-6.53-.19-19.22,0-36.81,5-50.86,14.53-11.13,7.53-20.31,18-27.3,31l-.94,1.75Z"/><path class="cls-2" d="M96.93,785.61q3.67,0,7.4.21c24.48,1.4,49.93,9.61,73.59,23.75l-6.77,11.33c-21.85-13.05-45.22-20.62-67.58-21.9q-3.35-.19-6.64-.19c-19.66,0-37.51,5.09-52,14.88-11.4,7.71-20.8,18.38-27.94,31.72L5.39,839.18c8.17-15.24,19-27.5,32.18-36.42,16.67-11.27,37.07-17.14,59.36-17.14m0-4c-23.06,0-44.35,6.16-61.59,17.83-13.73,9.29-25,22-33.46,37.84L0,840.8l3.51,1.88,11.63,6.23,3.51,1.88,1.88-3.51c6.84-12.76,15.81-23,26.67-30.31,13.72-9.28,30.93-14.19,49.75-14.19,2.11,0,4.27.06,6.41.18,21.72,1.24,44.46,8.62,65.76,21.34l3.42,2,2-3.42,6.77-11.33,2-3.42-3.42-2c-24.22-14.47-50.29-22.87-75.41-24.3-2.55-.15-5.11-.22-7.63-.22Z"/><path class="cls-1" d="M420.77,828.42l.94-1.75c8.32-15.53,19.36-28,32.82-37.13,16.91-11.44,37.82-17.48,60.48-17.48,2.47,0,5,.07,7.51.21,24.8,1.41,50.56,9.72,74.5,24l1.71,1-8.81,14.74-1.71-1c-21.57-12.89-44.63-20.36-66.67-21.62-2.18-.12-4.38-.19-6.53-.19-19.22,0-36.8,5-50.86,14.53-11.13,7.53-20.31,18-27.31,31l-.94,1.76Z"/><path class="cls-2" d="M515,774q3.67,0,7.4.21c24.48,1.4,49.93,9.61,73.59,23.74l-6.77,11.33c-21.85-13.05-45.22-20.62-67.58-21.9q-3.35-.19-6.64-.19c-19.65,0-37.51,5.09-52,14.88-11.4,7.71-20.8,18.38-27.94,31.72l-11.63-6.23c8.17-15.25,19-27.5,32.18-36.42C472.31,779.91,492.71,774,515,774m0-4c-23.06,0-44.35,6.16-61.59,17.82-13.73,9.29-25,22-33.46,37.84l-1.88,3.51,3.51,1.88,11.63,6.23,3.51,1.88,1.88-3.51c6.84-12.76,15.81-23,26.67-30.31,13.72-9.28,30.92-14.19,49.74-14.19,2.11,0,4.27.06,6.42.18,21.72,1.24,44.46,8.62,65.76,21.34l3.42,2,2-3.42L599.42,800l2-3.42-3.42-2c-24.22-14.47-50.29-22.87-75.41-24.3-2.55-.15-5.11-.22-7.63-.22Z"/><path class="cls-1" d="M640.73,700.76l.94-1.75c8.32-15.53,19.36-28,32.82-37.13,16.91-11.44,37.82-17.48,60.49-17.48,2.47,0,5,.07,7.5.21,24.8,1.41,50.56,9.72,74.5,24l1.71,1-8.81,14.74-1.71-1C786.6,670.48,763.54,663,741.5,661.75c-2.19-.13-4.39-.19-6.54-.19-19.21,0-36.79,5-50.85,14.54-11.13,7.53-20.31,18-27.3,31l-.94,1.76Z"/><path class="cls-2" d="M735,646.38q3.66,0,7.39.21c24.48,1.4,49.93,9.61,73.59,23.74l-6.77,11.33C787.34,668.61,764,661,741.61,659.76q-3.36-.19-6.66-.19c-19.65,0-37.5,5.09-52,14.88-11.4,7.71-20.8,18.38-27.94,31.72l-11.63-6.23c8.17-15.25,19-27.5,32.18-36.42,16.67-11.28,37.07-17.14,59.37-17.14m0-4c-23.07,0-44.37,6.16-61.61,17.82-13.73,9.29-25,22-33.46,37.84L638,701.57l3.51,1.88,11.63,6.23,3.51,1.88,1.88-3.51c6.84-12.76,15.81-23,26.67-30.3,13.72-9.29,30.92-14.19,49.73-14.19,2.12,0,4.28.06,6.43.18,21.72,1.24,44.47,8.62,65.77,21.34l3.42,2,2-3.42,6.77-11.33,2-3.42-3.42-2c-24.22-14.47-50.29-22.87-75.41-24.3-2.54-.14-5.11-.22-7.61-.22Z"/><path class="cls-1" d="M207.72,479.07l.94-1.75c8.32-15.53,19.36-28,32.82-37.13,16.91-11.44,37.82-17.49,60.46-17.49,2.48,0,5,.07,7.53.22,24.79,1.41,50.56,9.72,74.5,24l1.71,1-8.81,14.74-1.71-1c-21.57-12.89-44.63-20.36-66.67-21.62-2.2-.13-4.41-.19-6.57-.19-19.19,0-36.76,5-50.82,14.54-11.12,7.53-20.31,18-27.31,31l-.94,1.75Z"/><path class="cls-2" d="M301.93,424.69q3.68,0,7.42.21c24.48,1.39,49.93,9.61,73.59,23.74L376.18,460c-21.85-13.05-45.22-20.62-67.58-21.9q-3.37-.19-6.68-.19c-19.64,0-37.48,5.1-51.94,14.88-11.4,7.71-20.8,18.38-27.94,31.72l-11.63-6.23c8.17-15.24,19-27.5,32.18-36.42,16.66-11.27,37.05-17.14,59.34-17.14m0-4c-23,0-44.33,6.17-61.57,17.83-13.73,9.29-25,22-33.46,37.84L205,479.88l3.51,1.88L220.16,488l3.51,1.88,1.88-3.51c6.84-12.76,15.81-23,26.67-30.3,13.73-9.29,30.92-14.2,49.71-14.2,2.12,0,4.29.06,6.45.19,21.72,1.24,44.47,8.62,65.77,21.34l3.42,2,2-3.42,6.77-11.33,2-3.42-3.42-2c-24.22-14.47-50.3-22.87-75.41-24.3-2.55-.15-5.13-.22-7.64-.22Z"/><path class="cls-1" d="M2.69,629.63l.94-1.75c8.32-15.53,19.36-28,32.82-37.13,16.91-11.44,37.82-17.48,60.48-17.48,2.47,0,5,.07,7.51.21,24.8,1.41,50.56,9.72,74.5,24l1.71,1-8.81,14.74-1.71-1c-21.57-12.89-44.63-20.36-66.67-21.62-2.18-.12-4.38-.19-6.53-.19-19.22,0-36.81,5-50.86,14.53-11.13,7.53-20.31,18-27.31,31l-.94,1.75Z"/><path class="cls-2" d="M96.93,575.26q3.67,0,7.4.21c24.48,1.4,49.93,9.61,73.59,23.75l-6.77,11.33c-21.85-13.05-45.22-20.62-67.58-21.9q-3.35-.19-6.64-.19c-19.66,0-37.51,5.09-52,14.88C33.57,611,24.17,621.71,17,635L5.39,628.82c8.17-15.24,19-27.5,32.18-36.42,16.67-11.27,37.07-17.14,59.36-17.14m0-4c-23.06,0-44.35,6.16-61.59,17.83-13.73,9.29-25,22-33.46,37.84L0,630.45l3.51,1.88,11.63,6.23,3.51,1.88,1.88-3.51c6.84-12.76,15.81-23,26.67-30.3,13.72-9.29,30.93-14.19,49.75-14.19,2.11,0,4.27.06,6.41.18,21.72,1.24,44.46,8.62,65.76,21.34l3.42,2,2-3.42,6.77-11.33,2-3.42-3.42-2c-24.22-14.47-50.29-22.87-75.41-24.3-2.55-.15-5.11-.22-7.63-.22Z"/><path class="cls-1" d="M420.77,618.06l.94-1.75c8.32-15.53,19.36-28,32.82-37.13,16.91-11.44,37.82-17.48,60.48-17.48,2.47,0,5,.07,7.51.21,24.8,1.41,50.56,9.72,74.5,24l1.71,1-8.81,14.74-1.71-1c-21.57-12.89-44.63-20.36-66.67-21.62-2.18-.12-4.38-.19-6.53-.19-19.22,0-36.8,5-50.86,14.53-11.13,7.53-20.31,18-27.31,31l-.94,1.76Z"/><path class="cls-2" d="M515,563.69q3.67,0,7.4.21c24.48,1.4,49.93,9.61,73.59,23.74L589.24,599c-21.85-13.05-45.22-20.62-67.58-21.9q-3.35-.19-6.64-.19c-19.65,0-37.51,5.09-52,14.88-11.4,7.71-20.8,18.38-27.94,31.72l-11.63-6.23c8.17-15.24,19-27.5,32.18-36.42,16.67-11.27,37.06-17.14,59.36-17.14m0-4c-23.06,0-44.35,6.16-61.59,17.82-13.73,9.29-25,22-33.46,37.84l-1.88,3.51,3.51,1.88L433.21,627l3.51,1.88,1.88-3.51c6.84-12.76,15.81-23,26.67-30.3,13.72-9.28,30.92-14.19,49.74-14.19,2.11,0,4.27.06,6.42.18,21.72,1.24,44.46,8.62,65.76,21.34l3.42,2,2-3.42,6.77-11.33,2-3.42-3.42-2c-24.22-14.47-50.29-22.87-75.41-24.3-2.55-.15-5.11-.22-7.63-.22Z"/><path class="cls-1" d="M640.73,490.4l.94-1.75c8.32-15.53,19.36-28,32.82-37.13C691.39,440.08,712.31,434,735,434c2.47,0,5,.07,7.5.21,24.8,1.41,50.56,9.72,74.5,24l1.71,1L809.88,474l-1.71-1c-21.58-12.89-44.63-20.36-66.67-21.62-2.19-.13-4.39-.19-6.54-.19-19.21,0-36.79,5-50.85,14.53-11.13,7.53-20.31,18-27.3,31l-.94,1.75Z"/><path class="cls-2" d="M735,436q3.66,0,7.39.21c24.48,1.4,49.93,9.61,73.59,23.74l-6.77,11.33c-21.85-13.05-45.22-20.62-67.58-21.9q-3.36-.19-6.66-.19c-19.65,0-37.5,5.09-52,14.88-11.4,7.71-20.8,18.38-27.94,31.72l-11.63-6.23c8.17-15.24,19-27.5,32.18-36.42C692.27,441.89,712.67,436,735,436m0-4c-23.07,0-44.37,6.16-61.61,17.82-13.73,9.29-25,22-33.46,37.84L638,491.21l3.51,1.88,11.63,6.23,3.51,1.88,1.88-3.51c6.84-12.76,15.81-23,26.67-30.31,13.72-9.28,30.92-14.19,49.73-14.19,2.12,0,4.28.06,6.43.18,21.72,1.24,44.46,8.62,65.77,21.34l3.42,2,2-3.42L819.37,462l2-3.42-3.42-2c-24.22-14.47-50.29-22.87-75.41-24.3-2.54-.14-5.11-.22-7.61-.22Z"/><path class="cls-1" d="M207.72,1113.66l.94-1.75c8.32-15.53,19.36-28,32.82-37.13,16.91-11.44,37.82-17.49,60.46-17.49,2.48,0,5,.07,7.53.22,24.8,1.41,50.56,9.72,74.5,24l1.71,1-8.81,14.74-1.71-1c-21.58-12.89-44.63-20.36-66.67-21.62-2.2-.13-4.41-.19-6.57-.19-19.19,0-36.76,5-50.82,14.54-11.12,7.53-20.31,18-27.31,31l-.94,1.75Z"/><path class="cls-2" d="M301.93,1059.28q3.68,0,7.42.21c24.48,1.39,49.93,9.61,73.59,23.74l-6.77,11.33c-21.85-13.05-45.22-20.62-67.58-21.9q-3.37-.19-6.68-.19c-19.64,0-37.48,5.1-51.94,14.88-11.4,7.71-20.8,18.38-27.94,31.72l-11.63-6.23c8.17-15.24,19-27.5,32.18-36.42,16.66-11.27,37-17.14,59.34-17.14m0-4c-23,0-44.33,6.17-61.57,17.83-13.73,9.29-25,22-33.46,37.84l-1.88,3.51,3.51,1.88,11.63,6.23,3.51,1.88,1.88-3.51c6.84-12.76,15.81-23,26.67-30.3,13.73-9.29,30.92-14.2,49.71-14.2,2.12,0,4.29.06,6.45.19,21.72,1.24,44.46,8.62,65.77,21.34l3.42,2,2-3.42,6.77-11.33,2-3.42-3.42-2c-24.22-14.47-50.29-22.87-75.41-24.3-2.55-.15-5.13-.22-7.65-.22Z"/><path class="cls-1" d="M2.69,1264.22l.94-1.75c8.32-15.53,19.36-28,32.82-37.13,16.91-11.44,37.82-17.49,60.47-17.49,2.48,0,5,.07,7.52.22,24.8,1.41,50.56,9.72,74.5,24l1.71,1-8.81,14.74-1.71-1c-21.58-12.89-44.63-20.36-66.67-21.62-2.18-.12-4.38-.19-6.53-.19-19.22,0-36.81,5-50.86,14.53-11.13,7.53-20.31,18-27.31,31l-.94,1.75Z"/><path class="cls-2" d="M96.93,1209.85q3.67,0,7.4.21c24.48,1.4,49.93,9.61,73.59,23.75l-6.77,11.33c-21.85-13.05-45.22-20.62-67.58-21.9q-3.35-.19-6.64-.19c-19.66,0-37.51,5.09-52,14.88-11.4,7.71-20.8,18.38-27.94,31.72l-11.63-6.23c8.17-15.24,19-27.5,32.18-36.42,16.67-11.27,37.06-17.14,59.36-17.14m0-4c-23.05,0-44.35,6.16-61.59,17.83-13.73,9.29-25,22-33.46,37.84L0,1265l3.51,1.88,11.63,6.23,3.51,1.88,1.88-3.51c6.84-12.76,15.81-23,26.67-30.3,13.72-9.29,30.93-14.19,49.75-14.19,2.11,0,4.27.06,6.41.18,21.72,1.24,44.46,8.62,65.76,21.34l3.42,2,2-3.42,6.77-11.33,2-3.42-3.42-2c-24.22-14.47-50.29-22.87-75.41-24.3-2.55-.15-5.12-.22-7.63-.22Z"/><path class="cls-1" d="M420.77,1252.65l.94-1.75c8.32-15.53,19.36-28,32.82-37.13,16.91-11.44,37.82-17.48,60.47-17.48,2.48,0,5,.07,7.52.22,24.8,1.41,50.56,9.72,74.5,24l1.71,1-8.81,14.74-1.71-1c-21.58-12.89-44.63-20.36-66.67-21.62-2.18-.12-4.38-.19-6.53-.19-19.22,0-36.81,5-50.86,14.53-11.13,7.53-20.31,18-27.31,31l-.94,1.76Z"/><path class="cls-2" d="M515,1198.27q3.67,0,7.4.21c24.48,1.4,49.93,9.61,73.59,23.74l-6.77,11.33c-21.85-13.05-45.22-20.62-67.58-21.9q-3.35-.19-6.64-.19c-19.66,0-37.51,5.09-52,14.88-11.4,7.71-20.8,18.38-27.94,31.72l-11.63-6.23c8.17-15.25,19-27.5,32.18-36.42,16.67-11.27,37.06-17.14,59.36-17.14m0-4c-23.05,0-44.35,6.16-61.59,17.83-13.73,9.29-25,22-33.46,37.84l-1.88,3.51,3.51,1.88,11.63,6.23,3.51,1.88,1.88-3.51c6.84-12.76,15.81-23,26.67-30.3,13.72-9.29,30.93-14.19,49.75-14.19,2.11,0,4.27.06,6.41.18,21.72,1.24,44.46,8.62,65.76,21.34l3.42,2,2-3.42,6.77-11.33,2-3.42-3.42-2c-24.22-14.47-50.29-22.87-75.41-24.3-2.55-.15-5.12-.22-7.63-.22Z"/><path class="cls-1" d="M640.73,1125l.94-1.75c8.32-15.53,19.36-28,32.82-37.13,16.91-11.44,37.82-17.48,60.49-17.48,2.47,0,5,.07,7.5.21,24.8,1.41,50.56,9.72,74.5,24l1.71,1-8.81,14.74-1.71-1c-21.58-12.89-44.63-20.36-66.67-21.62-2.19-.13-4.39-.19-6.54-.19-19.21,0-36.79,5-50.85,14.54-11.13,7.53-20.31,18-27.3,31l-.94,1.75Z"/><path class="cls-2" d="M735,1070.61q3.66,0,7.39.21c24.48,1.4,49.93,9.61,73.59,23.74l-6.77,11.33c-21.85-13.05-45.22-20.62-67.58-21.9q-3.36-.19-6.66-.19c-19.65,0-37.5,5.09-52,14.88-11.4,7.71-20.8,18.38-27.94,31.72l-11.63-6.23c8.17-15.25,19-27.5,32.18-36.42,16.67-11.28,37.07-17.14,59.37-17.14m0-4c-23.07,0-44.37,6.16-61.6,17.82-13.73,9.29-25,22-33.46,37.84L638,1125.8l3.51,1.88,11.63,6.23,3.51,1.88,1.88-3.51c6.84-12.76,15.81-23,26.67-30.3,13.73-9.29,30.92-14.19,49.73-14.19,2.11,0,4.28.06,6.43.18,21.72,1.24,44.46,8.62,65.77,21.34l3.42,2,2-3.42,6.77-11.33,2-3.42-3.42-2c-24.22-14.47-50.29-22.87-75.41-24.3-2.54-.14-5.11-.22-7.61-.22Z"/><path class="cls-1" d="M207.72,903.3l.94-1.75c8.32-15.53,19.36-28,32.82-37.13,16.91-11.44,37.82-17.48,60.46-17.48,2.48,0,5,.07,7.53.22,24.8,1.41,50.56,9.72,74.5,24l1.71,1-8.81,14.74-1.71-1c-21.58-12.89-44.63-20.36-66.67-21.62-2.2-.13-4.41-.19-6.57-.19-19.19,0-36.76,5-50.82,14.54-11.12,7.53-20.31,18-27.31,31l-.94,1.75Z"/><path class="cls-2" d="M301.94,848.93q3.67,0,7.42.21c24.48,1.4,49.93,9.61,73.59,23.74l-6.77,11.33c-21.85-13.05-45.22-20.62-67.58-21.9q-3.37-.19-6.68-.19c-19.64,0-37.48,5.1-51.94,14.88-11.4,7.71-20.8,18.38-27.94,31.72l-11.63-6.23c8.17-15.24,19-27.5,32.18-36.42,16.66-11.27,37.05-17.14,59.35-17.14m0-4c-23,0-44.34,6.16-61.58,17.83-13.73,9.29-25,22-33.46,37.84L205,904.12l3.51,1.88,11.63,6.23,3.51,1.88,1.88-3.51c6.84-12.76,15.81-23,26.67-30.3,13.73-9.29,30.92-14.2,49.71-14.2,2.12,0,4.29.06,6.45.19,21.72,1.24,44.46,8.62,65.77,21.34l3.42,2,2-3.42,6.77-11.33,2-3.42-3.42-2c-24.22-14.47-50.29-22.87-75.41-24.3-2.55-.15-5.12-.22-7.64-.22Z"/><path class="cls-1" d="M2.69,1053.86l.94-1.75c8.32-15.53,19.36-28,32.82-37.13,16.91-11.44,37.82-17.49,60.47-17.49,2.48,0,5,.07,7.52.22,24.8,1.41,50.56,9.72,74.5,24l1.71,1-8.81,14.74-1.71-1c-21.58-12.89-44.63-20.36-66.67-21.62-2.18-.12-4.38-.19-6.52-.19-19.22,0-36.81,5-50.87,14.54-11.13,7.53-20.31,18-27.31,31l-.94,1.75Z"/><path class="cls-2" d="M96.93,999.49q3.67,0,7.4.21c24.48,1.4,49.93,9.61,73.59,23.75l-6.77,11.33c-21.85-13.05-45.22-20.62-67.58-21.9q-3.35-.19-6.64-.19c-19.66,0-37.51,5.09-52,14.88-11.4,7.71-20.8,18.38-27.94,31.72l-11.63-6.23c8.17-15.24,19-27.5,32.18-36.42,16.67-11.27,37.06-17.14,59.36-17.14m0-4c-23.05,0-44.35,6.16-61.59,17.83-13.73,9.29-25,22-33.46,37.84L0,1054.68l3.51,1.88,11.63,6.23,3.51,1.88,1.88-3.51c6.84-12.76,15.81-23,26.67-30.3,13.73-9.29,30.93-14.19,49.75-14.19,2.11,0,4.27.06,6.41.18,21.72,1.24,44.46,8.62,65.76,21.34l3.42,2,2-3.42,6.77-11.33,2-3.42-3.42-2c-24.22-14.47-50.29-22.87-75.41-24.3-2.55-.15-5.12-.22-7.63-.22Z"/><path class="cls-1" d="M420.77,1042.29l.94-1.75c8.32-15.53,19.36-28,32.82-37.13C471.44,992,492.35,985.93,515,985.93c2.47,0,5,.07,7.51.21,24.8,1.41,50.56,9.72,74.5,24l1.71,1-8.81,14.74-1.71-1c-21.58-12.89-44.63-20.36-66.67-21.62-2.18-.12-4.38-.19-6.53-.19-19.22,0-36.81,5-50.86,14.53-11.13,7.53-20.31,18-27.31,31l-.94,1.76Z"/><path class="cls-2" d="M515,987.92q3.67,0,7.4.21c24.48,1.4,49.93,9.61,73.59,23.75l-6.77,11.33c-21.85-13.05-45.22-20.62-67.58-21.9q-3.35-.19-6.64-.19c-19.66,0-37.51,5.09-52,14.88-11.4,7.71-20.8,18.38-27.94,31.72l-11.63-6.23c8.17-15.25,19-27.5,32.18-36.42,16.67-11.28,37.06-17.14,59.36-17.14m0-4c-23.06,0-44.36,6.16-61.59,17.83-13.73,9.29-25,22-33.46,37.84l-1.88,3.51,3.51,1.88,11.63,6.23,3.51,1.88,1.88-3.51c6.84-12.76,15.81-23,26.67-30.3C479,1010,496.2,1005.09,515,1005.09c2.11,0,4.27.06,6.41.18,21.72,1.24,44.46,8.62,65.76,21.34l3.42,2,2-3.42,6.77-11.33,2-3.42-3.42-2c-24.22-14.47-50.29-22.87-75.41-24.3-2.55-.15-5.11-.22-7.63-.22Z"/><path class="cls-1" d="M640.73,914.63l.94-1.75c8.32-15.53,19.36-28,32.82-37.13,16.91-11.44,37.82-17.48,60.49-17.48,2.47,0,5,.07,7.5.21,24.8,1.41,50.56,9.72,74.5,24l1.71,1-8.81,14.74-1.71-1c-21.58-12.89-44.63-20.36-66.67-21.62-2.19-.13-4.39-.19-6.54-.19-19.21,0-36.79,5-50.85,14.54-11.13,7.53-20.31,18-27.3,31l-.94,1.75Z"/><path class="cls-2" d="M735,860.26q3.66,0,7.38.21c24.48,1.4,49.93,9.61,73.59,23.75l-6.77,11.33c-21.85-13.05-45.22-20.62-67.58-21.9q-3.36-.19-6.66-.19c-19.65,0-37.5,5.09-52,14.88C671.6,896,662.2,906.71,655,920l-11.63-6.23c8.17-15.25,19-27.5,32.18-36.42,16.67-11.28,37.07-17.14,59.38-17.14m0-4c-23.07,0-44.37,6.16-61.61,17.82-13.73,9.29-25,22-33.46,37.84L638,915.44l3.51,1.88,11.63,6.23,3.51,1.88,1.88-3.51c6.84-12.76,15.81-23,26.67-30.3,13.73-9.29,30.92-14.19,49.73-14.19,2.11,0,4.28.06,6.43.18,21.72,1.24,44.46,8.62,65.77,21.34l3.42,2,2-3.42,6.77-11.33,2-3.42-3.42-2c-24.22-14.47-50.29-22.87-75.41-24.3-2.54-.14-5.1-.22-7.61-.22Z"/><path class="cls-1" d="M207.72,1534.37l.94-1.75c8.32-15.53,19.36-28,32.82-37.13C258.39,1484,279.29,1478,301.93,1478c2.48,0,5,.07,7.53.22,24.79,1.41,50.56,9.72,74.5,24l1.71,1L376.87,1518l-1.71-1c-21.58-12.89-44.63-20.36-66.67-21.62-2.2-.13-4.41-.19-6.57-.19-19.19,0-36.76,5-50.82,14.54-11.12,7.53-20.31,18-27.31,31l-.94,1.75Z"/><path class="cls-2" d="M301.93,1480q3.68,0,7.42.21c24.48,1.39,49.93,9.61,73.59,23.74l-6.77,11.33c-21.85-13.05-45.22-20.62-67.58-21.9q-3.37-.19-6.68-.19c-19.64,0-37.48,5.1-51.94,14.88-11.4,7.71-20.8,18.38-27.94,31.72l-11.63-6.23c8.17-15.24,19-27.5,32.18-36.42,16.66-11.27,37.05-17.14,59.34-17.14m0-4c-23,0-44.33,6.17-61.57,17.83-13.73,9.29-25,22-33.46,37.84l-1.88,3.51,3.51,1.88,11.63,6.23,3.51,1.88,1.88-3.51c6.84-12.76,15.81-23,26.67-30.3,13.73-9.29,30.92-14.2,49.71-14.2,2.12,0,4.29.06,6.45.19,21.72,1.24,44.46,8.62,65.77,21.34l3.42,2,2-3.42,6.77-11.33,2-3.42-3.42-2c-24.22-14.47-50.3-22.87-75.41-24.3-2.55-.15-5.13-.22-7.64-.22Z"/><path class="cls-1" d="M2.69,1684.93l.94-1.75c8.32-15.53,19.36-28,32.82-37.13,16.91-11.44,37.82-17.48,60.48-17.48,2.47,0,5,.07,7.51.21,24.8,1.41,50.56,9.72,74.5,24l1.71,1-8.81,14.74-1.71-1c-21.57-12.89-44.63-20.36-66.67-21.62-2.18-.12-4.38-.19-6.53-.19-19.22,0-36.81,5-50.86,14.53-11.13,7.53-20.31,18-27.31,31l-.94,1.75Z"/><path class="cls-2" d="M96.93,1630.56q3.67,0,7.4.21c24.48,1.4,49.93,9.61,73.59,23.75l-6.77,11.33c-21.85-13.05-45.22-20.62-67.58-21.9q-3.35-.19-6.64-.19c-19.66,0-37.51,5.09-52,14.88-11.4,7.71-20.8,18.38-27.94,31.72l-11.63-6.23c8.17-15.24,19-27.5,32.18-36.42,16.67-11.27,37.07-17.14,59.36-17.14m0-4c-23.06,0-44.35,6.16-61.59,17.83-13.73,9.29-25,22-33.46,37.84L0,1685.75l3.51,1.88,11.63,6.23,3.51,1.88,1.88-3.51c6.84-12.76,15.81-23,26.67-30.3,13.72-9.29,30.93-14.19,49.75-14.19,2.11,0,4.27.06,6.41.18,21.72,1.24,44.46,8.62,65.76,21.34l3.42,2,2-3.42,6.77-11.33,2-3.42-3.42-2c-24.22-14.47-50.29-22.87-75.41-24.3-2.55-.15-5.11-.22-7.63-.22Z"/><path class="cls-1" d="M420.77,1673.36l.94-1.75c8.32-15.53,19.36-28,32.82-37.13C471.44,1623,492.35,1617,515,1617c2.47,0,5,.07,7.51.21,24.8,1.41,50.56,9.72,74.5,24l1.71,1L589.92,1657l-1.71-1c-21.58-12.89-44.63-20.36-66.67-21.62-2.18-.12-4.38-.19-6.53-.19-19.22,0-36.8,5-50.86,14.53-11.13,7.53-20.31,18-27.31,31l-.94,1.76Z"/><path class="cls-2" d="M515,1619q3.67,0,7.4.21c24.48,1.4,49.93,9.61,73.59,23.74l-6.77,11.33c-21.85-13.05-45.22-20.62-67.58-21.9q-3.35-.19-6.64-.19c-19.65,0-37.51,5.09-52,14.88-11.4,7.71-20.8,18.38-27.94,31.72l-11.63-6.23c8.17-15.24,19-27.5,32.18-36.42C472.31,1624.85,492.71,1619,515,1619m0-4c-23.06,0-44.35,6.16-61.59,17.82-13.73,9.29-25,22-33.46,37.84l-1.88,3.51,3.51,1.88,11.63,6.23,3.51,1.88,1.88-3.51c6.84-12.76,15.81-23,26.67-30.3,13.72-9.28,30.92-14.19,49.74-14.19,2.11,0,4.27.06,6.42.18,21.72,1.24,44.46,8.62,65.76,21.34l3.42,2,2-3.42,6.77-11.33,2-3.42-3.42-2c-24.22-14.47-50.29-22.87-75.41-24.3-2.55-.15-5.11-.22-7.63-.22Z"/><path class="cls-1" d="M640.73,1545.7l.94-1.75c8.32-15.53,19.36-28,32.82-37.13,16.91-11.44,37.82-17.48,60.49-17.48,2.47,0,5,.07,7.5.21,24.8,1.41,50.56,9.72,74.5,24l1.71,1-8.81,14.74-1.71-1c-21.58-12.89-44.63-20.36-66.67-21.62-2.19-.13-4.39-.19-6.54-.19-19.21,0-36.79,5-50.85,14.53-11.13,7.53-20.31,18-27.3,31l-.94,1.75Z"/><path class="cls-2" d="M735,1491.32q3.66,0,7.39.21c24.48,1.4,49.93,9.61,73.59,23.74l-6.77,11.33c-21.85-13.05-45.22-20.62-67.58-21.9q-3.36-.19-6.66-.19c-19.65,0-37.5,5.09-52,14.88-11.4,7.71-20.8,18.38-27.94,31.72l-11.63-6.23c8.17-15.24,19-27.5,32.18-36.42,16.67-11.28,37.07-17.14,59.37-17.14m0-4c-23.07,0-44.37,6.16-61.61,17.82-13.73,9.29-25,22-33.46,37.84l-1.88,3.51,3.51,1.88,11.63,6.23,3.51,1.88,1.88-3.51c6.84-12.76,15.81-23,26.67-30.3,13.72-9.29,30.92-14.19,49.73-14.19,2.12,0,4.28.06,6.43.18,21.72,1.24,44.46,8.62,65.77,21.34l3.42,2,2-3.42,6.77-11.33,2-3.42-3.42-2c-24.22-14.47-50.29-22.87-75.41-24.3-2.54-.14-5.11-.22-7.61-.22Z"/><path class="cls-1" d="M207.72,1324l.94-1.75c8.32-15.53,19.36-28,32.82-37.13,16.91-11.44,37.82-17.49,60.46-17.49,2.48,0,5,.07,7.53.22,24.79,1.41,50.56,9.72,74.5,24l1.71,1-8.81,14.74-1.71-1c-21.58-12.89-44.63-20.36-66.67-21.62-2.2-.13-4.41-.19-6.57-.19-19.19,0-36.76,5-50.82,14.54-11.12,7.53-20.31,18-27.31,31l-.94,1.75Z"/><path class="cls-2" d="M301.93,1269.64q3.68,0,7.42.21c24.48,1.39,49.93,9.61,73.59,23.74l-6.77,11.33c-21.85-13.05-45.22-20.62-67.58-21.9q-3.37-.19-6.68-.19c-19.64,0-37.48,5.1-51.94,14.88-11.4,7.71-20.8,18.38-27.94,31.72l-11.63-6.23c8.17-15.24,19-27.5,32.18-36.42,16.66-11.27,37-17.14,59.34-17.14m0-4c-23,0-44.33,6.17-61.57,17.83-13.73,9.29-25,22-33.46,37.84l-1.88,3.51,3.51,1.88,11.63,6.23,3.51,1.88,1.88-3.51c6.84-12.76,15.81-23,26.67-30.3,13.73-9.29,30.92-14.2,49.71-14.2,2.12,0,4.29.06,6.45.19,21.72,1.24,44.46,8.62,65.77,21.34l3.42,2,2-3.42,6.77-11.33,2-3.42-3.42-2c-24.22-14.47-50.3-22.87-75.41-24.3-2.55-.15-5.13-.22-7.65-.22Z"/><path class="cls-1" d="M2.69,1474.58l.94-1.75c8.32-15.53,19.36-28,32.82-37.13,16.91-11.44,37.82-17.48,60.48-17.48,2.47,0,5,.07,7.51.21,24.8,1.41,50.56,9.72,74.5,24l1.71,1-8.81,14.74-1.71-1c-21.58-12.89-44.63-20.36-66.67-21.62-2.18-.12-4.38-.19-6.53-.19-19.22,0-36.81,5-50.86,14.53-11.13,7.53-20.31,18-27.31,31l-.94,1.75Z"/><path class="cls-2" d="M96.93,1420.2q3.67,0,7.4.21c24.48,1.4,49.93,9.61,73.59,23.75l-6.77,11.33c-21.85-13.05-45.22-20.62-67.58-21.9q-3.35-.19-6.64-.19c-19.66,0-37.51,5.09-52,14.88C33.57,1456,24.17,1466.65,17,1480l-11.63-6.23c8.17-15.24,19-27.5,32.18-36.42,16.67-11.27,37.07-17.14,59.36-17.14m0-4c-23.06,0-44.35,6.16-61.59,17.83-13.73,9.29-25,22-33.46,37.84L0,1475.39l3.51,1.88,11.63,6.23,3.51,1.88,1.88-3.51c6.84-12.76,15.81-23,26.67-30.3,13.72-9.29,30.93-14.19,49.75-14.19,2.11,0,4.27.06,6.41.18,21.72,1.24,44.46,8.62,65.76,21.34l3.42,2,2-3.42,6.77-11.33,2-3.42-3.42-2c-24.22-14.47-50.29-22.87-75.41-24.3-2.55-.15-5.11-.22-7.63-.22Z"/><path class="cls-1" d="M420.77,1463l.94-1.75c8.32-15.53,19.36-28,32.82-37.13,16.91-11.44,37.82-17.48,60.47-17.48,2.48,0,5,.07,7.52.22,24.8,1.41,50.56,9.72,74.5,24l1.71,1-8.81,14.74-1.71-1c-21.58-12.89-44.63-20.36-66.67-21.62-2.18-.12-4.38-.19-6.53-.19-19.22,0-36.8,5-50.86,14.53-11.13,7.53-20.31,18-27.31,31l-.94,1.76Z"/><path class="cls-2" d="M515,1408.63q3.67,0,7.4.21c24.48,1.4,49.93,9.61,73.59,23.74l-6.77,11.33c-21.85-13.05-45.22-20.62-67.58-21.9q-3.35-.19-6.64-.19c-19.65,0-37.51,5.09-52,14.88-11.4,7.71-20.8,18.38-27.94,31.72l-11.63-6.23c8.17-15.25,19-27.5,32.18-36.42,16.67-11.27,37.06-17.14,59.36-17.14m0-4c-23.05,0-44.35,6.16-61.59,17.82-13.73,9.29-25,22-33.46,37.84l-1.88,3.51,3.51,1.88,11.63,6.23,3.51,1.88,1.88-3.51c6.84-12.76,15.81-23,26.67-30.3,13.72-9.28,30.92-14.19,49.74-14.19,2.11,0,4.27.06,6.42.18,21.72,1.24,44.46,8.62,65.76,21.34l3.42,2,2-3.42,6.77-11.33,2-3.42-3.42-2c-24.22-14.47-50.29-22.87-75.41-24.3-2.55-.15-5.12-.22-7.63-.22Z"/><path class="cls-1" d="M640.73,1335.34l.94-1.75c8.32-15.53,19.36-28,32.82-37.13C691.39,1285,712.31,1279,735,1279c2.47,0,5,.07,7.5.21,24.8,1.41,50.56,9.72,74.5,24l1.71,1L809.88,1319l-1.71-1c-21.58-12.89-44.63-20.36-66.67-21.62-2.19-.13-4.39-.19-6.54-.19-19.21,0-36.79,5-50.85,14.53-11.13,7.53-20.31,18-27.3,31l-.94,1.75Z"/><path class="cls-2" d="M735,1281q3.66,0,7.39.21c24.48,1.4,49.93,9.61,73.59,23.74l-6.77,11.33c-21.85-13.05-45.22-20.62-67.58-21.9q-3.36-.19-6.66-.19c-19.65,0-37.5,5.09-52,14.88-11.4,7.71-20.8,18.38-27.94,31.72l-11.63-6.23c8.17-15.25,19-27.5,32.18-36.42C692.27,1286.83,712.67,1281,735,1281m0-4c-23.07,0-44.37,6.16-61.61,17.82-13.73,9.29-25,22-33.46,37.84l-1.88,3.51,3.51,1.88,11.63,6.23,3.51,1.88,1.88-3.51c6.84-12.76,15.81-23,26.67-30.3,13.72-9.29,30.92-14.19,49.73-14.19,2.12,0,4.28.06,6.43.18,21.72,1.24,44.46,8.62,65.77,21.34l3.42,2,2-3.42,6.77-11.33,2-3.42-3.42-2c-24.22-14.47-50.29-22.87-75.41-24.3-2.54-.14-5.11-.22-7.61-.22Z"/><path class="cls-1" d="M207.72,1758.63l.94-1.75c8.32-15.53,19.36-28,32.82-37.13,16.91-11.44,37.82-17.49,60.46-17.49,2.48,0,5,.07,7.53.22,24.8,1.41,50.56,9.72,74.5,24l1.71,1-8.81,14.74-1.71-1c-21.58-12.89-44.63-20.36-66.67-21.62-2.2-.13-4.41-.19-6.57-.19-19.19,0-36.76,5-50.82,14.54-11.12,7.53-20.31,18-27.31,31l-.94,1.75Z"/><path class="cls-2" d="M301.94,1704.26q3.67,0,7.42.21c24.48,1.4,49.93,9.61,73.59,23.75l-6.77,11.33c-21.85-13.05-45.22-20.62-67.58-21.9q-3.37-.19-6.68-.19c-19.64,0-37.48,5.1-51.94,14.88-11.4,7.71-20.8,18.38-27.94,31.72l-11.63-6.23c8.17-15.24,19-27.5,32.18-36.42,16.66-11.27,37.05-17.14,59.35-17.14m0-4c-23,0-44.34,6.16-61.58,17.83-13.73,9.29-25,22-33.46,37.84l-1.88,3.51,3.51,1.88,11.63,6.23,3.51,1.88,1.88-3.51c6.84-12.76,15.81-23,26.67-30.3,13.73-9.29,30.92-14.2,49.71-14.2,2.12,0,4.29.06,6.45.19,21.72,1.24,44.46,8.62,65.77,21.34l3.42,2,2-3.42,6.77-11.33,2-3.42-3.42-2c-24.22-14.47-50.29-22.87-75.41-24.3-2.55-.15-5.12-.22-7.64-.22Z"/><path class="cls-1" d="M2.69,1909.19l.94-1.75c8.32-15.53,19.36-28,32.82-37.13,16.91-11.44,37.82-17.49,60.47-17.49,2.48,0,5,.07,7.52.22,24.8,1.41,50.56,9.72,74.5,24l1.71,1-8.81,14.74-1.71-1c-21.58-12.89-44.63-20.36-66.67-21.62-2.18-.12-4.38-.19-6.52-.19-19.22,0-36.81,5-50.87,14.54-11.13,7.53-20.31,18-27.31,31l-.94,1.75Z"/><path class="cls-2" d="M96.93,1854.82q3.67,0,7.4.21c24.48,1.4,49.93,9.61,73.59,23.75l-6.77,11.33c-21.85-13.05-45.22-20.62-67.58-21.9q-3.35-.19-6.64-.19c-19.66,0-37.51,5.09-52,14.88-11.4,7.71-20.8,18.38-27.94,31.72l-11.63-6.23c8.17-15.24,19-27.5,32.18-36.42,16.67-11.27,37.06-17.14,59.36-17.14m0-4c-23.05,0-44.35,6.16-61.59,17.83-13.73,9.29-25,22-33.46,37.84L0,1910l3.51,1.88,11.63,6.23,3.51,1.88,1.88-3.51c6.84-12.76,15.81-23,26.67-30.3C60.92,1876.9,78.12,1872,96.94,1872c2.11,0,4.27.06,6.41.18,21.72,1.24,44.46,8.62,65.76,21.34l3.42,2,2-3.42,6.77-11.33,2-3.42-3.42-2c-24.22-14.47-50.29-22.87-75.41-24.3-2.55-.15-5.12-.22-7.63-.22Z"/><path class="cls-1" d="M420.77,1897.62l.94-1.75c8.32-15.53,19.36-28,32.82-37.13,16.91-11.44,37.82-17.48,60.48-17.48,2.47,0,5,.07,7.51.21,24.8,1.41,50.56,9.72,74.5,24l1.71,1-8.81,14.74-1.71-1c-21.58-12.89-44.63-20.36-66.67-21.62-2.18-.12-4.38-.19-6.53-.19-19.22,0-36.81,5-50.86,14.53-11.13,7.53-20.31,18-27.31,31l-.94,1.76Z"/><path class="cls-2" d="M515,1843.25q3.67,0,7.4.21c24.48,1.4,49.93,9.61,73.59,23.75l-6.77,11.33c-21.85-13.05-45.22-20.62-67.58-21.9q-3.35-.19-6.64-.19c-19.66,0-37.51,5.09-52,14.88-11.4,7.71-20.8,18.38-27.94,31.72l-11.63-6.23c8.17-15.25,19-27.5,32.18-36.42,16.67-11.28,37.06-17.14,59.36-17.14m0-4c-23.06,0-44.36,6.16-61.59,17.83-13.73,9.29-25,22-33.46,37.84l-1.88,3.51,3.51,1.88,11.63,6.23,3.51,1.88,1.88-3.51c6.84-12.76,15.81-23,26.67-30.3,13.72-9.29,30.93-14.19,49.75-14.19,2.11,0,4.27.06,6.41.18,21.72,1.24,44.46,8.62,65.76,21.34l3.42,2,2-3.42,6.77-11.33,2-3.42-3.42-2c-24.22-14.47-50.29-22.87-75.41-24.3-2.55-.15-5.11-.22-7.63-.22Z"/><path class="cls-1" d="M640.73,1770l.94-1.75c8.32-15.53,19.36-28,32.82-37.13,16.91-11.44,37.82-17.48,60.49-17.48,2.47,0,5,.07,7.5.21,24.8,1.41,50.56,9.72,74.5,24l1.71,1-8.81,14.74-1.71-1c-21.58-12.89-44.63-20.36-66.67-21.62-2.19-.13-4.39-.19-6.54-.19-19.21,0-36.79,5-50.85,14.54-11.13,7.53-20.31,18-27.3,31l-.94,1.75Z"/><path class="cls-2" d="M735,1715.59q3.66,0,7.39.21c24.48,1.4,49.93,9.61,73.59,23.74l-6.77,11.33c-21.85-13.05-45.22-20.62-67.58-21.9q-3.36-.19-6.66-.19c-19.65,0-37.5,5.09-52,14.88-11.4,7.71-20.8,18.38-27.94,31.72l-11.63-6.23c8.17-15.25,19-27.5,32.18-36.42,16.67-11.28,37.07-17.14,59.37-17.14m0-4c-23.07,0-44.37,6.16-61.6,17.82-13.73,9.29-25,22-33.46,37.84l-1.88,3.51,3.51,1.88,11.63,6.23,3.51,1.88,1.88-3.51c6.84-12.76,15.81-23,26.67-30.3,13.73-9.29,30.92-14.19,49.73-14.19,2.11,0,4.28.06,6.43.18,21.72,1.24,44.46,8.62,65.77,21.34l3.42,2,2-3.42,6.77-11.33,2-3.42-3.42-2c-24.22-14.47-50.29-22.87-75.41-24.3-2.54-.14-5.11-.22-7.61-.22Z"/><path class="cls-1" d="M207.72,2188.71l.94-1.75c8.32-15.53,19.36-28,32.82-37.13,16.91-11.44,37.82-17.49,60.46-17.49,2.48,0,5,.07,7.53.22,24.79,1.41,50.56,9.72,74.5,24l1.71,1-8.81,14.74-1.71-1c-21.58-12.89-44.63-20.36-66.67-21.62-2.2-.13-4.41-.19-6.57-.19-19.19,0-36.76,5-50.82,14.54-11.12,7.53-20.31,18-27.31,31l-.94,1.75Z"/><path class="cls-2" d="M301.93,2134.34q3.68,0,7.42.21c24.48,1.39,49.93,9.61,73.59,23.74l-6.77,11.33c-21.85-13.05-45.22-20.62-67.58-21.9q-3.37-.19-6.68-.19c-19.64,0-37.48,5.1-51.94,14.88-11.4,7.71-20.8,18.38-27.94,31.72l-11.63-6.23c8.17-15.24,19-27.5,32.18-36.42,16.66-11.27,37.05-17.14,59.34-17.14m0-4c-23,0-44.33,6.17-61.57,17.83-13.73,9.29-25,22-33.46,37.84l-1.88,3.51,3.51,1.88,11.63,6.23,3.51,1.88,1.88-3.51c6.84-12.76,15.81-23,26.67-30.3,13.73-9.29,30.92-14.2,49.71-14.2,2.12,0,4.29.06,6.45.19,21.72,1.24,44.46,8.62,65.77,21.34l3.42,2,2-3.42,6.77-11.33,2-3.42-3.42-2c-24.22-14.47-50.3-22.87-75.41-24.3-2.55-.15-5.13-.22-7.64-.22Z"/><path class="cls-1" d="M2.69,2339.28l.94-1.75C12,2322,23,2309.5,36.45,2300.4c16.91-11.44,37.82-17.48,60.48-17.48,2.47,0,5,.07,7.51.21,24.8,1.41,50.56,9.72,74.5,24l1.71,1-8.81,14.74-1.71-1c-21.58-12.89-44.63-20.36-66.67-21.62-2.18-.12-4.38-.19-6.53-.19-19.22,0-36.81,5-50.86,14.53-11.13,7.53-20.31,18-27.31,31l-.94,1.75Z"/><path class="cls-2" d="M96.93,2284.9q3.67,0,7.4.21c24.48,1.4,49.93,9.61,73.59,23.75l-6.77,11.33c-21.85-13.05-45.22-20.62-67.58-21.9q-3.35-.19-6.64-.19c-19.66,0-37.51,5.09-52,14.88-11.4,7.71-20.8,18.38-27.94,31.72l-11.63-6.23c8.17-15.24,19-27.5,32.18-36.42,16.67-11.27,37.07-17.14,59.36-17.14m0-4c-23.06,0-44.35,6.16-61.59,17.83-13.73,9.29-25,22-33.46,37.84L0,2340.09,3.51,2342l11.63,6.23,3.51,1.88,1.88-3.51c6.84-12.76,15.81-23,26.67-30.3,13.72-9.29,30.93-14.19,49.75-14.19,2.11,0,4.27.06,6.41.18,21.72,1.24,44.46,8.62,65.76,21.34l3.42,2,2-3.42,6.77-11.33,2-3.42-3.42-2c-24.22-14.47-50.29-22.87-75.41-24.3-2.55-.15-5.11-.22-7.63-.22Z"/><path class="cls-1" d="M420.77,2327.7l.94-1.75c8.32-15.53,19.36-28,32.82-37.13,16.91-11.44,37.82-17.48,60.48-17.48,2.47,0,5,.07,7.51.21,24.8,1.41,50.56,9.72,74.5,24l1.71,1-8.81,14.74-1.71-1c-21.58-12.89-44.63-20.36-66.67-21.62-2.18-.12-4.38-.19-6.53-.19-19.22,0-36.8,5-50.86,14.53-11.13,7.53-20.31,18-27.31,31l-.94,1.76Z"/><path class="cls-2" d="M515,2273.33q3.67,0,7.4.21c24.48,1.4,49.93,9.61,73.59,23.74l-6.77,11.33c-21.85-13.05-45.22-20.62-67.58-21.9q-3.35-.19-6.64-.19c-19.65,0-37.51,5.09-52,14.88-11.4,7.71-20.8,18.38-27.94,31.72l-11.63-6.23c8.17-15.25,19-27.5,32.18-36.42,16.67-11.27,37.06-17.14,59.36-17.14m0-4c-23.06,0-44.35,6.16-61.59,17.82-13.73,9.29-25,22-33.46,37.84l-1.88,3.51,3.51,1.88,11.63,6.23,3.51,1.88,1.88-3.51c6.84-12.76,15.81-23,26.67-30.3,13.72-9.28,30.92-14.19,49.74-14.19,2.11,0,4.27.06,6.42.18,21.72,1.24,44.46,8.62,65.76,21.34l3.42,2,2-3.42,6.77-11.33,2-3.42-3.42-2c-24.22-14.47-50.29-22.87-75.41-24.3-2.55-.15-5.11-.22-7.63-.22Z"/><path class="cls-1" d="M640.73,2200l.94-1.75c8.32-15.53,19.36-28,32.82-37.13,16.91-11.44,37.82-17.48,60.49-17.48,2.47,0,5,.07,7.5.21,24.8,1.41,50.56,9.72,74.5,24l1.71,1-8.81,14.74-1.71-1c-21.58-12.89-44.63-20.36-66.67-21.62-2.19-.13-4.39-.19-6.54-.19-19.21,0-36.79,5-50.85,14.53-11.13,7.53-20.31,18-27.3,31l-.94,1.75Z"/><path class="cls-2" d="M735,2145.67q3.66,0,7.39.21c24.48,1.4,49.93,9.61,73.59,23.74l-6.77,11.33c-21.85-13.05-45.22-20.62-67.58-21.9q-3.36-.19-6.66-.19c-19.65,0-37.5,5.09-52,14.88-11.4,7.71-20.8,18.38-27.94,31.72l-11.63-6.23c8.17-15.24,19-27.5,32.18-36.42,16.67-11.28,37.07-17.14,59.37-17.14m0-4c-23.07,0-44.37,6.16-61.61,17.82-13.73,9.29-25,22-33.46,37.84l-1.88,3.51,3.51,1.88,11.63,6.23,3.51,1.88,1.88-3.51c6.84-12.76,15.81-23,26.67-30.3,13.72-9.29,30.92-14.19,49.73-14.19,2.12,0,4.28.06,6.43.18,21.72,1.24,44.46,8.62,65.77,21.34l3.42,2,2-3.42,6.77-11.33,2-3.42-3.42-2c-24.22-14.47-50.29-22.87-75.41-24.3-2.54-.14-5.11-.22-7.61-.22Z"/><path class="cls-1" d="M207.72,1978.36l.94-1.75c8.32-15.53,19.36-28,32.82-37.13C258.38,1928,279.29,1922,301.93,1922c2.48,0,5,.07,7.53.22,24.8,1.41,50.56,9.72,74.5,24l1.71,1L376.87,1962l-1.71-1c-21.58-12.89-44.63-20.36-66.67-21.62-2.2-.13-4.41-.19-6.57-.19-19.19,0-36.76,5-50.82,14.54-11.12,7.53-20.31,18-27.31,31l-.94,1.75Z"/><path class="cls-2" d="M301.93,1924q3.68,0,7.42.21c24.48,1.39,49.93,9.61,73.59,23.74l-6.77,11.33c-21.85-13.05-45.22-20.62-67.58-21.9q-3.37-.19-6.68-.19c-19.64,0-37.48,5.1-51.94,14.88-11.4,7.71-20.8,18.38-27.94,31.72l-11.63-6.23c8.17-15.24,19-27.5,32.18-36.42,16.66-11.27,37-17.14,59.34-17.14m0-4c-23,0-44.33,6.17-61.57,17.83-13.73,9.29-25,22-33.46,37.84l-1.88,3.51,3.51,1.88,11.63,6.23,3.51,1.88,1.88-3.51c6.84-12.76,15.81-23,26.67-30.3,13.73-9.29,30.92-14.2,49.71-14.2,2.12,0,4.29.06,6.45.19,21.72,1.24,44.46,8.62,65.77,21.34l3.42,2,2-3.42,6.77-11.33,2-3.42-3.42-2c-24.22-14.47-50.29-22.87-75.41-24.3-2.55-.15-5.13-.22-7.65-.22Z"/><path class="cls-1" d="M2.69,2128.92l.94-1.75c8.32-15.53,19.36-28,32.82-37.13,16.91-11.44,37.82-17.48,60.48-17.48,2.47,0,5,.07,7.51.21,24.8,1.41,50.56,9.72,74.5,24l1.71,1-8.81,14.74-1.71-1c-21.58-12.89-44.63-20.36-66.67-21.62-2.18-.12-4.38-.19-6.53-.19-19.22,0-36.81,5-50.86,14.53-11.13,7.53-20.31,18-27.31,31l-.94,1.75Z"/><path class="cls-2" d="M96.93,2074.54q3.67,0,7.4.21c24.48,1.4,49.93,9.61,73.59,23.75l-6.77,11.33c-21.85-13.05-45.22-20.62-67.58-21.9q-3.35-.19-6.64-.19c-19.66,0-37.51,5.09-52,14.88-11.4,7.71-20.8,18.38-27.94,31.72l-11.63-6.23c8.17-15.24,19-27.5,32.18-36.42,16.67-11.27,37.07-17.14,59.36-17.14m0-4c-23.06,0-44.35,6.16-61.59,17.83-13.73,9.29-25,22-33.46,37.84L0,2129.73l3.51,1.88,11.63,6.23,3.51,1.88,1.88-3.51c6.84-12.76,15.81-23,26.67-30.3,13.72-9.29,30.93-14.19,49.75-14.19,2.11,0,4.27.06,6.41.18,21.72,1.24,44.46,8.62,65.76,21.34l3.42,2,2-3.42,6.77-11.33,2-3.42-3.42-2c-24.22-14.47-50.29-22.87-75.41-24.3-2.55-.15-5.11-.22-7.63-.22Z"/><path class="cls-1" d="M420.77,2117.35l.94-1.75c8.32-15.53,19.36-28,32.82-37.13C471.44,2067,492.35,2061,515,2061c2.48,0,5,.07,7.52.22,24.8,1.41,50.56,9.72,74.5,24l1.71,1L589.92,2101l-1.71-1c-21.58-12.89-44.63-20.36-66.67-21.62-2.18-.12-4.38-.19-6.53-.19-19.22,0-36.8,5-50.86,14.53-11.13,7.53-20.31,18-27.31,31l-.94,1.76Z"/><path class="cls-2" d="M515,2063q3.67,0,7.4.21c24.48,1.4,49.93,9.61,73.59,23.74l-6.77,11.33c-21.85-13.05-45.22-20.62-67.58-21.9q-3.35-.19-6.64-.19c-19.65,0-37.51,5.09-52,14.88-11.4,7.71-20.8,18.38-27.94,31.72l-11.63-6.23c8.17-15.25,19-27.5,32.18-36.42C472.31,2068.84,492.71,2063,515,2063m0-4c-23.05,0-44.35,6.16-61.59,17.83-13.73,9.29-25,22-33.46,37.84l-1.88,3.51,3.51,1.88,11.63,6.23,3.51,1.88,1.88-3.51c6.84-12.76,15.81-23,26.67-30.3,13.72-9.28,30.92-14.19,49.74-14.19,2.11,0,4.27.06,6.42.18,21.72,1.24,44.46,8.62,65.76,21.34l3.42,2,2-3.42,6.77-11.33,2-3.42-3.42-2c-24.22-14.47-50.29-22.87-75.41-24.3-2.55-.15-5.12-.22-7.63-.22Z"/><path class="cls-1" d="M640.73,1989.69l.94-1.75c8.32-15.53,19.36-28,32.82-37.13,16.91-11.44,37.82-17.48,60.49-17.48,2.47,0,5,.07,7.5.21,24.8,1.41,50.56,9.72,74.5,24l1.71,1-8.81,14.74-1.71-1c-21.58-12.89-44.63-20.36-66.67-21.62-2.19-.13-4.39-.19-6.55-.19-19.21,0-36.79,5-50.84,14.53-11.13,7.53-20.31,18-27.3,31l-.94,1.75Z"/><path class="cls-2" d="M735,1935.31q3.66,0,7.39.21c24.48,1.4,49.93,9.61,73.59,23.74l-6.77,11.33c-21.85-13.05-45.22-20.62-67.58-21.9q-3.36-.19-6.66-.19c-19.65,0-37.5,5.09-52,14.88-11.4,7.71-20.8,18.38-27.94,31.72l-11.63-6.23c8.17-15.25,19-27.5,32.18-36.42,16.67-11.28,37.07-17.14,59.37-17.14m0-4c-23.07,0-44.37,6.16-61.61,17.82-13.73,9.29-25,22-33.46,37.84L638,1990.5l3.51,1.88,11.63,6.23,3.51,1.88,1.88-3.51c6.84-12.76,15.81-23,26.67-30.3,13.73-9.29,30.92-14.19,49.73-14.19,2.12,0,4.28.06,6.43.18,21.72,1.24,44.46,8.62,65.77,21.34l3.42,2,2-3.42,6.77-11.33,2-3.42-3.42-2c-24.22-14.47-50.29-22.87-75.41-24.3-2.54-.14-5.11-.22-7.61-.22Z"/><path class="cls-1" d="M207.72,2609.43l.94-1.75c8.32-15.53,19.36-28,32.82-37.13,16.91-11.44,37.82-17.48,60.46-17.48,2.48,0,5,.07,7.53.22,24.8,1.41,50.56,9.72,74.5,24l1.71,1-8.81,14.74-1.71-1c-21.57-12.89-44.63-20.36-66.67-21.62-2.2-.13-4.41-.19-6.57-.19-19.19,0-36.76,5-50.82,14.54-11.13,7.53-20.31,18-27.31,31l-.94,1.75Z"/><path class="cls-2" d="M301.94,2555q3.67,0,7.42.21c24.48,1.4,49.93,9.61,73.59,23.74l-6.77,11.33c-21.85-13.05-45.22-20.62-67.58-21.9q-3.37-.19-6.68-.19c-19.64,0-37.48,5.1-51.94,14.88-11.4,7.71-20.8,18.38-27.94,31.72l-11.63-6.23c8.17-15.24,19-27.5,32.18-36.42,16.66-11.27,37.05-17.14,59.35-17.14m0-4c-23,0-44.34,6.16-61.58,17.83-13.73,9.29-25,22-33.46,37.84l-1.88,3.51,3.51,1.88,11.63,6.23,3.51,1.88,1.88-3.51c6.84-12.76,15.81-23,26.67-30.31,13.73-9.29,30.92-14.19,49.71-14.19,2.12,0,4.29.06,6.45.19,21.73,1.24,44.47,8.62,65.77,21.34l3.42,2,2-3.42,6.77-11.33,2-3.42-3.42-2c-24.22-14.47-50.29-22.87-75.41-24.3-2.55-.15-5.12-.22-7.64-.22Z"/><path class="cls-1" d="M2.69,2760l.94-1.75c8.32-15.53,19.36-28,32.82-37.13,16.91-11.44,37.82-17.48,60.48-17.48,2.47,0,5,.07,7.51.21,24.8,1.41,50.56,9.72,74.5,24l1.71,1-8.81,14.74-1.71-1c-21.57-12.89-44.63-20.36-66.67-21.62-2.18-.12-4.38-.19-6.53-.19-19.22,0-36.81,5-50.86,14.53-11.13,7.53-20.31,18-27.3,31l-.94,1.75Z"/><path class="cls-2" d="M96.93,2705.61q3.67,0,7.4.21c24.48,1.4,49.93,9.61,73.59,23.75l-6.77,11.33c-21.85-13.05-45.22-20.62-67.58-21.9q-3.35-.19-6.64-.19c-19.66,0-37.51,5.09-52,14.88-11.4,7.71-20.8,18.38-27.94,31.72l-11.63-6.23c8.17-15.24,19-27.5,32.18-36.42,16.67-11.27,37.07-17.14,59.36-17.14m0-4c-23.06,0-44.35,6.16-61.59,17.83-13.73,9.29-25,22-33.46,37.84L0,2760.8l3.51,1.88,11.63,6.23,3.51,1.88,1.88-3.51c6.84-12.76,15.81-23,26.67-30.31,13.72-9.28,30.93-14.19,49.75-14.19,2.11,0,4.27.06,6.41.18,21.72,1.24,44.46,8.62,65.76,21.34l3.42,2,2-3.42,6.77-11.33,2-3.42-3.42-2c-24.22-14.47-50.29-22.87-75.41-24.3-2.55-.15-5.11-.22-7.63-.22Z"/><path class="cls-1" d="M420.77,2748.42l.94-1.75c8.32-15.53,19.36-28,32.82-37.13,16.91-11.44,37.82-17.48,60.48-17.48,2.47,0,5,.07,7.51.21,24.8,1.41,50.56,9.72,74.5,24l1.71,1-8.81,14.74-1.71-1c-21.57-12.89-44.63-20.36-66.67-21.62-2.18-.12-4.38-.19-6.53-.19-19.22,0-36.8,5-50.86,14.53-11.13,7.53-20.31,18-27.31,31l-.94,1.76Z"/><path class="cls-2" d="M515,2694q3.67,0,7.4.21c24.48,1.4,49.93,9.61,73.59,23.74l-6.77,11.33c-21.85-13.05-45.22-20.62-67.58-21.9q-3.35-.19-6.64-.19c-19.65,0-37.51,5.09-52,14.88-11.4,7.71-20.8,18.38-27.94,31.72l-11.63-6.23c8.17-15.25,19-27.5,32.18-36.42C472.31,2699.91,492.71,2694,515,2694m0-4c-23.06,0-44.35,6.16-61.59,17.82-13.73,9.29-25,22-33.46,37.84l-1.88,3.51,3.51,1.88,11.63,6.23,3.51,1.88,1.88-3.51c6.84-12.76,15.81-23,26.67-30.31,13.72-9.28,30.92-14.19,49.74-14.19,2.11,0,4.27.06,6.42.18,21.72,1.24,44.46,8.62,65.76,21.34l3.42,2,2-3.42,6.77-11.33,2-3.42-3.42-2c-24.22-14.47-50.29-22.87-75.41-24.3-2.55-.15-5.11-.22-7.63-.22Z"/><path class="cls-1" d="M640.73,2620.76l.94-1.75c8.32-15.53,19.36-28,32.82-37.13,16.91-11.44,37.82-17.48,60.49-17.48,2.47,0,5,.07,7.5.21,24.8,1.41,50.56,9.72,74.5,24l1.71,1-8.81,14.74-1.71-1c-21.57-12.89-44.63-20.36-66.67-21.62-2.19-.13-4.39-.19-6.54-.19-19.21,0-36.79,5-50.85,14.54-11.13,7.53-20.31,18-27.3,31l-.94,1.76Z"/><path class="cls-2" d="M735,2566.38q3.66,0,7.39.21c24.48,1.4,49.93,9.61,73.59,23.74l-6.77,11.33c-21.85-13.05-45.22-20.62-67.58-21.9q-3.36-.19-6.66-.19c-19.65,0-37.5,5.09-52,14.88-11.4,7.71-20.8,18.38-27.94,31.72l-11.63-6.23c8.17-15.25,19-27.5,32.18-36.42,16.67-11.28,37.07-17.14,59.37-17.14m0-4c-23.07,0-44.37,6.16-61.61,17.82-13.73,9.29-25,22-33.46,37.84l-1.88,3.51,3.51,1.88,11.63,6.23,3.51,1.88,1.88-3.51c6.84-12.76,15.81-23,26.67-30.3,13.72-9.29,30.92-14.19,49.73-14.19,2.12,0,4.28.06,6.43.18,21.72,1.24,44.47,8.62,65.77,21.34l3.42,2,2-3.42,6.77-11.33,2-3.42-3.42-2c-24.22-14.47-50.29-22.87-75.41-24.3-2.54-.14-5.11-.22-7.61-.22Z"/><path class="cls-1" d="M207.72,2399.07l.94-1.75c8.32-15.53,19.36-28,32.82-37.13,16.91-11.44,37.82-17.49,60.46-17.49,2.48,0,5,.07,7.53.22,24.79,1.41,50.56,9.72,74.5,24l1.71,1-8.81,14.74-1.71-1c-21.57-12.89-44.63-20.36-66.67-21.62-2.2-.13-4.41-.19-6.57-.19-19.19,0-36.76,5-50.82,14.54-11.12,7.53-20.31,18-27.31,31l-.94,1.75Z"/><path class="cls-2" d="M301.93,2344.69q3.68,0,7.42.21c24.48,1.39,49.93,9.61,73.59,23.74L376.18,2380c-21.85-13.05-45.22-20.62-67.58-21.9q-3.37-.19-6.68-.19c-19.64,0-37.48,5.1-51.94,14.88-11.4,7.71-20.8,18.38-27.94,31.72l-11.63-6.23c8.17-15.24,19-27.5,32.18-36.42,16.66-11.27,37.05-17.14,59.34-17.14m0-4c-23,0-44.33,6.17-61.57,17.83-13.73,9.29-25,22-33.46,37.84l-1.88,3.51,3.51,1.88,11.63,6.23,3.51,1.88,1.88-3.51c6.84-12.76,15.81-23,26.67-30.3,13.73-9.29,30.92-14.2,49.71-14.2,2.12,0,4.29.06,6.45.19,21.72,1.24,44.47,8.62,65.77,21.34l3.42,2,2-3.42,6.77-11.33,2-3.42-3.42-2c-24.22-14.47-50.3-22.87-75.41-24.3-2.55-.15-5.13-.22-7.64-.22Z"/><path class="cls-1" d="M2.69,2549.63l.94-1.75c8.32-15.53,19.36-28,32.82-37.13,16.91-11.44,37.82-17.48,60.48-17.48,2.47,0,5,.07,7.51.21,24.8,1.41,50.56,9.72,74.5,24l1.71,1-8.81,14.74-1.71-1c-21.57-12.89-44.63-20.36-66.67-21.62-2.18-.12-4.38-.19-6.53-.19-19.22,0-36.81,5-50.86,14.53-11.13,7.53-20.31,18-27.31,31l-.94,1.75Z"/><path class="cls-2" d="M96.93,2495.26q3.67,0,7.4.21c24.48,1.4,49.93,9.61,73.59,23.75l-6.77,11.33c-21.85-13.05-45.22-20.62-67.58-21.9q-3.35-.19-6.64-.19c-19.66,0-37.51,5.09-52,14.88C33.57,2531,24.17,2541.71,17,2555l-11.63-6.23c8.17-15.24,19-27.5,32.18-36.42,16.67-11.27,37.07-17.14,59.36-17.14m0-4c-23.06,0-44.35,6.16-61.59,17.83-13.73,9.29-25,22-33.46,37.84L0,2550.45l3.51,1.88,11.63,6.23,3.51,1.88,1.88-3.51c6.84-12.76,15.81-23,26.67-30.3,13.72-9.29,30.93-14.19,49.75-14.19,2.11,0,4.27.06,6.41.18,21.72,1.24,44.46,8.62,65.76,21.34l3.42,2,2-3.42,6.77-11.33,2-3.42-3.42-2c-24.22-14.47-50.29-22.87-75.41-24.3-2.55-.15-5.11-.22-7.63-.22Z"/><path class="cls-1" d="M420.77,2538.06l.94-1.75c8.32-15.53,19.36-28,32.82-37.13,16.91-11.44,37.82-17.48,60.48-17.48,2.47,0,5,.07,7.51.21,24.8,1.41,50.56,9.72,74.5,24l1.71,1-8.81,14.74-1.71-1c-21.57-12.89-44.63-20.36-66.67-21.62-2.18-.12-4.38-.19-6.53-.19-19.22,0-36.8,5-50.86,14.53-11.13,7.53-20.31,18-27.31,31l-.94,1.76Z"/><path class="cls-2" d="M515,2483.69q3.67,0,7.4.21c24.48,1.4,49.93,9.61,73.59,23.74L589.24,2519c-21.85-13.05-45.22-20.62-67.58-21.9q-3.35-.19-6.64-.19c-19.65,0-37.51,5.09-52,14.88-11.4,7.71-20.8,18.38-27.94,31.72l-11.63-6.23c8.17-15.24,19-27.5,32.18-36.42,16.67-11.27,37.06-17.14,59.36-17.14m0-4c-23.06,0-44.35,6.16-61.59,17.82-13.73,9.29-25,22-33.46,37.84l-1.88,3.51,3.51,1.88,11.63,6.23,3.51,1.88,1.88-3.51c6.84-12.76,15.81-23,26.67-30.3,13.72-9.28,30.92-14.19,49.74-14.19,2.11,0,4.27.06,6.42.18,21.72,1.24,44.46,8.62,65.76,21.34l3.42,2,2-3.42,6.77-11.33,2-3.42-3.42-2c-24.22-14.47-50.29-22.87-75.41-24.3-2.55-.15-5.11-.22-7.63-.22Z"/><path class="cls-1" d="M640.73,2410.4l.94-1.75c8.32-15.53,19.36-28,32.82-37.13C691.39,2360.08,712.31,2354,735,2354c2.47,0,5,.07,7.5.21,24.8,1.41,50.56,9.72,74.5,24l1.71,1L809.88,2394l-1.71-1c-21.58-12.89-44.63-20.36-66.67-21.62-2.19-.13-4.39-.19-6.54-.19-19.21,0-36.79,5-50.85,14.53-11.13,7.53-20.31,18-27.3,31l-.94,1.75Z"/><path class="cls-2" d="M735,2356q3.66,0,7.39.21c24.48,1.4,49.93,9.61,73.59,23.74l-6.77,11.33c-21.85-13.05-45.22-20.62-67.58-21.9q-3.36-.19-6.66-.19c-19.65,0-37.5,5.09-52,14.88-11.4,7.71-20.8,18.38-27.94,31.72l-11.63-6.23c8.17-15.24,19-27.5,32.18-36.42C692.27,2361.89,712.67,2356,735,2356m0-4c-23.07,0-44.37,6.16-61.61,17.82-13.73,9.29-25,22-33.46,37.84l-1.88,3.51,3.51,1.88,11.63,6.23,3.51,1.88,1.88-3.51c6.84-12.76,15.81-23,26.67-30.31,13.72-9.28,30.92-14.19,49.73-14.19,2.12,0,4.28.06,6.43.18,21.72,1.24,44.46,8.62,65.77,21.34l3.42,2,2-3.42,6.77-11.33,2-3.42-3.42-2c-24.22-14.47-50.29-22.87-75.41-24.3-2.54-.14-5.11-.22-7.61-.22Z"/><path class="cls-1" d="M207.72,3033.66l.94-1.75c8.32-15.53,19.36-28,32.82-37.13,16.91-11.44,37.82-17.49,60.46-17.49,2.48,0,5,.07,7.53.22,24.8,1.41,50.56,9.72,74.5,24l1.71,1-8.81,14.74-1.71-1c-21.58-12.89-44.63-20.36-66.67-21.62-2.2-.13-4.41-.19-6.57-.19-19.19,0-36.76,5-50.82,14.54-11.12,7.53-20.31,18-27.31,31l-.94,1.75Z"/><path class="cls-2" d="M301.93,2979.28q3.68,0,7.42.21c24.48,1.39,49.93,9.61,73.59,23.74l-6.77,11.33c-21.85-13.05-45.22-20.62-67.58-21.9q-3.37-.19-6.68-.19c-19.64,0-37.48,5.1-51.94,14.88-11.4,7.71-20.8,18.38-27.94,31.72l-11.63-6.23c8.17-15.24,19-27.5,32.18-36.42,16.66-11.27,37-17.14,59.34-17.14m0-4c-23,0-44.33,6.17-61.57,17.83-13.73,9.29-25,22-33.46,37.84l-1.88,3.51,3.51,1.88,11.63,6.23,3.51,1.88,1.88-3.51c6.84-12.76,15.81-23,26.67-30.3,13.73-9.29,30.92-14.2,49.71-14.2,2.12,0,4.29.06,6.45.19,21.72,1.24,44.46,8.62,65.77,21.34l3.42,2,2-3.42,6.77-11.33,2-3.42-3.42-2c-24.22-14.47-50.29-22.87-75.41-24.3-2.55-.15-5.13-.22-7.65-.22Z"/><path class="cls-1" d="M2.69,3184.22l.94-1.75c8.32-15.53,19.36-28,32.82-37.13,16.91-11.44,37.82-17.49,60.47-17.49,2.48,0,5,.07,7.52.22,24.8,1.41,50.56,9.72,74.5,24l1.71,1-8.81,14.74-1.71-1c-21.58-12.89-44.63-20.36-66.67-21.62-2.18-.12-4.38-.19-6.53-.19-19.22,0-36.81,5-50.86,14.53-11.13,7.53-20.31,18-27.31,31l-.94,1.75Z"/><path class="cls-2" d="M96.93,3129.85q3.67,0,7.4.21c24.48,1.4,49.93,9.61,73.59,23.75l-6.77,11.33c-21.85-13.05-45.22-20.62-67.58-21.9q-3.35-.19-6.64-.19c-19.66,0-37.51,5.09-52,14.88-11.4,7.71-20.8,18.38-27.94,31.72l-11.63-6.23c8.17-15.24,19-27.5,32.18-36.42,16.67-11.27,37.06-17.14,59.36-17.14m0-4c-23.05,0-44.35,6.16-61.59,17.83-13.73,9.29-25,22-33.46,37.84L0,3185l3.51,1.88,11.63,6.23,3.51,1.88,1.88-3.51c6.84-12.76,15.81-23,26.67-30.3,13.72-9.29,30.93-14.19,49.75-14.19,2.11,0,4.27.06,6.41.18,21.72,1.24,44.46,8.62,65.76,21.34l3.42,2,2-3.42,6.77-11.33,2-3.42-3.42-2c-24.22-14.47-50.29-22.87-75.41-24.3-2.55-.15-5.12-.22-7.63-.22Z"/><path class="cls-1" d="M420.77,3172.65l.94-1.75c8.32-15.53,19.36-28,32.82-37.13,16.91-11.44,37.82-17.48,60.47-17.48,2.48,0,5,.07,7.52.22,24.8,1.41,50.56,9.72,74.5,24l1.71,1-8.81,14.74-1.71-1c-21.58-12.89-44.63-20.36-66.67-21.62-2.18-.12-4.38-.19-6.53-.19-19.22,0-36.81,5-50.86,14.53-11.13,7.53-20.31,18-27.31,31l-.94,1.76Z"/><path class="cls-2" d="M515,3118.27q3.67,0,7.4.21c24.48,1.4,49.93,9.61,73.59,23.74l-6.77,11.33c-21.85-13.05-45.22-20.62-67.58-21.9q-3.35-.19-6.64-.19c-19.66,0-37.51,5.09-52,14.88-11.4,7.71-20.8,18.38-27.94,31.72l-11.63-6.23c8.17-15.25,19-27.5,32.18-36.42,16.67-11.27,37.06-17.14,59.36-17.14m0-4c-23.05,0-44.35,6.16-61.59,17.83-13.73,9.29-25,22-33.46,37.84l-1.88,3.51,3.51,1.88,11.63,6.23,3.51,1.88,1.88-3.51c6.84-12.76,15.81-23,26.67-30.3,13.72-9.29,30.93-14.19,49.75-14.19,2.11,0,4.27.06,6.41.18,21.72,1.24,44.46,8.62,65.76,21.34l3.42,2,2-3.42,6.77-11.33,2-3.42-3.42-2c-24.22-14.47-50.29-22.87-75.41-24.3-2.55-.15-5.12-.22-7.63-.22Z"/><path class="cls-1" d="M640.73,3045l.94-1.75c8.32-15.53,19.36-28,32.82-37.13,16.91-11.44,37.82-17.48,60.49-17.48,2.47,0,5,.07,7.5.21,24.8,1.41,50.56,9.72,74.5,24l1.71,1-8.81,14.74-1.71-1c-21.58-12.89-44.63-20.36-66.67-21.62-2.19-.13-4.39-.19-6.54-.19-19.21,0-36.79,5-50.85,14.54-11.13,7.53-20.31,18-27.3,31l-.94,1.75Z"/><path class="cls-2" d="M735,2990.61q3.66,0,7.39.21c24.48,1.4,49.93,9.61,73.59,23.74l-6.77,11.33c-21.85-13.05-45.22-20.62-67.58-21.9q-3.36-.19-6.66-.19c-19.65,0-37.5,5.09-52,14.88-11.4,7.71-20.8,18.38-27.94,31.72l-11.63-6.23c8.17-15.25,19-27.5,32.18-36.42,16.67-11.28,37.07-17.14,59.37-17.14m0-4c-23.07,0-44.37,6.16-61.6,17.82-13.73,9.29-25,22-33.46,37.84L638,3045.8l3.51,1.88,11.63,6.23,3.51,1.88,1.88-3.51c6.84-12.76,15.81-23,26.67-30.3,13.73-9.29,30.92-14.19,49.73-14.19,2.11,0,4.28.06,6.43.18,21.72,1.24,44.46,8.62,65.77,21.34l3.42,2,2-3.42,6.77-11.33,2-3.42-3.42-2c-24.22-14.47-50.29-22.87-75.41-24.3-2.54-.14-5.11-.22-7.61-.22Z"/><path class="cls-1" d="M207.72,2823.3l.94-1.75c8.32-15.53,19.36-28,32.82-37.13,16.91-11.44,37.82-17.48,60.46-17.48,2.48,0,5,.07,7.53.22,24.8,1.41,50.56,9.72,74.5,24l1.71,1-8.81,14.74-1.71-1c-21.58-12.89-44.63-20.36-66.67-21.62-2.2-.13-4.41-.19-6.57-.19-19.19,0-36.76,5-50.82,14.54-11.12,7.53-20.31,18-27.31,31l-.94,1.75Z"/><path class="cls-2" d="M301.94,2768.93q3.67,0,7.42.21c24.48,1.4,49.93,9.61,73.59,23.74l-6.77,11.33c-21.85-13.05-45.22-20.62-67.58-21.9q-3.37-.19-6.68-.19c-19.64,0-37.48,5.1-51.94,14.88-11.4,7.71-20.8,18.38-27.94,31.72l-11.63-6.23c8.17-15.24,19-27.5,32.18-36.42,16.66-11.27,37.05-17.14,59.35-17.14m0-4c-23,0-44.34,6.16-61.58,17.83-13.73,9.29-25,22-33.46,37.84l-1.88,3.51,3.51,1.88,11.63,6.23,3.51,1.88,1.88-3.51c6.84-12.76,15.81-23,26.67-30.3,13.73-9.29,30.92-14.2,49.71-14.2,2.12,0,4.29.06,6.45.19,21.72,1.24,44.46,8.62,65.77,21.34l3.42,2,2-3.42,6.77-11.33,2-3.42-3.42-2c-24.22-14.47-50.29-22.87-75.41-24.3-2.55-.15-5.12-.22-7.64-.22Z"/><path class="cls-1" d="M2.69,2973.86l.94-1.75c8.32-15.53,19.36-28,32.82-37.13,16.91-11.44,37.82-17.49,60.47-17.49,2.48,0,5,.07,7.52.22,24.8,1.41,50.56,9.72,74.5,24l1.71,1-8.81,14.74-1.71-1c-21.58-12.89-44.63-20.36-66.67-21.62-2.18-.12-4.38-.19-6.52-.19-19.22,0-36.81,5-50.87,14.54-11.13,7.53-20.31,18-27.31,31l-.94,1.75Z"/><path class="cls-2" d="M96.93,2919.49q3.67,0,7.4.21c24.48,1.4,49.93,9.61,73.59,23.75l-6.77,11.33c-21.85-13.05-45.22-20.62-67.58-21.9q-3.35-.19-6.64-.19c-19.66,0-37.51,5.09-52,14.88-11.4,7.71-20.8,18.38-27.94,31.72l-11.63-6.23c8.17-15.24,19-27.5,32.18-36.42,16.67-11.27,37.06-17.14,59.36-17.14m0-4c-23.05,0-44.35,6.16-61.59,17.83-13.73,9.29-25,22-33.46,37.84L0,2974.68l3.51,1.88,11.63,6.23,3.51,1.88,1.88-3.51c6.84-12.76,15.81-23,26.67-30.3,13.73-9.29,30.93-14.19,49.75-14.19,2.11,0,4.27.06,6.41.18,21.72,1.24,44.46,8.62,65.76,21.34l3.42,2,2-3.42,6.77-11.33,2-3.42-3.42-2c-24.22-14.47-50.29-22.87-75.41-24.3-2.55-.15-5.12-.22-7.63-.22Z"/><path class="cls-1" d="M420.77,2962.29l.94-1.75c8.32-15.53,19.36-28,32.82-37.13,16.91-11.44,37.82-17.48,60.48-17.48,2.47,0,5,.07,7.51.21,24.8,1.41,50.56,9.72,74.5,24l1.71,1-8.81,14.74-1.71-1c-21.58-12.89-44.63-20.36-66.67-21.62-2.18-.12-4.38-.19-6.53-.19-19.22,0-36.81,5-50.86,14.53-11.13,7.53-20.31,18-27.31,31l-.94,1.76Z"/><path class="cls-2" d="M515,2907.92q3.67,0,7.4.21c24.48,1.4,49.93,9.61,73.59,23.75l-6.77,11.33c-21.85-13.05-45.22-20.62-67.58-21.9q-3.35-.19-6.64-.19c-19.66,0-37.51,5.09-52,14.88-11.4,7.71-20.8,18.38-27.94,31.72l-11.63-6.23c8.17-15.25,19-27.5,32.18-36.42,16.67-11.28,37.06-17.14,59.36-17.14m0-4c-23.06,0-44.36,6.16-61.59,17.83-13.73,9.29-25,22-33.46,37.84l-1.88,3.51,3.51,1.88,11.63,6.23,3.51,1.88,1.88-3.51c6.84-12.76,15.81-23,26.67-30.3C479,2930,496.2,2925.09,515,2925.09c2.11,0,4.27.06,6.41.18,21.72,1.24,44.46,8.62,65.76,21.34l3.42,2,2-3.42,6.77-11.33,2-3.42-3.42-2c-24.22-14.47-50.29-22.87-75.41-24.3-2.55-.15-5.11-.22-7.63-.22Z"/><path class="cls-1" d="M640.73,2834.63l.94-1.75c8.32-15.53,19.36-28,32.82-37.13,16.91-11.44,37.82-17.48,60.49-17.48,2.47,0,5,.07,7.5.21,24.8,1.41,50.56,9.72,74.5,24l1.71,1-8.81,14.74-1.71-1c-21.58-12.89-44.63-20.36-66.67-21.62-2.19-.13-4.39-.19-6.54-.19-19.21,0-36.79,5-50.85,14.54-11.13,7.53-20.31,18-27.3,31l-.94,1.75Z"/><path class="cls-2" d="M735,2780.26q3.66,0,7.38.21c24.48,1.4,49.93,9.61,73.59,23.75l-6.77,11.33c-21.85-13.05-45.22-20.62-67.58-21.9q-3.36-.19-6.66-.19c-19.65,0-37.5,5.09-52,14.88C671.6,2816,662.2,2826.71,655,2840l-11.63-6.23c8.17-15.25,19-27.5,32.18-36.42,16.67-11.28,37.07-17.14,59.38-17.14m0-4c-23.07,0-44.37,6.16-61.61,17.82-13.73,9.29-25,22-33.46,37.84l-1.88,3.51,3.51,1.88,11.63,6.23,3.51,1.88,1.88-3.51c6.84-12.76,15.81-23,26.67-30.3,13.73-9.29,30.92-14.19,49.73-14.19,2.11,0,4.28.06,6.43.18,21.72,1.24,44.46,8.62,65.77,21.34l3.42,2,2-3.42,6.77-11.33,2-3.42-3.42-2c-24.22-14.47-50.29-22.87-75.41-24.3-2.54-.14-5.1-.22-7.61-.22Z"/><path class="cls-1" d="M207.72,3454.37l.94-1.75c8.32-15.53,19.36-28,32.82-37.13C258.39,3404,279.29,3398,301.93,3398c2.48,0,5,.07,7.53.22,24.79,1.41,50.56,9.72,74.5,24l1.71,1L376.87,3438l-1.71-1c-21.58-12.89-44.63-20.36-66.67-21.62-2.2-.13-4.41-.19-6.57-.19-19.19,0-36.76,5-50.82,14.54-11.12,7.53-20.31,18-27.31,31l-.94,1.75Z"/><path class="cls-2" d="M301.93,3400q3.68,0,7.42.21c24.48,1.39,49.93,9.61,73.59,23.74l-6.77,11.33c-21.85-13.05-45.22-20.62-67.58-21.9q-3.37-.19-6.68-.19c-19.64,0-37.48,5.1-51.94,14.88-11.4,7.71-20.8,18.38-27.94,31.72l-11.63-6.23c8.17-15.24,19-27.5,32.18-36.42,16.66-11.27,37.05-17.14,59.34-17.14m0-4c-23,0-44.33,6.17-61.57,17.83-13.73,9.29-25,22-33.46,37.84l-1.88,3.51,3.51,1.88,11.63,6.23,3.51,1.88,1.88-3.51c6.84-12.76,15.81-23,26.67-30.3,13.73-9.29,30.92-14.2,49.71-14.2,2.12,0,4.29.06,6.45.19,21.72,1.24,44.46,8.62,65.77,21.34l3.42,2,2-3.42,6.77-11.33,2-3.42-3.42-2c-24.22-14.47-50.3-22.87-75.41-24.3-2.55-.15-5.13-.22-7.64-.22Z"/><path class="cls-1" d="M2.69,3604.93l.94-1.75c8.32-15.53,19.36-28,32.82-37.13,16.91-11.44,37.82-17.48,60.48-17.48,2.47,0,5,.07,7.51.21,24.8,1.41,50.56,9.72,74.5,24l1.71,1-8.81,14.74-1.71-1c-21.57-12.89-44.63-20.36-66.67-21.62-2.18-.12-4.38-.19-6.53-.19-19.22,0-36.81,5-50.86,14.53-11.13,7.53-20.31,18-27.31,31l-.94,1.75Z"/><path class="cls-2" d="M96.93,3550.56q3.67,0,7.4.21c24.48,1.4,49.93,9.61,73.59,23.75l-6.77,11.33c-21.85-13.05-45.22-20.62-67.58-21.9q-3.35-.19-6.64-.19c-19.66,0-37.51,5.09-52,14.88-11.4,7.71-20.8,18.38-27.94,31.72l-11.63-6.23c8.17-15.24,19-27.5,32.18-36.42,16.67-11.27,37.07-17.14,59.36-17.14m0-4c-23.06,0-44.35,6.16-61.59,17.83-13.73,9.29-25,22-33.46,37.84L0,3605.75l3.51,1.88,11.63,6.23,3.51,1.88,1.88-3.51c6.84-12.76,15.81-23,26.67-30.3,13.72-9.29,30.93-14.19,49.75-14.19,2.11,0,4.27.06,6.41.18,21.72,1.24,44.46,8.62,65.76,21.34l3.42,2,2-3.42,6.77-11.33,2-3.42-3.42-2c-24.22-14.47-50.29-22.87-75.41-24.3-2.55-.15-5.11-.22-7.63-.22Z"/><path class="cls-1" d="M420.77,3593.36l.94-1.75c8.32-15.53,19.36-28,32.82-37.13C471.44,3543,492.35,3537,515,3537c2.47,0,5,.07,7.51.21,24.8,1.41,50.56,9.72,74.5,24l1.71,1L589.92,3577l-1.71-1c-21.58-12.89-44.63-20.36-66.67-21.62-2.18-.12-4.38-.19-6.53-.19-19.22,0-36.8,5-50.86,14.53-11.13,7.53-20.31,18-27.31,31l-.94,1.76Z"/><path class="cls-2" d="M515,3539q3.67,0,7.4.21c24.48,1.4,49.93,9.61,73.59,23.74l-6.77,11.33c-21.85-13.05-45.22-20.62-67.58-21.9q-3.35-.19-6.64-.19c-19.65,0-37.51,5.09-52,14.88-11.4,7.71-20.8,18.38-27.94,31.72l-11.63-6.23c8.17-15.24,19-27.5,32.18-36.42C472.31,3544.85,492.71,3539,515,3539m0-4c-23.06,0-44.35,6.16-61.59,17.82-13.73,9.29-25,22-33.46,37.84l-1.88,3.51,3.51,1.88,11.63,6.23,3.51,1.88,1.88-3.51c6.84-12.76,15.81-23,26.67-30.3,13.72-9.28,30.92-14.19,49.74-14.19,2.11,0,4.27.06,6.42.18,21.72,1.24,44.46,8.62,65.76,21.34l3.42,2,2-3.42,6.77-11.33,2-3.42-3.42-2c-24.22-14.47-50.29-22.87-75.41-24.3-2.55-.15-5.11-.22-7.63-.22Z"/><path class="cls-1" d="M640.73,3465.7l.94-1.75c8.32-15.53,19.36-28,32.82-37.13,16.91-11.44,37.82-17.48,60.49-17.48,2.47,0,5,.07,7.5.21,24.8,1.41,50.56,9.72,74.5,24l1.71,1-8.81,14.74-1.71-1c-21.58-12.89-44.63-20.36-66.67-21.62-2.19-.13-4.39-.19-6.54-.19-19.21,0-36.79,5-50.85,14.53-11.13,7.53-20.31,18-27.3,31l-.94,1.75Z"/><path class="cls-2" d="M735,3411.32q3.66,0,7.39.21c24.48,1.4,49.93,9.61,73.59,23.74l-6.77,11.33c-21.85-13.05-45.22-20.62-67.58-21.9q-3.36-.19-6.66-.19c-19.65,0-37.5,5.09-52,14.88-11.4,7.71-20.8,18.38-27.94,31.72l-11.63-6.23c8.17-15.24,19-27.5,32.18-36.42,16.67-11.28,37.07-17.14,59.37-17.14m0-4c-23.07,0-44.37,6.16-61.61,17.82-13.73,9.29-25,22-33.46,37.84l-1.88,3.51,3.51,1.88,11.63,6.23,3.51,1.88,1.88-3.51c6.84-12.76,15.81-23,26.67-30.3,13.72-9.29,30.92-14.19,49.73-14.19,2.12,0,4.28.06,6.43.18,21.72,1.24,44.46,8.62,65.77,21.34l3.42,2,2-3.42,6.77-11.33,2-3.42-3.42-2c-24.22-14.47-50.29-22.87-75.41-24.3-2.54-.14-5.11-.22-7.61-.22Z"/><path class="cls-1" d="M207.72,3244l.94-1.75c8.32-15.53,19.36-28,32.82-37.13,16.91-11.44,37.82-17.49,60.46-17.49,2.48,0,5,.07,7.53.22,24.79,1.41,50.56,9.72,74.5,24l1.71,1-8.81,14.74-1.71-1c-21.58-12.89-44.63-20.36-66.67-21.62-2.2-.13-4.41-.19-6.57-.19-19.19,0-36.76,5-50.82,14.54-11.12,7.53-20.31,18-27.31,31l-.94,1.75Z"/><path class="cls-2" d="M301.93,3189.64q3.68,0,7.42.21c24.48,1.39,49.93,9.61,73.59,23.74l-6.77,11.33c-21.85-13.05-45.22-20.62-67.58-21.9q-3.37-.19-6.68-.19c-19.64,0-37.48,5.1-51.94,14.88-11.4,7.71-20.8,18.38-27.94,31.72l-11.63-6.23c8.17-15.24,19-27.5,32.18-36.42,16.66-11.27,37-17.14,59.34-17.14m0-4c-23,0-44.33,6.17-61.57,17.83-13.73,9.29-25,22-33.46,37.84l-1.88,3.51,3.51,1.88,11.63,6.23,3.51,1.88,1.88-3.51c6.84-12.76,15.81-23,26.67-30.3,13.73-9.29,30.92-14.2,49.71-14.2,2.12,0,4.29.06,6.45.19,21.72,1.24,44.46,8.62,65.77,21.34l3.42,2,2-3.42,6.77-11.33,2-3.42-3.42-2c-24.22-14.47-50.3-22.87-75.41-24.3-2.55-.15-5.13-.22-7.65-.22Z"/><path class="cls-1" d="M2.69,3394.58l.94-1.75c8.32-15.53,19.36-28,32.82-37.13,16.91-11.44,37.82-17.48,60.48-17.48,2.47,0,5,.07,7.51.21,24.8,1.41,50.56,9.72,74.5,24l1.71,1-8.81,14.74-1.71-1c-21.58-12.89-44.63-20.36-66.67-21.62-2.18-.12-4.38-.19-6.53-.19-19.22,0-36.81,5-50.86,14.53-11.13,7.53-20.31,18-27.31,31l-.94,1.75Z"/><path class="cls-2" d="M96.93,3340.2q3.67,0,7.4.21c24.48,1.4,49.93,9.61,73.59,23.75l-6.77,11.33c-21.85-13.05-45.22-20.62-67.58-21.9q-3.35-.19-6.64-.19c-19.66,0-37.51,5.09-52,14.88C33.57,3376,24.17,3386.65,17,3400l-11.63-6.23c8.17-15.24,19-27.5,32.18-36.42,16.67-11.27,37.07-17.14,59.36-17.14m0-4c-23.06,0-44.35,6.16-61.59,17.83-13.73,9.29-25,22-33.46,37.84L0,3395.39l3.51,1.88,11.63,6.23,3.51,1.88,1.88-3.51c6.84-12.76,15.81-23,26.67-30.3,13.72-9.29,30.93-14.19,49.75-14.19,2.11,0,4.27.06,6.41.18,21.72,1.24,44.46,8.62,65.76,21.34l3.42,2,2-3.42,6.77-11.33,2-3.42-3.42-2c-24.22-14.47-50.29-22.87-75.41-24.3-2.55-.15-5.11-.22-7.63-.22Z"/><path class="cls-1" d="M420.77,3383l.94-1.75c8.32-15.53,19.36-28,32.82-37.13,16.91-11.44,37.82-17.48,60.47-17.48,2.48,0,5,.07,7.52.22,24.8,1.41,50.56,9.72,74.5,24l1.71,1-8.81,14.74-1.71-1c-21.58-12.89-44.63-20.36-66.67-21.62-2.18-.12-4.38-.19-6.53-.19-19.22,0-36.8,5-50.86,14.53-11.13,7.53-20.31,18-27.31,31l-.94,1.76Z"/><path class="cls-2" d="M515,3328.63q3.67,0,7.4.21c24.48,1.4,49.93,9.61,73.59,23.74l-6.77,11.33c-21.85-13.05-45.22-20.62-67.58-21.9q-3.35-.19-6.64-.19c-19.65,0-37.51,5.09-52,14.88-11.4,7.71-20.8,18.38-27.94,31.72l-11.63-6.23c8.17-15.25,19-27.5,32.18-36.42,16.67-11.27,37.06-17.14,59.36-17.14m0-4c-23.05,0-44.35,6.16-61.59,17.82-13.73,9.29-25,22-33.46,37.84l-1.88,3.51,3.51,1.88,11.63,6.23,3.51,1.88,1.88-3.51c6.84-12.76,15.81-23,26.67-30.3,13.72-9.28,30.92-14.19,49.74-14.19,2.11,0,4.27.06,6.42.18,21.72,1.24,44.46,8.62,65.76,21.34l3.42,2,2-3.42,6.77-11.33,2-3.42-3.42-2c-24.22-14.47-50.29-22.87-75.41-24.3-2.55-.15-5.12-.22-7.63-.22Z"/><path class="cls-1" d="M640.73,3255.34l.94-1.75c8.32-15.53,19.36-28,32.82-37.13C691.39,3205,712.31,3199,735,3199c2.47,0,5,.07,7.5.21,24.8,1.41,50.56,9.72,74.5,24l1.71,1L809.88,3239l-1.71-1c-21.58-12.89-44.63-20.36-66.67-21.62-2.19-.13-4.39-.19-6.54-.19-19.21,0-36.79,5-50.85,14.53-11.13,7.53-20.31,18-27.3,31l-.94,1.75Z"/><path class="cls-2" d="M735,3201q3.66,0,7.39.21c24.48,1.4,49.93,9.61,73.59,23.74l-6.77,11.33c-21.85-13.05-45.22-20.62-67.58-21.9q-3.36-.19-6.66-.19c-19.65,0-37.5,5.09-52,14.88-11.4,7.71-20.8,18.38-27.94,31.72l-11.63-6.23c8.17-15.25,19-27.5,32.18-36.42C692.27,3206.83,712.67,3201,735,3201m0-4c-23.07,0-44.37,6.16-61.61,17.82-13.73,9.29-25,22-33.46,37.84l-1.88,3.51,3.51,1.88,11.63,6.23,3.51,1.88,1.88-3.51c6.84-12.76,15.81-23,26.67-30.3,13.72-9.29,30.92-14.19,49.73-14.19,2.12,0,4.28.06,6.43.18,21.72,1.24,44.46,8.62,65.77,21.34l3.42,2,2-3.42,6.77-11.33,2-3.42-3.42-2c-24.22-14.47-50.29-22.87-75.41-24.3-2.54-.14-5.11-.22-7.61-.22Z"/><path class="cls-1" d="M207.72,3678.63l.94-1.75c8.32-15.53,19.36-28,32.82-37.13,16.91-11.44,37.82-17.49,60.46-17.49,2.48,0,5,.07,7.53.22,24.8,1.41,50.56,9.72,74.5,24l1.71,1-8.81,14.74-1.71-1c-21.58-12.89-44.63-20.36-66.67-21.62-2.2-.13-4.41-.19-6.57-.19-19.19,0-36.76,5-50.82,14.54-11.12,7.53-20.31,18-27.31,31l-.94,1.75Z"/><path class="cls-2" d="M301.94,3624.26q3.67,0,7.42.21c24.48,1.4,49.93,9.61,73.59,23.75l-6.77,11.33c-21.85-13.05-45.22-20.62-67.58-21.9q-3.37-.19-6.68-.19c-19.64,0-37.48,5.1-51.94,14.88-11.4,7.71-20.8,18.38-27.94,31.72l-11.63-6.23c8.17-15.24,19-27.5,32.18-36.42,16.66-11.27,37.05-17.14,59.35-17.14m0-4c-23,0-44.34,6.16-61.58,17.83-13.73,9.29-25,22-33.46,37.84l-1.88,3.51,3.51,1.88,11.63,6.23,3.51,1.88,1.88-3.51c6.84-12.76,15.81-23,26.67-30.3,13.73-9.29,30.92-14.2,49.71-14.2,2.12,0,4.29.06,6.45.19,21.72,1.24,44.46,8.62,65.77,21.34l3.42,2,2-3.42,6.77-11.33,2-3.42-3.42-2c-24.22-14.47-50.29-22.87-75.41-24.3-2.55-.15-5.12-.22-7.64-.22Z"/><path class="cls-1" d="M2.69,3829.19l.94-1.75c8.32-15.53,19.36-28,32.82-37.13,16.91-11.44,37.82-17.49,60.47-17.49,2.48,0,5,.07,7.52.22,24.8,1.41,50.56,9.72,74.5,24l1.71,1-8.81,14.74-1.71-1c-21.58-12.89-44.63-20.36-66.67-21.62-2.18-.12-4.38-.19-6.52-.19-19.22,0-36.81,5-50.87,14.54-11.13,7.53-20.31,18-27.31,31l-.94,1.75Z"/><path class="cls-2" d="M96.93,3774.82q3.67,0,7.4.21c24.48,1.4,49.93,9.61,73.59,23.75l-6.77,11.33c-21.85-13.05-45.22-20.62-67.58-21.9q-3.35-.19-6.64-.19c-19.66,0-37.51,5.09-52,14.88-11.4,7.71-20.8,18.38-27.94,31.72l-11.63-6.23c8.17-15.24,19-27.5,32.18-36.42,16.67-11.27,37.06-17.14,59.36-17.14m0-4c-23.05,0-44.35,6.16-61.59,17.83-13.73,9.29-25,22-33.46,37.84L0,3830l3.51,1.88,11.63,6.23,3.51,1.88,1.88-3.51c6.84-12.76,15.81-23,26.67-30.3C60.92,3796.9,78.12,3792,96.94,3792c2.11,0,4.27.06,6.41.18,21.72,1.24,44.46,8.62,65.76,21.34l3.42,2,2-3.42,6.77-11.33,2-3.42-3.42-2c-24.22-14.47-50.29-22.87-75.41-24.3-2.55-.15-5.12-.22-7.63-.22Z"/><path class="cls-1" d="M420.77,3817.62l.94-1.75c8.32-15.53,19.36-28,32.82-37.13,16.91-11.44,37.82-17.48,60.48-17.48,2.47,0,5,.07,7.51.21,24.8,1.41,50.56,9.72,74.5,24l1.71,1-8.81,14.74-1.71-1c-21.58-12.89-44.63-20.36-66.67-21.62-2.18-.12-4.38-.19-6.53-.19-19.22,0-36.81,5-50.86,14.53-11.13,7.53-20.31,18-27.31,31l-.94,1.76Z"/><path class="cls-2" d="M515,3763.25q3.67,0,7.4.21c24.48,1.4,49.93,9.61,73.59,23.75l-6.77,11.33c-21.85-13.05-45.22-20.62-67.58-21.9q-3.35-.19-6.64-.19c-19.66,0-37.51,5.09-52,14.88-11.4,7.71-20.8,18.38-27.94,31.72l-11.63-6.23c8.17-15.25,19-27.5,32.18-36.42,16.67-11.28,37.06-17.14,59.36-17.14m0-4c-23.06,0-44.36,6.16-61.59,17.83-13.73,9.29-25,22-33.46,37.84l-1.88,3.51,3.51,1.88,11.63,6.23,3.51,1.88,1.88-3.51c6.84-12.76,15.81-23,26.67-30.3,13.72-9.29,30.93-14.19,49.75-14.19,2.11,0,4.27.06,6.41.18,21.72,1.24,44.46,8.62,65.76,21.34l3.42,2,2-3.42,6.77-11.33,2-3.42-3.42-2c-24.22-14.47-50.29-22.87-75.41-24.3-2.55-.15-5.11-.22-7.63-.22Z"/><path class="cls-1" d="M640.73,3690l.94-1.75c8.32-15.53,19.36-28,32.82-37.13,16.91-11.44,37.82-17.48,60.49-17.48,2.47,0,5,.07,7.5.21,24.8,1.41,50.56,9.72,74.5,24l1.71,1-8.81,14.74-1.71-1c-21.58-12.89-44.63-20.36-66.67-21.62-2.19-.13-4.39-.19-6.54-.19-19.21,0-36.79,5-50.85,14.54-11.13,7.53-20.31,18-27.3,31l-.94,1.75Z"/><path class="cls-2" d="M735,3635.59q3.66,0,7.39.21c24.48,1.4,49.93,9.61,73.59,23.74l-6.77,11.33c-21.85-13.05-45.22-20.62-67.58-21.9q-3.36-.19-6.66-.19c-19.65,0-37.5,5.09-52,14.88-11.4,7.71-20.8,18.38-27.94,31.72l-11.63-6.23c8.17-15.25,19-27.5,32.18-36.42,16.67-11.28,37.07-17.14,59.37-17.14m0-4c-23.07,0-44.37,6.16-61.6,17.82-13.73,9.29-25,22-33.46,37.84l-1.88,3.51,3.51,1.88,11.63,6.23,3.51,1.88,1.88-3.51c6.84-12.76,15.81-23,26.67-30.3,13.73-9.29,30.92-14.19,49.73-14.19,2.11,0,4.28.06,6.43.18,21.72,1.24,44.46,8.62,65.77,21.34l3.42,2,2-3.42,6.77-11.33,2-3.42-3.42-2c-24.22-14.47-50.29-22.87-75.41-24.3-2.54-.14-5.11-.22-7.61-.22Z"/></g></g></svg>