<svg xmlns="http://www.w3.org/2000/svg" viewBox="0 0 274.26 277.03"><title>chargephone-background2</title><g id="Layer_2" data-name="Layer 2"><g id="Layer_2-2" data-name="Layer 2"><path d="M274.26,65.68l-3.18-6.48L255.93,28.29,254,24.43c-.7-1.26-1.11-2.65-1.75-3.93A39.89,39.89,0,0,0,249.67,17l-2.73-3.45c-1.82-2.3-3.73-4.56-5.63-6.83s-3.86-4.5-5.87-6.71c.51,2.94,1.06,5.87,1.71,8.75s1.24,5.78,1.95,8.63l1.06,4.27a39.74,39.74,0,0,0,1.18,4.21c.62,1.3,1.47,2.47,2,3.79l1.89,3.86,12,24.42L207.09,71.38l-8.62,2.31,5.46,7.06,23.58,30.49,2.94,3.82a17.67,17.67,0,0,0,3,3.76l7.3,6.53c2.41,2.2,4.95,4.29,7.42,6.44s5,4.23,7.6,6.3c-1.36-3-2.74-6-4.19-8.94s-2.85-5.92-4.37-8.8l-4.49-8.71a17.63,17.63,0,0,0-2.88-3.86l-3-3.81L218.78,80.54l48.5-13Z"/><path d="M75.79,204.62l-3.18-6.48L57.46,167.23l-1.89-3.86c-.7-1.26-1.11-2.65-1.75-3.93a39.89,39.89,0,0,0-2.61-3.51l-2.73-3.45c-1.82-2.3-3.73-4.56-5.63-6.83S39,141.15,37,138.94c.51,2.94,1.06,5.87,1.71,8.75s1.24,5.78,1.95,8.63l1.06,4.27a39.74,39.74,0,0,0,1.18,4.21c.62,1.3,1.47,2.47,2,3.79l1.89,3.86,12,24.42L8.62,210.32,0,212.63l5.46,7.06L29,250.17,32,254a17.67,17.67,0,0,0,3,3.76l7.3,6.53c2.41,2.2,4.95,4.29,7.42,6.44s5,4.23,7.6,6.3c-1.36-3-2.74-6-4.19-8.94s-2.85-5.92-4.37-8.8l-4.49-8.71a17.63,17.63,0,0,0-2.88-3.86l-3-3.81L20.32,219.48l48.5-13Z"/></g></g></svg>