<svg xmlns="http://www.w3.org/2000/svg" viewBox="0 0 388.41 219.73"><defs><style>.cls-1{fill:#f91085;}.cls-2{fill:#0071bc;}</style></defs><title>chargephone-background</title><g id="Layer_2" data-name="Layer 2"><g id="Layer_2-2" data-name="Layer 2"><path class="cls-1" d="M207.72,58.36l.94-1.75c8.32-15.53,19.36-28,32.82-37.13C258.39,8,279.29,2,301.93,2c2.48,0,5,.07,7.53.22,24.79,1.41,50.56,9.72,74.5,24l1.71,1L376.87,42l-1.71-1c-21.58-12.89-44.63-20.36-66.67-21.62-2.2-.13-4.41-.19-6.57-.19-19.19,0-36.76,5-50.82,14.54-11.12,7.53-20.31,18-27.31,31l-.94,1.75Z"/><path class="cls-2" d="M301.93,4q3.68,0,7.42.21c24.48,1.39,49.93,9.61,73.59,23.74l-6.77,11.33C354.33,26.21,331,18.64,308.6,17.37q-3.37-.19-6.68-.19c-19.64,0-37.48,5.1-51.94,14.88-11.4,7.71-20.8,18.38-27.94,31.72l-11.63-6.23c8.17-15.24,19-27.5,32.18-36.42C259.25,9.85,279.64,4,301.93,4m0-4c-23,0-44.33,6.17-61.57,17.83-13.73,9.29-25,22-33.46,37.84L205,59.17l3.51,1.88,11.63,6.23,3.51,1.88,1.88-3.51c6.84-12.76,15.81-23,26.67-30.3,13.73-9.29,30.92-14.19,49.71-14.19,2.12,0,4.29.06,6.45.19,21.72,1.24,44.46,8.62,65.77,21.34l3.42,2,2-3.42L386.36,30l2-3.42-3.42-2C360.77,10.05,334.69,1.65,309.58.22,307,.07,304.45,0,301.93,0Z"/><path class="cls-1" d="M2.69,208.92l.94-1.75C12,191.63,23,179.14,36.45,170c16.91-11.44,37.82-17.48,60.48-17.48,2.47,0,5,.07,7.51.21,24.8,1.41,50.56,9.72,74.5,24l1.71,1-8.81,14.74-1.71-1c-21.58-12.89-44.63-20.36-66.67-21.62-2.18-.12-4.38-.19-6.53-.19-19.22,0-36.81,5-50.86,14.53-11.13,7.53-20.31,18-27.3,31L17.83,217Z"/><path class="cls-2" d="M96.93,154.54q3.67,0,7.4.21c24.48,1.4,49.93,9.61,73.59,23.75l-6.77,11.33c-21.85-13.05-45.22-20.62-67.58-21.9q-3.35-.19-6.64-.19c-19.66,0-37.51,5.09-52,14.88C33.57,190.32,24.17,201,17,214.34L5.39,208.11c8.17-15.24,19-27.5,32.18-36.42,16.67-11.27,37.07-17.14,59.36-17.14m0-4c-23.06,0-44.35,6.16-61.59,17.83-13.73,9.29-25,22-33.46,37.84L0,209.73l3.51,1.88,11.63,6.23,3.51,1.88,1.88-3.51c6.84-12.76,15.81-23,26.67-30.3,13.72-9.29,30.93-14.19,49.75-14.19,2.11,0,4.27.06,6.41.18,21.72,1.24,44.46,8.62,65.76,21.34l3.42,2,2-3.42,6.77-11.33,2-3.42-3.42-2c-24.22-14.47-50.29-22.87-75.41-24.3-2.55-.15-5.11-.22-7.63-.22Z"/></g></g></svg>