<svg id="Layer_1" data-name="Layer 1" xmlns="http://www.w3.org/2000/svg" xmlns:xlink="http://www.w3.org/1999/xlink" viewBox="0 0 3400 850"><defs><style>.cls-1,.cls-2,.cls-9{fill:none;}.cls-1,.cls-10,.cls-11,.cls-12,.cls-13,.cls-14,.cls-16,.cls-17,.cls-19,.cls-20,.cls-23,.cls-3,.cls-4,.cls-5,.cls-6,.cls-7,.cls-8,.cls-9{stroke:#000;stroke-miterlimit:10;}.cls-1,.cls-17{stroke-width:1.71px;}.cls-3,.cls-4{fill:#ab4a9c;}.cls-14,.cls-3{stroke-width:5.64px;}.cls-10,.cls-11,.cls-13,.cls-4,.cls-6,.cls-7,.cls-8,.cls-9{stroke-width:5.12px;}.cls-5,.cls-6{fill:#b2d235;}.cls-12,.cls-5{stroke-width:5px;}.cls-7{fill:#faffad;}.cls-19,.cls-8{fill:#00bea6;}.cls-10{fill:#ff7bac;}.cls-11,.cls-23{fill:#ff2d03;}.cls-12,.cls-14,.cls-20{fill:#f2f2f2;}.cls-13{fill:#2e3192;}.cls-15{fill:url(#linear-gradient);}.cls-16,.cls-17{fill:#fff;}.cls-16{stroke-width:0.78px;}.cls-18{clip-path:url(#clip-path);}.cls-19{stroke-width:6.13px;}.cls-20{stroke-width:4.32px;}.cls-21{fill:url(#linear-gradient-2);}.cls-22{clip-path:url(#clip-path-2);}.cls-23{stroke-width:8.17px;}.cls-24{fill:url(#linear-gradient-3);}.cls-25{clip-path:url(#clip-path-3);}.cls-26{fill:url(#linear-gradient-4);}.cls-27{clip-path:url(#clip-path-4);}</style><linearGradient id="linear-gradient" x1="-310.76" y1="412.78" x2="-223.88" y2="412.78" gradientTransform="matrix(0.91, -0.01, -0.01, 0.98, 341.47, 33.88)" gradientUnits="userSpaceOnUse"><stop offset="0" stop-color="#6b6b6b"/><stop offset="1"/></linearGradient><clipPath id="clip-path"><path class="cls-1" d="M98.36,418c-9.86-1.22-17.6-4.29-17.28-6.87l-6.49,52.6c-.32,2.58,7.42,5.66,17.28,6.87s18.12.11,18.43-2.46l6.49-52.6C116.47,418.15,108.22,419.25,98.36,418Z"/></clipPath><linearGradient id="linear-gradient-2" x1="616.62" y1="397.99" x2="703.5" y2="397.99" gradientTransform="matrix(0.86, 0.3, -0.33, 0.92, 515.91, -174.49)" xlink:href="#linear-gradient"/><clipPath id="clip-path-2"><path class="cls-1" d="M962.19,366.87c-8.89-4.43-15.16-9.91-14-12.24l-23.64,47.44c-1.16,2.33,5.11,7.8,14,12.24s17,6.14,18.2,3.82l23.64-47.44C979.23,373,971.08,371.31,962.19,366.87Z"/></clipPath><linearGradient id="linear-gradient-3" x1="1557.12" y1="429.02" x2="1644" y2="429.02" xlink:href="#linear-gradient"/><clipPath id="clip-path-3"><path class="cls-1" d="M1798.36,418c-9.86-1.22-17.6-4.29-17.28-6.87l-6.49,52.6c-.32,2.58,7.42,5.66,17.28,6.87s18.12.11,18.43-2.46l6.49-52.6C1816.47,418.15,1808.22,419.25,1798.36,418Z"/></clipPath><linearGradient id="linear-gradient-4" x1="2372.42" y1="-165.8" x2="2459.3" y2="-165.8" gradientTransform="matrix(0.86, 0.3, -0.33, 0.92, 515.91, -174.49)" xlink:href="#linear-gradient"/><clipPath id="clip-path-4"><path class="cls-1" d="M2662.19,366.87c-8.89-4.43-15.16-9.91-14-12.24l-23.64,47.44c-1.16,2.33,5.11,7.8,14,12.24s17,6.14,18.2,3.82l23.64-47.44C2679.23,373,2671.08,371.31,2662.19,366.87Z"/></clipPath></defs><title>chargephone-coach</title><rect class="cls-2" width="850" height="850"/><path class="cls-3" d="M318.08,459.43s-69.31,61-182.93-5.53L151,423.31s37.59,14.78,80,15.62,97.42-27.27,97.42-27.27Z"/><ellipse class="cls-4" cx="123.21" cy="427.94" rx="28.2" ry="37.7" transform="translate(-321.1 457.97) rotate(-77.8)"/><path class="cls-5" d="M320.7,591.5l-64.51,86.72,116.31,59,17.16-30.61s-29.87,1.09-41.6-22.37,17.1-92.74,17.1-92.74Z"/><path class="cls-6" d="M567.26,550.89s119,48.87,115.09,127.06-72,93.83-72,93.83l-24.64-17.59L610.37,676,527.92,560.66Z"/><polygon class="cls-7" points="267.92 416.94 232.73 623.17 717.54 565.02 575.21 368.07 267.92 416.94"/><path class="cls-4" d="M247.4,536.25S307.56,469.76,307.56,416c0-2.24-.2-6.27-.2-6.27L267.92,416Z"/><path class="cls-4" d="M652.25,473.73S566,437.12,541.15,389.45c-1-2-7.41-15.73-7.41-15.73l41.47-6.6Z"/><path class="cls-4" d="M565.78,330.42l141.6,27.85,60.94-98.64,43,11.26s-7.61,121-42.65,140-204.94,12.2-204.94,12.2Z"/><ellipse class="cls-4" cx="795.23" cy="246.8" rx="28.6" ry="32.26" transform="translate(-3.91 480.63) rotate(-33.55)"/><path class="cls-4" d="M207.31,276.87c0,31.38-39,92.09-3.91,115.67,53.3,35.79,96.14,59,193.77,59,161.95,0,193.3,16,193.3-63,0-9.87,0-33.09-46.92-80.08s-4.68-143-146.38-143C235.23,165.51,207.31,197.87,207.31,276.87Z"/><circle class="cls-8" cx="273.95" cy="276.87" r="25.03"/><circle class="cls-8" cx="356.05" cy="276.87" r="25.03"/><path class="cls-9" d="M299,276.87s1.19-10.42,12.92-10.42S331,276.87,331,276.87"/><path class="cls-9" d="M381.08,276.87s206.46-114,271-61.24"/><ellipse class="cls-10" cx="313.86" cy="340.74" rx="104.58" ry="56.69"/><circle class="cls-11" cx="452.65" cy="389.61" r="19.55"/><path class="cls-9" d="M284.1,202.64s78.62-101.6,145.09-38.7"/><path class="cls-9" d="M284.1,179.18s78.62-101.6,145.09-38.7"/><polygon class="cls-12" points="252.5 202.68 51.18 95.4 17.74 202.68 252.5 238.44 252.5 202.68"/><polygon class="cls-12" points="378.5 198.34 623.91 51.08 608.54 215.57 378.5 234.1 378.5 198.34"/><ellipse class="cls-13" cx="366.64" cy="737.57" rx="39.1" ry="18.57" transform="translate(-417.02 483.97) rotate(-45.64)"/><ellipse class="cls-13" cx="607.09" cy="772.77" rx="18.57" ry="39.1" transform="translate(-371.92 857.96) rotate(-56.82)"/><rect class="cls-14" x="19.57" y="396.18" width="150.54" height="84.55" rx="6.27" ry="6.27" transform="translate(-351.93 478.86) rotate(-82.96)"/><path class="cls-15" d="M114.31,506.63l-54.89-6.82a5.76,5.76,0,0,1-4.72-6.58l14.13-115A5.74,5.74,0,0,1,75,373l54.89,6.82a5.76,5.76,0,0,1,4.72,6.58l-14.13,115A5.74,5.74,0,0,1,114.31,506.63Z"/><path class="cls-16" d="M98.36,418c-9.86-1.22-17.6-4.29-17.28-6.87l-6.49,52.6c-.32,2.58,7.42,5.66,17.28,6.87s18.12.11,18.43-2.46l6.49-52.6C116.47,418.15,108.22,419.25,98.36,418Z"/><ellipse class="cls-17" cx="98.93" cy="413.36" rx="4.7" ry="17.99" transform="translate(-323.43 460.91) rotate(-82.96)"/><path class="cls-17" d="M99.35,410c-2.51-.31-4.48-1.09-4.39-1.75l-.42,3.4c-.08.66,1.89,1.44,4.39,1.75s4.61,0,4.69-.63l.42-3.4C104,410,101.86,410.27,99.35,410Z"/><ellipse class="cls-17" cx="99.5" cy="408.78" rx="1.2" ry="4.58" transform="translate(-318.39 457.44) rotate(-82.96)"/><g class="cls-18"><path d="M104,442.92l-.78-1.58-3.7-7.54-.46-.94c-.17-.31-.27-.65-.43-1a9.73,9.73,0,0,0-.64-.86l-.67-.84c-.44-.56-.91-1.11-1.37-1.66s-.94-1.1-1.43-1.64c.13.72.26,1.43.42,2.13s.3,1.41.48,2.1l.26,1a9.69,9.69,0,0,0,.29,1c.15.32.36.6.5.93l.46.94,2.92,6-12.23,3.28-2.1.56,1.33,1.72L92.65,454l.72.93a4.31,4.31,0,0,0,.74.92l1.78,1.59c.59.54,1.21,1,1.81,1.57s1.23,1,1.85,1.54c-.33-.73-.67-1.46-1-2.18s-.7-1.44-1.07-2.15l-1.09-2.12a4.3,4.3,0,0,0-.7-.94l-.72-.93-4.42-5.71,11.83-3.17Z"/></g><path class="cls-1" d="M98.36,418c-9.86-1.22-17.6-4.29-17.28-6.87l-6.49,52.6c-.32,2.58,7.42,5.66,17.28,6.87s18.12.11,18.43-2.46l6.49-52.6C116.47,418.15,108.22,419.25,98.36,418Z"/><line class="cls-1" x1="96.24" y1="371.24" x2="111.84" y2="372.96"/><rect class="cls-2" x="850" width="850" height="850"/><path class="cls-3" d="M1155.57,479.1s-85.68,34.45-170.64-66.15L1010,389.37s30.52,26.45,70.26,41.39,100.94,6.74,100.94,6.74Z"/><ellipse class="cls-4" cx="982.32" cy="384.5" rx="28.2" ry="37.7" transform="translate(139.54 1018.94) rotate(-58.35)"/><path class="cls-5" d="M1170.7,591.5l-64.51,86.72,116.31,59,17.16-30.61s-29.87,1.09-41.6-22.37,17.1-92.74,17.1-92.74Z"/><path class="cls-6" d="M1417.26,550.89s119,48.87,115.09,127.06-72,93.83-72,93.83l-24.64-17.59L1460.37,676l-82.45-115.34Z"/><polygon class="cls-7" points="1112.41 421.46 1093.54 629.82 1572.28 533.76 1414.92 348.6 1112.41 421.46"/><path class="cls-4" d="M1101.33,542s54.75-71,50.53-124.6c-.18-2.24-.69-6.24-.69-6.24l-38.83,9.35Z"/><path class="cls-4" d="M1500,447.88s-88.85-29.73-117.38-75.29c-1.19-1.9-8.62-15.1-8.62-15.1l40.82-9.83Z"/><path class="cls-4" d="M1404.22,317h144.32l40.76-108.54,44.37,2.75s15.89,120.22-14.82,145.64-198.73,51.52-198.73,51.52Z"/><ellipse class="cls-4" cx="1613.22" cy="190.71" rx="28.6" ry="32.26" transform="translate(332.01 1189.39) rotate(-44.68)"/><path class="cls-4" d="M1057.31,276.87c0,31.38-39,92.09-3.91,115.67,53.3,35.79,96.14,59,193.77,59,161.95,0,193.3,16,193.3-63,0-9.87,0-33.09-46.92-80.08s-4.68-143-146.38-143C1085.23,165.51,1057.31,197.87,1057.31,276.87Z"/><path class="cls-9" d="M1149,276.87s1.19-10.42,12.92-10.42S1181,276.87,1181,276.87"/><path class="cls-9" d="M1231.08,276.87s206.46-114,271-61.24"/><circle class="cls-19" cx="1115.8" cy="276.87" r="30"/><circle class="cls-19" cx="1214.2" cy="276.87" r="30"/><ellipse class="cls-10" cx="1163.86" cy="340.74" rx="104.58" ry="56.69"/><circle class="cls-11" cx="1302.65" cy="389.61" r="19.55"/><path class="cls-9" d="M1134.1,202.64s78.62-101.6,145.09-38.7"/><path class="cls-9" d="M1134.1,179.18s78.62-101.6,145.09-38.7"/><polygon class="cls-12" points="1102.5 202.68 901.18 95.4 867.74 202.68 1102.5 238.44 1102.5 202.68"/><polygon class="cls-20" points="1236.22 184.67 1414 12.67 1433.25 154.16 1243.21 214.78 1236.22 184.67"/><ellipse class="cls-13" cx="1216.64" cy="737.57" rx="39.1" ry="18.57" transform="translate(-161.35 1091.66) rotate(-45.64)"/><ellipse class="cls-13" cx="1457.09" cy="772.77" rx="18.57" ry="39.1" transform="translate(12.9 1569.37) rotate(-56.82)"/><rect class="cls-14" x="876.79" y="342.68" width="150.54" height="84.55" rx="6.27" ry="6.27" transform="translate(182.82 1065.31) rotate(-63.51)"/><path class="cls-21" d="M947.71,455.73,898.22,431a5.76,5.76,0,0,1-2.26-7.77L947.59,319.5a5.74,5.74,0,0,1,7.56-2.87l49.49,24.71a5.76,5.76,0,0,1,2.26,7.77L955.27,452.86A5.74,5.74,0,0,1,947.71,455.73Z"/><path class="cls-16" d="M962.19,366.87c-8.89-4.43-15.16-9.91-14-12.24l-23.64,47.44c-1.16,2.33,5.11,7.8,14,12.24s17,6.14,18.2,3.82l23.64-47.44C979.23,373,971.08,371.31,962.19,366.87Z"/><ellipse class="cls-17" cx="964.29" cy="362.66" rx="4.7" ry="17.99" transform="translate(209.54 1063.9) rotate(-63.51)"/><path class="cls-17" d="M965.81,359.6c-2.26-1.13-3.86-2.52-3.56-3.11l-1.53,3.07c-.29.59,1.3,2,3.56,3.11s4.33,1.56,4.63,1l1.53-3.07C970.15,361.16,968.08,360.73,965.81,359.6Z"/><ellipse class="cls-17" cx="966.35" cy="358.53" rx="1.2" ry="4.58" transform="translate(214.38 1063.45) rotate(-63.51)"/><g class="cls-22"><path d="M959.26,392.24l-.2-1.75-1-8.34-.12-1c-.06-.35,0-.7-.08-1a9.73,9.73,0,0,0-.31-1l-.35-1c-.23-.68-.49-1.35-.74-2s-.52-1.35-.8-2c-.12.72-.23,1.44-.32,2.15s-.18,1.43-.25,2.14l-.1,1.07a9.69,9.69,0,0,0-.07,1.06c0,.35.14.69.16,1l.12,1,.77,6.59-12.62-1-2.17-.17.68,2.07,2.95,8.93.37,1.12a4.31,4.31,0,0,0,.39,1.11l1.15,2.1c.38.7.79,1.39,1.18,2.08s.81,1.38,1.24,2.07c-.07-.8-.14-1.6-.24-2.4s-.18-1.59-.29-2.38l-.32-2.37a4.3,4.3,0,0,0-.35-1.12l-.37-1.12-2.26-6.86,12.21,1Z"/></g><path class="cls-1" d="M962.19,366.87c-8.89-4.43-15.16-9.91-14-12.24l-23.64,47.44c-1.16,2.33,5.11,7.8,14,12.24s17,6.14,18.2,3.82l23.64-47.44C979.23,373,971.08,371.31,962.19,366.87Z"/><line class="cls-1" x1="975.78" y1="322.06" x2="989.92" y2="328.87"/><rect class="cls-2" x="1700" width="850" height="850"/><path class="cls-3" d="M2018.08,459.43s-69.31,61-182.93-5.53l15.8-30.59s37.59,14.78,80,15.62,97.42-27.27,97.42-27.27Z"/><ellipse class="cls-4" cx="1823.21" cy="427.94" rx="28.2" ry="37.7" transform="translate(1019.78 2119.61) rotate(-77.8)"/><path class="cls-5" d="M2020.7,591.5l-64.51,86.72,116.31,59,17.16-30.61s-29.87,1.09-41.6-22.37,17.1-92.74,17.1-92.74Z"/><path class="cls-6" d="M2267.26,550.89s119,48.87,115.09,127.06-72,93.83-72,93.83l-24.64-17.59L2310.37,676l-82.45-115.34Z"/><polygon class="cls-7" points="1967.92 416.94 1932.73 623.17 2417.54 565.02 2275.21 368.07 1967.92 416.94"/><path class="cls-4" d="M1947.4,536.25s60.16-66.49,60.16-120.25c0-2.24-.2-6.27-.2-6.27L1967.92,416Z"/><path class="cls-4" d="M2352.25,473.73s-86.24-36.61-111.1-84.28c-1-2-7.41-15.73-7.41-15.73l41.47-6.6Z"/><path class="cls-4" d="M2265.78,330.42l141.6,27.85,60.94-98.64,43,11.26s-7.61,121-42.65,140-204.94,12.2-204.94,12.2Z"/><ellipse class="cls-4" cx="2495.23" cy="246.8" rx="28.6" ry="32.26" transform="translate(279.33 1420.2) rotate(-33.55)"/><path class="cls-4" d="M1907.31,276.87c0,31.38-39,92.09-3.91,115.67,53.3,35.79,96.14,59,193.77,59,30.36,0,52.7,17.05,74.53,17.45,94.64,1.71,118.76-16.22,118.76-80.41,0-9.87,0-33.09-46.92-80.08s-4.68-143-146.38-143C1935.23,165.51,1907.31,197.87,1907.31,276.87Z"/><circle class="cls-8" cx="1973.95" cy="276.87" r="25.03"/><circle class="cls-8" cx="2056.05" cy="276.87" r="25.03"/><path class="cls-9" d="M1999,276.87s1.19-10.42,12.92-10.42S2031,276.87,2031,276.87"/><path class="cls-9" d="M2081.08,276.87s206.46-114,271-61.24"/><ellipse class="cls-10" cx="2013.86" cy="340.74" rx="104.58" ry="56.69"/><circle class="cls-23" cx="2171.71" cy="408.67" r="31.19"/><path class="cls-9" d="M1984.1,202.64s78.62-101.6,145.09-38.7"/><path class="cls-9" d="M1984.1,179.18s78.62-101.6,145.09-38.7"/><polygon class="cls-12" points="1952.5 202.68 1751.18 95.4 1717.74 202.68 1952.5 238.44 1952.5 202.68"/><polygon class="cls-12" points="2078.5 198.34 2323.91 51.08 2308.54 215.57 2078.5 234.1 2078.5 198.34"/><ellipse class="cls-13" cx="2066.64" cy="737.57" rx="39.1" ry="18.57" transform="translate(94.32 1699.34) rotate(-45.64)"/><ellipse class="cls-13" cx="2307.09" cy="772.77" rx="18.57" ry="39.1" transform="translate(397.71 2280.79) rotate(-56.82)"/><rect class="cls-14" x="1719.57" y="396.18" width="150.54" height="84.55" rx="6.27" ry="6.27" transform="translate(1139.79 2166.05) rotate(-82.96)"/><path class="cls-24" d="M1814.31,506.63l-54.89-6.82a5.76,5.76,0,0,1-4.72-6.58l14.13-115A5.74,5.74,0,0,1,1775,373l54.89,6.82a5.76,5.76,0,0,1,4.72,6.58l-14.13,115A5.74,5.74,0,0,1,1814.31,506.63Z"/><path class="cls-16" d="M1798.36,418c-9.86-1.22-17.6-4.29-17.28-6.87l-6.49,52.6c-.32,2.58,7.42,5.66,17.28,6.87s18.12.11,18.43-2.46l6.49-52.6C1816.47,418.15,1808.22,419.25,1798.36,418Z"/><ellipse class="cls-17" cx="1798.93" cy="413.36" rx="4.7" ry="17.99" transform="translate(1168.28 2148.1) rotate(-82.96)"/><path class="cls-17" d="M1799.35,410c-2.51-.31-4.48-1.09-4.39-1.75l-.42,3.4c-.08.66,1.89,1.44,4.39,1.75s4.61,0,4.69-.63l.42-3.4C1804,410,1801.86,410.27,1799.35,410Z"/><ellipse class="cls-17" cx="1799.5" cy="408.78" rx="1.2" ry="4.58" transform="translate(1173.33 2144.64) rotate(-82.96)"/><g class="cls-25"><path d="M1804,442.92l-.78-1.58-3.7-7.54-.46-.94c-.17-.31-.27-.65-.43-1a9.73,9.73,0,0,0-.64-.86l-.67-.84c-.44-.56-.91-1.11-1.37-1.66s-.94-1.1-1.43-1.64c.13.72.26,1.43.42,2.13s.3,1.41.48,2.1l.26,1a9.69,9.69,0,0,0,.29,1c.15.32.36.6.5.93l.46.94,2.92,6-12.23,3.28-2.1.56,1.33,1.72,5.75,7.44.72.93a4.31,4.31,0,0,0,.74.92l1.78,1.59c.59.54,1.21,1,1.81,1.57s1.23,1,1.85,1.54c-.33-.73-.67-1.46-1-2.18s-.7-1.44-1.07-2.15l-1.09-2.12a4.3,4.3,0,0,0-.7-.94l-.72-.93-4.42-5.71,11.83-3.17Z"/></g><path class="cls-1" d="M1798.36,418c-9.86-1.22-17.6-4.29-17.28-6.87l-6.49,52.6c-.32,2.58,7.42,5.66,17.28,6.87s18.12.11,18.43-2.46l6.49-52.6C1816.47,418.15,1808.22,419.25,1798.36,418Z"/><line class="cls-1" x1="1796.24" y1="371.24" x2="1811.84" y2="372.96"/><rect class="cls-2" x="2550" width="850" height="850"/><path class="cls-3" d="M2855.57,479.1s-85.68,34.45-170.64-66.15L2710,389.37s30.52,26.45,70.26,41.39,100.94,6.74,100.94,6.74Z"/><ellipse class="cls-4" cx="2682.32" cy="384.5" rx="28.2" ry="37.7" transform="translate(947.46 2466.07) rotate(-58.35)"/><path class="cls-5" d="M2870.7,591.5l-64.51,86.72,116.31,59,17.16-30.61s-29.87,1.09-41.6-22.37,17.1-92.74,17.1-92.74Z"/><path class="cls-6" d="M3117.26,550.89s119,48.87,115.09,127.06-72,93.83-72,93.83l-24.64-17.59L3160.37,676l-82.45-115.34Z"/><polygon class="cls-7" points="2812.41 421.46 2793.54 629.82 3272.28 533.76 3114.92 348.6 2812.41 421.46"/><path class="cls-4" d="M2801.33,542s54.75-71,50.53-124.6c-.18-2.24-.69-6.24-.69-6.24l-38.83,9.35Z"/><path class="cls-4" d="M3200,447.88s-88.85-29.73-117.38-75.29c-1.19-1.9-8.62-15.1-8.62-15.1l40.82-9.83Z"/><path class="cls-4" d="M3104.22,317h144.32l40.76-108.54,44.37,2.75s15.89,120.22-14.82,145.64-198.73,51.52-198.73,51.52Z"/><ellipse class="cls-4" cx="3313.22" cy="190.71" rx="28.6" ry="32.26" transform="translate(823.19 2384.69) rotate(-44.68)"/><path class="cls-4" d="M2757.31,276.87c0,31.38-39,92.09-3.91,115.67,53.3,35.79,96.14,59,193.77,59,30.36,0,52.7,17.05,74.53,17.45,94.64,1.71,118.76-16.22,118.76-80.41,0-9.87,0-33.09-46.92-80.08s-4.68-143-146.38-143C2785.23,165.51,2757.31,197.87,2757.31,276.87Z"/><circle class="cls-23" cx="3021.71" cy="408.67" r="31.19"/><path class="cls-9" d="M2849,276.87s1.19-10.42,12.92-10.42S2881,276.87,2881,276.87"/><path class="cls-9" d="M2931.08,276.87s206.46-114,271-61.24"/><circle class="cls-19" cx="2815.8" cy="276.87" r="30"/><circle class="cls-19" cx="2914.2" cy="276.87" r="30"/><ellipse class="cls-10" cx="2863.86" cy="340.74" rx="104.58" ry="56.69"/><path class="cls-9" d="M2834.1,202.64s78.62-101.6,145.09-38.7"/><path class="cls-9" d="M2834.1,179.18s78.62-101.6,145.09-38.7"/><polygon class="cls-12" points="2802.5 202.68 2601.18 95.4 2567.74 202.68 2802.5 238.44 2802.5 202.68"/><polygon class="cls-20" points="2936.22 184.67 3114 12.67 3133.25 154.16 2943.21 214.78 2936.22 184.67"/><ellipse class="cls-13" cx="2916.64" cy="737.57" rx="39.1" ry="18.57" transform="translate(350 2307.02) rotate(-45.64)"/><ellipse class="cls-13" cx="3157.09" cy="772.77" rx="18.57" ry="39.1" transform="translate(782.53 2992.2) rotate(-56.82)"/><rect class="cls-14" x="2576.79" y="342.68" width="150.54" height="84.55" rx="6.27" ry="6.27" transform="translate(1124.45 2586.78) rotate(-63.51)"/><path class="cls-26" d="M2647.71,455.73,2598.22,431a5.76,5.76,0,0,1-2.26-7.77l51.63-103.75a5.74,5.74,0,0,1,7.56-2.87l49.49,24.71a5.76,5.76,0,0,1,2.26,7.77l-51.63,103.75A5.74,5.74,0,0,1,2647.71,455.73Z"/><path class="cls-16" d="M2662.19,366.87c-8.89-4.43-15.16-9.91-14-12.24l-23.64,47.44c-1.16,2.33,5.11,7.8,14,12.24s17,6.14,18.2,3.82l23.64-47.44C2679.23,373,2671.08,371.31,2662.19,366.87Z"/><ellipse class="cls-17" cx="2664.29" cy="362.66" rx="4.7" ry="17.99" transform="translate(1151.17 2585.37) rotate(-63.51)"/><path class="cls-17" d="M2665.81,359.6c-2.26-1.13-3.86-2.52-3.56-3.11l-1.53,3.07c-.29.59,1.3,2,3.56,3.11s4.33,1.56,4.63,1l1.53-3.07C2670.15,361.16,2668.08,360.73,2665.81,359.6Z"/><ellipse class="cls-17" cx="2666.35" cy="358.53" rx="1.2" ry="4.58" transform="translate(1156.01 2584.92) rotate(-63.51)"/><g class="cls-27"><path d="M2659.26,392.24l-.2-1.75-1-8.34-.12-1c-.06-.35,0-.7-.08-1a9.73,9.73,0,0,0-.31-1l-.35-1c-.23-.68-.49-1.35-.74-2s-.52-1.35-.8-2c-.12.72-.23,1.44-.32,2.15s-.18,1.43-.25,2.14l-.1,1.07a9.69,9.69,0,0,0-.07,1.06c0,.35.14.69.16,1l.12,1,.77,6.59-12.62-1-2.17-.17.68,2.07,2.95,8.93.37,1.12a4.31,4.31,0,0,0,.39,1.11l1.15,2.1c.38.7.79,1.39,1.18,2.08s.81,1.38,1.24,2.07c-.07-.8-.14-1.6-.24-2.4s-.18-1.59-.29-2.38l-.32-2.37a4.3,4.3,0,0,0-.35-1.12l-.37-1.12-2.26-6.86,12.21,1Z"/></g><path class="cls-1" d="M2662.19,366.87c-8.89-4.43-15.16-9.91-14-12.24l-23.64,47.44c-1.16,2.33,5.11,7.8,14,12.24s17,6.14,18.2,3.82l23.64-47.44C2679.23,373,2671.08,371.31,2662.19,366.87Z"/><line class="cls-1" x1="2675.78" y1="322.06" x2="2689.92" y2="328.87"/></svg>